<?xml version="1.0" encoding="utf-8" standalone="no"?>
<!DOCTYPE svg PUBLIC "-//W3C//DTD SVG 1.1//EN"
  "http://www.w3.org/Graphics/SVG/1.1/DTD/svg11.dtd">
<!-- Created with matplotlib (https://matplotlib.org/) -->
<svg height="432pt" version="1.1" viewBox="0 0 576 432" width="576pt" xmlns="http://www.w3.org/2000/svg" xmlns:xlink="http://www.w3.org/1999/xlink">
 <metadata>
  <rdf:RDF xmlns:cc="http://creativecommons.org/ns#" xmlns:dc="http://purl.org/dc/elements/1.1/" xmlns:rdf="http://www.w3.org/1999/02/22-rdf-syntax-ns#">
   <cc:Work>
    <dc:type rdf:resource="http://purl.org/dc/dcmitype/StillImage"/>
    <dc:date>2022-07-01T12:34:20.136295</dc:date>
    <dc:format>image/svg+xml</dc:format>
    <dc:creator>
     <cc:Agent>
      <dc:title>Matplotlib v3.3.4, https://matplotlib.org/</dc:title>
     </cc:Agent>
    </dc:creator>
   </cc:Work>
  </rdf:RDF>
 </metadata>
 <defs>
  <style type="text/css">*{stroke-linecap:butt;stroke-linejoin:round;}</style>
 </defs>
 <g id="figure_1">
  <g id="patch_1">
   <path d="M 0 432 
L 576 432 
L 576 0 
L 0 0 
z
" style="fill:none;"/>
  </g>
  <g id="axes_1">
   <g id="patch_2">
    <path d="M 51.95 83.55 
L 557.26875 83.55 
L 557.26875 14.4 
L 51.95 14.4 
z
" style="fill:none;"/>
   </g>
   <g id="PathCollection_1">
    <defs>
     <path d="M 0 3 
C 0.795609 3 1.55874 2.683901 2.12132 2.12132 
C 2.683901 1.55874 3 0.795609 3 0 
C 3 -0.795609 2.683901 -1.55874 2.12132 -2.12132 
C 1.55874 -2.683901 0.795609 -3 0 -3 
C -0.795609 -3 -1.55874 -2.683901 -2.12132 -2.12132 
C -2.683901 -1.55874 -3 -0.795609 -3 0 
C -3 0.795609 -2.683901 1.55874 -2.12132 2.12132 
C -1.55874 2.683901 -0.795609 3 0 3 
z
" id="m51e117b73b" style="stroke:#000000;"/>
    </defs>
    <g clip-path="url(#pc47f227dab)">
     <use style="stroke:#000000;" x="220.542747" xlink:href="#m51e117b73b" y="210.76748"/>
    </g>
   </g>
   <g id="PathCollection_2">
    <g clip-path="url(#pc47f227dab)">
     <use style="stroke:#000000;" x="66.60776" xlink:href="#m51e117b73b" y="366.642335"/>
    </g>
   </g>
   <g id="PathCollection_3">
    <g clip-path="url(#pc47f227dab)">
     <use style="stroke:#000000;" x="83.707471" xlink:href="#m51e117b73b" y="404.794225"/>
    </g>
   </g>
   <g id="PathCollection_4">
    <g clip-path="url(#pc47f227dab)"/>
   </g>
   <g id="PathCollection_5">
    <g clip-path="url(#pc47f227dab)">
     <use style="stroke:#000000;" x="81.044998" xlink:href="#m51e117b73b" y="63.672191"/>
    </g>
   </g>
   <g id="PathCollection_6">
    <g clip-path="url(#pc47f227dab)"/>
   </g>
   <g id="PathCollection_7">
    <g clip-path="url(#pc47f227dab)">
     <use style="stroke:#000000;" x="65.330488" xlink:href="#m51e117b73b" y="187.615406"/>
    </g>
   </g>
   <g id="PathCollection_8">
    <g clip-path="url(#pc47f227dab)">
     <use style="stroke:#000000;" x="55.668182" xlink:href="#m51e117b73b" y="164.910696"/>
    </g>
   </g>
   <g id="PathCollection_9">
    <g clip-path="url(#pc47f227dab)">
     <use style="stroke:#000000;" x="219.054659" xlink:href="#m51e117b73b" y="187.797003"/>
    </g>
   </g>
   <g id="PathCollection_10">
    <g clip-path="url(#pc47f227dab)">
     <use style="stroke:#000000;" x="834.14242" xlink:href="#m51e117b73b" y="188.86916"/>
    </g>
   </g>
   <g id="PathCollection_11">
    <g clip-path="url(#pc47f227dab)">
     <use style="stroke:#000000;" x="958.754043" xlink:href="#m51e117b73b" y="189.34259"/>
    </g>
   </g>
   <g id="PathCollection_12">
    <g clip-path="url(#pc47f227dab)">
     <use style="stroke:#000000;" x="206.329154" xlink:href="#m51e117b73b" y="64.49833"/>
    </g>
   </g>
   <g id="PathCollection_13">
    <g clip-path="url(#pc47f227dab)">
     <use style="stroke:#000000;" x="147.093549" xlink:href="#m51e117b73b" y="25.538997"/>
    </g>
   </g>
   <g id="PathCollection_14">
    <g clip-path="url(#pc47f227dab)">
     <use style="stroke:#000000;" x="963.796821" xlink:href="#m51e117b73b" y="213.283948"/>
    </g>
   </g>
   <g id="PathCollection_15">
    <g clip-path="url(#pc47f227dab)"/>
   </g>
   <g id="PathCollection_16">
    <g clip-path="url(#pc47f227dab)">
     <use style="stroke:#000000;" x="238.159913" xlink:href="#m51e117b73b" y="266.848912"/>
    </g>
   </g>
   <g id="PathCollection_17">
    <g clip-path="url(#pc47f227dab)">
     <use style="stroke:#000000;" x="602.980643" xlink:href="#m51e117b73b" y="218.04483"/>
    </g>
   </g>
   <g id="PathCollection_18">
    <g clip-path="url(#pc47f227dab)">
     <use style="stroke:#000000;" x="598.452217" xlink:href="#m51e117b73b" y="267.575432"/>
    </g>
   </g>
   <g id="PathCollection_19">
    <g clip-path="url(#pc47f227dab)">
     <use style="stroke:#000000;" x="631.04528" xlink:href="#m51e117b73b" y="219.256875"/>
    </g>
   </g>
   <g id="PathCollection_20">
    <g clip-path="url(#pc47f227dab)">
     <use style="stroke:#000000;" x="559.037358" xlink:href="#m51e117b73b" y="245.360997"/>
    </g>
   </g>
   <g id="PathCollection_21">
    <g clip-path="url(#pc47f227dab)">
     <use style="stroke:#000000;" x="512.295374" xlink:href="#m51e117b73b" y="282.615565"/>
    </g>
   </g>
   <g id="PathCollection_22">
    <g clip-path="url(#pc47f227dab)">
     <use style="stroke:#000000;" x="670.712794" xlink:href="#m51e117b73b" y="258.413059"/>
    </g>
   </g>
   <g id="PathCollection_23">
    <defs>
     <path d="M 0 3 
C 0.795609 3 1.55874 2.683901 2.12132 2.12132 
C 2.683901 1.55874 3 0.795609 3 0 
C 3 -0.795609 2.683901 -1.55874 2.12132 -2.12132 
C 1.55874 -2.683901 0.795609 -3 0 -3 
C -0.795609 -3 -1.55874 -2.683901 -2.12132 -2.12132 
C -2.683901 -1.55874 -3 -0.795609 -3 0 
C -3 0.795609 -2.683901 1.55874 -2.12132 2.12132 
C -1.55874 2.683901 -0.795609 3 0 3 
z
" id="ma243157428" style="stroke:#ff0000;"/>
    </defs>
    <g clip-path="url(#pc47f227dab)">
     <use style="fill:#ff0000;stroke:#ff0000;" x="147.791472" xlink:href="#ma243157428" y="25.777764"/>
    </g>
   </g>
   <g id="PathCollection_24">
    <g clip-path="url(#pc47f227dab)">
     <use style="fill:#ff0000;stroke:#ff0000;" x="957.212191" xlink:href="#ma243157428" y="211.031275"/>
    </g>
   </g>
   <g id="PathCollection_25">
    <g clip-path="url(#pc47f227dab)"/>
   </g>
   <g id="PathCollection_26">
    <g clip-path="url(#pc47f227dab)">
     <use style="fill:#ff0000;stroke:#ff0000;" x="561.32124" xlink:href="#ma243157428" y="246.142338"/>
    </g>
   </g>
   <g id="PathCollection_27">
    <g clip-path="url(#pc47f227dab)">
     <use style="fill:#ff0000;stroke:#ff0000;" x="517.872944" xlink:href="#ma243157428" y="284.523712"/>
    </g>
   </g>
   <g id="PathCollection_28">
    <g clip-path="url(#pc47f227dab)">
     <use style="fill:#ff0000;stroke:#ff0000;" x="679.998342" xlink:href="#ma243157428" y="261.589745"/>
    </g>
   </g>
   <g id="PathCollection_29">
    <g clip-path="url(#pc47f227dab)">
     <use style="fill:#ff0000;stroke:#ff0000;" x="220.486585" xlink:href="#ma243157428" y="210.748266"/>
    </g>
   </g>
   <g id="PathCollection_30">
    <g clip-path="url(#pc47f227dab)">
     <use style="fill:#ff0000;stroke:#ff0000;" x="63.300311" xlink:href="#ma243157428" y="365.510821"/>
    </g>
   </g>
   <g id="PathCollection_31">
    <g clip-path="url(#pc47f227dab)">
     <use style="fill:#ff0000;stroke:#ff0000;" x="79.550462" xlink:href="#ma243157428" y="403.372067"/>
    </g>
   </g>
   <g id="PathCollection_32">
    <g clip-path="url(#pc47f227dab)"/>
   </g>
   <g id="PathCollection_33">
    <g clip-path="url(#pc47f227dab)">
     <use style="fill:#ff0000;stroke:#ff0000;" x="81.534007" xlink:href="#ma243157428" y="63.839486"/>
    </g>
   </g>
   <g id="PathCollection_34">
    <g clip-path="url(#pc47f227dab)"/>
   </g>
   <g id="PathCollection_35">
    <g clip-path="url(#pc47f227dab)">
     <use style="fill:#ff0000;stroke:#ff0000;" x="68.503072" xlink:href="#ma243157428" y="188.700782"/>
    </g>
   </g>
   <g id="PathCollection_36">
    <g clip-path="url(#pc47f227dab)">
     <use style="fill:#ff0000;stroke:#ff0000;" x="55.146043" xlink:href="#ma243157428" y="164.732066"/>
    </g>
   </g>
   <g id="PathCollection_37">
    <g clip-path="url(#pc47f227dab)">
     <use style="fill:#ff0000;stroke:#ff0000;" x="218.27021" xlink:href="#ma243157428" y="187.528635"/>
    </g>
   </g>
   <g id="PathCollection_38">
    <g clip-path="url(#pc47f227dab)">
     <use style="fill:#ff0000;stroke:#ff0000;" x="838.587235" xlink:href="#ma243157428" y="190.389779"/>
    </g>
   </g>
   <g id="PathCollection_39">
    <g clip-path="url(#pc47f227dab)">
     <use style="fill:#ff0000;stroke:#ff0000;" x="965.459631" xlink:href="#ma243157428" y="191.636644"/>
    </g>
   </g>
   <g id="PathCollection_40">
    <g clip-path="url(#pc47f227dab)">
     <use style="fill:#ff0000;stroke:#ff0000;" x="205.911084" xlink:href="#ma243157428" y="64.355304"/>
    </g>
   </g>
   <g id="matplotlib.axis_1">
    <g id="xtick_1">
     <g id="line2d_1">
      <defs>
       <path d="M 0 0 
L 0 3.5 
" id="mbd52d7869d" style="stroke:#000000;stroke-width:0.8;"/>
      </defs>
      <g>
       <use style="stroke:#000000;stroke-width:0.8;" x="77.215938" xlink:href="#mbd52d7869d" y="83.55"/>
      </g>
     </g>
     <g id="text_1">
      <!-- −60 -->
      <g transform="translate(66.663594 98.148438)scale(0.1 -0.1)">
       <defs>
        <path d="M 10.59375 35.5 
L 73.1875 35.5 
L 73.1875 27.203125 
L 10.59375 27.203125 
z
" id="DejaVuSans-8722"/>
        <path d="M 33.015625 40.375 
Q 26.375 40.375 22.484375 35.828125 
Q 18.609375 31.296875 18.609375 23.390625 
Q 18.609375 15.53125 22.484375 10.953125 
Q 26.375 6.390625 33.015625 6.390625 
Q 39.65625 6.390625 43.53125 10.953125 
Q 47.40625 15.53125 47.40625 23.390625 
Q 47.40625 31.296875 43.53125 35.828125 
Q 39.65625 40.375 33.015625 40.375 
z
M 52.59375 71.296875 
L 52.59375 62.3125 
Q 48.875 64.0625 45.09375 64.984375 
Q 41.3125 65.921875 37.59375 65.921875 
Q 27.828125 65.921875 22.671875 59.328125 
Q 17.53125 52.734375 16.796875 39.40625 
Q 19.671875 43.65625 24.015625 45.921875 
Q 28.375 48.1875 33.59375 48.1875 
Q 44.578125 48.1875 50.953125 41.515625 
Q 57.328125 34.859375 57.328125 23.390625 
Q 57.328125 12.15625 50.6875 5.359375 
Q 44.046875 -1.421875 33.015625 -1.421875 
Q 20.359375 -1.421875 13.671875 8.265625 
Q 6.984375 17.96875 6.984375 36.375 
Q 6.984375 53.65625 15.1875 63.9375 
Q 23.390625 74.21875 37.203125 74.21875 
Q 40.921875 74.21875 44.703125 73.484375 
Q 48.484375 72.75 52.59375 71.296875 
z
" id="DejaVuSans-54"/>
        <path d="M 31.78125 66.40625 
Q 24.171875 66.40625 20.328125 58.90625 
Q 16.5 51.421875 16.5 36.375 
Q 16.5 21.390625 20.328125 13.890625 
Q 24.171875 6.390625 31.78125 6.390625 
Q 39.453125 6.390625 43.28125 13.890625 
Q 47.125 21.390625 47.125 36.375 
Q 47.125 51.421875 43.28125 58.90625 
Q 39.453125 66.40625 31.78125 66.40625 
z
M 31.78125 74.21875 
Q 44.046875 74.21875 50.515625 64.515625 
Q 56.984375 54.828125 56.984375 36.375 
Q 56.984375 17.96875 50.515625 8.265625 
Q 44.046875 -1.421875 31.78125 -1.421875 
Q 19.53125 -1.421875 13.0625 8.265625 
Q 6.59375 17.96875 6.59375 36.375 
Q 6.59375 54.828125 13.0625 64.515625 
Q 19.53125 74.21875 31.78125 74.21875 
z
" id="DejaVuSans-48"/>
       </defs>
       <use xlink:href="#DejaVuSans-8722"/>
       <use x="83.789062" xlink:href="#DejaVuSans-54"/>
       <use x="147.412109" xlink:href="#DejaVuSans-48"/>
      </g>
     </g>
    </g>
    <g id="xtick_2">
     <g id="line2d_2">
      <g>
       <use style="stroke:#000000;stroke-width:0.8;" x="178.279688" xlink:href="#mbd52d7869d" y="83.55"/>
      </g>
     </g>
     <g id="text_2">
      <!-- −40 -->
      <g transform="translate(167.727344 98.148438)scale(0.1 -0.1)">
       <defs>
        <path d="M 37.796875 64.3125 
L 12.890625 25.390625 
L 37.796875 25.390625 
z
M 35.203125 72.90625 
L 47.609375 72.90625 
L 47.609375 25.390625 
L 58.015625 25.390625 
L 58.015625 17.1875 
L 47.609375 17.1875 
L 47.609375 0 
L 37.796875 0 
L 37.796875 17.1875 
L 4.890625 17.1875 
L 4.890625 26.703125 
z
" id="DejaVuSans-52"/>
       </defs>
       <use xlink:href="#DejaVuSans-8722"/>
       <use x="83.789062" xlink:href="#DejaVuSans-52"/>
       <use x="147.412109" xlink:href="#DejaVuSans-48"/>
      </g>
     </g>
    </g>
    <g id="xtick_3">
     <g id="line2d_3">
      <g>
       <use style="stroke:#000000;stroke-width:0.8;" x="279.343438" xlink:href="#mbd52d7869d" y="83.55"/>
      </g>
     </g>
     <g id="text_3">
      <!-- −20 -->
      <g transform="translate(268.791094 98.148438)scale(0.1 -0.1)">
       <defs>
        <path d="M 19.1875 8.296875 
L 53.609375 8.296875 
L 53.609375 0 
L 7.328125 0 
L 7.328125 8.296875 
Q 12.9375 14.109375 22.625 23.890625 
Q 32.328125 33.6875 34.8125 36.53125 
Q 39.546875 41.84375 41.421875 45.53125 
Q 43.3125 49.21875 43.3125 52.78125 
Q 43.3125 58.59375 39.234375 62.25 
Q 35.15625 65.921875 28.609375 65.921875 
Q 23.96875 65.921875 18.8125 64.3125 
Q 13.671875 62.703125 7.8125 59.421875 
L 7.8125 69.390625 
Q 13.765625 71.78125 18.9375 73 
Q 24.125 74.21875 28.421875 74.21875 
Q 39.75 74.21875 46.484375 68.546875 
Q 53.21875 62.890625 53.21875 53.421875 
Q 53.21875 48.921875 51.53125 44.890625 
Q 49.859375 40.875 45.40625 35.40625 
Q 44.1875 33.984375 37.640625 27.21875 
Q 31.109375 20.453125 19.1875 8.296875 
z
" id="DejaVuSans-50"/>
       </defs>
       <use xlink:href="#DejaVuSans-8722"/>
       <use x="83.789062" xlink:href="#DejaVuSans-50"/>
       <use x="147.412109" xlink:href="#DejaVuSans-48"/>
      </g>
     </g>
    </g>
    <g id="xtick_4">
     <g id="line2d_4">
      <g>
       <use style="stroke:#000000;stroke-width:0.8;" x="380.407188" xlink:href="#mbd52d7869d" y="83.55"/>
      </g>
     </g>
     <g id="text_4">
      <!-- 0 -->
      <g transform="translate(377.225938 98.148438)scale(0.1 -0.1)">
       <use xlink:href="#DejaVuSans-48"/>
      </g>
     </g>
    </g>
    <g id="xtick_5">
     <g id="line2d_5">
      <g>
       <use style="stroke:#000000;stroke-width:0.8;" x="481.470938" xlink:href="#mbd52d7869d" y="83.55"/>
      </g>
     </g>
     <g id="text_5">
      <!-- 20 -->
      <g transform="translate(475.108438 98.148438)scale(0.1 -0.1)">
       <use xlink:href="#DejaVuSans-50"/>
       <use x="63.623047" xlink:href="#DejaVuSans-48"/>
      </g>
     </g>
    </g>
    <g id="text_6">
     <!-- Longitude -->
     <g transform="translate(279.739844 111.826563)scale(0.1 -0.1)">
      <defs>
       <path d="M 9.8125 72.90625 
L 19.671875 72.90625 
L 19.671875 8.296875 
L 55.171875 8.296875 
L 55.171875 0 
L 9.8125 0 
z
" id="DejaVuSans-76"/>
       <path d="M 30.609375 48.390625 
Q 23.390625 48.390625 19.1875 42.75 
Q 14.984375 37.109375 14.984375 27.296875 
Q 14.984375 17.484375 19.15625 11.84375 
Q 23.34375 6.203125 30.609375 6.203125 
Q 37.796875 6.203125 41.984375 11.859375 
Q 46.1875 17.53125 46.1875 27.296875 
Q 46.1875 37.015625 41.984375 42.703125 
Q 37.796875 48.390625 30.609375 48.390625 
z
M 30.609375 56 
Q 42.328125 56 49.015625 48.375 
Q 55.71875 40.765625 55.71875 27.296875 
Q 55.71875 13.875 49.015625 6.21875 
Q 42.328125 -1.421875 30.609375 -1.421875 
Q 18.84375 -1.421875 12.171875 6.21875 
Q 5.515625 13.875 5.515625 27.296875 
Q 5.515625 40.765625 12.171875 48.375 
Q 18.84375 56 30.609375 56 
z
" id="DejaVuSans-111"/>
       <path d="M 54.890625 33.015625 
L 54.890625 0 
L 45.90625 0 
L 45.90625 32.71875 
Q 45.90625 40.484375 42.875 44.328125 
Q 39.84375 48.1875 33.796875 48.1875 
Q 26.515625 48.1875 22.3125 43.546875 
Q 18.109375 38.921875 18.109375 30.90625 
L 18.109375 0 
L 9.078125 0 
L 9.078125 54.6875 
L 18.109375 54.6875 
L 18.109375 46.1875 
Q 21.34375 51.125 25.703125 53.5625 
Q 30.078125 56 35.796875 56 
Q 45.21875 56 50.046875 50.171875 
Q 54.890625 44.34375 54.890625 33.015625 
z
" id="DejaVuSans-110"/>
       <path d="M 45.40625 27.984375 
Q 45.40625 37.75 41.375 43.109375 
Q 37.359375 48.484375 30.078125 48.484375 
Q 22.859375 48.484375 18.828125 43.109375 
Q 14.796875 37.75 14.796875 27.984375 
Q 14.796875 18.265625 18.828125 12.890625 
Q 22.859375 7.515625 30.078125 7.515625 
Q 37.359375 7.515625 41.375 12.890625 
Q 45.40625 18.265625 45.40625 27.984375 
z
M 54.390625 6.78125 
Q 54.390625 -7.171875 48.1875 -13.984375 
Q 42 -20.796875 29.203125 -20.796875 
Q 24.46875 -20.796875 20.265625 -20.09375 
Q 16.0625 -19.390625 12.109375 -17.921875 
L 12.109375 -9.1875 
Q 16.0625 -11.328125 19.921875 -12.34375 
Q 23.78125 -13.375 27.78125 -13.375 
Q 36.625 -13.375 41.015625 -8.765625 
Q 45.40625 -4.15625 45.40625 5.171875 
L 45.40625 9.625 
Q 42.625 4.78125 38.28125 2.390625 
Q 33.9375 0 27.875 0 
Q 17.828125 0 11.671875 7.65625 
Q 5.515625 15.328125 5.515625 27.984375 
Q 5.515625 40.671875 11.671875 48.328125 
Q 17.828125 56 27.875 56 
Q 33.9375 56 38.28125 53.609375 
Q 42.625 51.21875 45.40625 46.390625 
L 45.40625 54.6875 
L 54.390625 54.6875 
z
" id="DejaVuSans-103"/>
       <path d="M 9.421875 54.6875 
L 18.40625 54.6875 
L 18.40625 0 
L 9.421875 0 
z
M 9.421875 75.984375 
L 18.40625 75.984375 
L 18.40625 64.59375 
L 9.421875 64.59375 
z
" id="DejaVuSans-105"/>
       <path d="M 18.3125 70.21875 
L 18.3125 54.6875 
L 36.8125 54.6875 
L 36.8125 47.703125 
L 18.3125 47.703125 
L 18.3125 18.015625 
Q 18.3125 11.328125 20.140625 9.421875 
Q 21.96875 7.515625 27.59375 7.515625 
L 36.8125 7.515625 
L 36.8125 0 
L 27.59375 0 
Q 17.1875 0 13.234375 3.875 
Q 9.28125 7.765625 9.28125 18.015625 
L 9.28125 47.703125 
L 2.6875 47.703125 
L 2.6875 54.6875 
L 9.28125 54.6875 
L 9.28125 70.21875 
z
" id="DejaVuSans-116"/>
       <path d="M 8.5 21.578125 
L 8.5 54.6875 
L 17.484375 54.6875 
L 17.484375 21.921875 
Q 17.484375 14.15625 20.5 10.265625 
Q 23.53125 6.390625 29.59375 6.390625 
Q 36.859375 6.390625 41.078125 11.03125 
Q 45.3125 15.671875 45.3125 23.6875 
L 45.3125 54.6875 
L 54.296875 54.6875 
L 54.296875 0 
L 45.3125 0 
L 45.3125 8.40625 
Q 42.046875 3.421875 37.71875 1 
Q 33.40625 -1.421875 27.6875 -1.421875 
Q 18.265625 -1.421875 13.375 4.4375 
Q 8.5 10.296875 8.5 21.578125 
z
M 31.109375 56 
z
" id="DejaVuSans-117"/>
       <path d="M 45.40625 46.390625 
L 45.40625 75.984375 
L 54.390625 75.984375 
L 54.390625 0 
L 45.40625 0 
L 45.40625 8.203125 
Q 42.578125 3.328125 38.25 0.953125 
Q 33.9375 -1.421875 27.875 -1.421875 
Q 17.96875 -1.421875 11.734375 6.484375 
Q 5.515625 14.40625 5.515625 27.296875 
Q 5.515625 40.1875 11.734375 48.09375 
Q 17.96875 56 27.875 56 
Q 33.9375 56 38.25 53.625 
Q 42.578125 51.265625 45.40625 46.390625 
z
M 14.796875 27.296875 
Q 14.796875 17.390625 18.875 11.75 
Q 22.953125 6.109375 30.078125 6.109375 
Q 37.203125 6.109375 41.296875 11.75 
Q 45.40625 17.390625 45.40625 27.296875 
Q 45.40625 37.203125 41.296875 42.84375 
Q 37.203125 48.484375 30.078125 48.484375 
Q 22.953125 48.484375 18.875 42.84375 
Q 14.796875 37.203125 14.796875 27.296875 
z
" id="DejaVuSans-100"/>
       <path d="M 56.203125 29.59375 
L 56.203125 25.203125 
L 14.890625 25.203125 
Q 15.484375 15.921875 20.484375 11.0625 
Q 25.484375 6.203125 34.421875 6.203125 
Q 39.59375 6.203125 44.453125 7.46875 
Q 49.3125 8.734375 54.109375 11.28125 
L 54.109375 2.78125 
Q 49.265625 0.734375 44.1875 -0.34375 
Q 39.109375 -1.421875 33.890625 -1.421875 
Q 20.796875 -1.421875 13.15625 6.1875 
Q 5.515625 13.8125 5.515625 26.8125 
Q 5.515625 40.234375 12.765625 48.109375 
Q 20.015625 56 32.328125 56 
Q 43.359375 56 49.78125 48.890625 
Q 56.203125 41.796875 56.203125 29.59375 
z
M 47.21875 32.234375 
Q 47.125 39.59375 43.09375 43.984375 
Q 39.0625 48.390625 32.421875 48.390625 
Q 24.90625 48.390625 20.390625 44.140625 
Q 15.875 39.890625 15.1875 32.171875 
z
" id="DejaVuSans-101"/>
      </defs>
      <use xlink:href="#DejaVuSans-76"/>
      <use x="53.962891" xlink:href="#DejaVuSans-111"/>
      <use x="115.144531" xlink:href="#DejaVuSans-110"/>
      <use x="178.523438" xlink:href="#DejaVuSans-103"/>
      <use x="242" xlink:href="#DejaVuSans-105"/>
      <use x="269.783203" xlink:href="#DejaVuSans-116"/>
      <use x="308.992188" xlink:href="#DejaVuSans-117"/>
      <use x="372.371094" xlink:href="#DejaVuSans-100"/>
      <use x="435.847656" xlink:href="#DejaVuSans-101"/>
     </g>
    </g>
   </g>
   <g id="matplotlib.axis_2">
    <g id="ytick_1">
     <g id="line2d_6">
      <defs>
       <path d="M 0 0 
L -3.5 0 
" id="m30df902df6" style="stroke:#000000;stroke-width:0.8;"/>
      </defs>
      <g>
       <use style="stroke:#000000;stroke-width:0.8;" x="51.95" xlink:href="#m30df902df6" y="14.4"/>
      </g>
     </g>
     <g id="text_7">
      <!-- −80 -->
      <g transform="translate(23.845313 18.199219)scale(0.1 -0.1)">
       <defs>
        <path d="M 31.78125 34.625 
Q 24.75 34.625 20.71875 30.859375 
Q 16.703125 27.09375 16.703125 20.515625 
Q 16.703125 13.921875 20.71875 10.15625 
Q 24.75 6.390625 31.78125 6.390625 
Q 38.8125 6.390625 42.859375 10.171875 
Q 46.921875 13.96875 46.921875 20.515625 
Q 46.921875 27.09375 42.890625 30.859375 
Q 38.875 34.625 31.78125 34.625 
z
M 21.921875 38.8125 
Q 15.578125 40.375 12.03125 44.71875 
Q 8.5 49.078125 8.5 55.328125 
Q 8.5 64.0625 14.71875 69.140625 
Q 20.953125 74.21875 31.78125 74.21875 
Q 42.671875 74.21875 48.875 69.140625 
Q 55.078125 64.0625 55.078125 55.328125 
Q 55.078125 49.078125 51.53125 44.71875 
Q 48 40.375 41.703125 38.8125 
Q 48.828125 37.15625 52.796875 32.3125 
Q 56.78125 27.484375 56.78125 20.515625 
Q 56.78125 9.90625 50.3125 4.234375 
Q 43.84375 -1.421875 31.78125 -1.421875 
Q 19.734375 -1.421875 13.25 4.234375 
Q 6.78125 9.90625 6.78125 20.515625 
Q 6.78125 27.484375 10.78125 32.3125 
Q 14.796875 37.15625 21.921875 38.8125 
z
M 18.3125 54.390625 
Q 18.3125 48.734375 21.84375 45.5625 
Q 25.390625 42.390625 31.78125 42.390625 
Q 38.140625 42.390625 41.71875 45.5625 
Q 45.3125 48.734375 45.3125 54.390625 
Q 45.3125 60.0625 41.71875 63.234375 
Q 38.140625 66.40625 31.78125 66.40625 
Q 25.390625 66.40625 21.84375 63.234375 
Q 18.3125 60.0625 18.3125 54.390625 
z
" id="DejaVuSans-56"/>
       </defs>
       <use xlink:href="#DejaVuSans-8722"/>
       <use x="83.789062" xlink:href="#DejaVuSans-56"/>
       <use x="147.412109" xlink:href="#DejaVuSans-48"/>
      </g>
     </g>
    </g>
    <g id="ytick_2">
     <g id="line2d_7">
      <g>
       <use style="stroke:#000000;stroke-width:0.8;" x="51.95" xlink:href="#m30df902df6" y="48.975"/>
      </g>
     </g>
     <g id="text_8">
      <!-- −60 -->
      <g transform="translate(23.845313 52.774219)scale(0.1 -0.1)">
       <use xlink:href="#DejaVuSans-8722"/>
       <use x="83.789062" xlink:href="#DejaVuSans-54"/>
       <use x="147.412109" xlink:href="#DejaVuSans-48"/>
      </g>
     </g>
    </g>
    <g id="ytick_3">
     <g id="line2d_8">
      <g>
       <use style="stroke:#000000;stroke-width:0.8;" x="51.95" xlink:href="#m30df902df6" y="83.55"/>
      </g>
     </g>
     <g id="text_9">
      <!-- −40 -->
      <g transform="translate(23.845313 87.349219)scale(0.1 -0.1)">
       <use xlink:href="#DejaVuSans-8722"/>
       <use x="83.789062" xlink:href="#DejaVuSans-52"/>
       <use x="147.412109" xlink:href="#DejaVuSans-48"/>
      </g>
     </g>
    </g>
    <g id="text_10">
     <!-- Latitude -->
     <g transform="translate(17.765625 69.553906)rotate(-90)scale(0.1 -0.1)">
      <defs>
       <path d="M 34.28125 27.484375 
Q 23.390625 27.484375 19.1875 25 
Q 14.984375 22.515625 14.984375 16.5 
Q 14.984375 11.71875 18.140625 8.90625 
Q 21.296875 6.109375 26.703125 6.109375 
Q 34.1875 6.109375 38.703125 11.40625 
Q 43.21875 16.703125 43.21875 25.484375 
L 43.21875 27.484375 
z
M 52.203125 31.203125 
L 52.203125 0 
L 43.21875 0 
L 43.21875 8.296875 
Q 40.140625 3.328125 35.546875 0.953125 
Q 30.953125 -1.421875 24.3125 -1.421875 
Q 15.921875 -1.421875 10.953125 3.296875 
Q 6 8.015625 6 15.921875 
Q 6 25.140625 12.171875 29.828125 
Q 18.359375 34.515625 30.609375 34.515625 
L 43.21875 34.515625 
L 43.21875 35.40625 
Q 43.21875 41.609375 39.140625 45 
Q 35.0625 48.390625 27.6875 48.390625 
Q 23 48.390625 18.546875 47.265625 
Q 14.109375 46.140625 10.015625 43.890625 
L 10.015625 52.203125 
Q 14.9375 54.109375 19.578125 55.046875 
Q 24.21875 56 28.609375 56 
Q 40.484375 56 46.34375 49.84375 
Q 52.203125 43.703125 52.203125 31.203125 
z
" id="DejaVuSans-97"/>
      </defs>
      <use xlink:href="#DejaVuSans-76"/>
      <use x="55.712891" xlink:href="#DejaVuSans-97"/>
      <use x="116.992188" xlink:href="#DejaVuSans-116"/>
      <use x="156.201172" xlink:href="#DejaVuSans-105"/>
      <use x="183.984375" xlink:href="#DejaVuSans-116"/>
      <use x="223.193359" xlink:href="#DejaVuSans-117"/>
      <use x="286.572266" xlink:href="#DejaVuSans-100"/>
      <use x="350.048828" xlink:href="#DejaVuSans-101"/>
     </g>
    </g>
   </g>
   <g id="line2d_9">
    <path clip-path="url(#pc47f227dab)" d="M 531.467392 41.370634 
L 518.38725 41.367271 
L 391.154348 41.244122 
L 388.64138 41.105212 
L 386.099492 40.747043 
L 381.349669 39.725504 
L 376.855107 38.573299 
L 366.129778 35.58125 
L 362.673655 34.955667 
L 358.95785 34.508233 
L 352.957325 34.121707 
L 348.763659 33.989458 
L 347.423611 34.07193 
L 347.19401 34.223805 
L 346.287305 34.250356 
L 325.48622 34.253165 
L 310.501813 34.484901 
L 306.917153 34.724234 
L 303.713308 35.123211 
L 300.916387 35.681291 
L 298.37441 36.386537 
L 295.986867 37.228767 
L 287.982013 40.403013 
L 285.43248 41.095874 
L 282.712891 41.628063 
L 279.832084 41.97729 
L 275.146786 42.23948 
L 268.607785 42.327855 
L 255.318677 42.123751 
L 240.686468 41.645565 
L 232.946221 41.434101 
L 205.452348 40.881416 
L 174.474434 40.56172 
L 123.061165 40.296602 
L 55.281691 39.972909 
L 51.421249 39.697622 
L 47.873161 39.231591 
L 44.660174 38.57475 
L 41.729239 37.736806 
L 29.870564 33.725553 
L 26.599979 33.003385 
L 23.192994 32.497667 
L 19.651075 32.210522 
L 15.945769 32.11643 
L 12.099939 32.213384 
L 8.201599 32.509973 
L 4.406041 33.004229 
L -1 34.019876 
L -1 34.019876 
" style="fill:none;stroke:#000000;stroke-linecap:square;stroke-width:0.5;"/>
   </g>
   <g id="line2d_10">
    <path clip-path="url(#pc47f227dab)" d="M 363.083778 43.024007 
L 363.197641 39.28415 
" style="fill:none;stroke:#ff0000;stroke-linecap:square;"/>
   </g>
   <g id="line2d_11">
    <path clip-path="url(#pc47f227dab)" d="M 363.197641 39.28415 
L 338.985195 39.197866 
" style="fill:none;stroke:#ff0000;stroke-linecap:square;"/>
   </g>
   <g id="line2d_12">
    <path clip-path="url(#pc47f227dab)" d="M 338.985195 39.197866 
L 338.871329 42.937729 
" style="fill:none;stroke:#ff0000;stroke-linecap:square;"/>
   </g>
   <g id="line2d_13">
    <path clip-path="url(#pc47f227dab)" d="M 338.871329 42.937729 
L 363.083778 43.024007 
" style="fill:none;stroke:#ff0000;stroke-linecap:square;"/>
   </g>
   <g id="line2d_14">
    <path clip-path="url(#pc47f227dab)" d="M 532.57736 41.750366 
L 529.866794 40.823052 
L 533.598673 42.099768 
L 531.138437 41.345138 
L 530.79622 41.357548 
L 530.658697 41.480975 
L 529.419827 41.261107 
L 530.484829 41.858504 
L 527.604089 41.132446 
L 528.37202 41.679577 
L 526.01687 41.182245 
L 526.355787 41.629962 
L 525.4893 41.688238 
L 525.30854 42.003754 
L 520.578239 41.207053 
L 519.915004 41.42402 
L 517.454592 41.048198 
L 516.718292 41.283858 
L 513.35649 40.642788 
L 512.821734 40.990307 
L 512.07292 41.285921 
L 508.954203 40.791981 
L 507.953401 41.043721 
L 507.199267 41.400887 
L 504.67157 41.172285 
L 504.762667 41.860443 
L 502.264176 41.683518 
L 500.412765 41.748405 
L 496.755786 41.21344 
L 490.950092 41.413814 
L 489.687657 41.702223 
L 486.487562 41.32105 
L 484.384402 41.308919 
L 482.864743 41.490903 
L 480.204892 41.278885 
L 478.215492 41.294323 
L 477.001803 41.575117 
L 473.470507 41.064662 
L 472.309223 41.367397 
L 470.731583 41.530109 
L 467.806001 41.233743 
L 466.271634 41.414718 
L 464.286897 41.442214 
L 460.803962 40.957111 
L 460.390015 41.521219 
L 457.095087 41.098776 
L 455.934505 41.405731 
L 453.939016 41.42634 
L 451.156268 41.177157 
L 448.907707 41.110594 
L 447.288761 41.259444 
L 446.249406 41.606845 
L 442.630162 41.071986 
L 441.515716 41.391721 
L 437.323516 41.320286 
L 434.983879 41.168247 
L 434.267336 41.546536 
L 431.708392 41.268783 
L 429.952502 41.239522 
L 428.915611 41.429788 
L 424.61321 40.968433 
L 423.55381 41.51103 
L 420.494058 41.265237 
L 420.256764 41.546071 
L 418.65709 41.335481 
L 417.788396 41.349935 
L 417.299149 41.469843 
L 413.427334 40.947822 
L 413.652218 41.302911 
L 410.417032 41.355812 
L 408.299919 41.192374 
L 407.820872 41.30918 
L 406.808871 41.244907 
L 406.463165 41.409662 
L 403.519998 41.251734 
L 403.091712 41.386838 
L 400.810908 41.169379 
L 398.732703 41.305424 
L 395.059 41.176933 
L 392.662783 41.20291 
L 392.290252 41.357665 
L 390.157336 41.161293 
L 389.923455 41.321828 
L 387.863846 41.038848 
L 387.196294 40.981597 
L 381.616305 39.816723 
L 374.424381 37.862902 
L 369.260176 36.323701 
L 366.160001 35.591589 
L 362.670918 34.954731 
L 360.696607 34.657438 
L 352.975285 34.127851 
L 347.470755 34.088059 
L 346.677594 34.262271 
L 345.798185 34.225408 
L 344.253566 34.254356 
L 342.80175 34.242259 
L 340.315141 34.289678 
L 338.121731 34.243623 
L 325.497778 34.257119 
L 318.221865 34.306683 
L 314.143601 34.303229 
L 312.515007 34.455127 
L 310.009494 34.316474 
L 308.96918 34.688415 
L 306.93173 34.729221 
L 301.830772 35.23161 
L 301.098995 35.743763 
L 299.598298 36.008465 
L 298.583583 36.458097 
L 295.597177 37.09545 
L 295.029615 37.754046 
L 293.728075 38.16702 
L 292.05928 39.310076 
L 290.459629 39.606584 
L 289.365095 40.062172 
L 287.96368 40.396741 
L 285.985918 40.514141 
L 285.384698 41.079527 
L 283.928677 41.327062 
L 282.834682 41.669729 
L 281.148625 41.776094 
L 280.151945 42.086718 
L 276.764643 42.176837 
L 274.491249 42.015214 
L 273.741745 42.36969 
L 271.680412 42.259762 
L 269.278289 42.009585 
L 268.464803 42.27894 
L 263.601008 42.160932 
L 262.396049 42.258256 
L 259.96996 41.928845 
L 259.3334 42.19502 
L 256.80778 42.225332 
L 254.900596 41.980721 
L 255.033665 42.410433 
L 252.796908 42.013081 
L 251.748808 42.014494 
L 251.610034 42.322668 
L 250.225631 42.202759 
L 248.230034 41.872624 
L 247.770376 42.066144 
L 246.489457 41.974645 
L 244.43153 41.611688 
L 243.696216 41.695827 
L 242.562015 41.638619 
L 242.026318 41.781579 
L 237.735497 41.28403 
L 238.37306 41.83803 
L 236.640559 41.587889 
L 233.968825 41.02827 
L 234.118248 41.448809 
L 232.616072 41.321154 
L 232.606326 41.722032 
L 228.385776 41.14292 
L 224.697181 41.32336 
L 220.782674 41.043969 
L 220.048498 41.352267 
L 217.42884 41.035236 
L 215.281544 40.905966 
L 214.66841 41.325779 
L 211.196169 40.788517 
L 206.256725 40.457845 
L 204.405666 40.523335 
L 203.721993 40.990033 
L 201.006827 40.757653 
L 199.591226 40.964151 
L 196.934358 40.740479 
L 195.36617 40.88396 
L 192.115504 40.447402 
L 189.254421 40.820698 
L 186.898984 40.692538 
L 184.997514 40.722184 
L 181.154481 40.090694 
L 178.993801 40.037755 
L 179.64436 40.949005 
L 176.723959 40.640207 
L 175.215734 40.815327 
L 172.954665 40.732911 
L 171.532021 40.93694 
L 167.428904 40.223291 
L 164.897544 40.046737 
L 163.758389 40.347171 
L 163.401894 40.915783 
L 156.697761 40.004295 
L 157.920923 41.114631 
L 154.008538 40.468654 
L 151.238025 40.213844 
L 150.032065 40.494726 
L 145.062906 39.488495 
L 144.897438 40.125823 
L 144.504351 40.685345 
L 137.794092 39.77804 
L 137.51897 40.378441 
L 130.503596 38.672988 
L 133.526267 40.401731 
L 130.965581 40.22044 
L 127.515759 39.735104 
L 126.359898 40.034676 
L 124.510139 40.09703 
L 124.089308 40.64834 
L 119.509343 39.776832 
L 119.550245 40.486219 
L 114.548387 40.166106 
L 113.571621 40.527634 
L 109.404586 39.797724 
L 109.731736 40.605395 
L 107.997489 40.707846 
L 105.854565 40.670512 
L 100.067894 39.386612 
L 96.975829 39.024605 
L 98.697297 40.309313 
L 96.241641 40.165042 
L 95.016807 40.441921 
L 93.587928 40.649014 
L 87.669169 39.320011 
L 89.35382 40.592283 
L 86.742442 40.394935 
L 83.4135 40.648075 
L 82.179368 40.921826 
L 76.418196 39.64692 
L 78.163921 40.940329 
L 71.7952 39.457706 
L 74.571567 41.103617 
L 67.577377 39.406922 
L 68.35075 40.36758 
L 64.070758 39.599408 
L 63.190615 40.00368 
L 60.310257 39.72787 
L 58.830713 39.914491 
L 57.975481 40.281339 
L 56.701861 40.458765 
L 53.389566 39.881628 
L 49.362612 38.99334 
L 48.706247 39.18308 
L 45.625783 38.462738 
L 49.920347 40.188764 
L 47.670148 39.604494 
L 38.336354 36.535467 
L 35.558078 35.502054 
L 31.702977 34.242337 
L 32.054019 34.472536 
L 25.219017 32.301436 
L 30.769653 34.429875 
L 24.755589 32.668222 
L 25.68859 33.351437 
L 20.672234 32.065695 
L 21.159579 32.726598 
L 18.440895 32.352792 
L 16.158092 32.189068 
L 15.307948 32.575364 
L 10.971425 31.827308 
L 14.81397 33.932438 
L 8.69311 32.678124 
L 6.208349 32.708302 
L 5.67637 33.438822 
L 4.182106 33.86592 
L -1 32.834206 
L -1 32.834206 
" style="fill:none;stroke:#ff0000;stroke-linecap:square;"/>
   </g>
   <g id="patch_3">
    <path d="M 51.95 83.55 
L 51.95 14.4 
" style="fill:none;stroke:#000000;stroke-linecap:square;stroke-linejoin:miter;stroke-width:0.8;"/>
   </g>
   <g id="patch_4">
    <path d="M 557.26875 83.55 
L 557.26875 14.4 
" style="fill:none;stroke:#000000;stroke-linecap:square;stroke-linejoin:miter;stroke-width:0.8;"/>
   </g>
   <g id="patch_5">
    <path d="M 51.95 83.55 
L 557.26875 83.55 
" style="fill:none;stroke:#000000;stroke-linecap:square;stroke-linejoin:miter;stroke-width:0.8;"/>
   </g>
   <g id="patch_6">
    <path d="M 51.95 14.4 
L 557.26875 14.4 
" style="fill:none;stroke:#000000;stroke-linecap:square;stroke-linejoin:miter;stroke-width:0.8;"/>
   </g>
   <g id="legend_1">
    <g id="patch_7">
     <path d="M 453.457813 78.55 
L 550.26875 78.55 
Q 552.26875 78.55 552.26875 76.55 
L 552.26875 48.19375 
Q 552.26875 46.19375 550.26875 46.19375 
L 453.457813 46.19375 
Q 451.457813 46.19375 451.457813 48.19375 
L 451.457813 76.55 
Q 451.457813 78.55 453.457813 78.55 
z
" style="fill:#ffffff;opacity:0.8;stroke:#cccccc;stroke-linejoin:miter;"/>
    </g>
    <g id="line2d_15">
     <path d="M 455.457813 54.292188 
L 475.457813 54.292188 
" style="fill:none;stroke:#000000;stroke-linecap:square;stroke-width:0.5;"/>
    </g>
    <g id="line2d_16"/>
    <g id="text_11">
     <!-- Ground-Truth -->
     <g transform="translate(483.457813 57.792188)scale(0.1 -0.1)">
      <defs>
       <path d="M 59.515625 10.40625 
L 59.515625 29.984375 
L 43.40625 29.984375 
L 43.40625 38.09375 
L 69.28125 38.09375 
L 69.28125 6.78125 
Q 63.578125 2.734375 56.6875 0.65625 
Q 49.8125 -1.421875 42 -1.421875 
Q 24.90625 -1.421875 15.25 8.5625 
Q 5.609375 18.5625 5.609375 36.375 
Q 5.609375 54.25 15.25 64.234375 
Q 24.90625 74.21875 42 74.21875 
Q 49.125 74.21875 55.546875 72.453125 
Q 61.96875 70.703125 67.390625 67.28125 
L 67.390625 56.78125 
Q 61.921875 61.421875 55.765625 63.765625 
Q 49.609375 66.109375 42.828125 66.109375 
Q 29.4375 66.109375 22.71875 58.640625 
Q 16.015625 51.171875 16.015625 36.375 
Q 16.015625 21.625 22.71875 14.15625 
Q 29.4375 6.6875 42.828125 6.6875 
Q 48.046875 6.6875 52.140625 7.59375 
Q 56.25 8.5 59.515625 10.40625 
z
" id="DejaVuSans-71"/>
       <path d="M 41.109375 46.296875 
Q 39.59375 47.171875 37.8125 47.578125 
Q 36.03125 48 33.890625 48 
Q 26.265625 48 22.1875 43.046875 
Q 18.109375 38.09375 18.109375 28.8125 
L 18.109375 0 
L 9.078125 0 
L 9.078125 54.6875 
L 18.109375 54.6875 
L 18.109375 46.1875 
Q 20.953125 51.171875 25.484375 53.578125 
Q 30.03125 56 36.53125 56 
Q 37.453125 56 38.578125 55.875 
Q 39.703125 55.765625 41.0625 55.515625 
z
" id="DejaVuSans-114"/>
       <path d="M 4.890625 31.390625 
L 31.203125 31.390625 
L 31.203125 23.390625 
L 4.890625 23.390625 
z
" id="DejaVuSans-45"/>
       <path d="M -0.296875 72.90625 
L 61.375 72.90625 
L 61.375 64.59375 
L 35.5 64.59375 
L 35.5 0 
L 25.59375 0 
L 25.59375 64.59375 
L -0.296875 64.59375 
z
" id="DejaVuSans-84"/>
       <path d="M 54.890625 33.015625 
L 54.890625 0 
L 45.90625 0 
L 45.90625 32.71875 
Q 45.90625 40.484375 42.875 44.328125 
Q 39.84375 48.1875 33.796875 48.1875 
Q 26.515625 48.1875 22.3125 43.546875 
Q 18.109375 38.921875 18.109375 30.90625 
L 18.109375 0 
L 9.078125 0 
L 9.078125 75.984375 
L 18.109375 75.984375 
L 18.109375 46.1875 
Q 21.34375 51.125 25.703125 53.5625 
Q 30.078125 56 35.796875 56 
Q 45.21875 56 50.046875 50.171875 
Q 54.890625 44.34375 54.890625 33.015625 
z
" id="DejaVuSans-104"/>
      </defs>
      <use xlink:href="#DejaVuSans-71"/>
      <use x="77.490234" xlink:href="#DejaVuSans-114"/>
      <use x="116.353516" xlink:href="#DejaVuSans-111"/>
      <use x="177.535156" xlink:href="#DejaVuSans-117"/>
      <use x="240.914062" xlink:href="#DejaVuSans-110"/>
      <use x="304.292969" xlink:href="#DejaVuSans-100"/>
      <use x="367.769531" xlink:href="#DejaVuSans-45"/>
      <use x="394.728516" xlink:href="#DejaVuSans-84"/>
      <use x="441.0625" xlink:href="#DejaVuSans-114"/>
      <use x="482.175781" xlink:href="#DejaVuSans-117"/>
      <use x="545.554688" xlink:href="#DejaVuSans-116"/>
      <use x="584.763672" xlink:href="#DejaVuSans-104"/>
     </g>
    </g>
    <g id="line2d_17">
     <path d="M 455.457813 68.970313 
L 475.457813 68.970313 
" style="fill:none;stroke:#ff0000;stroke-linecap:square;"/>
    </g>
    <g id="line2d_18"/>
    <g id="text_12">
     <!-- Sensor data -->
     <g transform="translate(483.457813 72.470313)scale(0.1 -0.1)">
      <defs>
       <path d="M 53.515625 70.515625 
L 53.515625 60.890625 
Q 47.90625 63.578125 42.921875 64.890625 
Q 37.9375 66.21875 33.296875 66.21875 
Q 25.25 66.21875 20.875 63.09375 
Q 16.5 59.96875 16.5 54.203125 
Q 16.5 49.359375 19.40625 46.890625 
Q 22.3125 44.4375 30.421875 42.921875 
L 36.375 41.703125 
Q 47.40625 39.59375 52.65625 34.296875 
Q 57.90625 29 57.90625 20.125 
Q 57.90625 9.515625 50.796875 4.046875 
Q 43.703125 -1.421875 29.984375 -1.421875 
Q 24.8125 -1.421875 18.96875 -0.25 
Q 13.140625 0.921875 6.890625 3.21875 
L 6.890625 13.375 
Q 12.890625 10.015625 18.65625 8.296875 
Q 24.421875 6.59375 29.984375 6.59375 
Q 38.421875 6.59375 43.015625 9.90625 
Q 47.609375 13.234375 47.609375 19.390625 
Q 47.609375 24.75 44.3125 27.78125 
Q 41.015625 30.8125 33.5 32.328125 
L 27.484375 33.5 
Q 16.453125 35.6875 11.515625 40.375 
Q 6.59375 45.0625 6.59375 53.421875 
Q 6.59375 63.09375 13.40625 68.65625 
Q 20.21875 74.21875 32.171875 74.21875 
Q 37.3125 74.21875 42.625 73.28125 
Q 47.953125 72.359375 53.515625 70.515625 
z
" id="DejaVuSans-83"/>
       <path d="M 44.28125 53.078125 
L 44.28125 44.578125 
Q 40.484375 46.53125 36.375 47.5 
Q 32.28125 48.484375 27.875 48.484375 
Q 21.1875 48.484375 17.84375 46.4375 
Q 14.5 44.390625 14.5 40.28125 
Q 14.5 37.15625 16.890625 35.375 
Q 19.28125 33.59375 26.515625 31.984375 
L 29.59375 31.296875 
Q 39.15625 29.25 43.1875 25.515625 
Q 47.21875 21.78125 47.21875 15.09375 
Q 47.21875 7.46875 41.1875 3.015625 
Q 35.15625 -1.421875 24.609375 -1.421875 
Q 20.21875 -1.421875 15.453125 -0.5625 
Q 10.6875 0.296875 5.421875 2 
L 5.421875 11.28125 
Q 10.40625 8.6875 15.234375 7.390625 
Q 20.0625 6.109375 24.8125 6.109375 
Q 31.15625 6.109375 34.5625 8.28125 
Q 37.984375 10.453125 37.984375 14.40625 
Q 37.984375 18.0625 35.515625 20.015625 
Q 33.0625 21.96875 24.703125 23.78125 
L 21.578125 24.515625 
Q 13.234375 26.265625 9.515625 29.90625 
Q 5.8125 33.546875 5.8125 39.890625 
Q 5.8125 47.609375 11.28125 51.796875 
Q 16.75 56 26.8125 56 
Q 31.78125 56 36.171875 55.265625 
Q 40.578125 54.546875 44.28125 53.078125 
z
" id="DejaVuSans-115"/>
       <path id="DejaVuSans-32"/>
      </defs>
      <use xlink:href="#DejaVuSans-83"/>
      <use x="63.476562" xlink:href="#DejaVuSans-101"/>
      <use x="125" xlink:href="#DejaVuSans-110"/>
      <use x="188.378906" xlink:href="#DejaVuSans-115"/>
      <use x="240.478516" xlink:href="#DejaVuSans-111"/>
      <use x="301.660156" xlink:href="#DejaVuSans-114"/>
      <use x="342.773438" xlink:href="#DejaVuSans-32"/>
      <use x="374.560547" xlink:href="#DejaVuSans-100"/>
      <use x="438.037109" xlink:href="#DejaVuSans-97"/>
      <use x="499.316406" xlink:href="#DejaVuSans-116"/>
      <use x="538.525391" xlink:href="#DejaVuSans-97"/>
     </g>
    </g>
   </g>
  </g>
  <g id="axes_2">
   <g id="patch_8">
    <path d="M 51.95 196.1 
L 557.26875 196.1 
L 557.26875 126.95 
L 51.95 126.95 
z
" style="fill:none;"/>
   </g>
   <g id="PathCollection_41">
    <g clip-path="url(#p9bbd7899d1)">
     <use style="stroke:#000000;" x="220.542747" xlink:href="#m51e117b73b" y="323.31748"/>
    </g>
   </g>
   <g id="PathCollection_42">
    <g clip-path="url(#p9bbd7899d1)">
     <use style="stroke:#000000;" x="66.60776" xlink:href="#m51e117b73b" y="479.192335"/>
    </g>
   </g>
   <g id="PathCollection_43">
    <g clip-path="url(#p9bbd7899d1)">
     <use style="stroke:#000000;" x="83.707471" xlink:href="#m51e117b73b" y="517.344225"/>
    </g>
   </g>
   <g id="PathCollection_44">
    <g clip-path="url(#p9bbd7899d1)"/>
   </g>
   <g id="PathCollection_45">
    <g clip-path="url(#p9bbd7899d1)">
     <use style="stroke:#000000;" x="81.044998" xlink:href="#m51e117b73b" y="176.222191"/>
    </g>
   </g>
   <g id="PathCollection_46">
    <g clip-path="url(#p9bbd7899d1)"/>
   </g>
   <g id="PathCollection_47">
    <g clip-path="url(#p9bbd7899d1)">
     <use style="stroke:#000000;" x="65.330488" xlink:href="#m51e117b73b" y="300.165406"/>
    </g>
   </g>
   <g id="PathCollection_48">
    <g clip-path="url(#p9bbd7899d1)">
     <use style="stroke:#000000;" x="55.668182" xlink:href="#m51e117b73b" y="277.460696"/>
    </g>
   </g>
   <g id="PathCollection_49">
    <g clip-path="url(#p9bbd7899d1)">
     <use style="stroke:#000000;" x="219.054659" xlink:href="#m51e117b73b" y="300.347003"/>
    </g>
   </g>
   <g id="PathCollection_50">
    <g clip-path="url(#p9bbd7899d1)">
     <use style="stroke:#000000;" x="834.14242" xlink:href="#m51e117b73b" y="301.41916"/>
    </g>
   </g>
   <g id="PathCollection_51">
    <g clip-path="url(#p9bbd7899d1)">
     <use style="stroke:#000000;" x="958.754043" xlink:href="#m51e117b73b" y="301.89259"/>
    </g>
   </g>
   <g id="PathCollection_52">
    <g clip-path="url(#p9bbd7899d1)">
     <use style="stroke:#000000;" x="206.329154" xlink:href="#m51e117b73b" y="177.04833"/>
    </g>
   </g>
   <g id="PathCollection_53">
    <g clip-path="url(#p9bbd7899d1)">
     <use style="stroke:#000000;" x="147.093549" xlink:href="#m51e117b73b" y="138.088997"/>
    </g>
   </g>
   <g id="PathCollection_54">
    <g clip-path="url(#p9bbd7899d1)">
     <use style="stroke:#000000;" x="963.796821" xlink:href="#m51e117b73b" y="325.833948"/>
    </g>
   </g>
   <g id="PathCollection_55">
    <g clip-path="url(#p9bbd7899d1)"/>
   </g>
   <g id="PathCollection_56">
    <g clip-path="url(#p9bbd7899d1)">
     <use style="stroke:#000000;" x="238.159913" xlink:href="#m51e117b73b" y="379.398912"/>
    </g>
   </g>
   <g id="PathCollection_57">
    <g clip-path="url(#p9bbd7899d1)">
     <use style="stroke:#000000;" x="602.980643" xlink:href="#m51e117b73b" y="330.59483"/>
    </g>
   </g>
   <g id="PathCollection_58">
    <g clip-path="url(#p9bbd7899d1)">
     <use style="stroke:#000000;" x="598.452217" xlink:href="#m51e117b73b" y="380.125432"/>
    </g>
   </g>
   <g id="PathCollection_59">
    <g clip-path="url(#p9bbd7899d1)">
     <use style="stroke:#000000;" x="631.04528" xlink:href="#m51e117b73b" y="331.806875"/>
    </g>
   </g>
   <g id="PathCollection_60">
    <g clip-path="url(#p9bbd7899d1)">
     <use style="stroke:#000000;" x="559.037358" xlink:href="#m51e117b73b" y="357.910997"/>
    </g>
   </g>
   <g id="PathCollection_61">
    <g clip-path="url(#p9bbd7899d1)">
     <use style="stroke:#000000;" x="512.295374" xlink:href="#m51e117b73b" y="395.165565"/>
    </g>
   </g>
   <g id="PathCollection_62">
    <g clip-path="url(#p9bbd7899d1)">
     <use style="stroke:#000000;" x="670.712794" xlink:href="#m51e117b73b" y="370.963059"/>
    </g>
   </g>
   <g id="PathCollection_63">
    <g clip-path="url(#p9bbd7899d1)">
     <use style="fill:#ff0000;stroke:#ff0000;" x="147.791472" xlink:href="#ma243157428" y="138.327764"/>
    </g>
   </g>
   <g id="PathCollection_64">
    <g clip-path="url(#p9bbd7899d1)">
     <use style="fill:#ff0000;stroke:#ff0000;" x="957.212191" xlink:href="#ma243157428" y="323.581275"/>
    </g>
   </g>
   <g id="PathCollection_65">
    <g clip-path="url(#p9bbd7899d1)"/>
   </g>
   <g id="PathCollection_66">
    <g clip-path="url(#p9bbd7899d1)">
     <use style="fill:#ff0000;stroke:#ff0000;" x="561.32124" xlink:href="#ma243157428" y="358.692338"/>
    </g>
   </g>
   <g id="PathCollection_67">
    <g clip-path="url(#p9bbd7899d1)">
     <use style="fill:#ff0000;stroke:#ff0000;" x="517.872944" xlink:href="#ma243157428" y="397.073712"/>
    </g>
   </g>
   <g id="PathCollection_68">
    <g clip-path="url(#p9bbd7899d1)">
     <use style="fill:#ff0000;stroke:#ff0000;" x="679.998342" xlink:href="#ma243157428" y="374.139745"/>
    </g>
   </g>
   <g id="PathCollection_69">
    <g clip-path="url(#p9bbd7899d1)">
     <use style="fill:#ff0000;stroke:#ff0000;" x="220.486585" xlink:href="#ma243157428" y="323.298266"/>
    </g>
   </g>
   <g id="PathCollection_70">
    <g clip-path="url(#p9bbd7899d1)">
     <use style="fill:#ff0000;stroke:#ff0000;" x="63.300311" xlink:href="#ma243157428" y="478.060821"/>
    </g>
   </g>
   <g id="PathCollection_71">
    <g clip-path="url(#p9bbd7899d1)">
     <use style="fill:#ff0000;stroke:#ff0000;" x="79.550462" xlink:href="#ma243157428" y="515.922067"/>
    </g>
   </g>
   <g id="PathCollection_72">
    <g clip-path="url(#p9bbd7899d1)"/>
   </g>
   <g id="PathCollection_73">
    <g clip-path="url(#p9bbd7899d1)">
     <use style="fill:#ff0000;stroke:#ff0000;" x="81.534007" xlink:href="#ma243157428" y="176.389486"/>
    </g>
   </g>
   <g id="PathCollection_74">
    <g clip-path="url(#p9bbd7899d1)"/>
   </g>
   <g id="PathCollection_75">
    <g clip-path="url(#p9bbd7899d1)">
     <use style="fill:#ff0000;stroke:#ff0000;" x="68.503072" xlink:href="#ma243157428" y="301.250782"/>
    </g>
   </g>
   <g id="PathCollection_76">
    <g clip-path="url(#p9bbd7899d1)">
     <use style="fill:#ff0000;stroke:#ff0000;" x="55.146043" xlink:href="#ma243157428" y="277.282066"/>
    </g>
   </g>
   <g id="PathCollection_77">
    <g clip-path="url(#p9bbd7899d1)">
     <use style="fill:#ff0000;stroke:#ff0000;" x="218.27021" xlink:href="#ma243157428" y="300.078635"/>
    </g>
   </g>
   <g id="PathCollection_78">
    <g clip-path="url(#p9bbd7899d1)">
     <use style="fill:#ff0000;stroke:#ff0000;" x="838.587235" xlink:href="#ma243157428" y="302.939779"/>
    </g>
   </g>
   <g id="PathCollection_79">
    <g clip-path="url(#p9bbd7899d1)">
     <use style="fill:#ff0000;stroke:#ff0000;" x="965.459631" xlink:href="#ma243157428" y="304.186644"/>
    </g>
   </g>
   <g id="PathCollection_80">
    <g clip-path="url(#p9bbd7899d1)">
     <use style="fill:#ff0000;stroke:#ff0000;" x="205.911084" xlink:href="#ma243157428" y="176.905304"/>
    </g>
   </g>
   <g id="matplotlib.axis_3">
    <g id="xtick_6">
     <g id="line2d_19">
      <g>
       <use style="stroke:#000000;stroke-width:0.8;" x="77.215938" xlink:href="#mbd52d7869d" y="196.1"/>
      </g>
     </g>
     <g id="text_13">
      <!-- −60 -->
      <g transform="translate(66.663594 210.698437)scale(0.1 -0.1)">
       <use xlink:href="#DejaVuSans-8722"/>
       <use x="83.789062" xlink:href="#DejaVuSans-54"/>
       <use x="147.412109" xlink:href="#DejaVuSans-48"/>
      </g>
     </g>
    </g>
    <g id="xtick_7">
     <g id="line2d_20">
      <g>
       <use style="stroke:#000000;stroke-width:0.8;" x="178.279688" xlink:href="#mbd52d7869d" y="196.1"/>
      </g>
     </g>
     <g id="text_14">
      <!-- −40 -->
      <g transform="translate(167.727344 210.698437)scale(0.1 -0.1)">
       <use xlink:href="#DejaVuSans-8722"/>
       <use x="83.789062" xlink:href="#DejaVuSans-52"/>
       <use x="147.412109" xlink:href="#DejaVuSans-48"/>
      </g>
     </g>
    </g>
    <g id="xtick_8">
     <g id="line2d_21">
      <g>
       <use style="stroke:#000000;stroke-width:0.8;" x="279.343438" xlink:href="#mbd52d7869d" y="196.1"/>
      </g>
     </g>
     <g id="text_15">
      <!-- −20 -->
      <g transform="translate(268.791094 210.698437)scale(0.1 -0.1)">
       <use xlink:href="#DejaVuSans-8722"/>
       <use x="83.789062" xlink:href="#DejaVuSans-50"/>
       <use x="147.412109" xlink:href="#DejaVuSans-48"/>
      </g>
     </g>
    </g>
    <g id="xtick_9">
     <g id="line2d_22">
      <g>
       <use style="stroke:#000000;stroke-width:0.8;" x="380.407188" xlink:href="#mbd52d7869d" y="196.1"/>
      </g>
     </g>
     <g id="text_16">
      <!-- 0 -->
      <g transform="translate(377.225938 210.698437)scale(0.1 -0.1)">
       <use xlink:href="#DejaVuSans-48"/>
      </g>
     </g>
    </g>
    <g id="xtick_10">
     <g id="line2d_23">
      <g>
       <use style="stroke:#000000;stroke-width:0.8;" x="481.470938" xlink:href="#mbd52d7869d" y="196.1"/>
      </g>
     </g>
     <g id="text_17">
      <!-- 20 -->
      <g transform="translate(475.108438 210.698437)scale(0.1 -0.1)">
       <use xlink:href="#DejaVuSans-50"/>
       <use x="63.623047" xlink:href="#DejaVuSans-48"/>
      </g>
     </g>
    </g>
    <g id="text_18">
     <!-- Longitude -->
     <g transform="translate(279.739844 224.376562)scale(0.1 -0.1)">
      <use xlink:href="#DejaVuSans-76"/>
      <use x="53.962891" xlink:href="#DejaVuSans-111"/>
      <use x="115.144531" xlink:href="#DejaVuSans-110"/>
      <use x="178.523438" xlink:href="#DejaVuSans-103"/>
      <use x="242" xlink:href="#DejaVuSans-105"/>
      <use x="269.783203" xlink:href="#DejaVuSans-116"/>
      <use x="308.992188" xlink:href="#DejaVuSans-117"/>
      <use x="372.371094" xlink:href="#DejaVuSans-100"/>
      <use x="435.847656" xlink:href="#DejaVuSans-101"/>
     </g>
    </g>
   </g>
   <g id="matplotlib.axis_4">
    <g id="ytick_4">
     <g id="line2d_24">
      <g>
       <use style="stroke:#000000;stroke-width:0.8;" x="51.95" xlink:href="#m30df902df6" y="126.95"/>
      </g>
     </g>
     <g id="text_19">
      <!-- −80 -->
      <g transform="translate(23.845313 130.749219)scale(0.1 -0.1)">
       <use xlink:href="#DejaVuSans-8722"/>
       <use x="83.789062" xlink:href="#DejaVuSans-56"/>
       <use x="147.412109" xlink:href="#DejaVuSans-48"/>
      </g>
     </g>
    </g>
    <g id="ytick_5">
     <g id="line2d_25">
      <g>
       <use style="stroke:#000000;stroke-width:0.8;" x="51.95" xlink:href="#m30df902df6" y="161.525"/>
      </g>
     </g>
     <g id="text_20">
      <!-- −60 -->
      <g transform="translate(23.845313 165.324219)scale(0.1 -0.1)">
       <use xlink:href="#DejaVuSans-8722"/>
       <use x="83.789062" xlink:href="#DejaVuSans-54"/>
       <use x="147.412109" xlink:href="#DejaVuSans-48"/>
      </g>
     </g>
    </g>
    <g id="ytick_6">
     <g id="line2d_26">
      <g>
       <use style="stroke:#000000;stroke-width:0.8;" x="51.95" xlink:href="#m30df902df6" y="196.1"/>
      </g>
     </g>
     <g id="text_21">
      <!-- −40 -->
      <g transform="translate(23.845313 199.899219)scale(0.1 -0.1)">
       <use xlink:href="#DejaVuSans-8722"/>
       <use x="83.789062" xlink:href="#DejaVuSans-52"/>
       <use x="147.412109" xlink:href="#DejaVuSans-48"/>
      </g>
     </g>
    </g>
    <g id="text_22">
     <!-- Latitude -->
     <g transform="translate(17.765625 182.103906)rotate(-90)scale(0.1 -0.1)">
      <use xlink:href="#DejaVuSans-76"/>
      <use x="55.712891" xlink:href="#DejaVuSans-97"/>
      <use x="116.992188" xlink:href="#DejaVuSans-116"/>
      <use x="156.201172" xlink:href="#DejaVuSans-105"/>
      <use x="183.984375" xlink:href="#DejaVuSans-116"/>
      <use x="223.193359" xlink:href="#DejaVuSans-117"/>
      <use x="286.572266" xlink:href="#DejaVuSans-100"/>
      <use x="350.048828" xlink:href="#DejaVuSans-101"/>
     </g>
    </g>
   </g>
   <g id="line2d_27">
    <path clip-path="url(#p9bbd7899d1)" d="M 169.012837 236.63026 
L 169.012529 236.630151 
L 169.013454 236.578534 
L 170.00507 189.863663 
L 170.420726 186.166612 
L 171.011104 182.625465 
L 171.651234 180.459852 
L 172.375062 178.777621 
L 173.405867 177.060326 
L 174.809496 175.319118 
L 176.630053 173.57098 
L 178.907481 171.829291 
L 181.657199 170.112794 
L 184.894782 168.438233 
L 188.593881 166.835889 
L 192.669775 165.342727 
L 197.117318 164.027574 
L 201.903065 162.86396 
L 207.041146 161.866498 
L 212.467004 161.036883 
L 218.078705 160.364848 
L 223.821447 159.888813 
L 229.655521 159.600791 
L 239.572737 159.383055 
L 253.484645 159.358497 
L 456.048134 159.954133 
L 577 159.946593 
L 577 159.946593 
" style="fill:none;stroke:#000000;stroke-linecap:square;stroke-width:0.5;"/>
   </g>
   <g id="line2d_28">
    <path clip-path="url(#p9bbd7899d1)" d="M 363.083778 155.574007 
L 363.197641 151.83415 
" style="fill:none;stroke:#ff0000;stroke-linecap:square;"/>
   </g>
   <g id="line2d_29">
    <path clip-path="url(#p9bbd7899d1)" d="M 363.197641 151.83415 
L 338.985195 151.747866 
" style="fill:none;stroke:#ff0000;stroke-linecap:square;"/>
   </g>
   <g id="line2d_30">
    <path clip-path="url(#p9bbd7899d1)" d="M 338.985195 151.747866 
L 338.871329 155.487729 
" style="fill:none;stroke:#ff0000;stroke-linecap:square;"/>
   </g>
   <g id="line2d_31">
    <path clip-path="url(#p9bbd7899d1)" d="M 338.871329 155.487729 
L 363.083778 155.574007 
" style="fill:none;stroke:#ff0000;stroke-linecap:square;"/>
   </g>
   <g id="line2d_32">
    <path clip-path="url(#p9bbd7899d1)" d="M 166.744317 235.854174 
L 170.91359 237.280333 
L 168.633326 236.448489 
L 170.974473 237.175527 
L 165.937534 235.254714 
L 169.435211 236.211611 
L 169.123562 235.831584 
L 171.828834 236.606003 
L 166.464446 234.612843 
L 169.044037 235.328356 
L 168.317344 234.90421 
L 171.432802 235.590225 
L 169.723403 234.801073 
L 169.425302 234.48567 
L 170.826078 234.741664 
L 169.474503 234.047058 
L 167.864669 233.003821 
L 169.334111 233.246397 
L 167.525755 232.358878 
L 167.524135 232.080356 
L 170.572348 232.836657 
L 168.267816 231.752871 
L 169.412235 231.840659 
L 169.075736 231.413246 
L 168.192448 230.790688 
L 169.240046 230.820527 
L 169.001736 230.402747 
L 166.555067 229.221675 
L 169.184726 229.769847 
L 169.649074 229.569775 
L 169.153585 229.034121 
L 169.935036 228.928249 
L 169.760513 228.488374 
L 169.283152 227.93798 
L 167.984638 227.099918 
L 168.970852 227.036733 
L 169.026785 226.648876 
L 170.311382 226.67502 
L 170.738366 226.401511 
L 167.920957 225.011927 
L 170.58739 225.49238 
L 170.449915 225.007645 
L 167.737662 223.637529 
L 168.186349 223.352112 
L 169.841889 223.475883 
L 167.135133 221.665068 
L 169.229954 221.938485 
L 167.025661 220.743704 
L 167.607062 220.485648 
L 170.174211 220.909024 
L 168.753624 219.079701 
L 169.126845 218.748491 
L 170.308581 218.648525 
L 169.304276 217.770283 
L 166.384313 216.216622 
L 168.62933 216.413751 
L 168.513331 215.791811 
L 169.534842 215.547979 
L 170.609992 214.707055 
L 167.532847 213.039844 
L 172.402889 214.08565 
L 167.229208 211.695339 
L 170.155415 212.076923 
L 169.398688 211.204522 
L 170.554404 210.991676 
L 168.469468 209.679503 
L 167.419064 208.728129 
L 171.238712 209.452617 
L 167.488679 207.593442 
L 169.474288 207.704861 
L 168.995456 206.977185 
L 170.476037 206.925852 
L 168.163502 205.578245 
L 170.768129 205.916031 
L 170.39257 204.680912 
L 169.318166 203.759521 
L 168.638304 202.975315 
L 168.193736 202.27195 
L 169.659196 202.2262 
L 168.156939 201.167458 
L 170.531107 201.440876 
L 168.053597 200.057873 
L 167.688864 199.404572 
L 170.892211 199.457579 
L 170.060719 198.6581 
L 170.398246 198.264431 
L 169.700435 197.518382 
L 171.344909 197.578172 
L 170.471478 196.777039 
L 167.980967 195.426116 
L 171.023314 195.96807 
L 169.375684 194.908862 
L 169.240135 194.367264 
L 168.231596 193.531048 
L 170.19575 193.712997 
L 169.23689 192.900016 
L 170.009997 192.68165 
L 169.597689 192.063458 
L 170.572576 191.922103 
L 170.194735 191.323794 
L 168.983607 190.442388 
L 171.287463 190.768797 
L 168.448738 189.331225 
L 169.999796 188.927903 
L 168.226609 187.376394 
L 168.049209 186.836529 
L 170.281737 187.112897 
L 171.933641 187.185634 
L 170.282864 186.119448 
L 170.13343 185.56111 
L 173.10807 186.061877 
L 171.54768 185.00462 
L 172.375837 184.754525 
L 169.576744 182.701744 
L 171.708267 182.863972 
L 173.060919 182.748364 
L 172.972261 182.131874 
L 171.808027 180.513493 
L 171.44838 179.76007 
L 171.308287 179.071887 
L 172.155175 178.702395 
L 172.636372 178.192694 
L 172.929051 177.603048 
L 172.284632 176.676739 
L 173.491866 176.364592 
L 173.546533 175.645319 
L 175.140458 175.432344 
L 175.893564 174.916377 
L 176.109491 174.199588 
L 174.384494 172.80275 
L 177.102524 172.907336 
L 178.938803 172.697082 
L 180.167874 172.260486 
L 179.610551 171.199153 
L 182.430055 171.27711 
L 183.215398 169.730506 
L 183.083997 168.759049 
L 184.349569 168.251709 
L 185.15031 167.576944 
L 186.107119 166.94622 
L 186.598006 166.153078 
L 190.156157 166.40632 
L 190.856263 165.683021 
L 193.404166 165.59397 
L 194.790482 165.115981 
L 199.096648 164.704724 
L 198.473069 163.553366 
L 200.676128 163.374737 
L 202.366903 163.022643 
L 205.807647 163.276646 
L 206.858464 162.717816 
L 206.552245 161.69924 
L 207.753112 161.205018 
L 209.706955 160.980084 
L 212.298638 160.979284 
L 214.221216 160.757944 
L 215.682333 160.392912 
L 218.318649 160.446935 
L 219.097328 159.883551 
L 221.534639 159.906551 
L 223.019792 159.614558 
L 225.047602 159.529382 
L 227.332052 159.552215 
L 228.046938 159.050477 
L 231.145895 159.372603 
L 233.100059 159.312279 
L 234.52196 159.076466 
L 236.70211 159.108583 
L 241.954138 159.498289 
L 243.447252 159.315859 
L 249.622367 159.383532 
L 254.074102 159.560156 
L 255.435248 159.354575 
L 259.956289 159.561261 
L 261.67838 159.480653 
L 263.961151 159.590225 
L 265.850049 159.565503 
L 266.680176 159.177084 
L 269.898538 159.606385 
L 271.141259 159.358466 
L 275.824055 159.615142 
L 277.073525 159.370445 
L 281.564569 159.561731 
L 282.940396 159.359352 
L 287.344041 159.5206 
L 289.401218 159.552047 
L 290.872758 159.381928 
L 293.545221 159.623726 
L 296.932284 159.43626 
L 303.084553 159.521018 
L 305.819711 159.784243 
L 308.866897 159.480925 
L 315.215184 159.634202 
L 320.767846 159.516848 
L 335.186405 159.74213 
L 346.700184 159.649005 
L 352.712205 159.693285 
L 362.645177 159.73807 
L 366.986762 159.882768 
L 368.567456 159.753827 
L 370.753487 159.830281 
L 372.551626 159.774774 
L 374.807664 159.874726 
L 376.356809 159.733854 
L 380.335842 159.751962 
L 384.777684 159.92651 
L 388.418446 159.829122 
L 389.94337 159.678401 
L 392.777988 159.976789 
L 394.672006 159.950949 
L 399.034152 160.095268 
L 400.337866 159.867118 
L 404.819001 160.049177 
L 406.053672 159.794977 
L 410.69243 160.029152 
L 411.943434 159.781113 
L 414.128683 159.851507 
L 415.856346 159.76642 
L 420.70008 160.070155 
L 423.796655 159.77484 
L 425.621222 159.72088 
L 428.733254 160.108302 
L 430.6385 160.081657 
L 431.879421 159.828659 
L 434.414718 160.01724 
L 435.654837 159.763793 
L 438.659542 160.112891 
L 440.704397 160.134616 
L 441.945702 159.880279 
L 446.462136 160.068272 
L 447.06851 159.597525 
L 448.92422 159.552988 
L 451.860024 159.879004 
L 455.341705 160.390778 
L 455.918669 159.909841 
L 460.742386 160.202092 
L 461.888948 159.914654 
L 464.641538 160.17777 
L 465.803209 159.895542 
L 468.119606 160.009383 
L 469.146679 159.680899 
L 474.830654 160.266804 
L 475.704954 159.887117 
L 477.719161 159.896339 
L 479.336094 159.770694 
L 481.776236 159.925597 
L 484.773278 160.272107 
L 486.515738 160.188308 
L 487.469293 159.835712 
L 489.216834 159.753662 
L 494.107226 160.067654 
L 494.315493 159.459866 
L 496.869819 159.653592 
L 500.289378 160.144362 
L 502.602412 160.255457 
L 503.537721 159.896328 
L 506.459686 160.215791 
L 506.989296 159.717855 
L 509.588818 159.926947 
L 511.620083 159.942694 
L 514.151077 160.128326 
L 515.209531 159.81127 
L 517.138937 159.791089 
L 519.69115 159.985064 
L 521.585256 159.952786 
L 524.075776 160.125623 
L 525.969094 160.09303 
L 526.962716 159.753758 
L 529.751523 160.027534 
L 530.956686 159.76062 
L 534.414028 160.263116 
L 535.623601 159.997707 
L 539.222906 160.548766 
L 539.387105 159.925724 
L 541.666942 160.025376 
L 542.708419 159.702489 
L 546.129142 160.19247 
L 546.700691 159.708839 
L 549.560552 160.006957 
L 551.474629 159.982619 
L 552.87357 159.780953 
L 554.852704 159.778859 
L 558.036753 160.187898 
L 560.489449 160.347722 
L 565.108454 159.888127 
L 568.776763 159.78358 
L 571.878139 160.165384 
L 573.579347 160.067087 
L 573.516062 159.36622 
L 577 159.897514 
L 577 159.897514 
" style="fill:none;stroke:#ff0000;stroke-linecap:square;"/>
   </g>
   <g id="patch_9">
    <path d="M 51.95 196.1 
L 51.95 126.95 
" style="fill:none;stroke:#000000;stroke-linecap:square;stroke-linejoin:miter;stroke-width:0.8;"/>
   </g>
   <g id="patch_10">
    <path d="M 557.26875 196.1 
L 557.26875 126.95 
" style="fill:none;stroke:#000000;stroke-linecap:square;stroke-linejoin:miter;stroke-width:0.8;"/>
   </g>
   <g id="patch_11">
    <path d="M 51.95 196.1 
L 557.26875 196.1 
" style="fill:none;stroke:#000000;stroke-linecap:square;stroke-linejoin:miter;stroke-width:0.8;"/>
   </g>
   <g id="patch_12">
    <path d="M 51.95 126.95 
L 557.26875 126.95 
" style="fill:none;stroke:#000000;stroke-linecap:square;stroke-linejoin:miter;stroke-width:0.8;"/>
   </g>
   <g id="legend_2">
    <g id="patch_13">
     <path d="M 58.95 164.30625 
L 155.760938 164.30625 
Q 157.760938 164.30625 157.760938 162.30625 
L 157.760938 133.95 
Q 157.760938 131.95 155.760938 131.95 
L 58.95 131.95 
Q 56.95 131.95 56.95 133.95 
L 56.95 162.30625 
Q 56.95 164.30625 58.95 164.30625 
z
" style="fill:#ffffff;opacity:0.8;stroke:#cccccc;stroke-linejoin:miter;"/>
    </g>
    <g id="line2d_33">
     <path d="M 60.95 140.048438 
L 80.95 140.048438 
" style="fill:none;stroke:#000000;stroke-linecap:square;stroke-width:0.5;"/>
    </g>
    <g id="line2d_34"/>
    <g id="text_23">
     <!-- Ground-Truth -->
     <g transform="translate(88.95 143.548438)scale(0.1 -0.1)">
      <use xlink:href="#DejaVuSans-71"/>
      <use x="77.490234" xlink:href="#DejaVuSans-114"/>
      <use x="116.353516" xlink:href="#DejaVuSans-111"/>
      <use x="177.535156" xlink:href="#DejaVuSans-117"/>
      <use x="240.914062" xlink:href="#DejaVuSans-110"/>
      <use x="304.292969" xlink:href="#DejaVuSans-100"/>
      <use x="367.769531" xlink:href="#DejaVuSans-45"/>
      <use x="394.728516" xlink:href="#DejaVuSans-84"/>
      <use x="441.0625" xlink:href="#DejaVuSans-114"/>
      <use x="482.175781" xlink:href="#DejaVuSans-117"/>
      <use x="545.554688" xlink:href="#DejaVuSans-116"/>
      <use x="584.763672" xlink:href="#DejaVuSans-104"/>
     </g>
    </g>
    <g id="line2d_35">
     <path d="M 60.95 154.726563 
L 80.95 154.726563 
" style="fill:none;stroke:#ff0000;stroke-linecap:square;"/>
    </g>
    <g id="line2d_36"/>
    <g id="text_24">
     <!-- Sensor data -->
     <g transform="translate(88.95 158.226563)scale(0.1 -0.1)">
      <use xlink:href="#DejaVuSans-83"/>
      <use x="63.476562" xlink:href="#DejaVuSans-101"/>
      <use x="125" xlink:href="#DejaVuSans-110"/>
      <use x="188.378906" xlink:href="#DejaVuSans-115"/>
      <use x="240.478516" xlink:href="#DejaVuSans-111"/>
      <use x="301.660156" xlink:href="#DejaVuSans-114"/>
      <use x="342.773438" xlink:href="#DejaVuSans-32"/>
      <use x="374.560547" xlink:href="#DejaVuSans-100"/>
      <use x="438.037109" xlink:href="#DejaVuSans-97"/>
      <use x="499.316406" xlink:href="#DejaVuSans-116"/>
      <use x="538.525391" xlink:href="#DejaVuSans-97"/>
     </g>
    </g>
   </g>
  </g>
  <g id="axes_3">
   <g id="patch_14">
    <path d="M 51.95 308.65 
L 557.26875 308.65 
L 557.26875 239.5 
L 51.95 239.5 
z
" style="fill:none;"/>
   </g>
   <g id="PathCollection_81">
    <g clip-path="url(#pddf6f3cc85)">
     <use style="stroke:#000000;" x="220.542747" xlink:href="#m51e117b73b" y="435.86748"/>
    </g>
   </g>
   <g id="PathCollection_82">
    <g clip-path="url(#pddf6f3cc85)">
     <use style="stroke:#000000;" x="66.60776" xlink:href="#m51e117b73b" y="591.742335"/>
    </g>
   </g>
   <g id="PathCollection_83">
    <g clip-path="url(#pddf6f3cc85)">
     <use style="stroke:#000000;" x="83.707471" xlink:href="#m51e117b73b" y="629.894225"/>
    </g>
   </g>
   <g id="PathCollection_84">
    <g clip-path="url(#pddf6f3cc85)"/>
   </g>
   <g id="PathCollection_85">
    <g clip-path="url(#pddf6f3cc85)">
     <use style="stroke:#000000;" x="81.044998" xlink:href="#m51e117b73b" y="288.772191"/>
    </g>
   </g>
   <g id="PathCollection_86">
    <g clip-path="url(#pddf6f3cc85)"/>
   </g>
   <g id="PathCollection_87">
    <g clip-path="url(#pddf6f3cc85)">
     <use style="stroke:#000000;" x="65.330488" xlink:href="#m51e117b73b" y="412.715406"/>
    </g>
   </g>
   <g id="PathCollection_88">
    <g clip-path="url(#pddf6f3cc85)">
     <use style="stroke:#000000;" x="55.668182" xlink:href="#m51e117b73b" y="390.010696"/>
    </g>
   </g>
   <g id="PathCollection_89">
    <g clip-path="url(#pddf6f3cc85)">
     <use style="stroke:#000000;" x="219.054659" xlink:href="#m51e117b73b" y="412.897003"/>
    </g>
   </g>
   <g id="PathCollection_90">
    <g clip-path="url(#pddf6f3cc85)">
     <use style="stroke:#000000;" x="834.14242" xlink:href="#m51e117b73b" y="413.96916"/>
    </g>
   </g>
   <g id="PathCollection_91">
    <g clip-path="url(#pddf6f3cc85)">
     <use style="stroke:#000000;" x="958.754043" xlink:href="#m51e117b73b" y="414.44259"/>
    </g>
   </g>
   <g id="PathCollection_92">
    <g clip-path="url(#pddf6f3cc85)">
     <use style="stroke:#000000;" x="206.329154" xlink:href="#m51e117b73b" y="289.59833"/>
    </g>
   </g>
   <g id="PathCollection_93">
    <g clip-path="url(#pddf6f3cc85)">
     <use style="stroke:#000000;" x="147.093549" xlink:href="#m51e117b73b" y="250.638997"/>
    </g>
   </g>
   <g id="PathCollection_94">
    <g clip-path="url(#pddf6f3cc85)">
     <use style="stroke:#000000;" x="963.796821" xlink:href="#m51e117b73b" y="438.383948"/>
    </g>
   </g>
   <g id="PathCollection_95">
    <g clip-path="url(#pddf6f3cc85)"/>
   </g>
   <g id="PathCollection_96">
    <g clip-path="url(#pddf6f3cc85)">
     <use style="stroke:#000000;" x="238.159913" xlink:href="#m51e117b73b" y="491.948912"/>
    </g>
   </g>
   <g id="PathCollection_97">
    <g clip-path="url(#pddf6f3cc85)">
     <use style="stroke:#000000;" x="602.980643" xlink:href="#m51e117b73b" y="443.14483"/>
    </g>
   </g>
   <g id="PathCollection_98">
    <g clip-path="url(#pddf6f3cc85)">
     <use style="stroke:#000000;" x="598.452217" xlink:href="#m51e117b73b" y="492.675432"/>
    </g>
   </g>
   <g id="PathCollection_99">
    <g clip-path="url(#pddf6f3cc85)">
     <use style="stroke:#000000;" x="631.04528" xlink:href="#m51e117b73b" y="444.356875"/>
    </g>
   </g>
   <g id="PathCollection_100">
    <g clip-path="url(#pddf6f3cc85)">
     <use style="stroke:#000000;" x="559.037358" xlink:href="#m51e117b73b" y="470.460997"/>
    </g>
   </g>
   <g id="PathCollection_101">
    <g clip-path="url(#pddf6f3cc85)">
     <use style="stroke:#000000;" x="512.295374" xlink:href="#m51e117b73b" y="507.715565"/>
    </g>
   </g>
   <g id="PathCollection_102">
    <g clip-path="url(#pddf6f3cc85)">
     <use style="stroke:#000000;" x="670.712794" xlink:href="#m51e117b73b" y="483.513059"/>
    </g>
   </g>
   <g id="PathCollection_103">
    <g clip-path="url(#pddf6f3cc85)">
     <use style="fill:#ff0000;stroke:#ff0000;" x="147.791472" xlink:href="#ma243157428" y="250.877764"/>
    </g>
   </g>
   <g id="PathCollection_104">
    <g clip-path="url(#pddf6f3cc85)">
     <use style="fill:#ff0000;stroke:#ff0000;" x="957.212191" xlink:href="#ma243157428" y="436.131275"/>
    </g>
   </g>
   <g id="PathCollection_105">
    <g clip-path="url(#pddf6f3cc85)"/>
   </g>
   <g id="PathCollection_106">
    <g clip-path="url(#pddf6f3cc85)">
     <use style="fill:#ff0000;stroke:#ff0000;" x="561.32124" xlink:href="#ma243157428" y="471.242338"/>
    </g>
   </g>
   <g id="PathCollection_107">
    <g clip-path="url(#pddf6f3cc85)">
     <use style="fill:#ff0000;stroke:#ff0000;" x="517.872944" xlink:href="#ma243157428" y="509.623712"/>
    </g>
   </g>
   <g id="PathCollection_108">
    <g clip-path="url(#pddf6f3cc85)">
     <use style="fill:#ff0000;stroke:#ff0000;" x="679.998342" xlink:href="#ma243157428" y="486.689745"/>
    </g>
   </g>
   <g id="PathCollection_109">
    <g clip-path="url(#pddf6f3cc85)">
     <use style="fill:#ff0000;stroke:#ff0000;" x="220.486585" xlink:href="#ma243157428" y="435.848266"/>
    </g>
   </g>
   <g id="PathCollection_110">
    <g clip-path="url(#pddf6f3cc85)">
     <use style="fill:#ff0000;stroke:#ff0000;" x="63.300311" xlink:href="#ma243157428" y="590.610821"/>
    </g>
   </g>
   <g id="PathCollection_111">
    <g clip-path="url(#pddf6f3cc85)">
     <use style="fill:#ff0000;stroke:#ff0000;" x="79.550462" xlink:href="#ma243157428" y="628.472067"/>
    </g>
   </g>
   <g id="PathCollection_112">
    <g clip-path="url(#pddf6f3cc85)"/>
   </g>
   <g id="PathCollection_113">
    <g clip-path="url(#pddf6f3cc85)">
     <use style="fill:#ff0000;stroke:#ff0000;" x="81.534007" xlink:href="#ma243157428" y="288.939486"/>
    </g>
   </g>
   <g id="PathCollection_114">
    <g clip-path="url(#pddf6f3cc85)"/>
   </g>
   <g id="PathCollection_115">
    <g clip-path="url(#pddf6f3cc85)">
     <use style="fill:#ff0000;stroke:#ff0000;" x="68.503072" xlink:href="#ma243157428" y="413.800782"/>
    </g>
   </g>
   <g id="PathCollection_116">
    <g clip-path="url(#pddf6f3cc85)">
     <use style="fill:#ff0000;stroke:#ff0000;" x="55.146043" xlink:href="#ma243157428" y="389.832066"/>
    </g>
   </g>
   <g id="PathCollection_117">
    <g clip-path="url(#pddf6f3cc85)">
     <use style="fill:#ff0000;stroke:#ff0000;" x="218.27021" xlink:href="#ma243157428" y="412.628635"/>
    </g>
   </g>
   <g id="PathCollection_118">
    <g clip-path="url(#pddf6f3cc85)">
     <use style="fill:#ff0000;stroke:#ff0000;" x="838.587235" xlink:href="#ma243157428" y="415.489779"/>
    </g>
   </g>
   <g id="PathCollection_119">
    <g clip-path="url(#pddf6f3cc85)">
     <use style="fill:#ff0000;stroke:#ff0000;" x="965.459631" xlink:href="#ma243157428" y="416.736644"/>
    </g>
   </g>
   <g id="PathCollection_120">
    <g clip-path="url(#pddf6f3cc85)">
     <use style="fill:#ff0000;stroke:#ff0000;" x="205.911084" xlink:href="#ma243157428" y="289.455304"/>
    </g>
   </g>
   <g id="matplotlib.axis_5">
    <g id="xtick_11">
     <g id="line2d_37">
      <g>
       <use style="stroke:#000000;stroke-width:0.8;" x="77.215938" xlink:href="#mbd52d7869d" y="308.65"/>
      </g>
     </g>
     <g id="text_25">
      <!-- −60 -->
      <g transform="translate(66.663594 323.248438)scale(0.1 -0.1)">
       <use xlink:href="#DejaVuSans-8722"/>
       <use x="83.789062" xlink:href="#DejaVuSans-54"/>
       <use x="147.412109" xlink:href="#DejaVuSans-48"/>
      </g>
     </g>
    </g>
    <g id="xtick_12">
     <g id="line2d_38">
      <g>
       <use style="stroke:#000000;stroke-width:0.8;" x="178.279688" xlink:href="#mbd52d7869d" y="308.65"/>
      </g>
     </g>
     <g id="text_26">
      <!-- −40 -->
      <g transform="translate(167.727344 323.248438)scale(0.1 -0.1)">
       <use xlink:href="#DejaVuSans-8722"/>
       <use x="83.789062" xlink:href="#DejaVuSans-52"/>
       <use x="147.412109" xlink:href="#DejaVuSans-48"/>
      </g>
     </g>
    </g>
    <g id="xtick_13">
     <g id="line2d_39">
      <g>
       <use style="stroke:#000000;stroke-width:0.8;" x="279.343438" xlink:href="#mbd52d7869d" y="308.65"/>
      </g>
     </g>
     <g id="text_27">
      <!-- −20 -->
      <g transform="translate(268.791094 323.248438)scale(0.1 -0.1)">
       <use xlink:href="#DejaVuSans-8722"/>
       <use x="83.789062" xlink:href="#DejaVuSans-50"/>
       <use x="147.412109" xlink:href="#DejaVuSans-48"/>
      </g>
     </g>
    </g>
    <g id="xtick_14">
     <g id="line2d_40">
      <g>
       <use style="stroke:#000000;stroke-width:0.8;" x="380.407188" xlink:href="#mbd52d7869d" y="308.65"/>
      </g>
     </g>
     <g id="text_28">
      <!-- 0 -->
      <g transform="translate(377.225938 323.248438)scale(0.1 -0.1)">
       <use xlink:href="#DejaVuSans-48"/>
      </g>
     </g>
    </g>
    <g id="xtick_15">
     <g id="line2d_41">
      <g>
       <use style="stroke:#000000;stroke-width:0.8;" x="481.470938" xlink:href="#mbd52d7869d" y="308.65"/>
      </g>
     </g>
     <g id="text_29">
      <!-- 20 -->
      <g transform="translate(475.108438 323.248438)scale(0.1 -0.1)">
       <use xlink:href="#DejaVuSans-50"/>
       <use x="63.623047" xlink:href="#DejaVuSans-48"/>
      </g>
     </g>
    </g>
    <g id="text_30">
     <!-- Longitude -->
     <g transform="translate(279.739844 336.926563)scale(0.1 -0.1)">
      <use xlink:href="#DejaVuSans-76"/>
      <use x="53.962891" xlink:href="#DejaVuSans-111"/>
      <use x="115.144531" xlink:href="#DejaVuSans-110"/>
      <use x="178.523438" xlink:href="#DejaVuSans-103"/>
      <use x="242" xlink:href="#DejaVuSans-105"/>
      <use x="269.783203" xlink:href="#DejaVuSans-116"/>
      <use x="308.992188" xlink:href="#DejaVuSans-117"/>
      <use x="372.371094" xlink:href="#DejaVuSans-100"/>
      <use x="435.847656" xlink:href="#DejaVuSans-101"/>
     </g>
    </g>
   </g>
   <g id="matplotlib.axis_6">
    <g id="ytick_7">
     <g id="line2d_42">
      <g>
       <use style="stroke:#000000;stroke-width:0.8;" x="51.95" xlink:href="#m30df902df6" y="239.5"/>
      </g>
     </g>
     <g id="text_31">
      <!-- −80 -->
      <g transform="translate(23.845313 243.299219)scale(0.1 -0.1)">
       <use xlink:href="#DejaVuSans-8722"/>
       <use x="83.789062" xlink:href="#DejaVuSans-56"/>
       <use x="147.412109" xlink:href="#DejaVuSans-48"/>
      </g>
     </g>
    </g>
    <g id="ytick_8">
     <g id="line2d_43">
      <g>
       <use style="stroke:#000000;stroke-width:0.8;" x="51.95" xlink:href="#m30df902df6" y="274.075"/>
      </g>
     </g>
     <g id="text_32">
      <!-- −60 -->
      <g transform="translate(23.845313 277.874219)scale(0.1 -0.1)">
       <use xlink:href="#DejaVuSans-8722"/>
       <use x="83.789062" xlink:href="#DejaVuSans-54"/>
       <use x="147.412109" xlink:href="#DejaVuSans-48"/>
      </g>
     </g>
    </g>
    <g id="ytick_9">
     <g id="line2d_44">
      <g>
       <use style="stroke:#000000;stroke-width:0.8;" x="51.95" xlink:href="#m30df902df6" y="308.65"/>
      </g>
     </g>
     <g id="text_33">
      <!-- −40 -->
      <g transform="translate(23.845313 312.449219)scale(0.1 -0.1)">
       <use xlink:href="#DejaVuSans-8722"/>
       <use x="83.789062" xlink:href="#DejaVuSans-52"/>
       <use x="147.412109" xlink:href="#DejaVuSans-48"/>
      </g>
     </g>
    </g>
    <g id="text_34">
     <!-- Latitude -->
     <g transform="translate(17.765625 294.653906)rotate(-90)scale(0.1 -0.1)">
      <use xlink:href="#DejaVuSans-76"/>
      <use x="55.712891" xlink:href="#DejaVuSans-97"/>
      <use x="116.992188" xlink:href="#DejaVuSans-116"/>
      <use x="156.201172" xlink:href="#DejaVuSans-105"/>
      <use x="183.984375" xlink:href="#DejaVuSans-116"/>
      <use x="223.193359" xlink:href="#DejaVuSans-117"/>
      <use x="286.572266" xlink:href="#DejaVuSans-100"/>
      <use x="350.048828" xlink:href="#DejaVuSans-101"/>
     </g>
    </g>
   </g>
   <g id="line2d_45">
    <path clip-path="url(#pddf6f3cc85)" d="M 169.012837 349.18026 
L 169.040403 346.7426 
L 169.350232 331.201257 
L 170.147811 300.906487 
L 170.752743 296.454835 
L 171.135745 294.49274 
L 171.533957 293.107981 
L 172.120556 291.691857 
L 172.893231 290.288184 
L 173.848742 288.929256 
L 174.961336 287.629864 
L 176.947767 285.794703 
L 179.330597 284.051636 
L 182.154895 282.361069 
L 185.377887 280.74727 
L 188.917821 279.253943 
L 192.769319 277.874783 
L 197.183725 276.602838 
L 202.210601 275.404885 
L 207.665855 274.368357 
L 215.158237 273.28496 
L 220.896517 272.682927 
L 226.809402 272.275496 
L 234.929693 272.001521 
L 243.109384 271.903293 
L 247.104067 271.996509 
L 250.881476 272.271427 
L 254.32017 272.75589 
L 257.394975 273.446931 
L 260.143796 274.32716 
L 263.973618 275.934568 
L 267.93024 277.632561 
L 270.727666 278.64217 
L 273.695236 279.466614 
L 276.847069 280.060806 
L 280.190567 280.428557 
L 283.731233 280.593852 
L 289.480722 280.560859 
L 303.98151 279.932415 
L 324.004353 279.082475 
L 340.317853 278.73714 
L 354.526685 278.602074 
L 387.102443 278.542538 
L 570.290697 278.548677 
L 577 278.5478 
L 577 278.5478 
" style="fill:none;stroke:#000000;stroke-linecap:square;stroke-width:0.5;"/>
   </g>
   <g id="line2d_46">
    <path clip-path="url(#pddf6f3cc85)" d="M 363.083778 268.124007 
L 363.197641 264.38415 
" style="fill:none;stroke:#ff0000;stroke-linecap:square;"/>
   </g>
   <g id="line2d_47">
    <path clip-path="url(#pddf6f3cc85)" d="M 363.197641 264.38415 
L 338.985195 264.297866 
" style="fill:none;stroke:#ff0000;stroke-linecap:square;"/>
   </g>
   <g id="line2d_48">
    <path clip-path="url(#pddf6f3cc85)" d="M 338.985195 264.297866 
L 338.871329 268.037729 
" style="fill:none;stroke:#ff0000;stroke-linecap:square;"/>
   </g>
   <g id="line2d_49">
    <path clip-path="url(#pddf6f3cc85)" d="M 338.871329 268.037729 
L 363.083778 268.124007 
" style="fill:none;stroke:#ff0000;stroke-linecap:square;"/>
   </g>
   <g id="line2d_50">
    <path clip-path="url(#pddf6f3cc85)" d="M 168.151116 348.885456 
L 163.426466 347.269102 
L 170.479289 349.672696 
L 168.20614 348.787759 
L 173.275222 350.431972 
L 167.090519 348.06225 
L 169.276545 348.453827 
L 168.743078 348.057369 
L 169.572082 348.103684 
L 169.754079 347.905696 
L 171.011512 348.052129 
L 169.235186 347.137744 
L 166.348514 345.821676 
L 169.561733 346.57141 
L 169.636601 346.226858 
L 164.590964 344.11012 
L 169.210808 345.279926 
L 168.813288 344.713296 
L 170.626402 344.883156 
L 171.658888 344.30718 
L 168.771114 342.848878 
L 168.219791 342.179827 
L 168.751021 341.854971 
L 169.554624 341.600639 
L 169.68813 341.102771 
L 168.452617 340.123021 
L 169.254101 339.821975 
L 167.394133 338.591528 
L 169.118282 338.569647 
L 169.563481 338.091997 
L 170.847807 337.882411 
L 169.165966 336.639695 
L 168.838354 335.841735 
L 168.301751 334.958181 
L 172.162111 335.572287 
L 165.893646 332.724503 
L 171.525227 333.956463 
L 167.770776 331.989125 
L 169.9853 332.076084 
L 167.896584 330.703948 
L 170.071684 330.802493 
L 169.6113 330.011399 
L 168.494685 329.006534 
L 169.591327 328.769581 
L 168.625805 327.83592 
L 168.58833 327.227737 
L 170.776377 327.386535 
L 171.54068 327.063184 
L 168.917209 325.583961 
L 169.136084 325.080486 
L 169.186051 324.52183 
L 170.845731 324.517732 
L 165.723541 322.197437 
L 168.370384 322.540496 
L 170.273799 322.634762 
L 168.445001 321.45909 
L 169.420504 321.249209 
L 169.662247 320.795536 
L 171.689195 320.958819 
L 171.932399 320.518366 
L 170.719737 319.585128 
L 168.101486 318.176464 
L 169.032689 317.98634 
L 169.054549 317.489762 
L 169.460246 317.128186 
L 168.214547 316.205995 
L 169.865504 316.278659 
L 172.179318 316.582848 
L 168.141544 314.718588 
L 170.211024 314.948995 
L 167.018208 313.383874 
L 169.972973 313.927454 
L 169.911071 313.443714 
L 170.673966 313.247507 
L 169.296527 312.323429 
L 168.93334 311.752074 
L 170.775796 311.951945 
L 170.322613 311.462036 
L 170.872469 311.426754 
L 170.015665 311.017829 
L 167.005955 309.952313 
L 173.665938 312.234742 
L 169.778975 310.832244 
L 169.410282 310.647088 
L 172.306462 311.559954 
L 169.325984 310.443141 
L 170.003383 310.557488 
L 168.967546 310.06341 
L 169.633363 310.129511 
L 168.950557 309.711622 
L 170.410102 310.005709 
L 170.592471 309.841916 
L 168.560218 308.898919 
L 169.187447 308.843548 
L 167.38465 307.93389 
L 168.888167 308.132415 
L 169.59282 308.035673 
L 170.669671 308.045062 
L 170.363365 307.560663 
L 171.186132 307.4423 
L 168.439818 306.082973 
L 169.175961 305.895262 
L 169.020529 305.382993 
L 166.932792 304.204162 
L 170.314124 304.893675 
L 168.725609 303.875952 
L 169.778521 303.753192 
L 170.480524 303.504051 
L 170.280768 302.944344 
L 169.60903 301.722639 
L 170.583468 301.558273 
L 168.186965 299.723849 
L 168.401557 299.272255 
L 171.318889 299.728819 
L 170.954386 299.035277 
L 171.052357 298.473434 
L 171.636763 298.054998 
L 170.907633 297.1665 
L 171.135815 296.585889 
L 171.1217 295.908345 
L 171.251683 295.25595 
L 171.047435 294.462528 
L 169.178854 293.076593 
L 172.292949 293.36764 
L 172.235123 292.549066 
L 170.762564 291.227273 
L 175.871463 292.143608 
L 173.888937 290.628826 
L 172.808534 289.416431 
L 174.778829 289.247449 
L 173.648402 288.020624 
L 175.201784 287.712124 
L 175.132288 286.849271 
L 175.50118 286.139086 
L 177.563035 286.005193 
L 179.344498 285.7706 
L 178.501753 284.631023 
L 180.449414 284.434395 
L 179.946851 283.387339 
L 181.230004 282.940617 
L 180.6329 281.840378 
L 183.50995 281.922129 
L 184.879232 281.484146 
L 185.448311 280.771363 
L 185.812633 279.990608 
L 186.554375 279.342579 
L 188.481788 279.104772 
L 191.127616 279.115643 
L 192.230142 278.595052 
L 192.145519 277.661374 
L 194.319827 277.49109 
L 194.499292 276.62632 
L 197.526141 276.719982 
L 199.71345 276.507238 
L 201.662571 276.199772 
L 202.290254 275.432135 
L 204.886147 275.340635 
L 205.517329 274.586304 
L 208.036416 274.49513 
L 208.359772 273.672009 
L 212.192693 273.161486 
L 216.59938 273.777991 
L 216.822986 272.981666 
L 219.509684 273.045596 
L 221.460503 272.875873 
L 222.6454 272.459963 
L 225.225676 272.5295 
L 226.573771 272.194884 
L 229.362858 272.371966 
L 233.288431 272.189408 
L 235.744832 272.280389 
L 236.899158 271.934931 
L 240.964447 271.872372 
L 242.310395 271.629951 
L 245.782562 272.154308 
L 247.012283 271.965109 
L 248.647931 271.978713 
L 251.901046 272.231372 
L 254.860127 272.940615 
L 255.843126 273.056128 
L 260.538308 274.462127 
L 262.360563 275.254828 
L 266.806391 277.155949 
L 270.042022 278.407604 
L 274.004967 279.572576 
L 278.149899 280.153902 
L 282.730223 280.805901 
L 282.71728 280.246968 
L 288.222383 280.849861 
L 289.200457 280.464978 
L 293.776688 280.463131 
L 295.184223 280.131945 
L 298.183156 280.347438 
L 299.49057 279.988804 
L 306.242775 279.921738 
L 307.993388 279.744349 
L 316.222571 279.483589 
L 317.736944 279.227277 
L 320.360637 279.354289 
L 321.914158 279.12479 
L 324.333937 279.19523 
L 325.965052 278.998231 
L 328.483136 279.108154 
L 330.040178 278.893164 
L 333.867311 278.721264 
L 336.50412 278.889617 
L 338.076946 278.697511 
L 344.596202 278.757679 
L 346.10495 278.560888 
L 354.80371 278.696847 
L 356.503496 278.570532 
L 372.62757 278.464289 
L 377.066008 278.589112 
L 381.11311 278.581232 
L 389.101547 278.531022 
L 391.493907 278.654004 
L 393.113732 278.513137 
L 395.619772 278.675056 
L 397.354779 278.573431 
L 401.337715 278.54562 
L 405.217681 278.482519 
L 407.565926 278.590459 
L 409.533664 278.568415 
L 411.075676 278.400376 
L 415.963265 278.681376 
L 417.504334 278.512959 
L 422.119835 278.700383 
L 423.88713 278.609012 
L 425.150785 278.345493 
L 429.616633 278.481352 
L 432.209233 278.672217 
L 433.833705 278.532141 
L 438.052352 278.58317 
L 440.298197 278.655245 
L 442.080083 278.568806 
L 444.254881 278.616501 
L 445.856525 278.468414 
L 449.064473 278.869562 
L 449.75832 278.410746 
L 452.060759 278.501883 
L 455.471297 278.275884 
L 459.192479 278.852664 
L 459.634233 278.307238 
L 464.178911 278.469316 
L 466.917327 278.709861 
L 468.846721 278.67334 
L 470.379942 278.501617 
L 472.906601 278.669348 
L 474.827479 278.630059 
L 479.726298 278.912798 
L 479.303327 278.071409 
L 481.623081 278.168646 
L 486.377262 279.098469 
L 486.704316 278.514011 
L 492.705834 278.477358 
L 494.13769 278.27074 
L 496.553979 278.400613 
L 500.213699 278.956125 
L 502.112349 278.908951 
L 503.170604 278.574487 
L 505.065254 278.525925 
L 510.59385 279.024206 
L 511.346345 278.58525 
L 513.690545 278.690517 
L 516.971921 279.116709 
L 519.072126 279.138515 
L 519.211275 278.489602 
L 521.114995 278.44409 
L 524.153558 278.787078 
L 527.676607 278.599022 
L 530.245696 278.781213 
L 530.855935 278.29353 
L 532.865421 278.284215 
L 536.503808 278.832478 
L 535.971937 277.953724 
L 540.471997 278.796693 
L 543.103376 279.000088 
L 544.392146 278.744473 
L 545.385923 278.387735 
L 549.090336 278.958606 
L 550.224418 278.649895 
L 550.658307 278.101852 
L 554.58816 278.749578 
L 556.380453 278.666259 
L 558.833669 278.808825 
L 560.525636 278.691184 
L 563.821366 279.122009 
L 565.550676 279.017163 
L 568.368397 279.28437 
L 566.975148 278.111191 
L 570.283756 278.546303 
L 572.784113 278.705234 
L 572.574636 277.936784 
L 577 278.704409 
L 577 278.704409 
" style="fill:none;stroke:#ff0000;stroke-linecap:square;"/>
   </g>
   <g id="patch_15">
    <path d="M 51.95 308.65 
L 51.95 239.5 
" style="fill:none;stroke:#000000;stroke-linecap:square;stroke-linejoin:miter;stroke-width:0.8;"/>
   </g>
   <g id="patch_16">
    <path d="M 557.26875 308.65 
L 557.26875 239.5 
" style="fill:none;stroke:#000000;stroke-linecap:square;stroke-linejoin:miter;stroke-width:0.8;"/>
   </g>
   <g id="patch_17">
    <path d="M 51.95 308.65 
L 557.26875 308.65 
" style="fill:none;stroke:#000000;stroke-linecap:square;stroke-linejoin:miter;stroke-width:0.8;"/>
   </g>
   <g id="patch_18">
    <path d="M 51.95 239.5 
L 557.26875 239.5 
" style="fill:none;stroke:#000000;stroke-linecap:square;stroke-linejoin:miter;stroke-width:0.8;"/>
   </g>
   <g id="legend_3">
    <g id="patch_19">
     <path d="M 453.457813 276.85625 
L 550.26875 276.85625 
Q 552.26875 276.85625 552.26875 274.85625 
L 552.26875 246.5 
Q 552.26875 244.5 550.26875 244.5 
L 453.457813 244.5 
Q 451.457813 244.5 451.457813 246.5 
L 451.457813 274.85625 
Q 451.457813 276.85625 453.457813 276.85625 
z
" style="fill:#ffffff;opacity:0.8;stroke:#cccccc;stroke-linejoin:miter;"/>
    </g>
    <g id="line2d_51">
     <path d="M 455.457813 252.598437 
L 475.457813 252.598437 
" style="fill:none;stroke:#000000;stroke-linecap:square;stroke-width:0.5;"/>
    </g>
    <g id="line2d_52"/>
    <g id="text_35">
     <!-- Ground-Truth -->
     <g transform="translate(483.457813 256.098437)scale(0.1 -0.1)">
      <use xlink:href="#DejaVuSans-71"/>
      <use x="77.490234" xlink:href="#DejaVuSans-114"/>
      <use x="116.353516" xlink:href="#DejaVuSans-111"/>
      <use x="177.535156" xlink:href="#DejaVuSans-117"/>
      <use x="240.914062" xlink:href="#DejaVuSans-110"/>
      <use x="304.292969" xlink:href="#DejaVuSans-100"/>
      <use x="367.769531" xlink:href="#DejaVuSans-45"/>
      <use x="394.728516" xlink:href="#DejaVuSans-84"/>
      <use x="441.0625" xlink:href="#DejaVuSans-114"/>
      <use x="482.175781" xlink:href="#DejaVuSans-117"/>
      <use x="545.554688" xlink:href="#DejaVuSans-116"/>
      <use x="584.763672" xlink:href="#DejaVuSans-104"/>
     </g>
    </g>
    <g id="line2d_53">
     <path d="M 455.457813 267.276562 
L 475.457813 267.276562 
" style="fill:none;stroke:#ff0000;stroke-linecap:square;"/>
    </g>
    <g id="line2d_54"/>
    <g id="text_36">
     <!-- Sensor data -->
     <g transform="translate(483.457813 270.776562)scale(0.1 -0.1)">
      <use xlink:href="#DejaVuSans-83"/>
      <use x="63.476562" xlink:href="#DejaVuSans-101"/>
      <use x="125" xlink:href="#DejaVuSans-110"/>
      <use x="188.378906" xlink:href="#DejaVuSans-115"/>
      <use x="240.478516" xlink:href="#DejaVuSans-111"/>
      <use x="301.660156" xlink:href="#DejaVuSans-114"/>
      <use x="342.773438" xlink:href="#DejaVuSans-32"/>
      <use x="374.560547" xlink:href="#DejaVuSans-100"/>
      <use x="438.037109" xlink:href="#DejaVuSans-97"/>
      <use x="499.316406" xlink:href="#DejaVuSans-116"/>
      <use x="538.525391" xlink:href="#DejaVuSans-97"/>
     </g>
    </g>
   </g>
  </g>
 </g>
 <defs>
  <clipPath id="pc47f227dab">
   <rect height="69.15" width="505.31875" x="51.95" y="14.4"/>
  </clipPath>
  <clipPath id="p9bbd7899d1">
   <rect height="69.15" width="505.31875" x="51.95" y="126.95"/>
  </clipPath>
  <clipPath id="pddf6f3cc85">
   <rect height="69.15" width="505.31875" x="51.95" y="239.5"/>
  </clipPath>
 </defs>
</svg>
