<?xml version="1.0" encoding="utf-8" standalone="no"?>
<!DOCTYPE svg PUBLIC "-//W3C//DTD SVG 1.1//EN"
  "http://www.w3.org/Graphics/SVG/1.1/DTD/svg11.dtd">
<!-- Created with matplotlib (https://matplotlib.org/) -->
<svg height="432pt" version="1.1" viewBox="0 0 576 432" width="576pt" xmlns="http://www.w3.org/2000/svg" xmlns:xlink="http://www.w3.org/1999/xlink">
 <metadata>
  <rdf:RDF xmlns:cc="http://creativecommons.org/ns#" xmlns:dc="http://purl.org/dc/elements/1.1/" xmlns:rdf="http://www.w3.org/1999/02/22-rdf-syntax-ns#">
   <cc:Work>
    <dc:type rdf:resource="http://purl.org/dc/dcmitype/StillImage"/>
    <dc:date>2022-07-01T12:36:07.243005</dc:date>
    <dc:format>image/svg+xml</dc:format>
    <dc:creator>
     <cc:Agent>
      <dc:title>Matplotlib v3.3.4, https://matplotlib.org/</dc:title>
     </cc:Agent>
    </dc:creator>
   </cc:Work>
  </rdf:RDF>
 </metadata>
 <defs>
  <style type="text/css">*{stroke-linecap:butt;stroke-linejoin:round;}</style>
 </defs>
 <g id="figure_1">
  <g id="patch_1">
   <path d="M 0 432 
L 576 432 
L 576 0 
L 0 0 
z
" style="fill:none;"/>
  </g>
  <g id="axes_1">
   <g id="patch_2">
    <path d="M 51.95 83.55 
L 557.26875 83.55 
L 557.26875 14.4 
L 51.95 14.4 
z
" style="fill:none;"/>
   </g>
   <g id="PathCollection_1">
    <defs>
     <path d="M 0 3 
C 0.795609 3 1.55874 2.683901 2.12132 2.12132 
C 2.683901 1.55874 3 0.795609 3 0 
C 3 -0.795609 2.683901 -1.55874 2.12132 -2.12132 
C 1.55874 -2.683901 0.795609 -3 0 -3 
C -0.795609 -3 -1.55874 -2.683901 -2.12132 -2.12132 
C -2.683901 -1.55874 -3 -0.795609 -3 0 
C -3 0.795609 -2.683901 1.55874 -2.12132 2.12132 
C -1.55874 2.683901 -0.795609 3 0 3 
z
" id="m359e41dfbd" style="stroke:#000000;"/>
    </defs>
    <g clip-path="url(#p930c09d34e)">
     <use style="stroke:#000000;" x="220.542747" xlink:href="#m359e41dfbd" y="210.76748"/>
    </g>
   </g>
   <g id="PathCollection_2">
    <g clip-path="url(#p930c09d34e)">
     <use style="stroke:#000000;" x="66.60776" xlink:href="#m359e41dfbd" y="366.642335"/>
    </g>
   </g>
   <g id="PathCollection_3">
    <g clip-path="url(#p930c09d34e)">
     <use style="stroke:#000000;" x="83.707471" xlink:href="#m359e41dfbd" y="404.794225"/>
    </g>
   </g>
   <g id="PathCollection_4">
    <g clip-path="url(#p930c09d34e)"/>
   </g>
   <g id="PathCollection_5">
    <g clip-path="url(#p930c09d34e)">
     <use style="stroke:#000000;" x="81.044998" xlink:href="#m359e41dfbd" y="63.672191"/>
    </g>
   </g>
   <g id="PathCollection_6">
    <g clip-path="url(#p930c09d34e)"/>
   </g>
   <g id="PathCollection_7">
    <g clip-path="url(#p930c09d34e)">
     <use style="stroke:#000000;" x="65.330488" xlink:href="#m359e41dfbd" y="187.615406"/>
    </g>
   </g>
   <g id="PathCollection_8">
    <g clip-path="url(#p930c09d34e)">
     <use style="stroke:#000000;" x="55.668182" xlink:href="#m359e41dfbd" y="164.910696"/>
    </g>
   </g>
   <g id="PathCollection_9">
    <g clip-path="url(#p930c09d34e)">
     <use style="stroke:#000000;" x="219.054659" xlink:href="#m359e41dfbd" y="187.797003"/>
    </g>
   </g>
   <g id="PathCollection_10">
    <g clip-path="url(#p930c09d34e)">
     <use style="stroke:#000000;" x="834.14242" xlink:href="#m359e41dfbd" y="188.86916"/>
    </g>
   </g>
   <g id="PathCollection_11">
    <g clip-path="url(#p930c09d34e)">
     <use style="stroke:#000000;" x="958.754043" xlink:href="#m359e41dfbd" y="189.34259"/>
    </g>
   </g>
   <g id="PathCollection_12">
    <g clip-path="url(#p930c09d34e)">
     <use style="stroke:#000000;" x="206.329154" xlink:href="#m359e41dfbd" y="64.49833"/>
    </g>
   </g>
   <g id="PathCollection_13">
    <g clip-path="url(#p930c09d34e)">
     <use style="stroke:#000000;" x="147.093549" xlink:href="#m359e41dfbd" y="25.538997"/>
    </g>
   </g>
   <g id="PathCollection_14">
    <g clip-path="url(#p930c09d34e)">
     <use style="stroke:#000000;" x="963.796821" xlink:href="#m359e41dfbd" y="213.283948"/>
    </g>
   </g>
   <g id="PathCollection_15">
    <g clip-path="url(#p930c09d34e)"/>
   </g>
   <g id="PathCollection_16">
    <g clip-path="url(#p930c09d34e)">
     <use style="stroke:#000000;" x="238.159913" xlink:href="#m359e41dfbd" y="266.848912"/>
    </g>
   </g>
   <g id="PathCollection_17">
    <g clip-path="url(#p930c09d34e)">
     <use style="stroke:#000000;" x="602.980643" xlink:href="#m359e41dfbd" y="218.04483"/>
    </g>
   </g>
   <g id="PathCollection_18">
    <g clip-path="url(#p930c09d34e)">
     <use style="stroke:#000000;" x="598.452217" xlink:href="#m359e41dfbd" y="267.575432"/>
    </g>
   </g>
   <g id="PathCollection_19">
    <g clip-path="url(#p930c09d34e)">
     <use style="stroke:#000000;" x="631.04528" xlink:href="#m359e41dfbd" y="219.256875"/>
    </g>
   </g>
   <g id="PathCollection_20">
    <g clip-path="url(#p930c09d34e)">
     <use style="stroke:#000000;" x="559.037358" xlink:href="#m359e41dfbd" y="245.360997"/>
    </g>
   </g>
   <g id="PathCollection_21">
    <g clip-path="url(#p930c09d34e)">
     <use style="stroke:#000000;" x="512.295374" xlink:href="#m359e41dfbd" y="282.615565"/>
    </g>
   </g>
   <g id="PathCollection_22">
    <g clip-path="url(#p930c09d34e)">
     <use style="stroke:#000000;" x="670.712794" xlink:href="#m359e41dfbd" y="258.413059"/>
    </g>
   </g>
   <g id="PathCollection_23">
    <defs>
     <path d="M 0 3 
C 0.795609 3 1.55874 2.683901 2.12132 2.12132 
C 2.683901 1.55874 3 0.795609 3 0 
C 3 -0.795609 2.683901 -1.55874 2.12132 -2.12132 
C 1.55874 -2.683901 0.795609 -3 0 -3 
C -0.795609 -3 -1.55874 -2.683901 -2.12132 -2.12132 
C -2.683901 -1.55874 -3 -0.795609 -3 0 
C -3 0.795609 -2.683901 1.55874 -2.12132 2.12132 
C -1.55874 2.683901 -0.795609 3 0 3 
z
" id="m0397287a50" style="stroke:#ff0000;"/>
    </defs>
    <g clip-path="url(#p930c09d34e)">
     <use style="fill:#ff0000;stroke:#ff0000;" x="206.329154" xlink:href="#m0397287a50" y="64.49833"/>
    </g>
   </g>
   <g id="matplotlib.axis_1">
    <g id="xtick_1">
     <g id="line2d_1">
      <defs>
       <path d="M 0 0 
L 0 3.5 
" id="m7553bd0790" style="stroke:#000000;stroke-width:0.8;"/>
      </defs>
      <g>
       <use style="stroke:#000000;stroke-width:0.8;" x="77.215938" xlink:href="#m7553bd0790" y="83.55"/>
      </g>
     </g>
     <g id="text_1">
      <!-- −60 -->
      <g transform="translate(66.663594 98.148438)scale(0.1 -0.1)">
       <defs>
        <path d="M 10.59375 35.5 
L 73.1875 35.5 
L 73.1875 27.203125 
L 10.59375 27.203125 
z
" id="DejaVuSans-8722"/>
        <path d="M 33.015625 40.375 
Q 26.375 40.375 22.484375 35.828125 
Q 18.609375 31.296875 18.609375 23.390625 
Q 18.609375 15.53125 22.484375 10.953125 
Q 26.375 6.390625 33.015625 6.390625 
Q 39.65625 6.390625 43.53125 10.953125 
Q 47.40625 15.53125 47.40625 23.390625 
Q 47.40625 31.296875 43.53125 35.828125 
Q 39.65625 40.375 33.015625 40.375 
z
M 52.59375 71.296875 
L 52.59375 62.3125 
Q 48.875 64.0625 45.09375 64.984375 
Q 41.3125 65.921875 37.59375 65.921875 
Q 27.828125 65.921875 22.671875 59.328125 
Q 17.53125 52.734375 16.796875 39.40625 
Q 19.671875 43.65625 24.015625 45.921875 
Q 28.375 48.1875 33.59375 48.1875 
Q 44.578125 48.1875 50.953125 41.515625 
Q 57.328125 34.859375 57.328125 23.390625 
Q 57.328125 12.15625 50.6875 5.359375 
Q 44.046875 -1.421875 33.015625 -1.421875 
Q 20.359375 -1.421875 13.671875 8.265625 
Q 6.984375 17.96875 6.984375 36.375 
Q 6.984375 53.65625 15.1875 63.9375 
Q 23.390625 74.21875 37.203125 74.21875 
Q 40.921875 74.21875 44.703125 73.484375 
Q 48.484375 72.75 52.59375 71.296875 
z
" id="DejaVuSans-54"/>
        <path d="M 31.78125 66.40625 
Q 24.171875 66.40625 20.328125 58.90625 
Q 16.5 51.421875 16.5 36.375 
Q 16.5 21.390625 20.328125 13.890625 
Q 24.171875 6.390625 31.78125 6.390625 
Q 39.453125 6.390625 43.28125 13.890625 
Q 47.125 21.390625 47.125 36.375 
Q 47.125 51.421875 43.28125 58.90625 
Q 39.453125 66.40625 31.78125 66.40625 
z
M 31.78125 74.21875 
Q 44.046875 74.21875 50.515625 64.515625 
Q 56.984375 54.828125 56.984375 36.375 
Q 56.984375 17.96875 50.515625 8.265625 
Q 44.046875 -1.421875 31.78125 -1.421875 
Q 19.53125 -1.421875 13.0625 8.265625 
Q 6.59375 17.96875 6.59375 36.375 
Q 6.59375 54.828125 13.0625 64.515625 
Q 19.53125 74.21875 31.78125 74.21875 
z
" id="DejaVuSans-48"/>
       </defs>
       <use xlink:href="#DejaVuSans-8722"/>
       <use x="83.789062" xlink:href="#DejaVuSans-54"/>
       <use x="147.412109" xlink:href="#DejaVuSans-48"/>
      </g>
     </g>
    </g>
    <g id="xtick_2">
     <g id="line2d_2">
      <g>
       <use style="stroke:#000000;stroke-width:0.8;" x="178.279688" xlink:href="#m7553bd0790" y="83.55"/>
      </g>
     </g>
     <g id="text_2">
      <!-- −40 -->
      <g transform="translate(167.727344 98.148438)scale(0.1 -0.1)">
       <defs>
        <path d="M 37.796875 64.3125 
L 12.890625 25.390625 
L 37.796875 25.390625 
z
M 35.203125 72.90625 
L 47.609375 72.90625 
L 47.609375 25.390625 
L 58.015625 25.390625 
L 58.015625 17.1875 
L 47.609375 17.1875 
L 47.609375 0 
L 37.796875 0 
L 37.796875 17.1875 
L 4.890625 17.1875 
L 4.890625 26.703125 
z
" id="DejaVuSans-52"/>
       </defs>
       <use xlink:href="#DejaVuSans-8722"/>
       <use x="83.789062" xlink:href="#DejaVuSans-52"/>
       <use x="147.412109" xlink:href="#DejaVuSans-48"/>
      </g>
     </g>
    </g>
    <g id="xtick_3">
     <g id="line2d_3">
      <g>
       <use style="stroke:#000000;stroke-width:0.8;" x="279.343438" xlink:href="#m7553bd0790" y="83.55"/>
      </g>
     </g>
     <g id="text_3">
      <!-- −20 -->
      <g transform="translate(268.791094 98.148438)scale(0.1 -0.1)">
       <defs>
        <path d="M 19.1875 8.296875 
L 53.609375 8.296875 
L 53.609375 0 
L 7.328125 0 
L 7.328125 8.296875 
Q 12.9375 14.109375 22.625 23.890625 
Q 32.328125 33.6875 34.8125 36.53125 
Q 39.546875 41.84375 41.421875 45.53125 
Q 43.3125 49.21875 43.3125 52.78125 
Q 43.3125 58.59375 39.234375 62.25 
Q 35.15625 65.921875 28.609375 65.921875 
Q 23.96875 65.921875 18.8125 64.3125 
Q 13.671875 62.703125 7.8125 59.421875 
L 7.8125 69.390625 
Q 13.765625 71.78125 18.9375 73 
Q 24.125 74.21875 28.421875 74.21875 
Q 39.75 74.21875 46.484375 68.546875 
Q 53.21875 62.890625 53.21875 53.421875 
Q 53.21875 48.921875 51.53125 44.890625 
Q 49.859375 40.875 45.40625 35.40625 
Q 44.1875 33.984375 37.640625 27.21875 
Q 31.109375 20.453125 19.1875 8.296875 
z
" id="DejaVuSans-50"/>
       </defs>
       <use xlink:href="#DejaVuSans-8722"/>
       <use x="83.789062" xlink:href="#DejaVuSans-50"/>
       <use x="147.412109" xlink:href="#DejaVuSans-48"/>
      </g>
     </g>
    </g>
    <g id="xtick_4">
     <g id="line2d_4">
      <g>
       <use style="stroke:#000000;stroke-width:0.8;" x="380.407188" xlink:href="#m7553bd0790" y="83.55"/>
      </g>
     </g>
     <g id="text_4">
      <!-- 0 -->
      <g transform="translate(377.225938 98.148438)scale(0.1 -0.1)">
       <use xlink:href="#DejaVuSans-48"/>
      </g>
     </g>
    </g>
    <g id="xtick_5">
     <g id="line2d_5">
      <g>
       <use style="stroke:#000000;stroke-width:0.8;" x="481.470938" xlink:href="#m7553bd0790" y="83.55"/>
      </g>
     </g>
     <g id="text_5">
      <!-- 20 -->
      <g transform="translate(475.108438 98.148438)scale(0.1 -0.1)">
       <use xlink:href="#DejaVuSans-50"/>
       <use x="63.623047" xlink:href="#DejaVuSans-48"/>
      </g>
     </g>
    </g>
    <g id="text_6">
     <!-- Longitude -->
     <g transform="translate(279.739844 111.826563)scale(0.1 -0.1)">
      <defs>
       <path d="M 9.8125 72.90625 
L 19.671875 72.90625 
L 19.671875 8.296875 
L 55.171875 8.296875 
L 55.171875 0 
L 9.8125 0 
z
" id="DejaVuSans-76"/>
       <path d="M 30.609375 48.390625 
Q 23.390625 48.390625 19.1875 42.75 
Q 14.984375 37.109375 14.984375 27.296875 
Q 14.984375 17.484375 19.15625 11.84375 
Q 23.34375 6.203125 30.609375 6.203125 
Q 37.796875 6.203125 41.984375 11.859375 
Q 46.1875 17.53125 46.1875 27.296875 
Q 46.1875 37.015625 41.984375 42.703125 
Q 37.796875 48.390625 30.609375 48.390625 
z
M 30.609375 56 
Q 42.328125 56 49.015625 48.375 
Q 55.71875 40.765625 55.71875 27.296875 
Q 55.71875 13.875 49.015625 6.21875 
Q 42.328125 -1.421875 30.609375 -1.421875 
Q 18.84375 -1.421875 12.171875 6.21875 
Q 5.515625 13.875 5.515625 27.296875 
Q 5.515625 40.765625 12.171875 48.375 
Q 18.84375 56 30.609375 56 
z
" id="DejaVuSans-111"/>
       <path d="M 54.890625 33.015625 
L 54.890625 0 
L 45.90625 0 
L 45.90625 32.71875 
Q 45.90625 40.484375 42.875 44.328125 
Q 39.84375 48.1875 33.796875 48.1875 
Q 26.515625 48.1875 22.3125 43.546875 
Q 18.109375 38.921875 18.109375 30.90625 
L 18.109375 0 
L 9.078125 0 
L 9.078125 54.6875 
L 18.109375 54.6875 
L 18.109375 46.1875 
Q 21.34375 51.125 25.703125 53.5625 
Q 30.078125 56 35.796875 56 
Q 45.21875 56 50.046875 50.171875 
Q 54.890625 44.34375 54.890625 33.015625 
z
" id="DejaVuSans-110"/>
       <path d="M 45.40625 27.984375 
Q 45.40625 37.75 41.375 43.109375 
Q 37.359375 48.484375 30.078125 48.484375 
Q 22.859375 48.484375 18.828125 43.109375 
Q 14.796875 37.75 14.796875 27.984375 
Q 14.796875 18.265625 18.828125 12.890625 
Q 22.859375 7.515625 30.078125 7.515625 
Q 37.359375 7.515625 41.375 12.890625 
Q 45.40625 18.265625 45.40625 27.984375 
z
M 54.390625 6.78125 
Q 54.390625 -7.171875 48.1875 -13.984375 
Q 42 -20.796875 29.203125 -20.796875 
Q 24.46875 -20.796875 20.265625 -20.09375 
Q 16.0625 -19.390625 12.109375 -17.921875 
L 12.109375 -9.1875 
Q 16.0625 -11.328125 19.921875 -12.34375 
Q 23.78125 -13.375 27.78125 -13.375 
Q 36.625 -13.375 41.015625 -8.765625 
Q 45.40625 -4.15625 45.40625 5.171875 
L 45.40625 9.625 
Q 42.625 4.78125 38.28125 2.390625 
Q 33.9375 0 27.875 0 
Q 17.828125 0 11.671875 7.65625 
Q 5.515625 15.328125 5.515625 27.984375 
Q 5.515625 40.671875 11.671875 48.328125 
Q 17.828125 56 27.875 56 
Q 33.9375 56 38.28125 53.609375 
Q 42.625 51.21875 45.40625 46.390625 
L 45.40625 54.6875 
L 54.390625 54.6875 
z
" id="DejaVuSans-103"/>
       <path d="M 9.421875 54.6875 
L 18.40625 54.6875 
L 18.40625 0 
L 9.421875 0 
z
M 9.421875 75.984375 
L 18.40625 75.984375 
L 18.40625 64.59375 
L 9.421875 64.59375 
z
" id="DejaVuSans-105"/>
       <path d="M 18.3125 70.21875 
L 18.3125 54.6875 
L 36.8125 54.6875 
L 36.8125 47.703125 
L 18.3125 47.703125 
L 18.3125 18.015625 
Q 18.3125 11.328125 20.140625 9.421875 
Q 21.96875 7.515625 27.59375 7.515625 
L 36.8125 7.515625 
L 36.8125 0 
L 27.59375 0 
Q 17.1875 0 13.234375 3.875 
Q 9.28125 7.765625 9.28125 18.015625 
L 9.28125 47.703125 
L 2.6875 47.703125 
L 2.6875 54.6875 
L 9.28125 54.6875 
L 9.28125 70.21875 
z
" id="DejaVuSans-116"/>
       <path d="M 8.5 21.578125 
L 8.5 54.6875 
L 17.484375 54.6875 
L 17.484375 21.921875 
Q 17.484375 14.15625 20.5 10.265625 
Q 23.53125 6.390625 29.59375 6.390625 
Q 36.859375 6.390625 41.078125 11.03125 
Q 45.3125 15.671875 45.3125 23.6875 
L 45.3125 54.6875 
L 54.296875 54.6875 
L 54.296875 0 
L 45.3125 0 
L 45.3125 8.40625 
Q 42.046875 3.421875 37.71875 1 
Q 33.40625 -1.421875 27.6875 -1.421875 
Q 18.265625 -1.421875 13.375 4.4375 
Q 8.5 10.296875 8.5 21.578125 
z
M 31.109375 56 
z
" id="DejaVuSans-117"/>
       <path d="M 45.40625 46.390625 
L 45.40625 75.984375 
L 54.390625 75.984375 
L 54.390625 0 
L 45.40625 0 
L 45.40625 8.203125 
Q 42.578125 3.328125 38.25 0.953125 
Q 33.9375 -1.421875 27.875 -1.421875 
Q 17.96875 -1.421875 11.734375 6.484375 
Q 5.515625 14.40625 5.515625 27.296875 
Q 5.515625 40.1875 11.734375 48.09375 
Q 17.96875 56 27.875 56 
Q 33.9375 56 38.25 53.625 
Q 42.578125 51.265625 45.40625 46.390625 
z
M 14.796875 27.296875 
Q 14.796875 17.390625 18.875 11.75 
Q 22.953125 6.109375 30.078125 6.109375 
Q 37.203125 6.109375 41.296875 11.75 
Q 45.40625 17.390625 45.40625 27.296875 
Q 45.40625 37.203125 41.296875 42.84375 
Q 37.203125 48.484375 30.078125 48.484375 
Q 22.953125 48.484375 18.875 42.84375 
Q 14.796875 37.203125 14.796875 27.296875 
z
" id="DejaVuSans-100"/>
       <path d="M 56.203125 29.59375 
L 56.203125 25.203125 
L 14.890625 25.203125 
Q 15.484375 15.921875 20.484375 11.0625 
Q 25.484375 6.203125 34.421875 6.203125 
Q 39.59375 6.203125 44.453125 7.46875 
Q 49.3125 8.734375 54.109375 11.28125 
L 54.109375 2.78125 
Q 49.265625 0.734375 44.1875 -0.34375 
Q 39.109375 -1.421875 33.890625 -1.421875 
Q 20.796875 -1.421875 13.15625 6.1875 
Q 5.515625 13.8125 5.515625 26.8125 
Q 5.515625 40.234375 12.765625 48.109375 
Q 20.015625 56 32.328125 56 
Q 43.359375 56 49.78125 48.890625 
Q 56.203125 41.796875 56.203125 29.59375 
z
M 47.21875 32.234375 
Q 47.125 39.59375 43.09375 43.984375 
Q 39.0625 48.390625 32.421875 48.390625 
Q 24.90625 48.390625 20.390625 44.140625 
Q 15.875 39.890625 15.1875 32.171875 
z
" id="DejaVuSans-101"/>
      </defs>
      <use xlink:href="#DejaVuSans-76"/>
      <use x="53.962891" xlink:href="#DejaVuSans-111"/>
      <use x="115.144531" xlink:href="#DejaVuSans-110"/>
      <use x="178.523438" xlink:href="#DejaVuSans-103"/>
      <use x="242" xlink:href="#DejaVuSans-105"/>
      <use x="269.783203" xlink:href="#DejaVuSans-116"/>
      <use x="308.992188" xlink:href="#DejaVuSans-117"/>
      <use x="372.371094" xlink:href="#DejaVuSans-100"/>
      <use x="435.847656" xlink:href="#DejaVuSans-101"/>
     </g>
    </g>
   </g>
   <g id="matplotlib.axis_2">
    <g id="ytick_1">
     <g id="line2d_6">
      <defs>
       <path d="M 0 0 
L -3.5 0 
" id="mc561c71966" style="stroke:#000000;stroke-width:0.8;"/>
      </defs>
      <g>
       <use style="stroke:#000000;stroke-width:0.8;" x="51.95" xlink:href="#mc561c71966" y="14.4"/>
      </g>
     </g>
     <g id="text_7">
      <!-- −80 -->
      <g transform="translate(23.845313 18.199219)scale(0.1 -0.1)">
       <defs>
        <path d="M 31.78125 34.625 
Q 24.75 34.625 20.71875 30.859375 
Q 16.703125 27.09375 16.703125 20.515625 
Q 16.703125 13.921875 20.71875 10.15625 
Q 24.75 6.390625 31.78125 6.390625 
Q 38.8125 6.390625 42.859375 10.171875 
Q 46.921875 13.96875 46.921875 20.515625 
Q 46.921875 27.09375 42.890625 30.859375 
Q 38.875 34.625 31.78125 34.625 
z
M 21.921875 38.8125 
Q 15.578125 40.375 12.03125 44.71875 
Q 8.5 49.078125 8.5 55.328125 
Q 8.5 64.0625 14.71875 69.140625 
Q 20.953125 74.21875 31.78125 74.21875 
Q 42.671875 74.21875 48.875 69.140625 
Q 55.078125 64.0625 55.078125 55.328125 
Q 55.078125 49.078125 51.53125 44.71875 
Q 48 40.375 41.703125 38.8125 
Q 48.828125 37.15625 52.796875 32.3125 
Q 56.78125 27.484375 56.78125 20.515625 
Q 56.78125 9.90625 50.3125 4.234375 
Q 43.84375 -1.421875 31.78125 -1.421875 
Q 19.734375 -1.421875 13.25 4.234375 
Q 6.78125 9.90625 6.78125 20.515625 
Q 6.78125 27.484375 10.78125 32.3125 
Q 14.796875 37.15625 21.921875 38.8125 
z
M 18.3125 54.390625 
Q 18.3125 48.734375 21.84375 45.5625 
Q 25.390625 42.390625 31.78125 42.390625 
Q 38.140625 42.390625 41.71875 45.5625 
Q 45.3125 48.734375 45.3125 54.390625 
Q 45.3125 60.0625 41.71875 63.234375 
Q 38.140625 66.40625 31.78125 66.40625 
Q 25.390625 66.40625 21.84375 63.234375 
Q 18.3125 60.0625 18.3125 54.390625 
z
" id="DejaVuSans-56"/>
       </defs>
       <use xlink:href="#DejaVuSans-8722"/>
       <use x="83.789062" xlink:href="#DejaVuSans-56"/>
       <use x="147.412109" xlink:href="#DejaVuSans-48"/>
      </g>
     </g>
    </g>
    <g id="ytick_2">
     <g id="line2d_7">
      <g>
       <use style="stroke:#000000;stroke-width:0.8;" x="51.95" xlink:href="#mc561c71966" y="48.975"/>
      </g>
     </g>
     <g id="text_8">
      <!-- −60 -->
      <g transform="translate(23.845313 52.774219)scale(0.1 -0.1)">
       <use xlink:href="#DejaVuSans-8722"/>
       <use x="83.789062" xlink:href="#DejaVuSans-54"/>
       <use x="147.412109" xlink:href="#DejaVuSans-48"/>
      </g>
     </g>
    </g>
    <g id="ytick_3">
     <g id="line2d_8">
      <g>
       <use style="stroke:#000000;stroke-width:0.8;" x="51.95" xlink:href="#mc561c71966" y="83.55"/>
      </g>
     </g>
     <g id="text_9">
      <!-- −40 -->
      <g transform="translate(23.845313 87.349219)scale(0.1 -0.1)">
       <use xlink:href="#DejaVuSans-8722"/>
       <use x="83.789062" xlink:href="#DejaVuSans-52"/>
       <use x="147.412109" xlink:href="#DejaVuSans-48"/>
      </g>
     </g>
    </g>
    <g id="text_10">
     <!-- Latitude -->
     <g transform="translate(17.765625 69.553906)rotate(-90)scale(0.1 -0.1)">
      <defs>
       <path d="M 34.28125 27.484375 
Q 23.390625 27.484375 19.1875 25 
Q 14.984375 22.515625 14.984375 16.5 
Q 14.984375 11.71875 18.140625 8.90625 
Q 21.296875 6.109375 26.703125 6.109375 
Q 34.1875 6.109375 38.703125 11.40625 
Q 43.21875 16.703125 43.21875 25.484375 
L 43.21875 27.484375 
z
M 52.203125 31.203125 
L 52.203125 0 
L 43.21875 0 
L 43.21875 8.296875 
Q 40.140625 3.328125 35.546875 0.953125 
Q 30.953125 -1.421875 24.3125 -1.421875 
Q 15.921875 -1.421875 10.953125 3.296875 
Q 6 8.015625 6 15.921875 
Q 6 25.140625 12.171875 29.828125 
Q 18.359375 34.515625 30.609375 34.515625 
L 43.21875 34.515625 
L 43.21875 35.40625 
Q 43.21875 41.609375 39.140625 45 
Q 35.0625 48.390625 27.6875 48.390625 
Q 23 48.390625 18.546875 47.265625 
Q 14.109375 46.140625 10.015625 43.890625 
L 10.015625 52.203125 
Q 14.9375 54.109375 19.578125 55.046875 
Q 24.21875 56 28.609375 56 
Q 40.484375 56 46.34375 49.84375 
Q 52.203125 43.703125 52.203125 31.203125 
z
" id="DejaVuSans-97"/>
      </defs>
      <use xlink:href="#DejaVuSans-76"/>
      <use x="55.712891" xlink:href="#DejaVuSans-97"/>
      <use x="116.992188" xlink:href="#DejaVuSans-116"/>
      <use x="156.201172" xlink:href="#DejaVuSans-105"/>
      <use x="183.984375" xlink:href="#DejaVuSans-116"/>
      <use x="223.193359" xlink:href="#DejaVuSans-117"/>
      <use x="286.572266" xlink:href="#DejaVuSans-100"/>
      <use x="350.048828" xlink:href="#DejaVuSans-101"/>
     </g>
    </g>
   </g>
   <g id="line2d_9">
    <path clip-path="url(#p930c09d34e)" d="M 531.467392 41.370634 
L 518.38725 41.367271 
L 391.154348 41.244122 
L 388.64138 41.105212 
L 386.099492 40.747043 
L 381.349669 39.725504 
L 376.855107 38.573299 
L 366.129778 35.58125 
L 362.673655 34.955667 
L 358.95785 34.508233 
L 352.957325 34.121707 
L 348.763659 33.989458 
L 347.423611 34.07193 
L 347.19401 34.223805 
L 346.287305 34.250356 
L 325.48622 34.253165 
L 310.501813 34.484901 
L 306.917153 34.724234 
L 303.713308 35.123211 
L 300.916387 35.681291 
L 298.37441 36.386537 
L 295.986867 37.228767 
L 287.982013 40.403013 
L 285.43248 41.095874 
L 282.712891 41.628063 
L 279.832084 41.97729 
L 275.146786 42.23948 
L 268.607785 42.327855 
L 254.846531 42.113707 
L 240.589258 41.654165 
L 232.179879 41.419237 
L 204.073297 40.853666 
L 173.143419 40.543703 
L 119.678315 40.282133 
L 56.02788 39.960881 
L 52.192882 39.669489 
L 48.678374 39.185903 
L 45.491217 38.512338 
L 42.584609 37.658119 
L 30.885928 33.591932 
L 27.645607 32.855216 
L 24.257552 32.333684 
L 20.724268 32.029934 
L 17.019232 31.91855 
L 13.166038 31.997831 
L 9.253627 32.276759 
L 5.442301 32.754555 
L 0.019007 33.753923 
L -1 33.978922 
L -1 33.978922 
" style="fill:none;stroke:#000000;stroke-linecap:square;stroke-width:0.5;"/>
   </g>
   <g id="line2d_10">
    <path clip-path="url(#p930c09d34e)" d="M 363.083778 43.024007 
L 363.197641 39.28415 
" style="fill:none;stroke:#ff0000;stroke-linecap:square;"/>
   </g>
   <g id="line2d_11">
    <path clip-path="url(#p930c09d34e)" d="M 363.197641 39.28415 
L 338.985195 39.197866 
" style="fill:none;stroke:#ff0000;stroke-linecap:square;"/>
   </g>
   <g id="line2d_12">
    <path clip-path="url(#p930c09d34e)" d="M 338.985195 39.197866 
L 338.871329 42.937729 
" style="fill:none;stroke:#ff0000;stroke-linecap:square;"/>
   </g>
   <g id="line2d_13">
    <path clip-path="url(#p930c09d34e)" d="M 338.871329 42.937729 
L 363.083778 43.024007 
" style="fill:none;stroke:#ff0000;stroke-linecap:square;"/>
   </g>
   <g id="line2d_14">
    <path clip-path="url(#p930c09d34e)" d="M 527.466733 41.369869 
L 390.322882 41.217928 
L 387.789312 41.013349 
L 385.235975 40.578589 
L 380.268228 39.465055 
L 375.678977 38.238778 
L 367.73465 35.941081 
L 364.440358 35.249881 
L 360.84247 34.707339 
L 357.015435 34.349579 
L 350.866481 34.044589 
L 348.763659 33.989458 
L 347.423611 34.07193 
L 347.19401 34.223805 
L 346.287305 34.250356 
L 330.215513 34.214913 
L 330.215513 34.214913 
L 328.917554 34.299267 
L 328.917554 34.299267 
L 326.995963 34.193931 
L 326.995963 34.193931 
L 325.625169 34.300701 
L 325.625169 34.300701 
L 318.014444 34.235722 
L 318.014444 34.235722 
L 314.276312 34.348631 
L 314.276312 34.348631 
L 312.283831 34.376039 
L 312.283831 34.376039 
L 309.795578 34.243291 
L 309.795578 34.243291 
L 309.12965 34.743314 
L 309.12965 34.743314 
L 306.894493 34.716482 
L 306.894493 34.716482 
L 305.041607 34.828332 
L 305.041607 34.828332 
L 303.888002 35.182976 
L 303.888002 35.182976 
L 300.87715 35.667868 
L 300.87715 35.667868 
L 299.968016 36.13495 
L 299.968016 36.13495 
L 298.41392 36.400053 
L 298.41392 36.400053 
L 297.379814 36.865156 
L 297.379814 36.865156 
L 296.086746 37.262936 
L 296.086746 37.262936 
L 295.132312 37.78918 
L 295.132312 37.78918 
L 293.740192 38.171165 
L 293.740192 38.171165 
L 292.763051 38.696667 
L 292.763051 38.696667 
L 291.584697 39.147716 
L 291.584697 39.147716 
L 290.073715 39.474559 
L 290.073715 39.474559 
L 289.352175 40.057752 
L 289.352175 40.057752 
L 288.292331 40.509177 
L 288.292331 40.509177 
L 286.389964 40.652369 
L 286.389964 40.652369 
L 286.070397 41.314112 
L 286.070397 41.314112 
L 284.006049 41.353531 
L 284.006049 41.353531 
L 282.550158 41.57239 
L 282.550158 41.57239 
L 281.536496 41.908789 
L 281.536496 41.908789 
L 279.696296 41.930835 
L 279.696296 41.930835 
L 278.268207 42.071952 
L 278.268207 42.071952 
L 276.180227 41.976903 
L 276.180227 41.976903 
L 274.886414 42.150404 
L 274.886414 42.150404 
L 273.207886 42.187051 
L 273.207886 42.187051 
L 272.121055 42.410511 
L 272.121055 42.410511 
L 267.305907 42.409689 
L 267.305907 42.409689 
L 265.451339 42.285756 
L 265.451339 42.285756 
L 262.449617 42.276581 
L 262.449617 42.276581 
L 258.136788 42.28409 
L 258.136788 42.28409 
L 254.273455 41.917651 
L 254.273455 41.917651 
L 252.862284 41.904177 
L 252.862284 41.904177 
L 251.846687 42.020701 
L 251.846687 42.020701 
L 248.205429 41.686619 
L 248.205429 41.686619 
L 247.964255 42.051694 
L 247.964255 42.051694 
L 245.735283 41.73129 
L 245.735283 41.73129 
L 244.752415 41.832069 
L 244.752415 41.832069 
L 243.527816 41.84381 
L 243.527816 41.84381 
L 241.262795 41.4867 
L 241.262795 41.4867 
L 240.973952 41.785773 
L 240.973952 41.785773 
L 238.921873 41.459003 
L 238.921873 41.459003 
L 238.963361 41.839883 
L 238.963361 41.839883 
L 237.690778 41.770166 
L 237.690778 41.770166 
L 235.00751 41.219738 
L 235.00751 41.219738 
L 234.169237 41.308524 
L 234.169237 41.308524 
L 232.456041 41.110494 
L 232.456041 41.110494 
L 230.214553 41.166928 
L 230.214553 41.166928 
L 228.619278 41.515251 
L 228.619278 41.515251 
L 224.973364 41.237349 
L 224.973364 41.237349 
L 223.448594 41.22934 
L 223.448594 41.22934 
L 221.34591 41.043111 
L 221.34591 41.043111 
L 220.420194 41.279119 
L 220.420194 41.279119 
L 216.965539 40.669558 
L 216.965539 40.669558 
L 217.623052 41.48645 
L 217.623052 41.48645 
L 214.444604 41.017265 
L 214.444604 41.017265 
L 212.576994 41.020965 
L 212.576994 41.020965 
L 207.870284 40.756448 
L 207.870284 40.756448 
L 204.69519 40.365661 
L 204.69519 40.365661 
L 204.32907 40.941169 
L 204.32907 40.941169 
L 202.850466 41.133558 
L 202.850466 41.133558 
L 197.236417 40.592989 
L 197.236417 40.592989 
L 194.698017 41.083687 
L 194.698017 41.083687 
L 192.498441 41.004892 
L 192.498441 41.004892 
L 189.313432 40.590394 
L 189.313432 40.590394 
L 187.040821 40.489937 
L 187.040821 40.489937 
L 185.523638 40.650122 
L 185.523638 40.650122 
L 183.190383 40.534174 
L 183.190383 40.534174 
L 181.467386 40.63016 
L 181.467386 40.63016 
L 179.194556 40.540786 
L 179.194556 40.540786 
L 176.391218 40.271918 
L 176.391218 40.271918 
L 174.293774 40.245664 
L 174.293774 40.245664 
" style="fill:none;stroke:#ff0000;stroke-linecap:square;"/>
   </g>
   <g id="patch_3">
    <path d="M 51.95 83.55 
L 51.95 14.4 
" style="fill:none;stroke:#000000;stroke-linecap:square;stroke-linejoin:miter;stroke-width:0.8;"/>
   </g>
   <g id="patch_4">
    <path d="M 557.26875 83.55 
L 557.26875 14.4 
" style="fill:none;stroke:#000000;stroke-linecap:square;stroke-linejoin:miter;stroke-width:0.8;"/>
   </g>
   <g id="patch_5">
    <path d="M 51.95 83.55 
L 557.26875 83.55 
" style="fill:none;stroke:#000000;stroke-linecap:square;stroke-linejoin:miter;stroke-width:0.8;"/>
   </g>
   <g id="patch_6">
    <path d="M 51.95 14.4 
L 557.26875 14.4 
" style="fill:none;stroke:#000000;stroke-linecap:square;stroke-linejoin:miter;stroke-width:0.8;"/>
   </g>
   <g id="legend_1">
    <g id="patch_7">
     <path d="M 453.457813 78.55 
L 550.26875 78.55 
Q 552.26875 78.55 552.26875 76.55 
L 552.26875 48.19375 
Q 552.26875 46.19375 550.26875 46.19375 
L 453.457813 46.19375 
Q 451.457813 46.19375 451.457813 48.19375 
L 451.457813 76.55 
Q 451.457813 78.55 453.457813 78.55 
z
" style="fill:#ffffff;opacity:0.8;stroke:#cccccc;stroke-linejoin:miter;"/>
    </g>
    <g id="line2d_15">
     <path d="M 455.457813 54.292188 
L 475.457813 54.292188 
" style="fill:none;stroke:#000000;stroke-linecap:square;stroke-width:0.5;"/>
    </g>
    <g id="line2d_16"/>
    <g id="text_11">
     <!-- Ground-Truth -->
     <g transform="translate(483.457813 57.792188)scale(0.1 -0.1)">
      <defs>
       <path d="M 59.515625 10.40625 
L 59.515625 29.984375 
L 43.40625 29.984375 
L 43.40625 38.09375 
L 69.28125 38.09375 
L 69.28125 6.78125 
Q 63.578125 2.734375 56.6875 0.65625 
Q 49.8125 -1.421875 42 -1.421875 
Q 24.90625 -1.421875 15.25 8.5625 
Q 5.609375 18.5625 5.609375 36.375 
Q 5.609375 54.25 15.25 64.234375 
Q 24.90625 74.21875 42 74.21875 
Q 49.125 74.21875 55.546875 72.453125 
Q 61.96875 70.703125 67.390625 67.28125 
L 67.390625 56.78125 
Q 61.921875 61.421875 55.765625 63.765625 
Q 49.609375 66.109375 42.828125 66.109375 
Q 29.4375 66.109375 22.71875 58.640625 
Q 16.015625 51.171875 16.015625 36.375 
Q 16.015625 21.625 22.71875 14.15625 
Q 29.4375 6.6875 42.828125 6.6875 
Q 48.046875 6.6875 52.140625 7.59375 
Q 56.25 8.5 59.515625 10.40625 
z
" id="DejaVuSans-71"/>
       <path d="M 41.109375 46.296875 
Q 39.59375 47.171875 37.8125 47.578125 
Q 36.03125 48 33.890625 48 
Q 26.265625 48 22.1875 43.046875 
Q 18.109375 38.09375 18.109375 28.8125 
L 18.109375 0 
L 9.078125 0 
L 9.078125 54.6875 
L 18.109375 54.6875 
L 18.109375 46.1875 
Q 20.953125 51.171875 25.484375 53.578125 
Q 30.03125 56 36.53125 56 
Q 37.453125 56 38.578125 55.875 
Q 39.703125 55.765625 41.0625 55.515625 
z
" id="DejaVuSans-114"/>
       <path d="M 4.890625 31.390625 
L 31.203125 31.390625 
L 31.203125 23.390625 
L 4.890625 23.390625 
z
" id="DejaVuSans-45"/>
       <path d="M -0.296875 72.90625 
L 61.375 72.90625 
L 61.375 64.59375 
L 35.5 64.59375 
L 35.5 0 
L 25.59375 0 
L 25.59375 64.59375 
L -0.296875 64.59375 
z
" id="DejaVuSans-84"/>
       <path d="M 54.890625 33.015625 
L 54.890625 0 
L 45.90625 0 
L 45.90625 32.71875 
Q 45.90625 40.484375 42.875 44.328125 
Q 39.84375 48.1875 33.796875 48.1875 
Q 26.515625 48.1875 22.3125 43.546875 
Q 18.109375 38.921875 18.109375 30.90625 
L 18.109375 0 
L 9.078125 0 
L 9.078125 75.984375 
L 18.109375 75.984375 
L 18.109375 46.1875 
Q 21.34375 51.125 25.703125 53.5625 
Q 30.078125 56 35.796875 56 
Q 45.21875 56 50.046875 50.171875 
Q 54.890625 44.34375 54.890625 33.015625 
z
" id="DejaVuSans-104"/>
      </defs>
      <use xlink:href="#DejaVuSans-71"/>
      <use x="77.490234" xlink:href="#DejaVuSans-114"/>
      <use x="116.353516" xlink:href="#DejaVuSans-111"/>
      <use x="177.535156" xlink:href="#DejaVuSans-117"/>
      <use x="240.914062" xlink:href="#DejaVuSans-110"/>
      <use x="304.292969" xlink:href="#DejaVuSans-100"/>
      <use x="367.769531" xlink:href="#DejaVuSans-45"/>
      <use x="394.728516" xlink:href="#DejaVuSans-84"/>
      <use x="441.0625" xlink:href="#DejaVuSans-114"/>
      <use x="482.175781" xlink:href="#DejaVuSans-117"/>
      <use x="545.554688" xlink:href="#DejaVuSans-116"/>
      <use x="584.763672" xlink:href="#DejaVuSans-104"/>
     </g>
    </g>
    <g id="line2d_17">
     <path d="M 455.457813 68.970313 
L 475.457813 68.970313 
" style="fill:none;stroke:#ff0000;stroke-linecap:square;"/>
    </g>
    <g id="line2d_18"/>
    <g id="text_12">
     <!-- Sensor data -->
     <g transform="translate(483.457813 72.470313)scale(0.1 -0.1)">
      <defs>
       <path d="M 53.515625 70.515625 
L 53.515625 60.890625 
Q 47.90625 63.578125 42.921875 64.890625 
Q 37.9375 66.21875 33.296875 66.21875 
Q 25.25 66.21875 20.875 63.09375 
Q 16.5 59.96875 16.5 54.203125 
Q 16.5 49.359375 19.40625 46.890625 
Q 22.3125 44.4375 30.421875 42.921875 
L 36.375 41.703125 
Q 47.40625 39.59375 52.65625 34.296875 
Q 57.90625 29 57.90625 20.125 
Q 57.90625 9.515625 50.796875 4.046875 
Q 43.703125 -1.421875 29.984375 -1.421875 
Q 24.8125 -1.421875 18.96875 -0.25 
Q 13.140625 0.921875 6.890625 3.21875 
L 6.890625 13.375 
Q 12.890625 10.015625 18.65625 8.296875 
Q 24.421875 6.59375 29.984375 6.59375 
Q 38.421875 6.59375 43.015625 9.90625 
Q 47.609375 13.234375 47.609375 19.390625 
Q 47.609375 24.75 44.3125 27.78125 
Q 41.015625 30.8125 33.5 32.328125 
L 27.484375 33.5 
Q 16.453125 35.6875 11.515625 40.375 
Q 6.59375 45.0625 6.59375 53.421875 
Q 6.59375 63.09375 13.40625 68.65625 
Q 20.21875 74.21875 32.171875 74.21875 
Q 37.3125 74.21875 42.625 73.28125 
Q 47.953125 72.359375 53.515625 70.515625 
z
" id="DejaVuSans-83"/>
       <path d="M 44.28125 53.078125 
L 44.28125 44.578125 
Q 40.484375 46.53125 36.375 47.5 
Q 32.28125 48.484375 27.875 48.484375 
Q 21.1875 48.484375 17.84375 46.4375 
Q 14.5 44.390625 14.5 40.28125 
Q 14.5 37.15625 16.890625 35.375 
Q 19.28125 33.59375 26.515625 31.984375 
L 29.59375 31.296875 
Q 39.15625 29.25 43.1875 25.515625 
Q 47.21875 21.78125 47.21875 15.09375 
Q 47.21875 7.46875 41.1875 3.015625 
Q 35.15625 -1.421875 24.609375 -1.421875 
Q 20.21875 -1.421875 15.453125 -0.5625 
Q 10.6875 0.296875 5.421875 2 
L 5.421875 11.28125 
Q 10.40625 8.6875 15.234375 7.390625 
Q 20.0625 6.109375 24.8125 6.109375 
Q 31.15625 6.109375 34.5625 8.28125 
Q 37.984375 10.453125 37.984375 14.40625 
Q 37.984375 18.0625 35.515625 20.015625 
Q 33.0625 21.96875 24.703125 23.78125 
L 21.578125 24.515625 
Q 13.234375 26.265625 9.515625 29.90625 
Q 5.8125 33.546875 5.8125 39.890625 
Q 5.8125 47.609375 11.28125 51.796875 
Q 16.75 56 26.8125 56 
Q 31.78125 56 36.171875 55.265625 
Q 40.578125 54.546875 44.28125 53.078125 
z
" id="DejaVuSans-115"/>
       <path id="DejaVuSans-32"/>
      </defs>
      <use xlink:href="#DejaVuSans-83"/>
      <use x="63.476562" xlink:href="#DejaVuSans-101"/>
      <use x="125" xlink:href="#DejaVuSans-110"/>
      <use x="188.378906" xlink:href="#DejaVuSans-115"/>
      <use x="240.478516" xlink:href="#DejaVuSans-111"/>
      <use x="301.660156" xlink:href="#DejaVuSans-114"/>
      <use x="342.773438" xlink:href="#DejaVuSans-32"/>
      <use x="374.560547" xlink:href="#DejaVuSans-100"/>
      <use x="438.037109" xlink:href="#DejaVuSans-97"/>
      <use x="499.316406" xlink:href="#DejaVuSans-116"/>
      <use x="538.525391" xlink:href="#DejaVuSans-97"/>
     </g>
    </g>
   </g>
  </g>
  <g id="axes_2">
   <g id="patch_8">
    <path d="M 51.95 196.1 
L 557.26875 196.1 
L 557.26875 126.95 
L 51.95 126.95 
z
" style="fill:none;"/>
   </g>
   <g id="PathCollection_24">
    <g clip-path="url(#pa6c327e093)">
     <use style="stroke:#000000;" x="220.542747" xlink:href="#m359e41dfbd" y="323.31748"/>
    </g>
   </g>
   <g id="PathCollection_25">
    <g clip-path="url(#pa6c327e093)">
     <use style="stroke:#000000;" x="66.60776" xlink:href="#m359e41dfbd" y="479.192335"/>
    </g>
   </g>
   <g id="PathCollection_26">
    <g clip-path="url(#pa6c327e093)">
     <use style="stroke:#000000;" x="83.707471" xlink:href="#m359e41dfbd" y="517.344225"/>
    </g>
   </g>
   <g id="PathCollection_27">
    <g clip-path="url(#pa6c327e093)"/>
   </g>
   <g id="PathCollection_28">
    <g clip-path="url(#pa6c327e093)">
     <use style="stroke:#000000;" x="81.044998" xlink:href="#m359e41dfbd" y="176.222191"/>
    </g>
   </g>
   <g id="PathCollection_29">
    <g clip-path="url(#pa6c327e093)"/>
   </g>
   <g id="PathCollection_30">
    <g clip-path="url(#pa6c327e093)">
     <use style="stroke:#000000;" x="65.330488" xlink:href="#m359e41dfbd" y="300.165406"/>
    </g>
   </g>
   <g id="PathCollection_31">
    <g clip-path="url(#pa6c327e093)">
     <use style="stroke:#000000;" x="55.668182" xlink:href="#m359e41dfbd" y="277.460696"/>
    </g>
   </g>
   <g id="PathCollection_32">
    <g clip-path="url(#pa6c327e093)">
     <use style="stroke:#000000;" x="219.054659" xlink:href="#m359e41dfbd" y="300.347003"/>
    </g>
   </g>
   <g id="PathCollection_33">
    <g clip-path="url(#pa6c327e093)">
     <use style="stroke:#000000;" x="834.14242" xlink:href="#m359e41dfbd" y="301.41916"/>
    </g>
   </g>
   <g id="PathCollection_34">
    <g clip-path="url(#pa6c327e093)">
     <use style="stroke:#000000;" x="958.754043" xlink:href="#m359e41dfbd" y="301.89259"/>
    </g>
   </g>
   <g id="PathCollection_35">
    <g clip-path="url(#pa6c327e093)">
     <use style="stroke:#000000;" x="206.329154" xlink:href="#m359e41dfbd" y="177.04833"/>
    </g>
   </g>
   <g id="PathCollection_36">
    <g clip-path="url(#pa6c327e093)">
     <use style="stroke:#000000;" x="147.093549" xlink:href="#m359e41dfbd" y="138.088997"/>
    </g>
   </g>
   <g id="PathCollection_37">
    <g clip-path="url(#pa6c327e093)">
     <use style="stroke:#000000;" x="963.796821" xlink:href="#m359e41dfbd" y="325.833948"/>
    </g>
   </g>
   <g id="PathCollection_38">
    <g clip-path="url(#pa6c327e093)"/>
   </g>
   <g id="PathCollection_39">
    <g clip-path="url(#pa6c327e093)">
     <use style="stroke:#000000;" x="238.159913" xlink:href="#m359e41dfbd" y="379.398912"/>
    </g>
   </g>
   <g id="PathCollection_40">
    <g clip-path="url(#pa6c327e093)">
     <use style="stroke:#000000;" x="602.980643" xlink:href="#m359e41dfbd" y="330.59483"/>
    </g>
   </g>
   <g id="PathCollection_41">
    <g clip-path="url(#pa6c327e093)">
     <use style="stroke:#000000;" x="598.452217" xlink:href="#m359e41dfbd" y="380.125432"/>
    </g>
   </g>
   <g id="PathCollection_42">
    <g clip-path="url(#pa6c327e093)">
     <use style="stroke:#000000;" x="631.04528" xlink:href="#m359e41dfbd" y="331.806875"/>
    </g>
   </g>
   <g id="PathCollection_43">
    <g clip-path="url(#pa6c327e093)">
     <use style="stroke:#000000;" x="559.037358" xlink:href="#m359e41dfbd" y="357.910997"/>
    </g>
   </g>
   <g id="PathCollection_44">
    <g clip-path="url(#pa6c327e093)">
     <use style="stroke:#000000;" x="512.295374" xlink:href="#m359e41dfbd" y="395.165565"/>
    </g>
   </g>
   <g id="PathCollection_45">
    <g clip-path="url(#pa6c327e093)">
     <use style="stroke:#000000;" x="670.712794" xlink:href="#m359e41dfbd" y="370.963059"/>
    </g>
   </g>
   <g id="PathCollection_46">
    <g clip-path="url(#pa6c327e093)">
     <use style="fill:#ff0000;stroke:#ff0000;" x="206.329154" xlink:href="#m0397287a50" y="177.04833"/>
    </g>
   </g>
   <g id="matplotlib.axis_3">
    <g id="xtick_6">
     <g id="line2d_19">
      <g>
       <use style="stroke:#000000;stroke-width:0.8;" x="77.215938" xlink:href="#m7553bd0790" y="196.1"/>
      </g>
     </g>
     <g id="text_13">
      <!-- −60 -->
      <g transform="translate(66.663594 210.698437)scale(0.1 -0.1)">
       <use xlink:href="#DejaVuSans-8722"/>
       <use x="83.789062" xlink:href="#DejaVuSans-54"/>
       <use x="147.412109" xlink:href="#DejaVuSans-48"/>
      </g>
     </g>
    </g>
    <g id="xtick_7">
     <g id="line2d_20">
      <g>
       <use style="stroke:#000000;stroke-width:0.8;" x="178.279688" xlink:href="#m7553bd0790" y="196.1"/>
      </g>
     </g>
     <g id="text_14">
      <!-- −40 -->
      <g transform="translate(167.727344 210.698437)scale(0.1 -0.1)">
       <use xlink:href="#DejaVuSans-8722"/>
       <use x="83.789062" xlink:href="#DejaVuSans-52"/>
       <use x="147.412109" xlink:href="#DejaVuSans-48"/>
      </g>
     </g>
    </g>
    <g id="xtick_8">
     <g id="line2d_21">
      <g>
       <use style="stroke:#000000;stroke-width:0.8;" x="279.343438" xlink:href="#m7553bd0790" y="196.1"/>
      </g>
     </g>
     <g id="text_15">
      <!-- −20 -->
      <g transform="translate(268.791094 210.698437)scale(0.1 -0.1)">
       <use xlink:href="#DejaVuSans-8722"/>
       <use x="83.789062" xlink:href="#DejaVuSans-50"/>
       <use x="147.412109" xlink:href="#DejaVuSans-48"/>
      </g>
     </g>
    </g>
    <g id="xtick_9">
     <g id="line2d_22">
      <g>
       <use style="stroke:#000000;stroke-width:0.8;" x="380.407188" xlink:href="#m7553bd0790" y="196.1"/>
      </g>
     </g>
     <g id="text_16">
      <!-- 0 -->
      <g transform="translate(377.225938 210.698437)scale(0.1 -0.1)">
       <use xlink:href="#DejaVuSans-48"/>
      </g>
     </g>
    </g>
    <g id="xtick_10">
     <g id="line2d_23">
      <g>
       <use style="stroke:#000000;stroke-width:0.8;" x="481.470938" xlink:href="#m7553bd0790" y="196.1"/>
      </g>
     </g>
     <g id="text_17">
      <!-- 20 -->
      <g transform="translate(475.108438 210.698437)scale(0.1 -0.1)">
       <use xlink:href="#DejaVuSans-50"/>
       <use x="63.623047" xlink:href="#DejaVuSans-48"/>
      </g>
     </g>
    </g>
    <g id="text_18">
     <!-- Longitude -->
     <g transform="translate(279.739844 224.376562)scale(0.1 -0.1)">
      <use xlink:href="#DejaVuSans-76"/>
      <use x="53.962891" xlink:href="#DejaVuSans-111"/>
      <use x="115.144531" xlink:href="#DejaVuSans-110"/>
      <use x="178.523438" xlink:href="#DejaVuSans-103"/>
      <use x="242" xlink:href="#DejaVuSans-105"/>
      <use x="269.783203" xlink:href="#DejaVuSans-116"/>
      <use x="308.992188" xlink:href="#DejaVuSans-117"/>
      <use x="372.371094" xlink:href="#DejaVuSans-100"/>
      <use x="435.847656" xlink:href="#DejaVuSans-101"/>
     </g>
    </g>
   </g>
   <g id="matplotlib.axis_4">
    <g id="ytick_4">
     <g id="line2d_24">
      <g>
       <use style="stroke:#000000;stroke-width:0.8;" x="51.95" xlink:href="#mc561c71966" y="126.95"/>
      </g>
     </g>
     <g id="text_19">
      <!-- −80 -->
      <g transform="translate(23.845313 130.749219)scale(0.1 -0.1)">
       <use xlink:href="#DejaVuSans-8722"/>
       <use x="83.789062" xlink:href="#DejaVuSans-56"/>
       <use x="147.412109" xlink:href="#DejaVuSans-48"/>
      </g>
     </g>
    </g>
    <g id="ytick_5">
     <g id="line2d_25">
      <g>
       <use style="stroke:#000000;stroke-width:0.8;" x="51.95" xlink:href="#mc561c71966" y="161.525"/>
      </g>
     </g>
     <g id="text_20">
      <!-- −60 -->
      <g transform="translate(23.845313 165.324219)scale(0.1 -0.1)">
       <use xlink:href="#DejaVuSans-8722"/>
       <use x="83.789062" xlink:href="#DejaVuSans-54"/>
       <use x="147.412109" xlink:href="#DejaVuSans-48"/>
      </g>
     </g>
    </g>
    <g id="ytick_6">
     <g id="line2d_26">
      <g>
       <use style="stroke:#000000;stroke-width:0.8;" x="51.95" xlink:href="#mc561c71966" y="196.1"/>
      </g>
     </g>
     <g id="text_21">
      <!-- −40 -->
      <g transform="translate(23.845313 199.899219)scale(0.1 -0.1)">
       <use xlink:href="#DejaVuSans-8722"/>
       <use x="83.789062" xlink:href="#DejaVuSans-52"/>
       <use x="147.412109" xlink:href="#DejaVuSans-48"/>
      </g>
     </g>
    </g>
    <g id="text_22">
     <!-- Latitude -->
     <g transform="translate(17.765625 182.103906)rotate(-90)scale(0.1 -0.1)">
      <use xlink:href="#DejaVuSans-76"/>
      <use x="55.712891" xlink:href="#DejaVuSans-97"/>
      <use x="116.992188" xlink:href="#DejaVuSans-116"/>
      <use x="156.201172" xlink:href="#DejaVuSans-105"/>
      <use x="183.984375" xlink:href="#DejaVuSans-116"/>
      <use x="223.193359" xlink:href="#DejaVuSans-117"/>
      <use x="286.572266" xlink:href="#DejaVuSans-100"/>
      <use x="350.048828" xlink:href="#DejaVuSans-101"/>
     </g>
    </g>
   </g>
   <g id="line2d_27">
    <path clip-path="url(#pa6c327e093)" d="M 169.012837 236.63026 
L 169.012529 236.630151 
L 169.013454 236.578534 
L 170.00507 189.863663 
L 170.420726 186.166612 
L 171.011104 182.625465 
L 171.651234 180.459852 
L 172.375062 178.777621 
L 173.405867 177.060326 
L 174.809496 175.319118 
L 176.630053 173.57098 
L 178.907481 171.829291 
L 181.657199 170.112794 
L 184.894782 168.438233 
L 188.593881 166.835889 
L 192.669775 165.342727 
L 197.117318 164.027574 
L 201.903065 162.86396 
L 207.041146 161.866498 
L 212.467004 161.036883 
L 218.078705 160.364848 
L 223.821447 159.888813 
L 229.655521 159.600791 
L 239.572737 159.383055 
L 253.484645 159.358497 
L 456.048134 159.954133 
L 577 159.946593 
L 577 159.946593 
" style="fill:none;stroke:#000000;stroke-linecap:square;stroke-width:0.5;"/>
   </g>
   <g id="line2d_28">
    <path clip-path="url(#pa6c327e093)" d="M 363.083778 155.574007 
L 363.197641 151.83415 
" style="fill:none;stroke:#ff0000;stroke-linecap:square;"/>
   </g>
   <g id="line2d_29">
    <path clip-path="url(#pa6c327e093)" d="M 363.197641 151.83415 
L 338.985195 151.747866 
" style="fill:none;stroke:#ff0000;stroke-linecap:square;"/>
   </g>
   <g id="line2d_30">
    <path clip-path="url(#pa6c327e093)" d="M 338.985195 151.747866 
L 338.871329 155.487729 
" style="fill:none;stroke:#ff0000;stroke-linecap:square;"/>
   </g>
   <g id="line2d_31">
    <path clip-path="url(#pa6c327e093)" d="M 338.871329 155.487729 
L 363.083778 155.574007 
" style="fill:none;stroke:#ff0000;stroke-linecap:square;"/>
   </g>
   <g id="line2d_32">
    <path clip-path="url(#pa6c327e093)" d="M 181.657199 170.112794 
L 184.894782 168.438233 
L 188.593881 166.835889 
L 192.669775 165.342727 
L 195.341746 165.304574 
L 195.341746 165.304574 
L 196.410668 164.72434 
L 196.410668 164.72434 
L 196.337482 163.760783 
L 196.337482 163.760783 
L 199.30447 163.837798 
L 199.30447 163.837798 
L 199.429966 162.948412 
L 199.429966 162.948412 
L 202.64097 163.116405 
L 202.64097 163.116405 
L 205.117148 163.040418 
L 205.117148 163.040418 
L 205.394075 162.216832 
L 205.394075 162.216832 
L 206.672502 161.740381 
L 206.672502 161.740381 
L 210.251841 161.166495 
L 210.251841 161.166495 
L 209.797193 160.123512 
L 209.797193 160.123512 
L 213.780208 160.60707 
L 213.780208 160.60707 
L 216.134175 160.547491 
L 216.134175 160.547491 
L 217.799999 160.2695 
L 217.799999 160.2695 
L 220.382737 160.323303 
L 220.382737 160.323303 
L 221.773776 159.988363 
L 221.773776 159.988363 
L 223.671115 159.837382 
L 223.671115 159.837382 
L 227.184388 160.260399 
L 227.184388 160.260399 
L 227.765725 159.700579 
L 227.765725 159.700579 
L 229.597388 159.580903 
L 229.597388 159.580903 
L 230.829594 159.264393 
L 230.829594 159.264393 
L 233.999361 159.61994 
L 233.999361 159.61994 
L 235.905185 159.549683 
L 235.905185 159.549683 
L 238.325079 159.663818 
L 238.325079 159.663818 
L 240.67876 159.061969 
L 240.67876 159.061969 
L 242.799479 159.094249 
L 242.799479 159.094249 
L 245.659727 159.38685 
L 245.659727 159.38685 
L 246.789726 159.09132 
L 246.789726 159.09132 
L 249.763052 159.431661 
L 249.763052 159.431661 
L 251.291618 159.279723 
L 251.291618 159.279723 
L 254.598065 159.73941 
L 254.598065 159.73941 
L 256.111848 159.586047 
L 256.111848 159.586047 
L 256.694052 159.115736 
L 256.694052 159.115736 
L 259.668307 159.462739 
L 259.668307 159.462739 
L 269.243184 159.382182 
L 269.243184 159.382182 
L 270.373976 159.095971 
L 270.373976 159.095971 
L 273.458526 159.479098 
L 273.458526 159.479098 
L 275.121596 159.374823 
L 275.121596 159.374823 
L 281.417719 159.511492 
L 281.417719 159.511492 
L 283.691673 159.616372 
L 283.691673 159.616372 
L 285.035966 159.404228 
L 285.035966 159.404228 
L 291.389916 159.558853 
L 291.389916 159.558853 
L 292.992594 159.434667 
L 292.992594 159.434667 
L 296.72332 159.364771 
L 296.72332 159.364771 
L 298.218227 159.202472 
L 298.218227 159.202472 
L 301.199601 159.549821 
L 301.199601 159.549821 
L 303.351606 159.61238 
L 303.351606 159.61238 
L 304.963981 159.491489 
L 304.963981 159.491489 
L 313.28562 159.647199 
L 313.28562 159.647199 
L 314.609547 159.427007 
L 314.609547 159.427007 
L 317.108054 159.609756 
L 317.108054 159.609756 
L 318.761071 159.502205 
L 318.761071 159.502205 
L 323.260397 159.696666 
L 323.260397 159.696666 
L 324.681873 159.511131 
L 324.681873 159.511131 
L 331.054595 159.673451 
L 331.054595 159.673451 
L 334.812337 159.614157 
L 334.812337 159.614157 
L 337.041595 159.704955 
L 337.041595 159.704955 
L 340.86189 159.667423 
L 450.091747 159.952411 
L 525.562651 159.953981 
L 525.562651 159.953981 
" style="fill:none;stroke:#ff0000;stroke-linecap:square;"/>
   </g>
   <g id="patch_9">
    <path d="M 51.95 196.1 
L 51.95 126.95 
" style="fill:none;stroke:#000000;stroke-linecap:square;stroke-linejoin:miter;stroke-width:0.8;"/>
   </g>
   <g id="patch_10">
    <path d="M 557.26875 196.1 
L 557.26875 126.95 
" style="fill:none;stroke:#000000;stroke-linecap:square;stroke-linejoin:miter;stroke-width:0.8;"/>
   </g>
   <g id="patch_11">
    <path d="M 51.95 196.1 
L 557.26875 196.1 
" style="fill:none;stroke:#000000;stroke-linecap:square;stroke-linejoin:miter;stroke-width:0.8;"/>
   </g>
   <g id="patch_12">
    <path d="M 51.95 126.95 
L 557.26875 126.95 
" style="fill:none;stroke:#000000;stroke-linecap:square;stroke-linejoin:miter;stroke-width:0.8;"/>
   </g>
   <g id="legend_2">
    <g id="patch_13">
     <path d="M 58.95 164.30625 
L 155.760938 164.30625 
Q 157.760938 164.30625 157.760938 162.30625 
L 157.760938 133.95 
Q 157.760938 131.95 155.760938 131.95 
L 58.95 131.95 
Q 56.95 131.95 56.95 133.95 
L 56.95 162.30625 
Q 56.95 164.30625 58.95 164.30625 
z
" style="fill:#ffffff;opacity:0.8;stroke:#cccccc;stroke-linejoin:miter;"/>
    </g>
    <g id="line2d_33">
     <path d="M 60.95 140.048438 
L 80.95 140.048438 
" style="fill:none;stroke:#000000;stroke-linecap:square;stroke-width:0.5;"/>
    </g>
    <g id="line2d_34"/>
    <g id="text_23">
     <!-- Ground-Truth -->
     <g transform="translate(88.95 143.548438)scale(0.1 -0.1)">
      <use xlink:href="#DejaVuSans-71"/>
      <use x="77.490234" xlink:href="#DejaVuSans-114"/>
      <use x="116.353516" xlink:href="#DejaVuSans-111"/>
      <use x="177.535156" xlink:href="#DejaVuSans-117"/>
      <use x="240.914062" xlink:href="#DejaVuSans-110"/>
      <use x="304.292969" xlink:href="#DejaVuSans-100"/>
      <use x="367.769531" xlink:href="#DejaVuSans-45"/>
      <use x="394.728516" xlink:href="#DejaVuSans-84"/>
      <use x="441.0625" xlink:href="#DejaVuSans-114"/>
      <use x="482.175781" xlink:href="#DejaVuSans-117"/>
      <use x="545.554688" xlink:href="#DejaVuSans-116"/>
      <use x="584.763672" xlink:href="#DejaVuSans-104"/>
     </g>
    </g>
    <g id="line2d_35">
     <path d="M 60.95 154.726563 
L 80.95 154.726563 
" style="fill:none;stroke:#ff0000;stroke-linecap:square;"/>
    </g>
    <g id="line2d_36"/>
    <g id="text_24">
     <!-- Sensor data -->
     <g transform="translate(88.95 158.226563)scale(0.1 -0.1)">
      <use xlink:href="#DejaVuSans-83"/>
      <use x="63.476562" xlink:href="#DejaVuSans-101"/>
      <use x="125" xlink:href="#DejaVuSans-110"/>
      <use x="188.378906" xlink:href="#DejaVuSans-115"/>
      <use x="240.478516" xlink:href="#DejaVuSans-111"/>
      <use x="301.660156" xlink:href="#DejaVuSans-114"/>
      <use x="342.773438" xlink:href="#DejaVuSans-32"/>
      <use x="374.560547" xlink:href="#DejaVuSans-100"/>
      <use x="438.037109" xlink:href="#DejaVuSans-97"/>
      <use x="499.316406" xlink:href="#DejaVuSans-116"/>
      <use x="538.525391" xlink:href="#DejaVuSans-97"/>
     </g>
    </g>
   </g>
  </g>
  <g id="axes_3">
   <g id="patch_14">
    <path d="M 51.95 308.65 
L 557.26875 308.65 
L 557.26875 239.5 
L 51.95 239.5 
z
" style="fill:none;"/>
   </g>
   <g id="PathCollection_47">
    <g clip-path="url(#p298df2e5ea)">
     <use style="stroke:#000000;" x="220.542747" xlink:href="#m359e41dfbd" y="435.86748"/>
    </g>
   </g>
   <g id="PathCollection_48">
    <g clip-path="url(#p298df2e5ea)">
     <use style="stroke:#000000;" x="66.60776" xlink:href="#m359e41dfbd" y="591.742335"/>
    </g>
   </g>
   <g id="PathCollection_49">
    <g clip-path="url(#p298df2e5ea)">
     <use style="stroke:#000000;" x="83.707471" xlink:href="#m359e41dfbd" y="629.894225"/>
    </g>
   </g>
   <g id="PathCollection_50">
    <g clip-path="url(#p298df2e5ea)"/>
   </g>
   <g id="PathCollection_51">
    <g clip-path="url(#p298df2e5ea)">
     <use style="stroke:#000000;" x="81.044998" xlink:href="#m359e41dfbd" y="288.772191"/>
    </g>
   </g>
   <g id="PathCollection_52">
    <g clip-path="url(#p298df2e5ea)"/>
   </g>
   <g id="PathCollection_53">
    <g clip-path="url(#p298df2e5ea)">
     <use style="stroke:#000000;" x="65.330488" xlink:href="#m359e41dfbd" y="412.715406"/>
    </g>
   </g>
   <g id="PathCollection_54">
    <g clip-path="url(#p298df2e5ea)">
     <use style="stroke:#000000;" x="55.668182" xlink:href="#m359e41dfbd" y="390.010696"/>
    </g>
   </g>
   <g id="PathCollection_55">
    <g clip-path="url(#p298df2e5ea)">
     <use style="stroke:#000000;" x="219.054659" xlink:href="#m359e41dfbd" y="412.897003"/>
    </g>
   </g>
   <g id="PathCollection_56">
    <g clip-path="url(#p298df2e5ea)">
     <use style="stroke:#000000;" x="834.14242" xlink:href="#m359e41dfbd" y="413.96916"/>
    </g>
   </g>
   <g id="PathCollection_57">
    <g clip-path="url(#p298df2e5ea)">
     <use style="stroke:#000000;" x="958.754043" xlink:href="#m359e41dfbd" y="414.44259"/>
    </g>
   </g>
   <g id="PathCollection_58">
    <g clip-path="url(#p298df2e5ea)">
     <use style="stroke:#000000;" x="206.329154" xlink:href="#m359e41dfbd" y="289.59833"/>
    </g>
   </g>
   <g id="PathCollection_59">
    <g clip-path="url(#p298df2e5ea)">
     <use style="stroke:#000000;" x="147.093549" xlink:href="#m359e41dfbd" y="250.638997"/>
    </g>
   </g>
   <g id="PathCollection_60">
    <g clip-path="url(#p298df2e5ea)">
     <use style="stroke:#000000;" x="963.796821" xlink:href="#m359e41dfbd" y="438.383948"/>
    </g>
   </g>
   <g id="PathCollection_61">
    <g clip-path="url(#p298df2e5ea)"/>
   </g>
   <g id="PathCollection_62">
    <g clip-path="url(#p298df2e5ea)">
     <use style="stroke:#000000;" x="238.159913" xlink:href="#m359e41dfbd" y="491.948912"/>
    </g>
   </g>
   <g id="PathCollection_63">
    <g clip-path="url(#p298df2e5ea)">
     <use style="stroke:#000000;" x="602.980643" xlink:href="#m359e41dfbd" y="443.14483"/>
    </g>
   </g>
   <g id="PathCollection_64">
    <g clip-path="url(#p298df2e5ea)">
     <use style="stroke:#000000;" x="598.452217" xlink:href="#m359e41dfbd" y="492.675432"/>
    </g>
   </g>
   <g id="PathCollection_65">
    <g clip-path="url(#p298df2e5ea)">
     <use style="stroke:#000000;" x="631.04528" xlink:href="#m359e41dfbd" y="444.356875"/>
    </g>
   </g>
   <g id="PathCollection_66">
    <g clip-path="url(#p298df2e5ea)">
     <use style="stroke:#000000;" x="559.037358" xlink:href="#m359e41dfbd" y="470.460997"/>
    </g>
   </g>
   <g id="PathCollection_67">
    <g clip-path="url(#p298df2e5ea)">
     <use style="stroke:#000000;" x="512.295374" xlink:href="#m359e41dfbd" y="507.715565"/>
    </g>
   </g>
   <g id="PathCollection_68">
    <g clip-path="url(#p298df2e5ea)">
     <use style="stroke:#000000;" x="670.712794" xlink:href="#m359e41dfbd" y="483.513059"/>
    </g>
   </g>
   <g id="PathCollection_69">
    <g clip-path="url(#p298df2e5ea)">
     <use style="fill:#ff0000;stroke:#ff0000;" x="206.329154" xlink:href="#m0397287a50" y="289.59833"/>
    </g>
   </g>
   <g id="matplotlib.axis_5">
    <g id="xtick_11">
     <g id="line2d_37">
      <g>
       <use style="stroke:#000000;stroke-width:0.8;" x="77.215938" xlink:href="#m7553bd0790" y="308.65"/>
      </g>
     </g>
     <g id="text_25">
      <!-- −60 -->
      <g transform="translate(66.663594 323.248438)scale(0.1 -0.1)">
       <use xlink:href="#DejaVuSans-8722"/>
       <use x="83.789062" xlink:href="#DejaVuSans-54"/>
       <use x="147.412109" xlink:href="#DejaVuSans-48"/>
      </g>
     </g>
    </g>
    <g id="xtick_12">
     <g id="line2d_38">
      <g>
       <use style="stroke:#000000;stroke-width:0.8;" x="178.279688" xlink:href="#m7553bd0790" y="308.65"/>
      </g>
     </g>
     <g id="text_26">
      <!-- −40 -->
      <g transform="translate(167.727344 323.248438)scale(0.1 -0.1)">
       <use xlink:href="#DejaVuSans-8722"/>
       <use x="83.789062" xlink:href="#DejaVuSans-52"/>
       <use x="147.412109" xlink:href="#DejaVuSans-48"/>
      </g>
     </g>
    </g>
    <g id="xtick_13">
     <g id="line2d_39">
      <g>
       <use style="stroke:#000000;stroke-width:0.8;" x="279.343438" xlink:href="#m7553bd0790" y="308.65"/>
      </g>
     </g>
     <g id="text_27">
      <!-- −20 -->
      <g transform="translate(268.791094 323.248438)scale(0.1 -0.1)">
       <use xlink:href="#DejaVuSans-8722"/>
       <use x="83.789062" xlink:href="#DejaVuSans-50"/>
       <use x="147.412109" xlink:href="#DejaVuSans-48"/>
      </g>
     </g>
    </g>
    <g id="xtick_14">
     <g id="line2d_40">
      <g>
       <use style="stroke:#000000;stroke-width:0.8;" x="380.407188" xlink:href="#m7553bd0790" y="308.65"/>
      </g>
     </g>
     <g id="text_28">
      <!-- 0 -->
      <g transform="translate(377.225938 323.248438)scale(0.1 -0.1)">
       <use xlink:href="#DejaVuSans-48"/>
      </g>
     </g>
    </g>
    <g id="xtick_15">
     <g id="line2d_41">
      <g>
       <use style="stroke:#000000;stroke-width:0.8;" x="481.470938" xlink:href="#m7553bd0790" y="308.65"/>
      </g>
     </g>
     <g id="text_29">
      <!-- 20 -->
      <g transform="translate(475.108438 323.248438)scale(0.1 -0.1)">
       <use xlink:href="#DejaVuSans-50"/>
       <use x="63.623047" xlink:href="#DejaVuSans-48"/>
      </g>
     </g>
    </g>
    <g id="text_30">
     <!-- Longitude -->
     <g transform="translate(279.739844 336.926563)scale(0.1 -0.1)">
      <use xlink:href="#DejaVuSans-76"/>
      <use x="53.962891" xlink:href="#DejaVuSans-111"/>
      <use x="115.144531" xlink:href="#DejaVuSans-110"/>
      <use x="178.523438" xlink:href="#DejaVuSans-103"/>
      <use x="242" xlink:href="#DejaVuSans-105"/>
      <use x="269.783203" xlink:href="#DejaVuSans-116"/>
      <use x="308.992188" xlink:href="#DejaVuSans-117"/>
      <use x="372.371094" xlink:href="#DejaVuSans-100"/>
      <use x="435.847656" xlink:href="#DejaVuSans-101"/>
     </g>
    </g>
   </g>
   <g id="matplotlib.axis_6">
    <g id="ytick_7">
     <g id="line2d_42">
      <g>
       <use style="stroke:#000000;stroke-width:0.8;" x="51.95" xlink:href="#mc561c71966" y="239.5"/>
      </g>
     </g>
     <g id="text_31">
      <!-- −80 -->
      <g transform="translate(23.845313 243.299219)scale(0.1 -0.1)">
       <use xlink:href="#DejaVuSans-8722"/>
       <use x="83.789062" xlink:href="#DejaVuSans-56"/>
       <use x="147.412109" xlink:href="#DejaVuSans-48"/>
      </g>
     </g>
    </g>
    <g id="ytick_8">
     <g id="line2d_43">
      <g>
       <use style="stroke:#000000;stroke-width:0.8;" x="51.95" xlink:href="#mc561c71966" y="274.075"/>
      </g>
     </g>
     <g id="text_32">
      <!-- −60 -->
      <g transform="translate(23.845313 277.874219)scale(0.1 -0.1)">
       <use xlink:href="#DejaVuSans-8722"/>
       <use x="83.789062" xlink:href="#DejaVuSans-54"/>
       <use x="147.412109" xlink:href="#DejaVuSans-48"/>
      </g>
     </g>
    </g>
    <g id="ytick_9">
     <g id="line2d_44">
      <g>
       <use style="stroke:#000000;stroke-width:0.8;" x="51.95" xlink:href="#mc561c71966" y="308.65"/>
      </g>
     </g>
     <g id="text_33">
      <!-- −40 -->
      <g transform="translate(23.845313 312.449219)scale(0.1 -0.1)">
       <use xlink:href="#DejaVuSans-8722"/>
       <use x="83.789062" xlink:href="#DejaVuSans-52"/>
       <use x="147.412109" xlink:href="#DejaVuSans-48"/>
      </g>
     </g>
    </g>
    <g id="text_34">
     <!-- Latitude -->
     <g transform="translate(17.765625 294.653906)rotate(-90)scale(0.1 -0.1)">
      <use xlink:href="#DejaVuSans-76"/>
      <use x="55.712891" xlink:href="#DejaVuSans-97"/>
      <use x="116.992188" xlink:href="#DejaVuSans-116"/>
      <use x="156.201172" xlink:href="#DejaVuSans-105"/>
      <use x="183.984375" xlink:href="#DejaVuSans-116"/>
      <use x="223.193359" xlink:href="#DejaVuSans-117"/>
      <use x="286.572266" xlink:href="#DejaVuSans-100"/>
      <use x="350.048828" xlink:href="#DejaVuSans-101"/>
     </g>
    </g>
   </g>
   <g id="line2d_45">
    <path clip-path="url(#p298df2e5ea)" d="M 169.012837 349.18026 
L 169.040403 346.7426 
L 169.350232 331.201257 
L 170.147811 300.906487 
L 170.752743 296.454835 
L 171.135745 294.49274 
L 171.533957 293.107981 
L 172.120556 291.691857 
L 172.893231 290.288184 
L 173.848742 288.929256 
L 174.961336 287.629864 
L 176.947767 285.794703 
L 179.330597 284.051636 
L 182.154895 282.361069 
L 185.377887 280.74727 
L 188.917821 279.253943 
L 192.769319 277.874783 
L 197.183725 276.602838 
L 202.210601 275.404885 
L 207.665855 274.368357 
L 215.158237 273.28496 
L 220.896517 272.682927 
L 226.809402 272.275496 
L 234.929693 272.001521 
L 243.109384 271.903293 
L 247.104067 271.996509 
L 250.881476 272.271427 
L 254.32017 272.75589 
L 257.394975 273.446931 
L 260.143796 274.32716 
L 263.973618 275.934568 
L 267.93024 277.632561 
L 270.727666 278.64217 
L 273.695236 279.466614 
L 276.847069 280.060806 
L 280.190567 280.428557 
L 283.731233 280.593852 
L 289.480722 280.560859 
L 303.98151 279.932415 
L 324.004353 279.082475 
L 340.317853 278.73714 
L 354.526685 278.602074 
L 387.102443 278.542538 
L 564.184498 278.549779 
L 564.184498 278.549779 
" style="fill:none;stroke:#000000;stroke-linecap:square;stroke-width:0.5;"/>
   </g>
   <g id="line2d_46">
    <path clip-path="url(#p298df2e5ea)" d="M 363.083778 268.124007 
L 363.197641 264.38415 
" style="fill:none;stroke:#ff0000;stroke-linecap:square;"/>
   </g>
   <g id="line2d_47">
    <path clip-path="url(#p298df2e5ea)" d="M 363.197641 264.38415 
L 338.985195 264.297866 
" style="fill:none;stroke:#ff0000;stroke-linecap:square;"/>
   </g>
   <g id="line2d_48">
    <path clip-path="url(#p298df2e5ea)" d="M 338.985195 264.297866 
L 338.871329 268.037729 
" style="fill:none;stroke:#ff0000;stroke-linecap:square;"/>
   </g>
   <g id="line2d_49">
    <path clip-path="url(#p298df2e5ea)" d="M 338.871329 268.037729 
L 363.083778 268.124007 
" style="fill:none;stroke:#ff0000;stroke-linecap:square;"/>
   </g>
   <g id="line2d_50">
    <path clip-path="url(#p298df2e5ea)" d="M 182.154895 282.361069 
L 185.377887 280.74727 
L 188.917821 279.253943 
L 192.769319 277.874783 
L 193.519773 277.217383 
L 193.519773 277.217383 
L 195.307139 276.902693 
L 195.307139 276.902693 
L 197.647251 276.761415 
L 197.647251 276.761415 
L 199.165518 276.319784 
L 199.165518 276.319784 
L 202.013328 276.319769 
L 202.013328 276.319769 
L 202.47233 275.494426 
L 202.47233 275.494426 
L 204.17072 275.09588 
L 204.17072 275.09588 
L 204.95411 274.39362 
L 204.95411 274.39362 
L 207.895822 274.447031 
L 207.895822 274.447031 
L 211.568957 274.769906 
L 211.568957 274.769906 
L 211.756288 273.915932 
L 211.756288 273.915932 
L 213.848412 273.727925 
L 213.848412 273.727925 
L 214.693465 273.125956 
L 214.693465 273.125956 
L 217.466958 273.201976 
L 217.466958 273.201976 
L 218.460238 272.686569 
L 218.460238 272.686569 
L 219.600041 272.239389 
L 219.600041 272.239389 
L 222.72507 272.487219 
L 222.72507 272.487219 
L 226.399969 272.931238 
L 226.399969 272.931238 
L 226.467098 272.15839 
L 226.467098 272.15839 
L 227.910105 271.874964 
L 227.910105 271.874964 
L 231.636021 272.382549 
L 231.636021 272.382549 
L 232.145378 271.798357 
L 232.145378 271.798357 
L 235.492804 272.194167 
L 235.492804 272.194167 
L 236.907317 271.937721 
L 236.907317 271.937721 
L 239.629606 272.138045 
L 239.629606 272.138045 
L 241.151821 271.936475 
L 241.151821 271.936475 
L 243.697372 272.10445 
L 243.697372 272.10445 
L 245.991748 271.615972 
L 245.991748 271.615972 
L 249.094925 272.131635 
L 249.094925 272.131635 
L 252.127807 272.30895 
L 252.127807 272.30895 
L 258.212827 273.661536 
L 258.212827 273.661536 
L 261.24845 274.769514 
L 261.24845 274.769514 
L 263.878751 275.902113 
L 263.878751 275.902113 
L 270.106185 278.429554 
L 270.106185 278.429554 
L 273.384574 279.360333 
L 273.384574 279.360333 
L 275.267797 279.800206 
L 275.267797 279.800206 
L 276.48878 279.938231 
L 276.48878 279.938231 
L 278.737397 280.354891 
L 278.737397 280.354891 
L 280.025686 280.37215 
L 280.025686 280.37215 
L 282.440238 280.706694 
L 282.440238 280.706694 
L 285.421073 280.559084 
L 285.421073 280.559084 
L 286.837433 280.376055 
L 286.837433 280.376055 
L 289.343574 280.513939 
L 289.343574 280.513939 
L 290.987557 280.310002 
L 290.987557 280.310002 
L 296.055061 280.429867 
L 296.055061 280.429867 
L 297.484696 280.108488 
L 297.484696 280.108488 
L 299.493587 279.989836 
L 299.493587 279.989836 
L 302.063894 280.068818 
L 302.063894 280.068818 
L 305.961904 279.825649 
L 305.961904 279.825649 
L 307.77002 279.667932 
L 307.77002 279.667932 
L 309.877421 279.618069 
L 309.877421 279.618069 
L 312.361361 279.700294 
L 312.361361 279.700294 
L 316.04258 279.422012 
L 316.04258 279.422012 
L 321.70639 279.05371 
L 321.70639 279.05371 
L 324.178829 279.142165 
L 324.178829 279.142165 
L 334.227052 278.844336 
L 352.489059 278.613899 
L 383.02991 278.540876 
L 523.476484 278.555444 
L 523.476484 278.555444 
" style="fill:none;stroke:#ff0000;stroke-linecap:square;"/>
   </g>
   <g id="patch_15">
    <path d="M 51.95 308.65 
L 51.95 239.5 
" style="fill:none;stroke:#000000;stroke-linecap:square;stroke-linejoin:miter;stroke-width:0.8;"/>
   </g>
   <g id="patch_16">
    <path d="M 557.26875 308.65 
L 557.26875 239.5 
" style="fill:none;stroke:#000000;stroke-linecap:square;stroke-linejoin:miter;stroke-width:0.8;"/>
   </g>
   <g id="patch_17">
    <path d="M 51.95 308.65 
L 557.26875 308.65 
" style="fill:none;stroke:#000000;stroke-linecap:square;stroke-linejoin:miter;stroke-width:0.8;"/>
   </g>
   <g id="patch_18">
    <path d="M 51.95 239.5 
L 557.26875 239.5 
" style="fill:none;stroke:#000000;stroke-linecap:square;stroke-linejoin:miter;stroke-width:0.8;"/>
   </g>
   <g id="legend_3">
    <g id="patch_19">
     <path d="M 453.457813 276.85625 
L 550.26875 276.85625 
Q 552.26875 276.85625 552.26875 274.85625 
L 552.26875 246.5 
Q 552.26875 244.5 550.26875 244.5 
L 453.457813 244.5 
Q 451.457813 244.5 451.457813 246.5 
L 451.457813 274.85625 
Q 451.457813 276.85625 453.457813 276.85625 
z
" style="fill:#ffffff;opacity:0.8;stroke:#cccccc;stroke-linejoin:miter;"/>
    </g>
    <g id="line2d_51">
     <path d="M 455.457813 252.598437 
L 475.457813 252.598437 
" style="fill:none;stroke:#000000;stroke-linecap:square;stroke-width:0.5;"/>
    </g>
    <g id="line2d_52"/>
    <g id="text_35">
     <!-- Ground-Truth -->
     <g transform="translate(483.457813 256.098437)scale(0.1 -0.1)">
      <use xlink:href="#DejaVuSans-71"/>
      <use x="77.490234" xlink:href="#DejaVuSans-114"/>
      <use x="116.353516" xlink:href="#DejaVuSans-111"/>
      <use x="177.535156" xlink:href="#DejaVuSans-117"/>
      <use x="240.914062" xlink:href="#DejaVuSans-110"/>
      <use x="304.292969" xlink:href="#DejaVuSans-100"/>
      <use x="367.769531" xlink:href="#DejaVuSans-45"/>
      <use x="394.728516" xlink:href="#DejaVuSans-84"/>
      <use x="441.0625" xlink:href="#DejaVuSans-114"/>
      <use x="482.175781" xlink:href="#DejaVuSans-117"/>
      <use x="545.554688" xlink:href="#DejaVuSans-116"/>
      <use x="584.763672" xlink:href="#DejaVuSans-104"/>
     </g>
    </g>
    <g id="line2d_53">
     <path d="M 455.457813 267.276562 
L 475.457813 267.276562 
" style="fill:none;stroke:#ff0000;stroke-linecap:square;"/>
    </g>
    <g id="line2d_54"/>
    <g id="text_36">
     <!-- Sensor data -->
     <g transform="translate(483.457813 270.776562)scale(0.1 -0.1)">
      <use xlink:href="#DejaVuSans-83"/>
      <use x="63.476562" xlink:href="#DejaVuSans-101"/>
      <use x="125" xlink:href="#DejaVuSans-110"/>
      <use x="188.378906" xlink:href="#DejaVuSans-115"/>
      <use x="240.478516" xlink:href="#DejaVuSans-111"/>
      <use x="301.660156" xlink:href="#DejaVuSans-114"/>
      <use x="342.773438" xlink:href="#DejaVuSans-32"/>
      <use x="374.560547" xlink:href="#DejaVuSans-100"/>
      <use x="438.037109" xlink:href="#DejaVuSans-97"/>
      <use x="499.316406" xlink:href="#DejaVuSans-116"/>
      <use x="538.525391" xlink:href="#DejaVuSans-97"/>
     </g>
    </g>
   </g>
  </g>
 </g>
 <defs>
  <clipPath id="p930c09d34e">
   <rect height="69.15" width="505.31875" x="51.95" y="14.4"/>
  </clipPath>
  <clipPath id="pa6c327e093">
   <rect height="69.15" width="505.31875" x="51.95" y="126.95"/>
  </clipPath>
  <clipPath id="p298df2e5ea">
   <rect height="69.15" width="505.31875" x="51.95" y="239.5"/>
  </clipPath>
 </defs>
</svg>
