<?xml version="1.0" encoding="utf-8" standalone="no"?>
<!DOCTYPE svg PUBLIC "-//W3C//DTD SVG 1.1//EN"
  "http://www.w3.org/Graphics/SVG/1.1/DTD/svg11.dtd">
<!-- Created with matplotlib (https://matplotlib.org/) -->
<svg height="432pt" version="1.1" viewBox="0 0 576 432" width="576pt" xmlns="http://www.w3.org/2000/svg" xmlns:xlink="http://www.w3.org/1999/xlink">
 <metadata>
  <rdf:RDF xmlns:cc="http://creativecommons.org/ns#" xmlns:dc="http://purl.org/dc/elements/1.1/" xmlns:rdf="http://www.w3.org/1999/02/22-rdf-syntax-ns#">
   <cc:Work>
    <dc:type rdf:resource="http://purl.org/dc/dcmitype/StillImage"/>
    <dc:date>2022-06-28T14:38:01.724653</dc:date>
    <dc:format>image/svg+xml</dc:format>
    <dc:creator>
     <cc:Agent>
      <dc:title>Matplotlib v3.3.4, https://matplotlib.org/</dc:title>
     </cc:Agent>
    </dc:creator>
   </cc:Work>
  </rdf:RDF>
 </metadata>
 <defs>
  <style type="text/css">*{stroke-linecap:butt;stroke-linejoin:round;}</style>
 </defs>
 <g id="figure_1">
  <g id="patch_1">
   <path d="M 0 432 
L 576 432 
L 576 0 
L 0 0 
z
" style="fill:none;"/>
  </g>
  <g id="axes_1">
   <g id="patch_2">
    <path d="M 72 124.153043 
L 518.4 124.153043 
L 518.4 51.84 
L 72 51.84 
z
" style="fill:none;"/>
   </g>
   <g id="PathCollection_1">
    <defs>
     <path d="M 0 3 
C 0.795609 3 1.55874 2.683901 2.12132 2.12132 
C 2.683901 1.55874 3 0.795609 3 0 
C 3 -0.795609 2.683901 -1.55874 2.12132 -2.12132 
C 1.55874 -2.683901 0.795609 -3 0 -3 
C -0.795609 -3 -1.55874 -2.683901 -2.12132 -2.12132 
C -2.683901 -1.55874 -3 -0.795609 -3 0 
C -3 0.795609 -2.683901 1.55874 -2.12132 2.12132 
C -1.55874 2.683901 -0.795609 3 0 3 
z
" id="m51095e20a0" style="stroke:#000000;"/>
    </defs>
    <g clip-path="url(#p4bbc1084d4)">
     <use style="stroke:#000000;" x="220.935305" xlink:href="#m51095e20a0" y="257.189676"/>
    </g>
   </g>
   <g id="PathCollection_2">
    <g clip-path="url(#p4bbc1084d4)">
     <use style="stroke:#000000;" x="84.948706" xlink:href="#m51095e20a0" y="420.194523"/>
    </g>
   </g>
   <g id="PathCollection_3">
    <g clip-path="url(#p4bbc1084d4)">
     <use style="stroke:#000000;" x="100.054639" xlink:href="#m51095e20a0" y="460.091548"/>
    </g>
   </g>
   <g id="PathCollection_4">
    <g clip-path="url(#p4bbc1084d4)"/>
   </g>
   <g id="PathCollection_5">
    <g clip-path="url(#p4bbc1084d4)">
     <use style="stroke:#000000;" x="97.702603" xlink:href="#m51095e20a0" y="103.365988"/>
    </g>
   </g>
   <g id="PathCollection_6">
    <g clip-path="url(#p4bbc1084d4)"/>
   </g>
   <g id="PathCollection_7">
    <g clip-path="url(#p4bbc1084d4)">
     <use style="stroke:#000000;" x="83.82036" xlink:href="#m51095e20a0" y="232.978586"/>
    </g>
   </g>
   <g id="PathCollection_8">
    <g clip-path="url(#p4bbc1084d4)">
     <use style="stroke:#000000;" x="75.284653" xlink:href="#m51095e20a0" y="209.235322"/>
    </g>
   </g>
   <g id="PathCollection_9">
    <g clip-path="url(#p4bbc1084d4)">
     <use style="stroke:#000000;" x="219.620724" xlink:href="#m51095e20a0" y="233.16849"/>
    </g>
   </g>
   <g id="PathCollection_10">
    <g clip-path="url(#p4bbc1084d4)">
     <use style="stroke:#000000;" x="762.990976" xlink:href="#m51095e20a0" y="234.289688"/>
    </g>
   </g>
   <g id="PathCollection_11">
    <g clip-path="url(#p4bbc1084d4)">
     <use style="stroke:#000000;" x="873.073233" xlink:href="#m51095e20a0" y="234.784774"/>
    </g>
   </g>
   <g id="PathCollection_12">
    <g clip-path="url(#p4bbc1084d4)">
     <use style="stroke:#000000;" x="208.378977" xlink:href="#m51095e20a0" y="104.229916"/>
    </g>
   </g>
   <g id="PathCollection_13">
    <g clip-path="url(#p4bbc1084d4)">
     <use style="stroke:#000000;" x="156.050078" xlink:href="#m51095e20a0" y="63.488515"/>
    </g>
   </g>
   <g id="PathCollection_14">
    <g clip-path="url(#p4bbc1084d4)">
     <use style="stroke:#000000;" x="877.528037" xlink:href="#m51095e20a0" y="259.821252"/>
    </g>
   </g>
   <g id="PathCollection_15">
    <g clip-path="url(#p4bbc1084d4)"/>
   </g>
   <g id="PathCollection_16">
    <g clip-path="url(#p4bbc1084d4)">
     <use style="stroke:#000000;" x="236.498359" xlink:href="#m51095e20a0" y="315.836372"/>
    </g>
   </g>
   <g id="PathCollection_17">
    <g clip-path="url(#p4bbc1084d4)">
     <use style="stroke:#000000;" x="558.782015" xlink:href="#m51095e20a0" y="264.799905"/>
    </g>
   </g>
   <g id="PathCollection_18">
    <g clip-path="url(#p4bbc1084d4)">
     <use style="stroke:#000000;" x="554.78159" xlink:href="#m51095e20a0" y="316.596125"/>
    </g>
   </g>
   <g id="PathCollection_19">
    <g clip-path="url(#p4bbc1084d4)">
     <use style="stroke:#000000;" x="583.574393" xlink:href="#m51095e20a0" y="266.067391"/>
    </g>
   </g>
   <g id="PathCollection_20">
    <g clip-path="url(#p4bbc1084d4)">
     <use style="stroke:#000000;" x="519.962393" xlink:href="#m51095e20a0" y="293.365562"/>
    </g>
   </g>
   <g id="PathCollection_21">
    <g clip-path="url(#p4bbc1084d4)">
     <use style="stroke:#000000;" x="478.670393" xlink:href="#m51095e20a0" y="332.32422"/>
    </g>
   </g>
   <g id="PathCollection_22">
    <g clip-path="url(#p4bbc1084d4)">
     <use style="stroke:#000000;" x="618.616786" xlink:href="#m51095e20a0" y="307.014648"/>
    </g>
   </g>
   <g id="matplotlib.axis_1">
    <g id="xtick_1">
     <g id="line2d_1">
      <defs>
       <path d="M 0 0 
L 0 3.5 
" id="m2425806535" style="stroke:#000000;stroke-width:0.8;"/>
      </defs>
      <g>
       <use style="stroke:#000000;stroke-width:0.8;" x="94.32" xlink:href="#m2425806535" y="124.153043"/>
      </g>
     </g>
     <g id="text_1">
      <!-- −60 -->
      <g transform="translate(83.767656 138.751481)scale(0.1 -0.1)">
       <defs>
        <path d="M 10.59375 35.5 
L 73.1875 35.5 
L 73.1875 27.203125 
L 10.59375 27.203125 
z
" id="DejaVuSans-8722"/>
        <path d="M 33.015625 40.375 
Q 26.375 40.375 22.484375 35.828125 
Q 18.609375 31.296875 18.609375 23.390625 
Q 18.609375 15.53125 22.484375 10.953125 
Q 26.375 6.390625 33.015625 6.390625 
Q 39.65625 6.390625 43.53125 10.953125 
Q 47.40625 15.53125 47.40625 23.390625 
Q 47.40625 31.296875 43.53125 35.828125 
Q 39.65625 40.375 33.015625 40.375 
z
M 52.59375 71.296875 
L 52.59375 62.3125 
Q 48.875 64.0625 45.09375 64.984375 
Q 41.3125 65.921875 37.59375 65.921875 
Q 27.828125 65.921875 22.671875 59.328125 
Q 17.53125 52.734375 16.796875 39.40625 
Q 19.671875 43.65625 24.015625 45.921875 
Q 28.375 48.1875 33.59375 48.1875 
Q 44.578125 48.1875 50.953125 41.515625 
Q 57.328125 34.859375 57.328125 23.390625 
Q 57.328125 12.15625 50.6875 5.359375 
Q 44.046875 -1.421875 33.015625 -1.421875 
Q 20.359375 -1.421875 13.671875 8.265625 
Q 6.984375 17.96875 6.984375 36.375 
Q 6.984375 53.65625 15.1875 63.9375 
Q 23.390625 74.21875 37.203125 74.21875 
Q 40.921875 74.21875 44.703125 73.484375 
Q 48.484375 72.75 52.59375 71.296875 
z
" id="DejaVuSans-54"/>
        <path d="M 31.78125 66.40625 
Q 24.171875 66.40625 20.328125 58.90625 
Q 16.5 51.421875 16.5 36.375 
Q 16.5 21.390625 20.328125 13.890625 
Q 24.171875 6.390625 31.78125 6.390625 
Q 39.453125 6.390625 43.28125 13.890625 
Q 47.125 21.390625 47.125 36.375 
Q 47.125 51.421875 43.28125 58.90625 
Q 39.453125 66.40625 31.78125 66.40625 
z
M 31.78125 74.21875 
Q 44.046875 74.21875 50.515625 64.515625 
Q 56.984375 54.828125 56.984375 36.375 
Q 56.984375 17.96875 50.515625 8.265625 
Q 44.046875 -1.421875 31.78125 -1.421875 
Q 19.53125 -1.421875 13.0625 8.265625 
Q 6.59375 17.96875 6.59375 36.375 
Q 6.59375 54.828125 13.0625 64.515625 
Q 19.53125 74.21875 31.78125 74.21875 
z
" id="DejaVuSans-48"/>
       </defs>
       <use xlink:href="#DejaVuSans-8722"/>
       <use x="83.789062" xlink:href="#DejaVuSans-54"/>
       <use x="147.412109" xlink:href="#DejaVuSans-48"/>
      </g>
     </g>
    </g>
    <g id="xtick_2">
     <g id="line2d_2">
      <g>
       <use style="stroke:#000000;stroke-width:0.8;" x="183.6" xlink:href="#m2425806535" y="124.153043"/>
      </g>
     </g>
     <g id="text_2">
      <!-- −40 -->
      <g transform="translate(173.047656 138.751481)scale(0.1 -0.1)">
       <defs>
        <path d="M 37.796875 64.3125 
L 12.890625 25.390625 
L 37.796875 25.390625 
z
M 35.203125 72.90625 
L 47.609375 72.90625 
L 47.609375 25.390625 
L 58.015625 25.390625 
L 58.015625 17.1875 
L 47.609375 17.1875 
L 47.609375 0 
L 37.796875 0 
L 37.796875 17.1875 
L 4.890625 17.1875 
L 4.890625 26.703125 
z
" id="DejaVuSans-52"/>
       </defs>
       <use xlink:href="#DejaVuSans-8722"/>
       <use x="83.789062" xlink:href="#DejaVuSans-52"/>
       <use x="147.412109" xlink:href="#DejaVuSans-48"/>
      </g>
     </g>
    </g>
    <g id="xtick_3">
     <g id="line2d_3">
      <g>
       <use style="stroke:#000000;stroke-width:0.8;" x="272.88" xlink:href="#m2425806535" y="124.153043"/>
      </g>
     </g>
     <g id="text_3">
      <!-- −20 -->
      <g transform="translate(262.327656 138.751481)scale(0.1 -0.1)">
       <defs>
        <path d="M 19.1875 8.296875 
L 53.609375 8.296875 
L 53.609375 0 
L 7.328125 0 
L 7.328125 8.296875 
Q 12.9375 14.109375 22.625 23.890625 
Q 32.328125 33.6875 34.8125 36.53125 
Q 39.546875 41.84375 41.421875 45.53125 
Q 43.3125 49.21875 43.3125 52.78125 
Q 43.3125 58.59375 39.234375 62.25 
Q 35.15625 65.921875 28.609375 65.921875 
Q 23.96875 65.921875 18.8125 64.3125 
Q 13.671875 62.703125 7.8125 59.421875 
L 7.8125 69.390625 
Q 13.765625 71.78125 18.9375 73 
Q 24.125 74.21875 28.421875 74.21875 
Q 39.75 74.21875 46.484375 68.546875 
Q 53.21875 62.890625 53.21875 53.421875 
Q 53.21875 48.921875 51.53125 44.890625 
Q 49.859375 40.875 45.40625 35.40625 
Q 44.1875 33.984375 37.640625 27.21875 
Q 31.109375 20.453125 19.1875 8.296875 
z
" id="DejaVuSans-50"/>
       </defs>
       <use xlink:href="#DejaVuSans-8722"/>
       <use x="83.789062" xlink:href="#DejaVuSans-50"/>
       <use x="147.412109" xlink:href="#DejaVuSans-48"/>
      </g>
     </g>
    </g>
    <g id="xtick_4">
     <g id="line2d_4">
      <g>
       <use style="stroke:#000000;stroke-width:0.8;" x="362.16" xlink:href="#m2425806535" y="124.153043"/>
      </g>
     </g>
     <g id="text_4">
      <!-- 0 -->
      <g transform="translate(358.97875 138.751481)scale(0.1 -0.1)">
       <use xlink:href="#DejaVuSans-48"/>
      </g>
     </g>
    </g>
    <g id="xtick_5">
     <g id="line2d_5">
      <g>
       <use style="stroke:#000000;stroke-width:0.8;" x="451.44" xlink:href="#m2425806535" y="124.153043"/>
      </g>
     </g>
     <g id="text_5">
      <!-- 20 -->
      <g transform="translate(445.0775 138.751481)scale(0.1 -0.1)">
       <use xlink:href="#DejaVuSans-50"/>
       <use x="63.623047" xlink:href="#DejaVuSans-48"/>
      </g>
     </g>
    </g>
    <g id="text_6">
     <!-- Longitude -->
     <g transform="translate(270.330469 152.429606)scale(0.1 -0.1)">
      <defs>
       <path d="M 9.8125 72.90625 
L 19.671875 72.90625 
L 19.671875 8.296875 
L 55.171875 8.296875 
L 55.171875 0 
L 9.8125 0 
z
" id="DejaVuSans-76"/>
       <path d="M 30.609375 48.390625 
Q 23.390625 48.390625 19.1875 42.75 
Q 14.984375 37.109375 14.984375 27.296875 
Q 14.984375 17.484375 19.15625 11.84375 
Q 23.34375 6.203125 30.609375 6.203125 
Q 37.796875 6.203125 41.984375 11.859375 
Q 46.1875 17.53125 46.1875 27.296875 
Q 46.1875 37.015625 41.984375 42.703125 
Q 37.796875 48.390625 30.609375 48.390625 
z
M 30.609375 56 
Q 42.328125 56 49.015625 48.375 
Q 55.71875 40.765625 55.71875 27.296875 
Q 55.71875 13.875 49.015625 6.21875 
Q 42.328125 -1.421875 30.609375 -1.421875 
Q 18.84375 -1.421875 12.171875 6.21875 
Q 5.515625 13.875 5.515625 27.296875 
Q 5.515625 40.765625 12.171875 48.375 
Q 18.84375 56 30.609375 56 
z
" id="DejaVuSans-111"/>
       <path d="M 54.890625 33.015625 
L 54.890625 0 
L 45.90625 0 
L 45.90625 32.71875 
Q 45.90625 40.484375 42.875 44.328125 
Q 39.84375 48.1875 33.796875 48.1875 
Q 26.515625 48.1875 22.3125 43.546875 
Q 18.109375 38.921875 18.109375 30.90625 
L 18.109375 0 
L 9.078125 0 
L 9.078125 54.6875 
L 18.109375 54.6875 
L 18.109375 46.1875 
Q 21.34375 51.125 25.703125 53.5625 
Q 30.078125 56 35.796875 56 
Q 45.21875 56 50.046875 50.171875 
Q 54.890625 44.34375 54.890625 33.015625 
z
" id="DejaVuSans-110"/>
       <path d="M 45.40625 27.984375 
Q 45.40625 37.75 41.375 43.109375 
Q 37.359375 48.484375 30.078125 48.484375 
Q 22.859375 48.484375 18.828125 43.109375 
Q 14.796875 37.75 14.796875 27.984375 
Q 14.796875 18.265625 18.828125 12.890625 
Q 22.859375 7.515625 30.078125 7.515625 
Q 37.359375 7.515625 41.375 12.890625 
Q 45.40625 18.265625 45.40625 27.984375 
z
M 54.390625 6.78125 
Q 54.390625 -7.171875 48.1875 -13.984375 
Q 42 -20.796875 29.203125 -20.796875 
Q 24.46875 -20.796875 20.265625 -20.09375 
Q 16.0625 -19.390625 12.109375 -17.921875 
L 12.109375 -9.1875 
Q 16.0625 -11.328125 19.921875 -12.34375 
Q 23.78125 -13.375 27.78125 -13.375 
Q 36.625 -13.375 41.015625 -8.765625 
Q 45.40625 -4.15625 45.40625 5.171875 
L 45.40625 9.625 
Q 42.625 4.78125 38.28125 2.390625 
Q 33.9375 0 27.875 0 
Q 17.828125 0 11.671875 7.65625 
Q 5.515625 15.328125 5.515625 27.984375 
Q 5.515625 40.671875 11.671875 48.328125 
Q 17.828125 56 27.875 56 
Q 33.9375 56 38.28125 53.609375 
Q 42.625 51.21875 45.40625 46.390625 
L 45.40625 54.6875 
L 54.390625 54.6875 
z
" id="DejaVuSans-103"/>
       <path d="M 9.421875 54.6875 
L 18.40625 54.6875 
L 18.40625 0 
L 9.421875 0 
z
M 9.421875 75.984375 
L 18.40625 75.984375 
L 18.40625 64.59375 
L 9.421875 64.59375 
z
" id="DejaVuSans-105"/>
       <path d="M 18.3125 70.21875 
L 18.3125 54.6875 
L 36.8125 54.6875 
L 36.8125 47.703125 
L 18.3125 47.703125 
L 18.3125 18.015625 
Q 18.3125 11.328125 20.140625 9.421875 
Q 21.96875 7.515625 27.59375 7.515625 
L 36.8125 7.515625 
L 36.8125 0 
L 27.59375 0 
Q 17.1875 0 13.234375 3.875 
Q 9.28125 7.765625 9.28125 18.015625 
L 9.28125 47.703125 
L 2.6875 47.703125 
L 2.6875 54.6875 
L 9.28125 54.6875 
L 9.28125 70.21875 
z
" id="DejaVuSans-116"/>
       <path d="M 8.5 21.578125 
L 8.5 54.6875 
L 17.484375 54.6875 
L 17.484375 21.921875 
Q 17.484375 14.15625 20.5 10.265625 
Q 23.53125 6.390625 29.59375 6.390625 
Q 36.859375 6.390625 41.078125 11.03125 
Q 45.3125 15.671875 45.3125 23.6875 
L 45.3125 54.6875 
L 54.296875 54.6875 
L 54.296875 0 
L 45.3125 0 
L 45.3125 8.40625 
Q 42.046875 3.421875 37.71875 1 
Q 33.40625 -1.421875 27.6875 -1.421875 
Q 18.265625 -1.421875 13.375 4.4375 
Q 8.5 10.296875 8.5 21.578125 
z
M 31.109375 56 
z
" id="DejaVuSans-117"/>
       <path d="M 45.40625 46.390625 
L 45.40625 75.984375 
L 54.390625 75.984375 
L 54.390625 0 
L 45.40625 0 
L 45.40625 8.203125 
Q 42.578125 3.328125 38.25 0.953125 
Q 33.9375 -1.421875 27.875 -1.421875 
Q 17.96875 -1.421875 11.734375 6.484375 
Q 5.515625 14.40625 5.515625 27.296875 
Q 5.515625 40.1875 11.734375 48.09375 
Q 17.96875 56 27.875 56 
Q 33.9375 56 38.25 53.625 
Q 42.578125 51.265625 45.40625 46.390625 
z
M 14.796875 27.296875 
Q 14.796875 17.390625 18.875 11.75 
Q 22.953125 6.109375 30.078125 6.109375 
Q 37.203125 6.109375 41.296875 11.75 
Q 45.40625 17.390625 45.40625 27.296875 
Q 45.40625 37.203125 41.296875 42.84375 
Q 37.203125 48.484375 30.078125 48.484375 
Q 22.953125 48.484375 18.875 42.84375 
Q 14.796875 37.203125 14.796875 27.296875 
z
" id="DejaVuSans-100"/>
       <path d="M 56.203125 29.59375 
L 56.203125 25.203125 
L 14.890625 25.203125 
Q 15.484375 15.921875 20.484375 11.0625 
Q 25.484375 6.203125 34.421875 6.203125 
Q 39.59375 6.203125 44.453125 7.46875 
Q 49.3125 8.734375 54.109375 11.28125 
L 54.109375 2.78125 
Q 49.265625 0.734375 44.1875 -0.34375 
Q 39.109375 -1.421875 33.890625 -1.421875 
Q 20.796875 -1.421875 13.15625 6.1875 
Q 5.515625 13.8125 5.515625 26.8125 
Q 5.515625 40.234375 12.765625 48.109375 
Q 20.015625 56 32.328125 56 
Q 43.359375 56 49.78125 48.890625 
Q 56.203125 41.796875 56.203125 29.59375 
z
M 47.21875 32.234375 
Q 47.125 39.59375 43.09375 43.984375 
Q 39.0625 48.390625 32.421875 48.390625 
Q 24.90625 48.390625 20.390625 44.140625 
Q 15.875 39.890625 15.1875 32.171875 
z
" id="DejaVuSans-101"/>
      </defs>
      <use xlink:href="#DejaVuSans-76"/>
      <use x="53.962891" xlink:href="#DejaVuSans-111"/>
      <use x="115.144531" xlink:href="#DejaVuSans-110"/>
      <use x="178.523438" xlink:href="#DejaVuSans-103"/>
      <use x="242" xlink:href="#DejaVuSans-105"/>
      <use x="269.783203" xlink:href="#DejaVuSans-116"/>
      <use x="308.992188" xlink:href="#DejaVuSans-117"/>
      <use x="372.371094" xlink:href="#DejaVuSans-100"/>
      <use x="435.847656" xlink:href="#DejaVuSans-101"/>
     </g>
    </g>
   </g>
   <g id="matplotlib.axis_2">
    <g id="ytick_1">
     <g id="line2d_6">
      <defs>
       <path d="M 0 0 
L -3.5 0 
" id="mac95d9b87c" style="stroke:#000000;stroke-width:0.8;"/>
      </defs>
      <g>
       <use style="stroke:#000000;stroke-width:0.8;" x="72" xlink:href="#mac95d9b87c" y="51.84"/>
      </g>
     </g>
     <g id="text_7">
      <!-- −80 -->
      <g transform="translate(43.895313 55.639219)scale(0.1 -0.1)">
       <defs>
        <path d="M 31.78125 34.625 
Q 24.75 34.625 20.71875 30.859375 
Q 16.703125 27.09375 16.703125 20.515625 
Q 16.703125 13.921875 20.71875 10.15625 
Q 24.75 6.390625 31.78125 6.390625 
Q 38.8125 6.390625 42.859375 10.171875 
Q 46.921875 13.96875 46.921875 20.515625 
Q 46.921875 27.09375 42.890625 30.859375 
Q 38.875 34.625 31.78125 34.625 
z
M 21.921875 38.8125 
Q 15.578125 40.375 12.03125 44.71875 
Q 8.5 49.078125 8.5 55.328125 
Q 8.5 64.0625 14.71875 69.140625 
Q 20.953125 74.21875 31.78125 74.21875 
Q 42.671875 74.21875 48.875 69.140625 
Q 55.078125 64.0625 55.078125 55.328125 
Q 55.078125 49.078125 51.53125 44.71875 
Q 48 40.375 41.703125 38.8125 
Q 48.828125 37.15625 52.796875 32.3125 
Q 56.78125 27.484375 56.78125 20.515625 
Q 56.78125 9.90625 50.3125 4.234375 
Q 43.84375 -1.421875 31.78125 -1.421875 
Q 19.734375 -1.421875 13.25 4.234375 
Q 6.78125 9.90625 6.78125 20.515625 
Q 6.78125 27.484375 10.78125 32.3125 
Q 14.796875 37.15625 21.921875 38.8125 
z
M 18.3125 54.390625 
Q 18.3125 48.734375 21.84375 45.5625 
Q 25.390625 42.390625 31.78125 42.390625 
Q 38.140625 42.390625 41.71875 45.5625 
Q 45.3125 48.734375 45.3125 54.390625 
Q 45.3125 60.0625 41.71875 63.234375 
Q 38.140625 66.40625 31.78125 66.40625 
Q 25.390625 66.40625 21.84375 63.234375 
Q 18.3125 60.0625 18.3125 54.390625 
z
" id="DejaVuSans-56"/>
       </defs>
       <use xlink:href="#DejaVuSans-8722"/>
       <use x="83.789062" xlink:href="#DejaVuSans-56"/>
       <use x="147.412109" xlink:href="#DejaVuSans-48"/>
      </g>
     </g>
    </g>
    <g id="ytick_2">
     <g id="line2d_7">
      <g>
       <use style="stroke:#000000;stroke-width:0.8;" x="72" xlink:href="#mac95d9b87c" y="87.996522"/>
      </g>
     </g>
     <g id="text_8">
      <!-- −60 -->
      <g transform="translate(43.895313 91.79574)scale(0.1 -0.1)">
       <use xlink:href="#DejaVuSans-8722"/>
       <use x="83.789062" xlink:href="#DejaVuSans-54"/>
       <use x="147.412109" xlink:href="#DejaVuSans-48"/>
      </g>
     </g>
    </g>
    <g id="ytick_3">
     <g id="line2d_8">
      <g>
       <use style="stroke:#000000;stroke-width:0.8;" x="72" xlink:href="#mac95d9b87c" y="124.153043"/>
      </g>
     </g>
     <g id="text_9">
      <!-- −40 -->
      <g transform="translate(43.895313 127.952262)scale(0.1 -0.1)">
       <use xlink:href="#DejaVuSans-8722"/>
       <use x="83.789062" xlink:href="#DejaVuSans-52"/>
       <use x="147.412109" xlink:href="#DejaVuSans-48"/>
      </g>
     </g>
    </g>
    <g id="text_10">
     <!-- Latitude -->
     <g transform="translate(37.815625 108.575428)rotate(-90)scale(0.1 -0.1)">
      <defs>
       <path d="M 34.28125 27.484375 
Q 23.390625 27.484375 19.1875 25 
Q 14.984375 22.515625 14.984375 16.5 
Q 14.984375 11.71875 18.140625 8.90625 
Q 21.296875 6.109375 26.703125 6.109375 
Q 34.1875 6.109375 38.703125 11.40625 
Q 43.21875 16.703125 43.21875 25.484375 
L 43.21875 27.484375 
z
M 52.203125 31.203125 
L 52.203125 0 
L 43.21875 0 
L 43.21875 8.296875 
Q 40.140625 3.328125 35.546875 0.953125 
Q 30.953125 -1.421875 24.3125 -1.421875 
Q 15.921875 -1.421875 10.953125 3.296875 
Q 6 8.015625 6 15.921875 
Q 6 25.140625 12.171875 29.828125 
Q 18.359375 34.515625 30.609375 34.515625 
L 43.21875 34.515625 
L 43.21875 35.40625 
Q 43.21875 41.609375 39.140625 45 
Q 35.0625 48.390625 27.6875 48.390625 
Q 23 48.390625 18.546875 47.265625 
Q 14.109375 46.140625 10.015625 43.890625 
L 10.015625 52.203125 
Q 14.9375 54.109375 19.578125 55.046875 
Q 24.21875 56 28.609375 56 
Q 40.484375 56 46.34375 49.84375 
Q 52.203125 43.703125 52.203125 31.203125 
z
" id="DejaVuSans-97"/>
      </defs>
      <use xlink:href="#DejaVuSans-76"/>
      <use x="55.712891" xlink:href="#DejaVuSans-97"/>
      <use x="116.992188" xlink:href="#DejaVuSans-116"/>
      <use x="156.201172" xlink:href="#DejaVuSans-105"/>
      <use x="183.984375" xlink:href="#DejaVuSans-116"/>
      <use x="223.193359" xlink:href="#DejaVuSans-117"/>
      <use x="286.572266" xlink:href="#DejaVuSans-100"/>
      <use x="350.048828" xlink:href="#DejaVuSans-101"/>
     </g>
    </g>
   </g>
   <g id="line2d_9">
    <path clip-path="url(#p4bbc1084d4)" d="M 495.607008 80.044319 
L 484.051974 80.040801 
L 372.389543 79.922226 
L 370.181009 79.837085 
L 367.931591 79.545991 
L 364.788845 78.80799 
L 360.043956 77.448382 
L 355.856108 76.00184 
L 352.305005 74.763415 
L 349.547297 73.990118 
L 346.494147 73.33592 
L 343.211596 72.868019 
L 337.910715 72.463813 
L 334.206019 72.325514 
L 333.022216 72.411759 
L 332.819386 72.570581 
L 332.0184 72.598346 
L 313.642664 72.601284 
L 300.405396 72.84362 
L 297.238697 73.093901 
L 294.408412 73.511128 
L 291.937604 74.094735 
L 289.692015 74.83224 
L 287.582852 75.712995 
L 280.511341 79.032437 
L 278.259077 79.756991 
L 275.856585 80.313523 
L 273.311672 80.678724 
L 269.172667 80.952907 
L 263.396095 81.045325 
L 252.554108 80.857359 
L 241.012066 80.446677 
L 230.048843 80.061904 
L 206.386147 79.503703 
L 180.886408 79.194942 
L 135.464905 78.923006 
L 75.60241 78.570081 
L 72.214563 78.26536 
L 69.109837 77.759654 
L 66.294293 77.055279 
L 63.726587 76.161986 
L 53.39194 71.909805 
L 50.529431 71.13939 
L 47.536414 70.594003 
L 44.415101 70.276359 
L 41.142062 70.15988 
L 37.738139 70.242787 
L 34.281904 70.534474 
L 30.914968 71.034125 
L 27.690631 71.70104 
L 23.090844 72.900087 
L 18.799516 74.246454 
L 13.224863 76.09825 
L 5.862015 78.235417 
L -1 79.947784 
L -1 79.947784 
" style="fill:none;stroke:#000000;stroke-linecap:square;"/>
   </g>
   <g id="line2d_10">
    <path clip-path="url(#p4bbc1084d4)" d="M 346.856451 81.77332 
L 346.957038 77.862395 
" style="fill:none;stroke:#ff0000;stroke-linecap:square;"/>
   </g>
   <g id="line2d_11">
    <path clip-path="url(#p4bbc1084d4)" d="M 346.957038 77.862395 
L 325.567696 77.772164 
" style="fill:none;stroke:#ff0000;stroke-linecap:square;"/>
   </g>
   <g id="line2d_12">
    <path clip-path="url(#p4bbc1084d4)" d="M 325.567696 77.772164 
L 325.467107 81.683095 
" style="fill:none;stroke:#ff0000;stroke-linecap:square;"/>
   </g>
   <g id="line2d_13">
    <path clip-path="url(#p4bbc1084d4)" d="M 325.467107 81.683095 
L 346.856451 81.77332 
" style="fill:none;stroke:#ff0000;stroke-linecap:square;"/>
   </g>
   <g id="line2d_14">
    <path clip-path="url(#p4bbc1084d4)" d="M 325.690043 72.569092 
L 324.738376 72.564361 
L 323.729815 72.561064 
L 322.66462 72.559299 
L 321.54303 72.559202 
L 320.365271 72.56083 
L 319.131619 72.564402 
L 317.842304 72.570099 
L 316.497548 72.578071 
L 315.097588 72.588429 
L 313.642664 72.601284 
L 312.132979 72.61669 
L 310.568798 72.634731 
L 308.950341 72.65542 
L 307.278691 72.678867 
L 305.561804 72.704935 
L 303.819523 72.733403 
L 302.089158 72.774133 
L 300.405396 72.84362 
L 298.785705 72.948816 
L 297.238697 73.093901 
L 295.775297 73.281108 
L 294.408412 73.511128 
L 293.137117 73.783132 
L 291.937604 74.094735 
L 290.792408 74.444653 
L 289.692015 74.83224 
L 288.623772 75.255963 
L 287.582852 75.712995 
L 286.578876 76.198178 
L 285.601823 76.699995 
L 284.624488 77.203315 
L 283.635974 77.696236 
L 282.62649 78.169778 
L 281.585663 78.616272 
L 280.511341 79.032437 
L 279.4032 79.413996 
L 278.259077 79.756991 
L 277.076912 80.058001 
L 275.856585 80.313523 
L 274.601621 80.519723 
L 273.311672 80.678724 
L 271.980062 80.797933 
L 270.600132 80.886689 
L 269.172667 80.952907 
L 267.712702 81.000485 
L 266.250566 81.030856 
L 264.810141 81.045277 
L 263.396095 81.045325 
L 262.003674 81.03276 
L 260.626904 81.009085 
L 259.257609 80.985989 
L 257.895653 80.967286 
L 256.545175 80.945411 
L 255.205757 80.919633 
L 253.875918 80.890185 
L 252.554108 80.857359 
L 251.239364 80.821381 
L 249.931382 80.782444 
L 248.630491 80.740804 
L 247.337426 80.696682 
L 246.052943 80.650284 
L 244.777681 80.601885 
L 243.511878 80.551639 
L 242.255357 80.499792 
L 241.012066 80.446677 
L 239.801505 80.393313 
L 238.644449 80.340819 
L 237.549411 80.289786 
L 236.508006 80.251498 
L 235.487572 80.220616 
L 234.462574 80.189872 
L 233.416349 80.158921 
L 232.336544 80.127447 
L 231.21558 80.095144 
L 230.048843 80.061904 
L 228.833556 80.027588 
L 227.56783 79.992127 
L 226.250405 79.955453 
L 224.880471 79.917551 
L 223.457442 79.87838 
L 221.980985 79.837953 
L 220.450861 79.796272 
L 218.867003 79.753336 
L 217.229411 79.709172 
L 215.538109 79.670704 
L 213.79298 79.635988 
L 211.994908 79.601727 
L 210.150365 79.568059 
L 208.273654 79.535288 
L 206.386147 79.503703 
L 204.508499 79.47347 
L 202.64817 79.44456 
L 200.805023 79.416823 
L 198.977968 79.390066 
L 197.165575 79.364205 
L 195.363842 79.339061 
L 193.567387 79.317544 
L 191.771001 79.298041 
L 189.970767 79.279283 
L 188.164419 79.261243 
L 186.351481 79.243836 
L 184.532889 79.227009 
L 182.7105 79.210734 
L 180.886408 79.194942 
" style="fill:none;stroke:#ff0000;stroke-linecap:square;stroke-width:0.5;"/>
   </g>
   <g id="patch_3">
    <path d="M 72 124.153043 
L 72 51.84 
" style="fill:none;stroke:#000000;stroke-linecap:square;stroke-linejoin:miter;stroke-width:0.8;"/>
   </g>
   <g id="patch_4">
    <path d="M 518.4 124.153043 
L 518.4 51.84 
" style="fill:none;stroke:#000000;stroke-linecap:square;stroke-linejoin:miter;stroke-width:0.8;"/>
   </g>
   <g id="patch_5">
    <path d="M 72 124.153043 
L 518.4 124.153043 
" style="fill:none;stroke:#000000;stroke-linecap:square;stroke-linejoin:miter;stroke-width:0.8;"/>
   </g>
   <g id="patch_6">
    <path d="M 72 51.84 
L 518.4 51.84 
" style="fill:none;stroke:#000000;stroke-linecap:square;stroke-linejoin:miter;stroke-width:0.8;"/>
   </g>
   <g id="legend_1">
    <g id="patch_7">
     <path d="M 414.589062 119.153043 
L 511.4 119.153043 
Q 513.4 119.153043 513.4 117.153043 
L 513.4 88.796793 
Q 513.4 86.796793 511.4 86.796793 
L 414.589062 86.796793 
Q 412.589062 86.796793 412.589062 88.796793 
L 412.589062 117.153043 
Q 412.589062 119.153043 414.589062 119.153043 
z
" style="fill:#ffffff;opacity:0.8;stroke:#cccccc;stroke-linejoin:miter;"/>
    </g>
    <g id="line2d_15">
     <path d="M 416.589062 94.895231 
L 436.589062 94.895231 
" style="fill:none;stroke:#000000;stroke-linecap:square;"/>
    </g>
    <g id="line2d_16"/>
    <g id="text_11">
     <!-- Ground-Truth -->
     <g transform="translate(444.589062 98.395231)scale(0.1 -0.1)">
      <defs>
       <path d="M 59.515625 10.40625 
L 59.515625 29.984375 
L 43.40625 29.984375 
L 43.40625 38.09375 
L 69.28125 38.09375 
L 69.28125 6.78125 
Q 63.578125 2.734375 56.6875 0.65625 
Q 49.8125 -1.421875 42 -1.421875 
Q 24.90625 -1.421875 15.25 8.5625 
Q 5.609375 18.5625 5.609375 36.375 
Q 5.609375 54.25 15.25 64.234375 
Q 24.90625 74.21875 42 74.21875 
Q 49.125 74.21875 55.546875 72.453125 
Q 61.96875 70.703125 67.390625 67.28125 
L 67.390625 56.78125 
Q 61.921875 61.421875 55.765625 63.765625 
Q 49.609375 66.109375 42.828125 66.109375 
Q 29.4375 66.109375 22.71875 58.640625 
Q 16.015625 51.171875 16.015625 36.375 
Q 16.015625 21.625 22.71875 14.15625 
Q 29.4375 6.6875 42.828125 6.6875 
Q 48.046875 6.6875 52.140625 7.59375 
Q 56.25 8.5 59.515625 10.40625 
z
" id="DejaVuSans-71"/>
       <path d="M 41.109375 46.296875 
Q 39.59375 47.171875 37.8125 47.578125 
Q 36.03125 48 33.890625 48 
Q 26.265625 48 22.1875 43.046875 
Q 18.109375 38.09375 18.109375 28.8125 
L 18.109375 0 
L 9.078125 0 
L 9.078125 54.6875 
L 18.109375 54.6875 
L 18.109375 46.1875 
Q 20.953125 51.171875 25.484375 53.578125 
Q 30.03125 56 36.53125 56 
Q 37.453125 56 38.578125 55.875 
Q 39.703125 55.765625 41.0625 55.515625 
z
" id="DejaVuSans-114"/>
       <path d="M 4.890625 31.390625 
L 31.203125 31.390625 
L 31.203125 23.390625 
L 4.890625 23.390625 
z
" id="DejaVuSans-45"/>
       <path d="M -0.296875 72.90625 
L 61.375 72.90625 
L 61.375 64.59375 
L 35.5 64.59375 
L 35.5 0 
L 25.59375 0 
L 25.59375 64.59375 
L -0.296875 64.59375 
z
" id="DejaVuSans-84"/>
       <path d="M 54.890625 33.015625 
L 54.890625 0 
L 45.90625 0 
L 45.90625 32.71875 
Q 45.90625 40.484375 42.875 44.328125 
Q 39.84375 48.1875 33.796875 48.1875 
Q 26.515625 48.1875 22.3125 43.546875 
Q 18.109375 38.921875 18.109375 30.90625 
L 18.109375 0 
L 9.078125 0 
L 9.078125 75.984375 
L 18.109375 75.984375 
L 18.109375 46.1875 
Q 21.34375 51.125 25.703125 53.5625 
Q 30.078125 56 35.796875 56 
Q 45.21875 56 50.046875 50.171875 
Q 54.890625 44.34375 54.890625 33.015625 
z
" id="DejaVuSans-104"/>
      </defs>
      <use xlink:href="#DejaVuSans-71"/>
      <use x="77.490234" xlink:href="#DejaVuSans-114"/>
      <use x="116.353516" xlink:href="#DejaVuSans-111"/>
      <use x="177.535156" xlink:href="#DejaVuSans-117"/>
      <use x="240.914062" xlink:href="#DejaVuSans-110"/>
      <use x="304.292969" xlink:href="#DejaVuSans-100"/>
      <use x="367.769531" xlink:href="#DejaVuSans-45"/>
      <use x="394.728516" xlink:href="#DejaVuSans-84"/>
      <use x="441.0625" xlink:href="#DejaVuSans-114"/>
      <use x="482.175781" xlink:href="#DejaVuSans-117"/>
      <use x="545.554688" xlink:href="#DejaVuSans-116"/>
      <use x="584.763672" xlink:href="#DejaVuSans-104"/>
     </g>
    </g>
    <g id="line2d_17">
     <path d="M 416.589062 109.573356 
L 436.589062 109.573356 
" style="fill:none;stroke:#ff0000;stroke-linecap:square;stroke-width:0.5;"/>
    </g>
    <g id="line2d_18"/>
    <g id="text_12">
     <!-- Sensor data -->
     <g transform="translate(444.589062 113.073356)scale(0.1 -0.1)">
      <defs>
       <path d="M 53.515625 70.515625 
L 53.515625 60.890625 
Q 47.90625 63.578125 42.921875 64.890625 
Q 37.9375 66.21875 33.296875 66.21875 
Q 25.25 66.21875 20.875 63.09375 
Q 16.5 59.96875 16.5 54.203125 
Q 16.5 49.359375 19.40625 46.890625 
Q 22.3125 44.4375 30.421875 42.921875 
L 36.375 41.703125 
Q 47.40625 39.59375 52.65625 34.296875 
Q 57.90625 29 57.90625 20.125 
Q 57.90625 9.515625 50.796875 4.046875 
Q 43.703125 -1.421875 29.984375 -1.421875 
Q 24.8125 -1.421875 18.96875 -0.25 
Q 13.140625 0.921875 6.890625 3.21875 
L 6.890625 13.375 
Q 12.890625 10.015625 18.65625 8.296875 
Q 24.421875 6.59375 29.984375 6.59375 
Q 38.421875 6.59375 43.015625 9.90625 
Q 47.609375 13.234375 47.609375 19.390625 
Q 47.609375 24.75 44.3125 27.78125 
Q 41.015625 30.8125 33.5 32.328125 
L 27.484375 33.5 
Q 16.453125 35.6875 11.515625 40.375 
Q 6.59375 45.0625 6.59375 53.421875 
Q 6.59375 63.09375 13.40625 68.65625 
Q 20.21875 74.21875 32.171875 74.21875 
Q 37.3125 74.21875 42.625 73.28125 
Q 47.953125 72.359375 53.515625 70.515625 
z
" id="DejaVuSans-83"/>
       <path d="M 44.28125 53.078125 
L 44.28125 44.578125 
Q 40.484375 46.53125 36.375 47.5 
Q 32.28125 48.484375 27.875 48.484375 
Q 21.1875 48.484375 17.84375 46.4375 
Q 14.5 44.390625 14.5 40.28125 
Q 14.5 37.15625 16.890625 35.375 
Q 19.28125 33.59375 26.515625 31.984375 
L 29.59375 31.296875 
Q 39.15625 29.25 43.1875 25.515625 
Q 47.21875 21.78125 47.21875 15.09375 
Q 47.21875 7.46875 41.1875 3.015625 
Q 35.15625 -1.421875 24.609375 -1.421875 
Q 20.21875 -1.421875 15.453125 -0.5625 
Q 10.6875 0.296875 5.421875 2 
L 5.421875 11.28125 
Q 10.40625 8.6875 15.234375 7.390625 
Q 20.0625 6.109375 24.8125 6.109375 
Q 31.15625 6.109375 34.5625 8.28125 
Q 37.984375 10.453125 37.984375 14.40625 
Q 37.984375 18.0625 35.515625 20.015625 
Q 33.0625 21.96875 24.703125 23.78125 
L 21.578125 24.515625 
Q 13.234375 26.265625 9.515625 29.90625 
Q 5.8125 33.546875 5.8125 39.890625 
Q 5.8125 47.609375 11.28125 51.796875 
Q 16.75 56 26.8125 56 
Q 31.78125 56 36.171875 55.265625 
Q 40.578125 54.546875 44.28125 53.078125 
z
" id="DejaVuSans-115"/>
       <path id="DejaVuSans-32"/>
      </defs>
      <use xlink:href="#DejaVuSans-83"/>
      <use x="63.476562" xlink:href="#DejaVuSans-101"/>
      <use x="125" xlink:href="#DejaVuSans-110"/>
      <use x="188.378906" xlink:href="#DejaVuSans-115"/>
      <use x="240.478516" xlink:href="#DejaVuSans-111"/>
      <use x="301.660156" xlink:href="#DejaVuSans-114"/>
      <use x="342.773438" xlink:href="#DejaVuSans-32"/>
      <use x="374.560547" xlink:href="#DejaVuSans-100"/>
      <use x="438.037109" xlink:href="#DejaVuSans-97"/>
      <use x="499.316406" xlink:href="#DejaVuSans-116"/>
      <use x="538.525391" xlink:href="#DejaVuSans-97"/>
     </g>
    </g>
   </g>
  </g>
  <g id="axes_2">
   <g id="patch_8">
    <path d="M 72 210.928696 
L 518.4 210.928696 
L 518.4 138.615652 
L 72 138.615652 
z
" style="fill:none;"/>
   </g>
   <g id="PathCollection_23">
    <g clip-path="url(#pf8c39e726a)">
     <use style="stroke:#000000;" x="220.935305" xlink:href="#m51095e20a0" y="343.965328"/>
    </g>
   </g>
   <g id="PathCollection_24">
    <g clip-path="url(#pf8c39e726a)">
     <use style="stroke:#000000;" x="84.948706" xlink:href="#m51095e20a0" y="506.970176"/>
    </g>
   </g>
   <g id="PathCollection_25">
    <g clip-path="url(#pf8c39e726a)">
     <use style="stroke:#000000;" x="100.054639" xlink:href="#m51095e20a0" y="546.8672"/>
    </g>
   </g>
   <g id="PathCollection_26">
    <g clip-path="url(#pf8c39e726a)"/>
   </g>
   <g id="PathCollection_27">
    <g clip-path="url(#pf8c39e726a)">
     <use style="stroke:#000000;" x="97.702603" xlink:href="#m51095e20a0" y="190.14164"/>
    </g>
   </g>
   <g id="PathCollection_28">
    <g clip-path="url(#pf8c39e726a)"/>
   </g>
   <g id="PathCollection_29">
    <g clip-path="url(#pf8c39e726a)">
     <use style="stroke:#000000;" x="83.82036" xlink:href="#m51095e20a0" y="319.754238"/>
    </g>
   </g>
   <g id="PathCollection_30">
    <g clip-path="url(#pf8c39e726a)">
     <use style="stroke:#000000;" x="75.284653" xlink:href="#m51095e20a0" y="296.010974"/>
    </g>
   </g>
   <g id="PathCollection_31">
    <g clip-path="url(#pf8c39e726a)">
     <use style="stroke:#000000;" x="219.620724" xlink:href="#m51095e20a0" y="319.944142"/>
    </g>
   </g>
   <g id="PathCollection_32">
    <g clip-path="url(#pf8c39e726a)">
     <use style="stroke:#000000;" x="762.990976" xlink:href="#m51095e20a0" y="321.06534"/>
    </g>
   </g>
   <g id="PathCollection_33">
    <g clip-path="url(#pf8c39e726a)">
     <use style="stroke:#000000;" x="873.073233" xlink:href="#m51095e20a0" y="321.560426"/>
    </g>
   </g>
   <g id="PathCollection_34">
    <g clip-path="url(#pf8c39e726a)">
     <use style="stroke:#000000;" x="208.378977" xlink:href="#m51095e20a0" y="191.005569"/>
    </g>
   </g>
   <g id="PathCollection_35">
    <g clip-path="url(#pf8c39e726a)">
     <use style="stroke:#000000;" x="156.050078" xlink:href="#m51095e20a0" y="150.264167"/>
    </g>
   </g>
   <g id="PathCollection_36">
    <g clip-path="url(#pf8c39e726a)">
     <use style="stroke:#000000;" x="877.528037" xlink:href="#m51095e20a0" y="346.596904"/>
    </g>
   </g>
   <g id="PathCollection_37">
    <g clip-path="url(#pf8c39e726a)"/>
   </g>
   <g id="PathCollection_38">
    <g clip-path="url(#pf8c39e726a)">
     <use style="stroke:#000000;" x="236.498359" xlink:href="#m51095e20a0" y="402.612024"/>
    </g>
   </g>
   <g id="PathCollection_39">
    <g clip-path="url(#pf8c39e726a)">
     <use style="stroke:#000000;" x="558.782015" xlink:href="#m51095e20a0" y="351.575557"/>
    </g>
   </g>
   <g id="PathCollection_40">
    <g clip-path="url(#pf8c39e726a)">
     <use style="stroke:#000000;" x="554.78159" xlink:href="#m51095e20a0" y="403.371777"/>
    </g>
   </g>
   <g id="PathCollection_41">
    <g clip-path="url(#pf8c39e726a)">
     <use style="stroke:#000000;" x="583.574393" xlink:href="#m51095e20a0" y="352.843043"/>
    </g>
   </g>
   <g id="PathCollection_42">
    <g clip-path="url(#pf8c39e726a)">
     <use style="stroke:#000000;" x="519.962393" xlink:href="#m51095e20a0" y="380.141215"/>
    </g>
   </g>
   <g id="PathCollection_43">
    <g clip-path="url(#pf8c39e726a)">
     <use style="stroke:#000000;" x="478.670393" xlink:href="#m51095e20a0" y="419.099872"/>
    </g>
   </g>
   <g id="PathCollection_44">
    <g clip-path="url(#pf8c39e726a)">
     <use style="stroke:#000000;" x="618.616786" xlink:href="#m51095e20a0" y="393.7903"/>
    </g>
   </g>
   <g id="matplotlib.axis_3">
    <g id="xtick_6">
     <g id="line2d_19">
      <g>
       <use style="stroke:#000000;stroke-width:0.8;" x="94.32" xlink:href="#m2425806535" y="210.928696"/>
      </g>
     </g>
     <g id="text_13">
      <!-- −60 -->
      <g transform="translate(83.767656 225.527133)scale(0.1 -0.1)">
       <use xlink:href="#DejaVuSans-8722"/>
       <use x="83.789062" xlink:href="#DejaVuSans-54"/>
       <use x="147.412109" xlink:href="#DejaVuSans-48"/>
      </g>
     </g>
    </g>
    <g id="xtick_7">
     <g id="line2d_20">
      <g>
       <use style="stroke:#000000;stroke-width:0.8;" x="183.6" xlink:href="#m2425806535" y="210.928696"/>
      </g>
     </g>
     <g id="text_14">
      <!-- −40 -->
      <g transform="translate(173.047656 225.527133)scale(0.1 -0.1)">
       <use xlink:href="#DejaVuSans-8722"/>
       <use x="83.789062" xlink:href="#DejaVuSans-52"/>
       <use x="147.412109" xlink:href="#DejaVuSans-48"/>
      </g>
     </g>
    </g>
    <g id="xtick_8">
     <g id="line2d_21">
      <g>
       <use style="stroke:#000000;stroke-width:0.8;" x="272.88" xlink:href="#m2425806535" y="210.928696"/>
      </g>
     </g>
     <g id="text_15">
      <!-- −20 -->
      <g transform="translate(262.327656 225.527133)scale(0.1 -0.1)">
       <use xlink:href="#DejaVuSans-8722"/>
       <use x="83.789062" xlink:href="#DejaVuSans-50"/>
       <use x="147.412109" xlink:href="#DejaVuSans-48"/>
      </g>
     </g>
    </g>
    <g id="xtick_9">
     <g id="line2d_22">
      <g>
       <use style="stroke:#000000;stroke-width:0.8;" x="362.16" xlink:href="#m2425806535" y="210.928696"/>
      </g>
     </g>
     <g id="text_16">
      <!-- 0 -->
      <g transform="translate(358.97875 225.527133)scale(0.1 -0.1)">
       <use xlink:href="#DejaVuSans-48"/>
      </g>
     </g>
    </g>
    <g id="xtick_10">
     <g id="line2d_23">
      <g>
       <use style="stroke:#000000;stroke-width:0.8;" x="451.44" xlink:href="#m2425806535" y="210.928696"/>
      </g>
     </g>
     <g id="text_17">
      <!-- 20 -->
      <g transform="translate(445.0775 225.527133)scale(0.1 -0.1)">
       <use xlink:href="#DejaVuSans-50"/>
       <use x="63.623047" xlink:href="#DejaVuSans-48"/>
      </g>
     </g>
    </g>
    <g id="text_18">
     <!-- Longitude -->
     <g transform="translate(270.330469 239.205258)scale(0.1 -0.1)">
      <use xlink:href="#DejaVuSans-76"/>
      <use x="53.962891" xlink:href="#DejaVuSans-111"/>
      <use x="115.144531" xlink:href="#DejaVuSans-110"/>
      <use x="178.523438" xlink:href="#DejaVuSans-103"/>
      <use x="242" xlink:href="#DejaVuSans-105"/>
      <use x="269.783203" xlink:href="#DejaVuSans-116"/>
      <use x="308.992188" xlink:href="#DejaVuSans-117"/>
      <use x="372.371094" xlink:href="#DejaVuSans-100"/>
      <use x="435.847656" xlink:href="#DejaVuSans-101"/>
     </g>
    </g>
   </g>
   <g id="matplotlib.axis_4">
    <g id="ytick_4">
     <g id="line2d_24">
      <g>
       <use style="stroke:#000000;stroke-width:0.8;" x="72" xlink:href="#mac95d9b87c" y="138.615652"/>
      </g>
     </g>
     <g id="text_19">
      <!-- −80 -->
      <g transform="translate(43.895313 142.414871)scale(0.1 -0.1)">
       <use xlink:href="#DejaVuSans-8722"/>
       <use x="83.789062" xlink:href="#DejaVuSans-56"/>
       <use x="147.412109" xlink:href="#DejaVuSans-48"/>
      </g>
     </g>
    </g>
    <g id="ytick_5">
     <g id="line2d_25">
      <g>
       <use style="stroke:#000000;stroke-width:0.8;" x="72" xlink:href="#mac95d9b87c" y="174.772174"/>
      </g>
     </g>
     <g id="text_20">
      <!-- −60 -->
      <g transform="translate(43.895313 178.571393)scale(0.1 -0.1)">
       <use xlink:href="#DejaVuSans-8722"/>
       <use x="83.789062" xlink:href="#DejaVuSans-54"/>
       <use x="147.412109" xlink:href="#DejaVuSans-48"/>
      </g>
     </g>
    </g>
    <g id="ytick_6">
     <g id="line2d_26">
      <g>
       <use style="stroke:#000000;stroke-width:0.8;" x="72" xlink:href="#mac95d9b87c" y="210.928696"/>
      </g>
     </g>
     <g id="text_21">
      <!-- −40 -->
      <g transform="translate(43.895313 214.727914)scale(0.1 -0.1)">
       <use xlink:href="#DejaVuSans-8722"/>
       <use x="83.789062" xlink:href="#DejaVuSans-52"/>
       <use x="147.412109" xlink:href="#DejaVuSans-48"/>
      </g>
     </g>
    </g>
    <g id="text_22">
     <!-- Latitude -->
     <g transform="translate(37.815625 195.35108)rotate(-90)scale(0.1 -0.1)">
      <use xlink:href="#DejaVuSans-76"/>
      <use x="55.712891" xlink:href="#DejaVuSans-97"/>
      <use x="116.992188" xlink:href="#DejaVuSans-116"/>
      <use x="156.201172" xlink:href="#DejaVuSans-105"/>
      <use x="183.984375" xlink:href="#DejaVuSans-116"/>
      <use x="223.193359" xlink:href="#DejaVuSans-117"/>
      <use x="286.572266" xlink:href="#DejaVuSans-100"/>
      <use x="350.048828" xlink:href="#DejaVuSans-101"/>
     </g>
    </g>
   </g>
   <g id="line2d_27">
    <path clip-path="url(#pf8c39e726a)" d="M 175.413639 253.312881 
L 175.413366 253.312767 
L 175.414184 253.25879 
L 176.325072 203.934431 
L 176.779843 199.519586 
L 177.295152 196.280066 
L 177.744406 194.57314 
L 178.383838 192.81396 
L 179.294453 191.018113 
L 180.534423 189.19726 
L 182.142709 187.369159 
L 184.154594 185.547802 
L 186.583703 183.752789 
L 189.443793 182.00163 
L 192.711588 180.325992 
L 196.312244 178.76453 
L 200.241216 177.38922 
L 204.468958 176.17238 
L 209.007953 175.129292 
L 213.801171 174.26173 
L 218.758564 173.558955 
L 223.831718 173.061144 
L 228.985555 172.759948 
L 235.982982 172.558052 
L 246.535241 172.496675 
L 306.172547 172.741452 
L 428.981424 173.129452 
L 577 173.114667 
L 577 173.114667 
" style="fill:none;stroke:#000000;stroke-linecap:square;"/>
   </g>
   <g id="line2d_28">
    <path clip-path="url(#pf8c39e726a)" d="M 346.856451 168.548972 
L 346.957038 164.638047 
" style="fill:none;stroke:#ff0000;stroke-linecap:square;"/>
   </g>
   <g id="line2d_29">
    <path clip-path="url(#pf8c39e726a)" d="M 346.957038 164.638047 
L 325.567696 164.547816 
" style="fill:none;stroke:#ff0000;stroke-linecap:square;"/>
   </g>
   <g id="line2d_30">
    <path clip-path="url(#pf8c39e726a)" d="M 325.567696 164.547816 
L 325.467107 168.458748 
" style="fill:none;stroke:#ff0000;stroke-linecap:square;"/>
   </g>
   <g id="line2d_31">
    <path clip-path="url(#pf8c39e726a)" d="M 325.467107 168.458748 
L 346.856451 168.548972 
" style="fill:none;stroke:#ff0000;stroke-linecap:square;"/>
   </g>
   <g id="line2d_32">
    <path clip-path="url(#pf8c39e726a)" d="M 197.585812 178.284478 
L 198.899244 177.827198 
L 200.241216 177.38922 
L 201.614862 176.964586 
L 203.023195 176.559966 
L 204.468958 176.17238 
L 205.949545 175.806648 
L 207.466386 175.460605 
L 209.007953 175.129292 
L 210.583322 174.820834 
L 212.180999 174.533631 
L 213.801171 174.26173 
L 215.435715 174.004401 
L 217.091546 173.770519 
L 218.758564 173.558955 
L 220.440789 173.372485 
L 222.129834 173.208594 
L 223.831718 173.061144 
L 225.540653 172.938687 
L 227.260001 172.84158 
L 228.985555 172.759948 
L 230.724043 172.692178 
L 232.469198 172.636725 
L 234.224868 172.592437 
L 235.982982 172.558052 
L 237.746452 172.532253 
L 239.507384 172.513929 
L 241.269652 172.502661 
L 243.026625 172.496902 
L 244.783649 172.495144 
L 246.535241 172.496675 
L 248.287744 172.500654 
L 250.03627 172.506571 
L 251.787394 172.513791 
L 253.536253 172.521929 
L 255.289087 172.530598 
L 257.040517 172.539501 
L 258.796205 172.548418 
L 260.550342 172.557183 
L 262.308115 172.565872 
L 264.063539 172.57432 
L 265.821738 172.582499 
L 267.576786 172.590382 
L 269.334006 172.597995 
L 271.087718 172.605312 
L 272.843524 172.612443 
L 274.595933 172.619388 
L 276.350752 172.626201 
L 278.102591 172.632877 
L 279.857265 172.639442 
L 281.609333 172.645904 
L 283.364518 172.652359 
L 285.117251 172.658938 
L 286.873117 172.665607 
L 288.626471 172.672303 
L 290.382805 172.679041 
L 292.136419 172.68584 
L 293.892792 172.692654 
L 295.646278 172.699516 
L 297.4024 172.706384 
L 299.155562 172.71335 
L 300.911356 172.720329 
L 302.664221 172.727322 
L 304.419801 172.734383 
L 306.172547 172.741452 
L 307.928119 172.748569 
L 309.680928 172.75579 
L 311.436611 172.763114 
L 313.189574 172.770458 
L 314.94541 172.777761 
L 316.698513 172.785113 
L 318.454447 172.792464 
L 320.207606 172.799816 
L 321.963548 172.807202 
L 323.71666 172.814588 
L 325.472535 172.822125 
" style="fill:none;stroke:#ff0000;stroke-linecap:square;stroke-width:0.5;"/>
   </g>
   <g id="patch_9">
    <path d="M 72 210.928696 
L 72 138.615652 
" style="fill:none;stroke:#000000;stroke-linecap:square;stroke-linejoin:miter;stroke-width:0.8;"/>
   </g>
   <g id="patch_10">
    <path d="M 518.4 210.928696 
L 518.4 138.615652 
" style="fill:none;stroke:#000000;stroke-linecap:square;stroke-linejoin:miter;stroke-width:0.8;"/>
   </g>
   <g id="patch_11">
    <path d="M 72 210.928696 
L 518.4 210.928696 
" style="fill:none;stroke:#000000;stroke-linecap:square;stroke-linejoin:miter;stroke-width:0.8;"/>
   </g>
   <g id="patch_12">
    <path d="M 72 138.615652 
L 518.4 138.615652 
" style="fill:none;stroke:#000000;stroke-linecap:square;stroke-linejoin:miter;stroke-width:0.8;"/>
   </g>
   <g id="legend_2">
    <g id="patch_13">
     <path d="M 414.589062 205.928696 
L 511.4 205.928696 
Q 513.4 205.928696 513.4 203.928696 
L 513.4 175.572446 
Q 513.4 173.572446 511.4 173.572446 
L 414.589062 173.572446 
Q 412.589062 173.572446 412.589062 175.572446 
L 412.589062 203.928696 
Q 412.589062 205.928696 414.589062 205.928696 
z
" style="fill:#ffffff;opacity:0.8;stroke:#cccccc;stroke-linejoin:miter;"/>
    </g>
    <g id="line2d_33">
     <path d="M 416.589062 181.670883 
L 436.589062 181.670883 
" style="fill:none;stroke:#000000;stroke-linecap:square;"/>
    </g>
    <g id="line2d_34"/>
    <g id="text_23">
     <!-- Ground-Truth -->
     <g transform="translate(444.589062 185.170883)scale(0.1 -0.1)">
      <use xlink:href="#DejaVuSans-71"/>
      <use x="77.490234" xlink:href="#DejaVuSans-114"/>
      <use x="116.353516" xlink:href="#DejaVuSans-111"/>
      <use x="177.535156" xlink:href="#DejaVuSans-117"/>
      <use x="240.914062" xlink:href="#DejaVuSans-110"/>
      <use x="304.292969" xlink:href="#DejaVuSans-100"/>
      <use x="367.769531" xlink:href="#DejaVuSans-45"/>
      <use x="394.728516" xlink:href="#DejaVuSans-84"/>
      <use x="441.0625" xlink:href="#DejaVuSans-114"/>
      <use x="482.175781" xlink:href="#DejaVuSans-117"/>
      <use x="545.554688" xlink:href="#DejaVuSans-116"/>
      <use x="584.763672" xlink:href="#DejaVuSans-104"/>
     </g>
    </g>
    <g id="line2d_35">
     <path d="M 416.589062 196.349008 
L 436.589062 196.349008 
" style="fill:none;stroke:#ff0000;stroke-linecap:square;stroke-width:0.5;"/>
    </g>
    <g id="line2d_36"/>
    <g id="text_24">
     <!-- Sensor data -->
     <g transform="translate(444.589062 199.849008)scale(0.1 -0.1)">
      <use xlink:href="#DejaVuSans-83"/>
      <use x="63.476562" xlink:href="#DejaVuSans-101"/>
      <use x="125" xlink:href="#DejaVuSans-110"/>
      <use x="188.378906" xlink:href="#DejaVuSans-115"/>
      <use x="240.478516" xlink:href="#DejaVuSans-111"/>
      <use x="301.660156" xlink:href="#DejaVuSans-114"/>
      <use x="342.773438" xlink:href="#DejaVuSans-32"/>
      <use x="374.560547" xlink:href="#DejaVuSans-100"/>
      <use x="438.037109" xlink:href="#DejaVuSans-97"/>
      <use x="499.316406" xlink:href="#DejaVuSans-116"/>
      <use x="538.525391" xlink:href="#DejaVuSans-97"/>
     </g>
    </g>
   </g>
  </g>
  <g id="axes_3">
   <g id="patch_14">
    <path d="M 72 297.704348 
L 518.4 297.704348 
L 518.4 225.391304 
L 72 225.391304 
z
" style="fill:none;"/>
   </g>
   <g id="PathCollection_45">
    <g clip-path="url(#p965045287d)">
     <use style="stroke:#000000;" x="220.935305" xlink:href="#m51095e20a0" y="430.74098"/>
    </g>
   </g>
   <g id="PathCollection_46">
    <g clip-path="url(#p965045287d)">
     <use style="stroke:#000000;" x="84.948706" xlink:href="#m51095e20a0" y="593.745828"/>
    </g>
   </g>
   <g id="PathCollection_47">
    <g clip-path="url(#p965045287d)">
     <use style="stroke:#000000;" x="100.054639" xlink:href="#m51095e20a0" y="633.642853"/>
    </g>
   </g>
   <g id="PathCollection_48">
    <g clip-path="url(#p965045287d)"/>
   </g>
   <g id="PathCollection_49">
    <g clip-path="url(#p965045287d)">
     <use style="stroke:#000000;" x="97.702603" xlink:href="#m51095e20a0" y="276.917293"/>
    </g>
   </g>
   <g id="PathCollection_50">
    <g clip-path="url(#p965045287d)"/>
   </g>
   <g id="PathCollection_51">
    <g clip-path="url(#p965045287d)">
     <use style="stroke:#000000;" x="83.82036" xlink:href="#m51095e20a0" y="406.52989"/>
    </g>
   </g>
   <g id="PathCollection_52">
    <g clip-path="url(#p965045287d)">
     <use style="stroke:#000000;" x="75.284653" xlink:href="#m51095e20a0" y="382.786626"/>
    </g>
   </g>
   <g id="PathCollection_53">
    <g clip-path="url(#p965045287d)">
     <use style="stroke:#000000;" x="219.620724" xlink:href="#m51095e20a0" y="406.719794"/>
    </g>
   </g>
   <g id="PathCollection_54">
    <g clip-path="url(#p965045287d)">
     <use style="stroke:#000000;" x="762.990976" xlink:href="#m51095e20a0" y="407.840992"/>
    </g>
   </g>
   <g id="PathCollection_55">
    <g clip-path="url(#p965045287d)">
     <use style="stroke:#000000;" x="873.073233" xlink:href="#m51095e20a0" y="408.336078"/>
    </g>
   </g>
   <g id="PathCollection_56">
    <g clip-path="url(#p965045287d)">
     <use style="stroke:#000000;" x="208.378977" xlink:href="#m51095e20a0" y="277.781221"/>
    </g>
   </g>
   <g id="PathCollection_57">
    <g clip-path="url(#p965045287d)">
     <use style="stroke:#000000;" x="156.050078" xlink:href="#m51095e20a0" y="237.039819"/>
    </g>
   </g>
   <g id="PathCollection_58">
    <g clip-path="url(#p965045287d)">
     <use style="stroke:#000000;" x="877.528037" xlink:href="#m51095e20a0" y="433.372557"/>
    </g>
   </g>
   <g id="PathCollection_59">
    <g clip-path="url(#p965045287d)"/>
   </g>
   <g id="PathCollection_60">
    <g clip-path="url(#p965045287d)">
     <use style="stroke:#000000;" x="236.498359" xlink:href="#m51095e20a0" y="489.387677"/>
    </g>
   </g>
   <g id="PathCollection_61">
    <g clip-path="url(#p965045287d)">
     <use style="stroke:#000000;" x="558.782015" xlink:href="#m51095e20a0" y="438.351209"/>
    </g>
   </g>
   <g id="PathCollection_62">
    <g clip-path="url(#p965045287d)">
     <use style="stroke:#000000;" x="554.78159" xlink:href="#m51095e20a0" y="490.147429"/>
    </g>
   </g>
   <g id="PathCollection_63">
    <g clip-path="url(#p965045287d)">
     <use style="stroke:#000000;" x="583.574393" xlink:href="#m51095e20a0" y="439.618696"/>
    </g>
   </g>
   <g id="PathCollection_64">
    <g clip-path="url(#p965045287d)">
     <use style="stroke:#000000;" x="519.962393" xlink:href="#m51095e20a0" y="466.916867"/>
    </g>
   </g>
   <g id="PathCollection_65">
    <g clip-path="url(#p965045287d)">
     <use style="stroke:#000000;" x="478.670393" xlink:href="#m51095e20a0" y="505.875524"/>
    </g>
   </g>
   <g id="PathCollection_66">
    <g clip-path="url(#p965045287d)">
     <use style="stroke:#000000;" x="618.616786" xlink:href="#m51095e20a0" y="480.565952"/>
    </g>
   </g>
   <g id="matplotlib.axis_5">
    <g id="xtick_11">
     <g id="line2d_37">
      <g>
       <use style="stroke:#000000;stroke-width:0.8;" x="94.32" xlink:href="#m2425806535" y="297.704348"/>
      </g>
     </g>
     <g id="text_25">
      <!-- −60 -->
      <g transform="translate(83.767656 312.302785)scale(0.1 -0.1)">
       <use xlink:href="#DejaVuSans-8722"/>
       <use x="83.789062" xlink:href="#DejaVuSans-54"/>
       <use x="147.412109" xlink:href="#DejaVuSans-48"/>
      </g>
     </g>
    </g>
    <g id="xtick_12">
     <g id="line2d_38">
      <g>
       <use style="stroke:#000000;stroke-width:0.8;" x="183.6" xlink:href="#m2425806535" y="297.704348"/>
      </g>
     </g>
     <g id="text_26">
      <!-- −40 -->
      <g transform="translate(173.047656 312.302785)scale(0.1 -0.1)">
       <use xlink:href="#DejaVuSans-8722"/>
       <use x="83.789062" xlink:href="#DejaVuSans-52"/>
       <use x="147.412109" xlink:href="#DejaVuSans-48"/>
      </g>
     </g>
    </g>
    <g id="xtick_13">
     <g id="line2d_39">
      <g>
       <use style="stroke:#000000;stroke-width:0.8;" x="272.88" xlink:href="#m2425806535" y="297.704348"/>
      </g>
     </g>
     <g id="text_27">
      <!-- −20 -->
      <g transform="translate(262.327656 312.302785)scale(0.1 -0.1)">
       <use xlink:href="#DejaVuSans-8722"/>
       <use x="83.789062" xlink:href="#DejaVuSans-50"/>
       <use x="147.412109" xlink:href="#DejaVuSans-48"/>
      </g>
     </g>
    </g>
    <g id="xtick_14">
     <g id="line2d_40">
      <g>
       <use style="stroke:#000000;stroke-width:0.8;" x="362.16" xlink:href="#m2425806535" y="297.704348"/>
      </g>
     </g>
     <g id="text_28">
      <!-- 0 -->
      <g transform="translate(358.97875 312.302785)scale(0.1 -0.1)">
       <use xlink:href="#DejaVuSans-48"/>
      </g>
     </g>
    </g>
    <g id="xtick_15">
     <g id="line2d_41">
      <g>
       <use style="stroke:#000000;stroke-width:0.8;" x="451.44" xlink:href="#m2425806535" y="297.704348"/>
      </g>
     </g>
     <g id="text_29">
      <!-- 20 -->
      <g transform="translate(445.0775 312.302785)scale(0.1 -0.1)">
       <use xlink:href="#DejaVuSans-50"/>
       <use x="63.623047" xlink:href="#DejaVuSans-48"/>
      </g>
     </g>
    </g>
    <g id="text_30">
     <!-- Longitude -->
     <g transform="translate(270.330469 325.98091)scale(0.1 -0.1)">
      <use xlink:href="#DejaVuSans-76"/>
      <use x="53.962891" xlink:href="#DejaVuSans-111"/>
      <use x="115.144531" xlink:href="#DejaVuSans-110"/>
      <use x="178.523438" xlink:href="#DejaVuSans-103"/>
      <use x="242" xlink:href="#DejaVuSans-105"/>
      <use x="269.783203" xlink:href="#DejaVuSans-116"/>
      <use x="308.992188" xlink:href="#DejaVuSans-117"/>
      <use x="372.371094" xlink:href="#DejaVuSans-100"/>
      <use x="435.847656" xlink:href="#DejaVuSans-101"/>
     </g>
    </g>
   </g>
   <g id="matplotlib.axis_6">
    <g id="ytick_7">
     <g id="line2d_42">
      <g>
       <use style="stroke:#000000;stroke-width:0.8;" x="72" xlink:href="#mac95d9b87c" y="225.391304"/>
      </g>
     </g>
     <g id="text_31">
      <!-- −80 -->
      <g transform="translate(43.895313 229.190523)scale(0.1 -0.1)">
       <use xlink:href="#DejaVuSans-8722"/>
       <use x="83.789062" xlink:href="#DejaVuSans-56"/>
       <use x="147.412109" xlink:href="#DejaVuSans-48"/>
      </g>
     </g>
    </g>
    <g id="ytick_8">
     <g id="line2d_43">
      <g>
       <use style="stroke:#000000;stroke-width:0.8;" x="72" xlink:href="#mac95d9b87c" y="261.547826"/>
      </g>
     </g>
     <g id="text_32">
      <!-- −60 -->
      <g transform="translate(43.895313 265.347045)scale(0.1 -0.1)">
       <use xlink:href="#DejaVuSans-8722"/>
       <use x="83.789062" xlink:href="#DejaVuSans-54"/>
       <use x="147.412109" xlink:href="#DejaVuSans-48"/>
      </g>
     </g>
    </g>
    <g id="ytick_9">
     <g id="line2d_44">
      <g>
       <use style="stroke:#000000;stroke-width:0.8;" x="72" xlink:href="#mac95d9b87c" y="297.704348"/>
      </g>
     </g>
     <g id="text_33">
      <!-- −40 -->
      <g transform="translate(43.895313 301.503567)scale(0.1 -0.1)">
       <use xlink:href="#DejaVuSans-8722"/>
       <use x="83.789062" xlink:href="#DejaVuSans-52"/>
       <use x="147.412109" xlink:href="#DejaVuSans-48"/>
      </g>
     </g>
    </g>
    <g id="text_34">
     <!-- Latitude -->
     <g transform="translate(37.815625 282.126732)rotate(-90)scale(0.1 -0.1)">
      <use xlink:href="#DejaVuSans-76"/>
      <use x="55.712891" xlink:href="#DejaVuSans-97"/>
      <use x="116.992188" xlink:href="#DejaVuSans-116"/>
      <use x="156.201172" xlink:href="#DejaVuSans-105"/>
      <use x="183.984375" xlink:href="#DejaVuSans-116"/>
      <use x="223.193359" xlink:href="#DejaVuSans-117"/>
      <use x="286.572266" xlink:href="#DejaVuSans-100"/>
      <use x="350.048828" xlink:href="#DejaVuSans-101"/>
     </g>
    </g>
   </g>
   <g id="line2d_45">
    <path clip-path="url(#p965045287d)" d="M 175.413639 340.088533 
L 175.442043 337.175481 
L 175.783913 317.433689 
L 176.416278 289.606633 
L 177.036586 284.282661 
L 177.446555 282.18248 
L 177.876856 280.711676 
L 178.486368 279.233577 
L 179.243128 277.783917 
L 180.668559 275.722714 
L 182.423377 273.803609 
L 184.528377 271.980811 
L 187.02337 270.212915 
L 189.870569 268.525298 
L 192.997757 266.963663 
L 196.400181 265.521417 
L 200.29988 264.191292 
L 204.740636 262.938543 
L 209.559823 261.854602 
L 214.514167 260.979412 
L 219.54326 260.277174 
L 224.711282 259.78546 
L 230.03608 259.494857 
L 239.071472 259.283154 
L 244.39965 259.374261 
L 247.736624 259.661754 
L 250.774376 260.168378 
L 253.490666 260.891028 
L 255.918983 261.81152 
L 259.302258 263.492454 
L 262.797549 265.268116 
L 265.268804 266.323906 
L 267.890363 267.186062 
L 270.674701 267.807434 
L 273.628357 268.192006 
L 276.756191 268.364862 
L 281.835306 268.33036 
L 292.840884 267.77109 
L 314.139632 266.72621 
L 328.53364 266.389221 
L 344.7027 266.253419 
L 375.270018 266.225131 
L 524.509392 266.227289 
L 524.509392 266.227289 
" style="fill:none;stroke:#000000;stroke-linecap:square;"/>
   </g>
   <g id="line2d_46">
    <path clip-path="url(#p965045287d)" d="M 346.856451 255.324624 
L 346.957038 251.4137 
" style="fill:none;stroke:#ff0000;stroke-linecap:square;"/>
   </g>
   <g id="line2d_47">
    <path clip-path="url(#p965045287d)" d="M 346.957038 251.4137 
L 325.567696 251.323468 
" style="fill:none;stroke:#ff0000;stroke-linecap:square;"/>
   </g>
   <g id="line2d_48">
    <path clip-path="url(#p965045287d)" d="M 325.567696 251.323468 
L 325.467107 255.2344 
" style="fill:none;stroke:#ff0000;stroke-linecap:square;"/>
   </g>
   <g id="line2d_49">
    <path clip-path="url(#p965045287d)" d="M 325.467107 255.2344 
L 346.856451 255.324624 
" style="fill:none;stroke:#ff0000;stroke-linecap:square;"/>
   </g>
   <g id="line2d_50">
    <path clip-path="url(#p965045287d)" d="M 197.637102 265.066392 
L 198.937422 264.624463 
L 200.29988 264.191292 
L 201.72027 263.761514 
L 203.204773 263.343859 
L 204.740636 262.938543 
L 206.320143 262.553818 
L 207.928718 262.19061 
L 209.559823 261.854602 
L 211.204176 261.544074 
L 212.85643 261.253147 
L 214.514167 260.979412 
L 216.178614 260.721648 
L 217.85413 260.48745 
L 219.54326 260.277174 
L 221.247826 260.092077 
L 222.970095 259.930717 
L 224.711282 259.78546 
L 226.471286 259.666009 
L 228.24642 259.572261 
L 230.03608 259.494857 
L 231.836799 259.430969 
L 233.644774 259.379502 
L 235.455302 259.338497 
L 237.265149 259.307008 
L 239.071472 259.283154 
L 240.870736 259.276782 
L 242.651728 259.304188 
L 244.39965 259.374261 
L 246.099678 259.491795 
L 247.736624 259.661754 
L 249.297178 259.887098 
L 250.774376 260.168378 
L 252.172288 260.503621 
L 253.490666 260.891028 
L 254.737558 261.32782 
L 255.918983 261.81152 
L 257.053911 262.338529 
L 258.175207 262.902275 
L 259.302258 263.492454 
L 260.444329 264.094606 
L 261.609219 264.690522 
L 262.797549 265.268116 
L 264.015875 265.815876 
L 265.268804 266.323906 
L 266.559792 266.782759 
L 267.890363 267.186062 
L 269.261736 267.527692 
L 270.674701 267.807434 
L 272.130239 268.02815 
L 273.628357 268.192006 
L 275.168697 268.30183 
L 276.756191 268.364862 
L 278.395708 268.387917 
L 280.089436 268.375724 
L 281.835306 268.33036 
L 283.627051 268.254563 
L 285.456158 268.157607 
L 287.310783 268.058797 
L 289.169469 267.96398 
L 291.0148 267.868521 
L 292.840884 267.77109 
L 294.645342 267.673169 
L 296.428675 267.575228 
L 298.19418 267.478418 
L 299.947274 267.382297 
L 301.694664 267.287286 
L 303.442952 267.192483 
L 305.198061 267.098086 
L 306.963569 267.003262 
L 308.742488 266.917858 
L 310.533489 266.847391 
L 312.333578 266.784352 
L 314.139632 266.72621 
L 315.948484 266.672839 
" style="fill:none;stroke:#ff0000;stroke-linecap:square;stroke-width:0.5;"/>
   </g>
   <g id="patch_15">
    <path d="M 72 297.704348 
L 72 225.391304 
" style="fill:none;stroke:#000000;stroke-linecap:square;stroke-linejoin:miter;stroke-width:0.8;"/>
   </g>
   <g id="patch_16">
    <path d="M 518.4 297.704348 
L 518.4 225.391304 
" style="fill:none;stroke:#000000;stroke-linecap:square;stroke-linejoin:miter;stroke-width:0.8;"/>
   </g>
   <g id="patch_17">
    <path d="M 72 297.704348 
L 518.4 297.704348 
" style="fill:none;stroke:#000000;stroke-linecap:square;stroke-linejoin:miter;stroke-width:0.8;"/>
   </g>
   <g id="patch_18">
    <path d="M 72 225.391304 
L 518.4 225.391304 
" style="fill:none;stroke:#000000;stroke-linecap:square;stroke-linejoin:miter;stroke-width:0.8;"/>
   </g>
   <g id="legend_3">
    <g id="patch_19">
     <path d="M 414.589062 262.747554 
L 511.4 262.747554 
Q 513.4 262.747554 513.4 260.747554 
L 513.4 232.391304 
Q 513.4 230.391304 511.4 230.391304 
L 414.589062 230.391304 
Q 412.589062 230.391304 412.589062 232.391304 
L 412.589062 260.747554 
Q 412.589062 262.747554 414.589062 262.747554 
z
" style="fill:#ffffff;opacity:0.8;stroke:#cccccc;stroke-linejoin:miter;"/>
    </g>
    <g id="line2d_51">
     <path d="M 416.589062 238.489742 
L 436.589062 238.489742 
" style="fill:none;stroke:#000000;stroke-linecap:square;"/>
    </g>
    <g id="line2d_52"/>
    <g id="text_35">
     <!-- Ground-Truth -->
     <g transform="translate(444.589062 241.989742)scale(0.1 -0.1)">
      <use xlink:href="#DejaVuSans-71"/>
      <use x="77.490234" xlink:href="#DejaVuSans-114"/>
      <use x="116.353516" xlink:href="#DejaVuSans-111"/>
      <use x="177.535156" xlink:href="#DejaVuSans-117"/>
      <use x="240.914062" xlink:href="#DejaVuSans-110"/>
      <use x="304.292969" xlink:href="#DejaVuSans-100"/>
      <use x="367.769531" xlink:href="#DejaVuSans-45"/>
      <use x="394.728516" xlink:href="#DejaVuSans-84"/>
      <use x="441.0625" xlink:href="#DejaVuSans-114"/>
      <use x="482.175781" xlink:href="#DejaVuSans-117"/>
      <use x="545.554688" xlink:href="#DejaVuSans-116"/>
      <use x="584.763672" xlink:href="#DejaVuSans-104"/>
     </g>
    </g>
    <g id="line2d_53">
     <path d="M 416.589062 253.167867 
L 436.589062 253.167867 
" style="fill:none;stroke:#ff0000;stroke-linecap:square;stroke-width:0.5;"/>
    </g>
    <g id="line2d_54"/>
    <g id="text_36">
     <!-- Sensor data -->
     <g transform="translate(444.589062 256.667867)scale(0.1 -0.1)">
      <use xlink:href="#DejaVuSans-83"/>
      <use x="63.476562" xlink:href="#DejaVuSans-101"/>
      <use x="125" xlink:href="#DejaVuSans-110"/>
      <use x="188.378906" xlink:href="#DejaVuSans-115"/>
      <use x="240.478516" xlink:href="#DejaVuSans-111"/>
      <use x="301.660156" xlink:href="#DejaVuSans-114"/>
      <use x="342.773438" xlink:href="#DejaVuSans-32"/>
      <use x="374.560547" xlink:href="#DejaVuSans-100"/>
      <use x="438.037109" xlink:href="#DejaVuSans-97"/>
      <use x="499.316406" xlink:href="#DejaVuSans-116"/>
      <use x="538.525391" xlink:href="#DejaVuSans-97"/>
     </g>
    </g>
   </g>
  </g>
 </g>
 <defs>
  <clipPath id="p4bbc1084d4">
   <rect height="72.313043" width="446.4" x="72" y="51.84"/>
  </clipPath>
  <clipPath id="pf8c39e726a">
   <rect height="72.313043" width="446.4" x="72" y="138.615652"/>
  </clipPath>
  <clipPath id="p965045287d">
   <rect height="72.313043" width="446.4" x="72" y="225.391304"/>
  </clipPath>
 </defs>
</svg>
