<?xml version="1.0" encoding="utf-8" standalone="no"?>
<!DOCTYPE svg PUBLIC "-//W3C//DTD SVG 1.1//EN"
  "http://www.w3.org/Graphics/SVG/1.1/DTD/svg11.dtd">
<!-- Created with matplotlib (https://matplotlib.org/) -->
<svg height="576pt" version="1.1" viewBox="0 0 576 576" width="576pt" xmlns="http://www.w3.org/2000/svg" xmlns:xlink="http://www.w3.org/1999/xlink">
 <metadata>
  <rdf:RDF xmlns:cc="http://creativecommons.org/ns#" xmlns:dc="http://purl.org/dc/elements/1.1/" xmlns:rdf="http://www.w3.org/1999/02/22-rdf-syntax-ns#">
   <cc:Work>
    <dc:type rdf:resource="http://purl.org/dc/dcmitype/StillImage"/>
    <dc:date>2022-07-07T15:24:11.232688</dc:date>
    <dc:format>image/svg+xml</dc:format>
    <dc:creator>
     <cc:Agent>
      <dc:title>Matplotlib v3.3.4, https://matplotlib.org/</dc:title>
     </cc:Agent>
    </dc:creator>
   </cc:Work>
  </rdf:RDF>
 </metadata>
 <defs>
  <style type="text/css">*{stroke-linecap:butt;stroke-linejoin:round;}</style>
 </defs>
 <g id="figure_1">
  <g id="patch_1">
   <path d="M 0 576 
L 576 576 
L 576 0 
L 0 0 
z
" style="fill:none;"/>
  </g>
  <g id="axes_1">
   <g id="patch_2">
    <path d="M 51.95 159.4 
L 557.26875 159.4 
L 557.26875 25.8 
L 51.95 25.8 
z
" style="fill:none;"/>
   </g>
   <g id="PathCollection_1">
    <defs>
     <path d="M 0 3 
C 0.795609 3 1.55874 2.683901 2.12132 2.12132 
C 2.683901 1.55874 3 0.795609 3 0 
C 3 -0.795609 2.683901 -1.55874 2.12132 -2.12132 
C 1.55874 -2.683901 0.795609 -3 0 -3 
C -0.795609 -3 -1.55874 -2.683901 -2.12132 -2.12132 
C -2.683901 -1.55874 -3 -0.795609 -3 0 
C -3 0.795609 -2.683901 1.55874 -2.12132 2.12132 
C -1.55874 2.683901 -0.795609 3 0 3 
z
" id="m57d3b77e6f" style="stroke:#000000;"/>
    </defs>
    <g clip-path="url(#p052e6f1e28)">
     <use style="stroke:#000000;" x="220.542747" xlink:href="#m57d3b77e6f" y="405.188218"/>
    </g>
   </g>
   <g id="PathCollection_2">
    <g clip-path="url(#p052e6f1e28)">
     <use style="stroke:#000000;" x="66.60776" xlink:href="#m57d3b77e6f" y="706.343398"/>
    </g>
   </g>
   <g id="PathCollection_3">
    <g clip-path="url(#p052e6f1e28)">
     <use style="stroke:#000000;" x="83.707471" xlink:href="#m57d3b77e6f" y="780.054063"/>
    </g>
   </g>
   <g id="PathCollection_4">
    <g clip-path="url(#p052e6f1e28)"/>
   </g>
   <g id="PathCollection_5">
    <g clip-path="url(#p052e6f1e28)">
     <use style="stroke:#000000;" x="81.044998" xlink:href="#m57d3b77e6f" y="120.99544"/>
    </g>
   </g>
   <g id="PathCollection_6">
    <g clip-path="url(#p052e6f1e28)"/>
   </g>
   <g id="PathCollection_7">
    <g clip-path="url(#p052e6f1e28)">
     <use style="stroke:#000000;" x="65.330488" xlink:href="#m57d3b77e6f" y="360.457676"/>
    </g>
   </g>
   <g id="PathCollection_8">
    <g clip-path="url(#p052e6f1e28)">
     <use style="stroke:#000000;" x="55.668182" xlink:href="#m57d3b77e6f" y="316.591453"/>
    </g>
   </g>
   <g id="PathCollection_9">
    <g clip-path="url(#p052e6f1e28)">
     <use style="stroke:#000000;" x="219.054659" xlink:href="#m57d3b77e6f" y="360.808527"/>
    </g>
   </g>
   <g id="PathCollection_10">
    <g clip-path="url(#p052e6f1e28)">
     <use style="stroke:#000000;" x="834.14242" xlink:href="#m57d3b77e6f" y="362.879967"/>
    </g>
   </g>
   <g id="PathCollection_11">
    <g clip-path="url(#p052e6f1e28)">
     <use style="stroke:#000000;" x="958.754043" xlink:href="#m57d3b77e6f" y="363.79465"/>
    </g>
   </g>
   <g id="PathCollection_12">
    <g clip-path="url(#p052e6f1e28)">
     <use style="stroke:#000000;" x="206.329154" xlink:href="#m57d3b77e6f" y="122.591568"/>
    </g>
   </g>
   <g id="PathCollection_13">
    <g clip-path="url(#p052e6f1e28)">
     <use style="stroke:#000000;" x="147.093549" xlink:href="#m57d3b77e6f" y="47.320897"/>
    </g>
   </g>
   <g id="PathCollection_14">
    <g clip-path="url(#p052e6f1e28)">
     <use style="stroke:#000000;" x="963.796821" xlink:href="#m57d3b77e6f" y="410.050116"/>
    </g>
   </g>
   <g id="PathCollection_15">
    <g clip-path="url(#p052e6f1e28)"/>
   </g>
   <g id="PathCollection_16">
    <g clip-path="url(#p052e6f1e28)">
     <use style="stroke:#000000;" x="238.159913" xlink:href="#m57d3b77e6f" y="513.53933"/>
    </g>
   </g>
   <g id="PathCollection_17">
    <g clip-path="url(#p052e6f1e28)">
     <use style="stroke:#000000;" x="602.980643" xlink:href="#m57d3b77e6f" y="419.24829"/>
    </g>
   </g>
   <g id="PathCollection_18">
    <g clip-path="url(#p052e6f1e28)">
     <use style="stroke:#000000;" x="598.452217" xlink:href="#m57d3b77e6f" y="514.94299"/>
    </g>
   </g>
   <g id="PathCollection_19">
    <g clip-path="url(#p052e6f1e28)">
     <use style="stroke:#000000;" x="631.04528" xlink:href="#m57d3b77e6f" y="421.59"/>
    </g>
   </g>
   <g id="PathCollection_20">
    <g clip-path="url(#p052e6f1e28)">
     <use style="stroke:#000000;" x="559.037358" xlink:href="#m57d3b77e6f" y="472.023995"/>
    </g>
   </g>
   <g id="PathCollection_21">
    <g clip-path="url(#p052e6f1e28)">
     <use style="stroke:#000000;" x="512.295374" xlink:href="#m57d3b77e6f" y="544.001005"/>
    </g>
   </g>
   <g id="PathCollection_22">
    <g clip-path="url(#p052e6f1e28)">
     <use style="stroke:#000000;" x="670.712794" xlink:href="#m57d3b77e6f" y="497.240992"/>
    </g>
   </g>
   <g id="matplotlib.axis_1">
    <g id="xtick_1">
     <g id="line2d_1">
      <defs>
       <path d="M 0 0 
L 0 3.5 
" id="m25361dc997" style="stroke:#000000;stroke-width:0.8;"/>
      </defs>
      <g>
       <use style="stroke:#000000;stroke-width:0.8;" x="77.215938" xlink:href="#m25361dc997" y="159.4"/>
      </g>
     </g>
     <g id="text_1">
      <!-- −60 -->
      <g transform="translate(66.663594 173.998438)scale(0.1 -0.1)">
       <defs>
        <path d="M 10.59375 35.5 
L 73.1875 35.5 
L 73.1875 27.203125 
L 10.59375 27.203125 
z
" id="DejaVuSans-8722"/>
        <path d="M 33.015625 40.375 
Q 26.375 40.375 22.484375 35.828125 
Q 18.609375 31.296875 18.609375 23.390625 
Q 18.609375 15.53125 22.484375 10.953125 
Q 26.375 6.390625 33.015625 6.390625 
Q 39.65625 6.390625 43.53125 10.953125 
Q 47.40625 15.53125 47.40625 23.390625 
Q 47.40625 31.296875 43.53125 35.828125 
Q 39.65625 40.375 33.015625 40.375 
z
M 52.59375 71.296875 
L 52.59375 62.3125 
Q 48.875 64.0625 45.09375 64.984375 
Q 41.3125 65.921875 37.59375 65.921875 
Q 27.828125 65.921875 22.671875 59.328125 
Q 17.53125 52.734375 16.796875 39.40625 
Q 19.671875 43.65625 24.015625 45.921875 
Q 28.375 48.1875 33.59375 48.1875 
Q 44.578125 48.1875 50.953125 41.515625 
Q 57.328125 34.859375 57.328125 23.390625 
Q 57.328125 12.15625 50.6875 5.359375 
Q 44.046875 -1.421875 33.015625 -1.421875 
Q 20.359375 -1.421875 13.671875 8.265625 
Q 6.984375 17.96875 6.984375 36.375 
Q 6.984375 53.65625 15.1875 63.9375 
Q 23.390625 74.21875 37.203125 74.21875 
Q 40.921875 74.21875 44.703125 73.484375 
Q 48.484375 72.75 52.59375 71.296875 
z
" id="DejaVuSans-54"/>
        <path d="M 31.78125 66.40625 
Q 24.171875 66.40625 20.328125 58.90625 
Q 16.5 51.421875 16.5 36.375 
Q 16.5 21.390625 20.328125 13.890625 
Q 24.171875 6.390625 31.78125 6.390625 
Q 39.453125 6.390625 43.28125 13.890625 
Q 47.125 21.390625 47.125 36.375 
Q 47.125 51.421875 43.28125 58.90625 
Q 39.453125 66.40625 31.78125 66.40625 
z
M 31.78125 74.21875 
Q 44.046875 74.21875 50.515625 64.515625 
Q 56.984375 54.828125 56.984375 36.375 
Q 56.984375 17.96875 50.515625 8.265625 
Q 44.046875 -1.421875 31.78125 -1.421875 
Q 19.53125 -1.421875 13.0625 8.265625 
Q 6.59375 17.96875 6.59375 36.375 
Q 6.59375 54.828125 13.0625 64.515625 
Q 19.53125 74.21875 31.78125 74.21875 
z
" id="DejaVuSans-48"/>
       </defs>
       <use xlink:href="#DejaVuSans-8722"/>
       <use x="83.789062" xlink:href="#DejaVuSans-54"/>
       <use x="147.412109" xlink:href="#DejaVuSans-48"/>
      </g>
     </g>
    </g>
    <g id="xtick_2">
     <g id="line2d_2">
      <g>
       <use style="stroke:#000000;stroke-width:0.8;" x="178.279688" xlink:href="#m25361dc997" y="159.4"/>
      </g>
     </g>
     <g id="text_2">
      <!-- −40 -->
      <g transform="translate(167.727344 173.998438)scale(0.1 -0.1)">
       <defs>
        <path d="M 37.796875 64.3125 
L 12.890625 25.390625 
L 37.796875 25.390625 
z
M 35.203125 72.90625 
L 47.609375 72.90625 
L 47.609375 25.390625 
L 58.015625 25.390625 
L 58.015625 17.1875 
L 47.609375 17.1875 
L 47.609375 0 
L 37.796875 0 
L 37.796875 17.1875 
L 4.890625 17.1875 
L 4.890625 26.703125 
z
" id="DejaVuSans-52"/>
       </defs>
       <use xlink:href="#DejaVuSans-8722"/>
       <use x="83.789062" xlink:href="#DejaVuSans-52"/>
       <use x="147.412109" xlink:href="#DejaVuSans-48"/>
      </g>
     </g>
    </g>
    <g id="xtick_3">
     <g id="line2d_3">
      <g>
       <use style="stroke:#000000;stroke-width:0.8;" x="279.343438" xlink:href="#m25361dc997" y="159.4"/>
      </g>
     </g>
     <g id="text_3">
      <!-- −20 -->
      <g transform="translate(268.791094 173.998438)scale(0.1 -0.1)">
       <defs>
        <path d="M 19.1875 8.296875 
L 53.609375 8.296875 
L 53.609375 0 
L 7.328125 0 
L 7.328125 8.296875 
Q 12.9375 14.109375 22.625 23.890625 
Q 32.328125 33.6875 34.8125 36.53125 
Q 39.546875 41.84375 41.421875 45.53125 
Q 43.3125 49.21875 43.3125 52.78125 
Q 43.3125 58.59375 39.234375 62.25 
Q 35.15625 65.921875 28.609375 65.921875 
Q 23.96875 65.921875 18.8125 64.3125 
Q 13.671875 62.703125 7.8125 59.421875 
L 7.8125 69.390625 
Q 13.765625 71.78125 18.9375 73 
Q 24.125 74.21875 28.421875 74.21875 
Q 39.75 74.21875 46.484375 68.546875 
Q 53.21875 62.890625 53.21875 53.421875 
Q 53.21875 48.921875 51.53125 44.890625 
Q 49.859375 40.875 45.40625 35.40625 
Q 44.1875 33.984375 37.640625 27.21875 
Q 31.109375 20.453125 19.1875 8.296875 
z
" id="DejaVuSans-50"/>
       </defs>
       <use xlink:href="#DejaVuSans-8722"/>
       <use x="83.789062" xlink:href="#DejaVuSans-50"/>
       <use x="147.412109" xlink:href="#DejaVuSans-48"/>
      </g>
     </g>
    </g>
    <g id="xtick_4">
     <g id="line2d_4">
      <g>
       <use style="stroke:#000000;stroke-width:0.8;" x="380.407188" xlink:href="#m25361dc997" y="159.4"/>
      </g>
     </g>
     <g id="text_4">
      <!-- 0 -->
      <g transform="translate(377.225938 173.998438)scale(0.1 -0.1)">
       <use xlink:href="#DejaVuSans-48"/>
      </g>
     </g>
    </g>
    <g id="xtick_5">
     <g id="line2d_5">
      <g>
       <use style="stroke:#000000;stroke-width:0.8;" x="481.470938" xlink:href="#m25361dc997" y="159.4"/>
      </g>
     </g>
     <g id="text_5">
      <!-- 20 -->
      <g transform="translate(475.108438 173.998438)scale(0.1 -0.1)">
       <use xlink:href="#DejaVuSans-50"/>
       <use x="63.623047" xlink:href="#DejaVuSans-48"/>
      </g>
     </g>
    </g>
    <g id="text_6">
     <!-- x -->
     <g transform="translate(301.65 187.676563)scale(0.1 -0.1)">
      <defs>
       <path d="M 54.890625 54.6875 
L 35.109375 28.078125 
L 55.90625 0 
L 45.3125 0 
L 29.390625 21.484375 
L 13.484375 0 
L 2.875 0 
L 24.125 28.609375 
L 4.6875 54.6875 
L 15.28125 54.6875 
L 29.78125 35.203125 
L 44.28125 54.6875 
z
" id="DejaVuSans-120"/>
      </defs>
      <use xlink:href="#DejaVuSans-120"/>
     </g>
    </g>
   </g>
   <g id="matplotlib.axis_2">
    <g id="ytick_1">
     <g id="line2d_6">
      <defs>
       <path d="M 0 0 
L -3.5 0 
" id="maa40b38738" style="stroke:#000000;stroke-width:0.8;"/>
      </defs>
      <g>
       <use style="stroke:#000000;stroke-width:0.8;" x="51.95" xlink:href="#maa40b38738" y="25.8"/>
      </g>
     </g>
     <g id="text_7">
      <!-- −80 -->
      <g transform="translate(23.845313 29.599219)scale(0.1 -0.1)">
       <defs>
        <path d="M 31.78125 34.625 
Q 24.75 34.625 20.71875 30.859375 
Q 16.703125 27.09375 16.703125 20.515625 
Q 16.703125 13.921875 20.71875 10.15625 
Q 24.75 6.390625 31.78125 6.390625 
Q 38.8125 6.390625 42.859375 10.171875 
Q 46.921875 13.96875 46.921875 20.515625 
Q 46.921875 27.09375 42.890625 30.859375 
Q 38.875 34.625 31.78125 34.625 
z
M 21.921875 38.8125 
Q 15.578125 40.375 12.03125 44.71875 
Q 8.5 49.078125 8.5 55.328125 
Q 8.5 64.0625 14.71875 69.140625 
Q 20.953125 74.21875 31.78125 74.21875 
Q 42.671875 74.21875 48.875 69.140625 
Q 55.078125 64.0625 55.078125 55.328125 
Q 55.078125 49.078125 51.53125 44.71875 
Q 48 40.375 41.703125 38.8125 
Q 48.828125 37.15625 52.796875 32.3125 
Q 56.78125 27.484375 56.78125 20.515625 
Q 56.78125 9.90625 50.3125 4.234375 
Q 43.84375 -1.421875 31.78125 -1.421875 
Q 19.734375 -1.421875 13.25 4.234375 
Q 6.78125 9.90625 6.78125 20.515625 
Q 6.78125 27.484375 10.78125 32.3125 
Q 14.796875 37.15625 21.921875 38.8125 
z
M 18.3125 54.390625 
Q 18.3125 48.734375 21.84375 45.5625 
Q 25.390625 42.390625 31.78125 42.390625 
Q 38.140625 42.390625 41.71875 45.5625 
Q 45.3125 48.734375 45.3125 54.390625 
Q 45.3125 60.0625 41.71875 63.234375 
Q 38.140625 66.40625 31.78125 66.40625 
Q 25.390625 66.40625 21.84375 63.234375 
Q 18.3125 60.0625 18.3125 54.390625 
z
" id="DejaVuSans-56"/>
       </defs>
       <use xlink:href="#DejaVuSans-8722"/>
       <use x="83.789062" xlink:href="#DejaVuSans-56"/>
       <use x="147.412109" xlink:href="#DejaVuSans-48"/>
      </g>
     </g>
    </g>
    <g id="ytick_2">
     <g id="line2d_7">
      <g>
       <use style="stroke:#000000;stroke-width:0.8;" x="51.95" xlink:href="#maa40b38738" y="59.2"/>
      </g>
     </g>
     <g id="text_8">
      <!-- −70 -->
      <g transform="translate(23.845313 62.999219)scale(0.1 -0.1)">
       <defs>
        <path d="M 8.203125 72.90625 
L 55.078125 72.90625 
L 55.078125 68.703125 
L 28.609375 0 
L 18.3125 0 
L 43.21875 64.59375 
L 8.203125 64.59375 
z
" id="DejaVuSans-55"/>
       </defs>
       <use xlink:href="#DejaVuSans-8722"/>
       <use x="83.789062" xlink:href="#DejaVuSans-55"/>
       <use x="147.412109" xlink:href="#DejaVuSans-48"/>
      </g>
     </g>
    </g>
    <g id="ytick_3">
     <g id="line2d_8">
      <g>
       <use style="stroke:#000000;stroke-width:0.8;" x="51.95" xlink:href="#maa40b38738" y="92.6"/>
      </g>
     </g>
     <g id="text_9">
      <!-- −60 -->
      <g transform="translate(23.845313 96.399219)scale(0.1 -0.1)">
       <use xlink:href="#DejaVuSans-8722"/>
       <use x="83.789062" xlink:href="#DejaVuSans-54"/>
       <use x="147.412109" xlink:href="#DejaVuSans-48"/>
      </g>
     </g>
    </g>
    <g id="ytick_4">
     <g id="line2d_9">
      <g>
       <use style="stroke:#000000;stroke-width:0.8;" x="51.95" xlink:href="#maa40b38738" y="126"/>
      </g>
     </g>
     <g id="text_10">
      <!-- −50 -->
      <g transform="translate(23.845313 129.799219)scale(0.1 -0.1)">
       <defs>
        <path d="M 10.796875 72.90625 
L 49.515625 72.90625 
L 49.515625 64.59375 
L 19.828125 64.59375 
L 19.828125 46.734375 
Q 21.96875 47.46875 24.109375 47.828125 
Q 26.265625 48.1875 28.421875 48.1875 
Q 40.625 48.1875 47.75 41.5 
Q 54.890625 34.8125 54.890625 23.390625 
Q 54.890625 11.625 47.5625 5.09375 
Q 40.234375 -1.421875 26.90625 -1.421875 
Q 22.3125 -1.421875 17.546875 -0.640625 
Q 12.796875 0.140625 7.71875 1.703125 
L 7.71875 11.625 
Q 12.109375 9.234375 16.796875 8.0625 
Q 21.484375 6.890625 26.703125 6.890625 
Q 35.15625 6.890625 40.078125 11.328125 
Q 45.015625 15.765625 45.015625 23.390625 
Q 45.015625 31 40.078125 35.4375 
Q 35.15625 39.890625 26.703125 39.890625 
Q 22.75 39.890625 18.8125 39.015625 
Q 14.890625 38.140625 10.796875 36.28125 
z
" id="DejaVuSans-53"/>
       </defs>
       <use xlink:href="#DejaVuSans-8722"/>
       <use x="83.789062" xlink:href="#DejaVuSans-53"/>
       <use x="147.412109" xlink:href="#DejaVuSans-48"/>
      </g>
     </g>
    </g>
    <g id="ytick_5">
     <g id="line2d_10">
      <g>
       <use style="stroke:#000000;stroke-width:0.8;" x="51.95" xlink:href="#maa40b38738" y="159.4"/>
      </g>
     </g>
     <g id="text_11">
      <!-- −40 -->
      <g transform="translate(23.845313 163.199219)scale(0.1 -0.1)">
       <use xlink:href="#DejaVuSans-8722"/>
       <use x="83.789062" xlink:href="#DejaVuSans-52"/>
       <use x="147.412109" xlink:href="#DejaVuSans-48"/>
      </g>
     </g>
    </g>
    <g id="text_12">
     <!-- y -->
     <g transform="translate(17.765625 95.559375)rotate(-90)scale(0.1 -0.1)">
      <defs>
       <path d="M 32.171875 -5.078125 
Q 28.375 -14.84375 24.75 -17.8125 
Q 21.140625 -20.796875 15.09375 -20.796875 
L 7.90625 -20.796875 
L 7.90625 -13.28125 
L 13.1875 -13.28125 
Q 16.890625 -13.28125 18.9375 -11.515625 
Q 21 -9.765625 23.484375 -3.21875 
L 25.09375 0.875 
L 2.984375 54.6875 
L 12.5 54.6875 
L 29.59375 11.921875 
L 46.6875 54.6875 
L 56.203125 54.6875 
z
" id="DejaVuSans-121"/>
      </defs>
      <use xlink:href="#DejaVuSans-121"/>
     </g>
    </g>
   </g>
   <g id="line2d_11">
    <path clip-path="url(#p052e6f1e28)" d="M 363.083778 81.102492 
L 363.197641 73.87697 
" style="fill:none;stroke:#0000ff;stroke-linecap:square;"/>
   </g>
   <g id="line2d_12">
    <path clip-path="url(#p052e6f1e28)" d="M 363.197641 73.87697 
L 338.985195 73.710266 
" style="fill:none;stroke:#0000ff;stroke-linecap:square;"/>
   </g>
   <g id="line2d_13">
    <path clip-path="url(#p052e6f1e28)" d="M 338.985195 73.710266 
L 338.871329 80.935801 
" style="fill:none;stroke:#0000ff;stroke-linecap:square;"/>
   </g>
   <g id="line2d_14">
    <path clip-path="url(#p052e6f1e28)" d="M 338.871329 80.935801 
L 363.083778 81.102492 
" style="fill:none;stroke:#0000ff;stroke-linecap:square;"/>
   </g>
   <g id="line2d_15">
    <path clip-path="url(#p052e6f1e28)" d="M 531.467392 77.908123 
L 524.555846 77.904759 
L 397.815508 77.721797 
L 390.322882 77.61309 
L 388.64138 77.39532 
L 386.94055 76.987452 
L 384.332057 76.017855 
L 380.268228 74.226483 
L 376.855107 72.503582 
L 373.271267 70.439552 
L 370.678346 68.908863 
L 367.73465 67.418053 
L 364.440358 66.082634 
L 360.84247 65.034425 
L 357.015435 64.343221 
L 352.957325 63.902965 
L 348.763659 63.647455 
L 347.423611 63.806796 
L 347.19401 64.100223 
L 346.645462 64.153302 
L 325.48622 64.156946 
L 312.407808 64.476289 
L 308.668345 64.799021 
L 305.260603 65.412937 
L 302.27422 66.340437 
L 299.620041 67.562614 
L 297.165174 69.061526 
L 294.85038 70.80229 
L 290.376332 74.444866 
L 287.982013 76.038649 
L 285.43248 77.377278 
L 282.712891 78.405484 
L 279.832084 79.080201 
L 276.762658 79.464422 
L 271.839008 79.730774 
L 267.031584 79.734291 
L 253.365912 79.271827 
L 243.264414 78.651107 
L 233.451927 78.049524 
L 214.056226 77.211313 
L 193.21896 76.653992 
L 174.728882 76.338727 
L 139.778259 75.964444 
L 63.694135 75.425445 
L 59.5948 75.41831 
L 55.565285 75.179797 
L 51.730596 74.616233 
L 49.927406 74.196236 
L 48.216551 73.681369 
L 45.029818 72.379459 
L 42.123672 70.728596 
L 37.93823 67.72068 
L 35.017974 65.627395 
L 31.992585 63.718525 
L 28.826632 62.110702 
L 25.511056 60.887634 
L 23.800277 60.438994 
L 20.267148 59.851579 
L 16.562189 59.635847 
L 12.708879 59.78846 
L 8.796275 60.326771 
L 4.987263 61.250372 
L 1.350388 62.488118 
L -1 63.443917 
L -1 63.443917 
" style="fill:none;stroke:#000000;stroke-linecap:square;stroke-width:0.5;"/>
   </g>
   <g id="line2d_16">
    <path clip-path="url(#p052e6f1e28)" d="M 339.123691 64.097471 
L 338.046416 64.08873 
L 336.904739 64.08264 
L 335.698953 64.079378 
L 334.429328 64.0792 
L 333.096121 64.082207 
L 331.699644 64.088807 
L 330.240157 64.099331 
L 328.71791 64.11406 
L 327.133175 64.133197 
L 325.48622 64.156946 
L 323.777278 64.18541 
L 322.006646 64.21874 
L 320.174575 64.256964 
L 318.28229 64.300283 
L 316.338797 64.348445 
L 314.366558 64.40104 
L 312.407808 64.476289 
L 310.501813 64.604668 
L 308.668345 64.799021 
L 306.917153 65.067068 
L 305.260603 65.412937 
L 303.713308 65.837903 
L 302.27422 66.340437 
L 300.916387 66.916131 
L 299.620041 67.562614 
L 298.37441 68.278688 
L 297.165174 69.061526 
L 295.986867 69.905904 
L 294.85038 70.80229 
L 293.744368 71.729408 
L 292.638039 72.659304 
L 291.519055 73.569986 
L 290.376332 74.444866 
L 289.19813 75.269775 
L 287.982013 76.038649 
L 286.727612 76.743587 
L 285.43248 77.377278 
L 284.094285 77.933401 
L 282.712891 78.405484 
L 281.292289 78.786443 
L 279.832084 79.080201 
L 278.324719 79.300444 
L 276.762658 79.464422 
L 275.146786 79.586761 
L 273.494126 79.674662 
L 271.839008 79.730774 
L 270.208467 79.757416 
L 268.607785 79.757505 
L 267.031584 79.734291 
L 265.473099 79.69055 
L 263.923075 79.64788 
L 262.38136 79.613327 
L 260.852637 79.572912 
L 259.336434 79.525286 
L 257.831074 79.470881 
L 256.334803 79.410234 
L 254.846531 79.343763 
L 253.365912 79.271827 
L 251.893322 79.194897 
L 250.42959 79.113379 
L 248.975572 79.027657 
L 247.531993 78.93824 
L 246.099122 78.845408 
L 244.676756 78.749621 
L 243.264414 78.651107 
L 241.861238 78.550096 
L 240.466303 78.446816 
L 239.078307 78.341346 
L 237.693097 78.258146 
L 236.303357 78.188911 
L 234.894514 78.119447 
L 233.451927 78.049524 
L 231.966075 77.978836 
L 230.431019 77.906951 
L 228.842925 77.833613 
L 227.199325 77.758543 
L 225.498531 77.681612 
L 223.739513 77.602745 
L 221.921529 77.521788 
L 220.044125 77.438792 
L 218.107003 77.353682 
L 216.110298 77.278968 
L 214.056226 77.211313 
L 211.954368 77.14511 
L 209.824501 77.080921 
L 207.692167 77.019407 
L 205.574695 76.960798 
L 203.476616 76.904839 
L 201.39733 76.851224 
L 199.335702 76.799674 
L 197.288994 76.749805 
L 195.252078 76.701364 
L 193.21896 76.653992 
L 191.184222 76.607411 
L 189.144125 76.567404 
L 187.096897 76.531041 
L 185.042555 76.495952 
L 182.982508 76.462188 
L 180.91899 76.429673 
L 178.854336 76.398355 
L 176.790529 76.368057 
L 174.728882 76.338727 
" style="fill:none;stroke:#ff0000;stroke-linecap:square;"/>
   </g>
   <g id="patch_3">
    <path d="M 51.95 159.4 
L 51.95 25.8 
" style="fill:none;stroke:#000000;stroke-linecap:square;stroke-linejoin:miter;stroke-width:0.8;"/>
   </g>
   <g id="patch_4">
    <path d="M 557.26875 159.4 
L 557.26875 25.8 
" style="fill:none;stroke:#000000;stroke-linecap:square;stroke-linejoin:miter;stroke-width:0.8;"/>
   </g>
   <g id="patch_5">
    <path d="M 51.95 159.4 
L 557.26875 159.4 
" style="fill:none;stroke:#000000;stroke-linecap:square;stroke-linejoin:miter;stroke-width:0.8;"/>
   </g>
   <g id="patch_6">
    <path d="M 51.95 25.8 
L 557.26875 25.8 
" style="fill:none;stroke:#000000;stroke-linecap:square;stroke-linejoin:miter;stroke-width:0.8;"/>
   </g>
   <g id="text_13">
    <!-- Überholmanöver -->
    <g transform="translate(254.510313 19.8)scale(0.12 -0.12)">
     <defs>
      <path d="M 8.6875 72.90625 
L 18.609375 72.90625 
L 18.609375 28.609375 
Q 18.609375 16.890625 22.84375 11.734375 
Q 27.09375 6.59375 36.625 6.59375 
Q 46.09375 6.59375 50.34375 11.734375 
Q 54.59375 16.890625 54.59375 28.609375 
L 54.59375 72.90625 
L 64.5 72.90625 
L 64.5 27.390625 
Q 64.5 13.140625 57.4375 5.859375 
Q 50.390625 -1.421875 36.625 -1.421875 
Q 22.796875 -1.421875 15.734375 5.859375 
Q 8.6875 13.140625 8.6875 27.390625 
z
M 41.21875 91.09375 
L 51.125 91.09375 
L 51.125 81.1875 
L 41.21875 81.1875 
z
M 22.125 91.09375 
L 32.03125 91.09375 
L 32.03125 81.1875 
L 22.125 81.1875 
z
" id="DejaVuSans-220"/>
      <path d="M 48.6875 27.296875 
Q 48.6875 37.203125 44.609375 42.84375 
Q 40.53125 48.484375 33.40625 48.484375 
Q 26.265625 48.484375 22.1875 42.84375 
Q 18.109375 37.203125 18.109375 27.296875 
Q 18.109375 17.390625 22.1875 11.75 
Q 26.265625 6.109375 33.40625 6.109375 
Q 40.53125 6.109375 44.609375 11.75 
Q 48.6875 17.390625 48.6875 27.296875 
z
M 18.109375 46.390625 
Q 20.953125 51.265625 25.265625 53.625 
Q 29.59375 56 35.59375 56 
Q 45.5625 56 51.78125 48.09375 
Q 58.015625 40.1875 58.015625 27.296875 
Q 58.015625 14.40625 51.78125 6.484375 
Q 45.5625 -1.421875 35.59375 -1.421875 
Q 29.59375 -1.421875 25.265625 0.953125 
Q 20.953125 3.328125 18.109375 8.203125 
L 18.109375 0 
L 9.078125 0 
L 9.078125 75.984375 
L 18.109375 75.984375 
z
" id="DejaVuSans-98"/>
      <path d="M 56.203125 29.59375 
L 56.203125 25.203125 
L 14.890625 25.203125 
Q 15.484375 15.921875 20.484375 11.0625 
Q 25.484375 6.203125 34.421875 6.203125 
Q 39.59375 6.203125 44.453125 7.46875 
Q 49.3125 8.734375 54.109375 11.28125 
L 54.109375 2.78125 
Q 49.265625 0.734375 44.1875 -0.34375 
Q 39.109375 -1.421875 33.890625 -1.421875 
Q 20.796875 -1.421875 13.15625 6.1875 
Q 5.515625 13.8125 5.515625 26.8125 
Q 5.515625 40.234375 12.765625 48.109375 
Q 20.015625 56 32.328125 56 
Q 43.359375 56 49.78125 48.890625 
Q 56.203125 41.796875 56.203125 29.59375 
z
M 47.21875 32.234375 
Q 47.125 39.59375 43.09375 43.984375 
Q 39.0625 48.390625 32.421875 48.390625 
Q 24.90625 48.390625 20.390625 44.140625 
Q 15.875 39.890625 15.1875 32.171875 
z
" id="DejaVuSans-101"/>
      <path d="M 41.109375 46.296875 
Q 39.59375 47.171875 37.8125 47.578125 
Q 36.03125 48 33.890625 48 
Q 26.265625 48 22.1875 43.046875 
Q 18.109375 38.09375 18.109375 28.8125 
L 18.109375 0 
L 9.078125 0 
L 9.078125 54.6875 
L 18.109375 54.6875 
L 18.109375 46.1875 
Q 20.953125 51.171875 25.484375 53.578125 
Q 30.03125 56 36.53125 56 
Q 37.453125 56 38.578125 55.875 
Q 39.703125 55.765625 41.0625 55.515625 
z
" id="DejaVuSans-114"/>
      <path d="M 54.890625 33.015625 
L 54.890625 0 
L 45.90625 0 
L 45.90625 32.71875 
Q 45.90625 40.484375 42.875 44.328125 
Q 39.84375 48.1875 33.796875 48.1875 
Q 26.515625 48.1875 22.3125 43.546875 
Q 18.109375 38.921875 18.109375 30.90625 
L 18.109375 0 
L 9.078125 0 
L 9.078125 75.984375 
L 18.109375 75.984375 
L 18.109375 46.1875 
Q 21.34375 51.125 25.703125 53.5625 
Q 30.078125 56 35.796875 56 
Q 45.21875 56 50.046875 50.171875 
Q 54.890625 44.34375 54.890625 33.015625 
z
" id="DejaVuSans-104"/>
      <path d="M 30.609375 48.390625 
Q 23.390625 48.390625 19.1875 42.75 
Q 14.984375 37.109375 14.984375 27.296875 
Q 14.984375 17.484375 19.15625 11.84375 
Q 23.34375 6.203125 30.609375 6.203125 
Q 37.796875 6.203125 41.984375 11.859375 
Q 46.1875 17.53125 46.1875 27.296875 
Q 46.1875 37.015625 41.984375 42.703125 
Q 37.796875 48.390625 30.609375 48.390625 
z
M 30.609375 56 
Q 42.328125 56 49.015625 48.375 
Q 55.71875 40.765625 55.71875 27.296875 
Q 55.71875 13.875 49.015625 6.21875 
Q 42.328125 -1.421875 30.609375 -1.421875 
Q 18.84375 -1.421875 12.171875 6.21875 
Q 5.515625 13.875 5.515625 27.296875 
Q 5.515625 40.765625 12.171875 48.375 
Q 18.84375 56 30.609375 56 
z
" id="DejaVuSans-111"/>
      <path d="M 9.421875 75.984375 
L 18.40625 75.984375 
L 18.40625 0 
L 9.421875 0 
z
" id="DejaVuSans-108"/>
      <path d="M 52 44.1875 
Q 55.375 50.25 60.0625 53.125 
Q 64.75 56 71.09375 56 
Q 79.640625 56 84.28125 50.015625 
Q 88.921875 44.046875 88.921875 33.015625 
L 88.921875 0 
L 79.890625 0 
L 79.890625 32.71875 
Q 79.890625 40.578125 77.09375 44.375 
Q 74.3125 48.1875 68.609375 48.1875 
Q 61.625 48.1875 57.5625 43.546875 
Q 53.515625 38.921875 53.515625 30.90625 
L 53.515625 0 
L 44.484375 0 
L 44.484375 32.71875 
Q 44.484375 40.625 41.703125 44.40625 
Q 38.921875 48.1875 33.109375 48.1875 
Q 26.21875 48.1875 22.15625 43.53125 
Q 18.109375 38.875 18.109375 30.90625 
L 18.109375 0 
L 9.078125 0 
L 9.078125 54.6875 
L 18.109375 54.6875 
L 18.109375 46.1875 
Q 21.1875 51.21875 25.484375 53.609375 
Q 29.78125 56 35.6875 56 
Q 41.65625 56 45.828125 52.96875 
Q 50 49.953125 52 44.1875 
z
" id="DejaVuSans-109"/>
      <path d="M 34.28125 27.484375 
Q 23.390625 27.484375 19.1875 25 
Q 14.984375 22.515625 14.984375 16.5 
Q 14.984375 11.71875 18.140625 8.90625 
Q 21.296875 6.109375 26.703125 6.109375 
Q 34.1875 6.109375 38.703125 11.40625 
Q 43.21875 16.703125 43.21875 25.484375 
L 43.21875 27.484375 
z
M 52.203125 31.203125 
L 52.203125 0 
L 43.21875 0 
L 43.21875 8.296875 
Q 40.140625 3.328125 35.546875 0.953125 
Q 30.953125 -1.421875 24.3125 -1.421875 
Q 15.921875 -1.421875 10.953125 3.296875 
Q 6 8.015625 6 15.921875 
Q 6 25.140625 12.171875 29.828125 
Q 18.359375 34.515625 30.609375 34.515625 
L 43.21875 34.515625 
L 43.21875 35.40625 
Q 43.21875 41.609375 39.140625 45 
Q 35.0625 48.390625 27.6875 48.390625 
Q 23 48.390625 18.546875 47.265625 
Q 14.109375 46.140625 10.015625 43.890625 
L 10.015625 52.203125 
Q 14.9375 54.109375 19.578125 55.046875 
Q 24.21875 56 28.609375 56 
Q 40.484375 56 46.34375 49.84375 
Q 52.203125 43.703125 52.203125 31.203125 
z
" id="DejaVuSans-97"/>
      <path d="M 54.890625 33.015625 
L 54.890625 0 
L 45.90625 0 
L 45.90625 32.71875 
Q 45.90625 40.484375 42.875 44.328125 
Q 39.84375 48.1875 33.796875 48.1875 
Q 26.515625 48.1875 22.3125 43.546875 
Q 18.109375 38.921875 18.109375 30.90625 
L 18.109375 0 
L 9.078125 0 
L 9.078125 54.6875 
L 18.109375 54.6875 
L 18.109375 46.1875 
Q 21.34375 51.125 25.703125 53.5625 
Q 30.078125 56 35.796875 56 
Q 45.21875 56 50.046875 50.171875 
Q 54.890625 44.34375 54.890625 33.015625 
z
" id="DejaVuSans-110"/>
      <path d="M 30.609375 48.390625 
Q 23.390625 48.390625 19.1875 42.75 
Q 14.984375 37.109375 14.984375 27.296875 
Q 14.984375 17.484375 19.15625 11.84375 
Q 23.34375 6.203125 30.609375 6.203125 
Q 37.796875 6.203125 41.984375 11.859375 
Q 46.1875 17.53125 46.1875 27.296875 
Q 46.1875 37.015625 41.984375 42.703125 
Q 37.796875 48.390625 30.609375 48.390625 
z
M 30.609375 56 
Q 42.328125 56 49.015625 48.375 
Q 55.71875 40.765625 55.71875 27.296875 
Q 55.71875 13.875 49.015625 6.21875 
Q 42.328125 -1.421875 30.609375 -1.421875 
Q 18.84375 -1.421875 12.171875 6.21875 
Q 5.515625 13.875 5.515625 27.296875 
Q 5.515625 40.765625 12.171875 48.375 
Q 18.84375 56 30.609375 56 
z
M 35.21875 75.78125 
L 45.125 75.78125 
L 45.125 65.921875 
L 35.21875 65.921875 
z
M 16.125 75.78125 
L 26.03125 75.78125 
L 26.03125 65.921875 
L 16.125 65.921875 
z
" id="DejaVuSans-246"/>
      <path d="M 2.984375 54.6875 
L 12.5 54.6875 
L 29.59375 8.796875 
L 46.6875 54.6875 
L 56.203125 54.6875 
L 35.6875 0 
L 23.484375 0 
z
" id="DejaVuSans-118"/>
     </defs>
     <use xlink:href="#DejaVuSans-220"/>
     <use x="73.193359" xlink:href="#DejaVuSans-98"/>
     <use x="136.669922" xlink:href="#DejaVuSans-101"/>
     <use x="198.193359" xlink:href="#DejaVuSans-114"/>
     <use x="237.556641" xlink:href="#DejaVuSans-104"/>
     <use x="300.935547" xlink:href="#DejaVuSans-111"/>
     <use x="362.117188" xlink:href="#DejaVuSans-108"/>
     <use x="389.900391" xlink:href="#DejaVuSans-109"/>
     <use x="487.3125" xlink:href="#DejaVuSans-97"/>
     <use x="548.591797" xlink:href="#DejaVuSans-110"/>
     <use x="611.970703" xlink:href="#DejaVuSans-246"/>
     <use x="673.152344" xlink:href="#DejaVuSans-118"/>
     <use x="732.332031" xlink:href="#DejaVuSans-101"/>
     <use x="793.855469" xlink:href="#DejaVuSans-114"/>
    </g>
   </g>
   <g id="legend_1">
    <g id="patch_7">
     <path d="M 231.05 154.4 
L 550.26875 154.4 
Q 552.26875 154.4 552.26875 152.4 
L 552.26875 124.04375 
Q 552.26875 122.04375 550.26875 122.04375 
L 231.05 122.04375 
Q 229.05 122.04375 229.05 124.04375 
L 229.05 152.4 
Q 229.05 154.4 231.05 154.4 
z
" style="fill:#ffffff;opacity:0.8;stroke:#cccccc;stroke-linejoin:miter;"/>
    </g>
    <g id="line2d_17">
     <path d="M 233.05 130.142188 
L 253.05 130.142188 
" style="fill:none;stroke:#0000ff;stroke-linecap:square;"/>
    </g>
    <g id="line2d_18"/>
    <g id="text_14">
     <!-- Egofahrzeug -->
     <g transform="translate(261.05 133.642188)scale(0.1 -0.1)">
      <defs>
       <path d="M 9.8125 72.90625 
L 55.90625 72.90625 
L 55.90625 64.59375 
L 19.671875 64.59375 
L 19.671875 43.015625 
L 54.390625 43.015625 
L 54.390625 34.71875 
L 19.671875 34.71875 
L 19.671875 8.296875 
L 56.78125 8.296875 
L 56.78125 0 
L 9.8125 0 
z
" id="DejaVuSans-69"/>
       <path d="M 45.40625 27.984375 
Q 45.40625 37.75 41.375 43.109375 
Q 37.359375 48.484375 30.078125 48.484375 
Q 22.859375 48.484375 18.828125 43.109375 
Q 14.796875 37.75 14.796875 27.984375 
Q 14.796875 18.265625 18.828125 12.890625 
Q 22.859375 7.515625 30.078125 7.515625 
Q 37.359375 7.515625 41.375 12.890625 
Q 45.40625 18.265625 45.40625 27.984375 
z
M 54.390625 6.78125 
Q 54.390625 -7.171875 48.1875 -13.984375 
Q 42 -20.796875 29.203125 -20.796875 
Q 24.46875 -20.796875 20.265625 -20.09375 
Q 16.0625 -19.390625 12.109375 -17.921875 
L 12.109375 -9.1875 
Q 16.0625 -11.328125 19.921875 -12.34375 
Q 23.78125 -13.375 27.78125 -13.375 
Q 36.625 -13.375 41.015625 -8.765625 
Q 45.40625 -4.15625 45.40625 5.171875 
L 45.40625 9.625 
Q 42.625 4.78125 38.28125 2.390625 
Q 33.9375 0 27.875 0 
Q 17.828125 0 11.671875 7.65625 
Q 5.515625 15.328125 5.515625 27.984375 
Q 5.515625 40.671875 11.671875 48.328125 
Q 17.828125 56 27.875 56 
Q 33.9375 56 38.28125 53.609375 
Q 42.625 51.21875 45.40625 46.390625 
L 45.40625 54.6875 
L 54.390625 54.6875 
z
" id="DejaVuSans-103"/>
       <path d="M 37.109375 75.984375 
L 37.109375 68.5 
L 28.515625 68.5 
Q 23.6875 68.5 21.796875 66.546875 
Q 19.921875 64.59375 19.921875 59.515625 
L 19.921875 54.6875 
L 34.71875 54.6875 
L 34.71875 47.703125 
L 19.921875 47.703125 
L 19.921875 0 
L 10.890625 0 
L 10.890625 47.703125 
L 2.296875 47.703125 
L 2.296875 54.6875 
L 10.890625 54.6875 
L 10.890625 58.5 
Q 10.890625 67.625 15.140625 71.796875 
Q 19.390625 75.984375 28.609375 75.984375 
z
" id="DejaVuSans-102"/>
       <path d="M 5.515625 54.6875 
L 48.1875 54.6875 
L 48.1875 46.484375 
L 14.40625 7.171875 
L 48.1875 7.171875 
L 48.1875 0 
L 4.296875 0 
L 4.296875 8.203125 
L 38.09375 47.515625 
L 5.515625 47.515625 
z
" id="DejaVuSans-122"/>
       <path d="M 8.5 21.578125 
L 8.5 54.6875 
L 17.484375 54.6875 
L 17.484375 21.921875 
Q 17.484375 14.15625 20.5 10.265625 
Q 23.53125 6.390625 29.59375 6.390625 
Q 36.859375 6.390625 41.078125 11.03125 
Q 45.3125 15.671875 45.3125 23.6875 
L 45.3125 54.6875 
L 54.296875 54.6875 
L 54.296875 0 
L 45.3125 0 
L 45.3125 8.40625 
Q 42.046875 3.421875 37.71875 1 
Q 33.40625 -1.421875 27.6875 -1.421875 
Q 18.265625 -1.421875 13.375 4.4375 
Q 8.5 10.296875 8.5 21.578125 
z
M 31.109375 56 
z
" id="DejaVuSans-117"/>
      </defs>
      <use xlink:href="#DejaVuSans-69"/>
      <use x="63.183594" xlink:href="#DejaVuSans-103"/>
      <use x="126.660156" xlink:href="#DejaVuSans-111"/>
      <use x="187.841797" xlink:href="#DejaVuSans-102"/>
      <use x="223.046875" xlink:href="#DejaVuSans-97"/>
      <use x="284.326172" xlink:href="#DejaVuSans-104"/>
      <use x="347.705078" xlink:href="#DejaVuSans-114"/>
      <use x="388.818359" xlink:href="#DejaVuSans-122"/>
      <use x="441.308594" xlink:href="#DejaVuSans-101"/>
      <use x="502.832031" xlink:href="#DejaVuSans-117"/>
      <use x="566.210938" xlink:href="#DejaVuSans-103"/>
     </g>
    </g>
    <g id="line2d_19">
     <path d="M 233.05 144.820313 
L 253.05 144.820313 
" style="fill:none;stroke:#000000;stroke-linecap:square;stroke-width:0.5;"/>
    </g>
    <g id="line2d_20"/>
    <g id="text_15">
     <!-- Ground Truth - Fahrzeug -->
     <g transform="translate(261.05 148.320313)scale(0.1 -0.1)">
      <defs>
       <path d="M 59.515625 10.40625 
L 59.515625 29.984375 
L 43.40625 29.984375 
L 43.40625 38.09375 
L 69.28125 38.09375 
L 69.28125 6.78125 
Q 63.578125 2.734375 56.6875 0.65625 
Q 49.8125 -1.421875 42 -1.421875 
Q 24.90625 -1.421875 15.25 8.5625 
Q 5.609375 18.5625 5.609375 36.375 
Q 5.609375 54.25 15.25 64.234375 
Q 24.90625 74.21875 42 74.21875 
Q 49.125 74.21875 55.546875 72.453125 
Q 61.96875 70.703125 67.390625 67.28125 
L 67.390625 56.78125 
Q 61.921875 61.421875 55.765625 63.765625 
Q 49.609375 66.109375 42.828125 66.109375 
Q 29.4375 66.109375 22.71875 58.640625 
Q 16.015625 51.171875 16.015625 36.375 
Q 16.015625 21.625 22.71875 14.15625 
Q 29.4375 6.6875 42.828125 6.6875 
Q 48.046875 6.6875 52.140625 7.59375 
Q 56.25 8.5 59.515625 10.40625 
z
" id="DejaVuSans-71"/>
       <path d="M 45.40625 46.390625 
L 45.40625 75.984375 
L 54.390625 75.984375 
L 54.390625 0 
L 45.40625 0 
L 45.40625 8.203125 
Q 42.578125 3.328125 38.25 0.953125 
Q 33.9375 -1.421875 27.875 -1.421875 
Q 17.96875 -1.421875 11.734375 6.484375 
Q 5.515625 14.40625 5.515625 27.296875 
Q 5.515625 40.1875 11.734375 48.09375 
Q 17.96875 56 27.875 56 
Q 33.9375 56 38.25 53.625 
Q 42.578125 51.265625 45.40625 46.390625 
z
M 14.796875 27.296875 
Q 14.796875 17.390625 18.875 11.75 
Q 22.953125 6.109375 30.078125 6.109375 
Q 37.203125 6.109375 41.296875 11.75 
Q 45.40625 17.390625 45.40625 27.296875 
Q 45.40625 37.203125 41.296875 42.84375 
Q 37.203125 48.484375 30.078125 48.484375 
Q 22.953125 48.484375 18.875 42.84375 
Q 14.796875 37.203125 14.796875 27.296875 
z
" id="DejaVuSans-100"/>
       <path id="DejaVuSans-32"/>
       <path d="M -0.296875 72.90625 
L 61.375 72.90625 
L 61.375 64.59375 
L 35.5 64.59375 
L 35.5 0 
L 25.59375 0 
L 25.59375 64.59375 
L -0.296875 64.59375 
z
" id="DejaVuSans-84"/>
       <path d="M 18.3125 70.21875 
L 18.3125 54.6875 
L 36.8125 54.6875 
L 36.8125 47.703125 
L 18.3125 47.703125 
L 18.3125 18.015625 
Q 18.3125 11.328125 20.140625 9.421875 
Q 21.96875 7.515625 27.59375 7.515625 
L 36.8125 7.515625 
L 36.8125 0 
L 27.59375 0 
Q 17.1875 0 13.234375 3.875 
Q 9.28125 7.765625 9.28125 18.015625 
L 9.28125 47.703125 
L 2.6875 47.703125 
L 2.6875 54.6875 
L 9.28125 54.6875 
L 9.28125 70.21875 
z
" id="DejaVuSans-116"/>
       <path d="M 4.890625 31.390625 
L 31.203125 31.390625 
L 31.203125 23.390625 
L 4.890625 23.390625 
z
" id="DejaVuSans-45"/>
       <path d="M 9.8125 72.90625 
L 51.703125 72.90625 
L 51.703125 64.59375 
L 19.671875 64.59375 
L 19.671875 43.109375 
L 48.578125 43.109375 
L 48.578125 34.8125 
L 19.671875 34.8125 
L 19.671875 0 
L 9.8125 0 
z
" id="DejaVuSans-70"/>
      </defs>
      <use xlink:href="#DejaVuSans-71"/>
      <use x="77.490234" xlink:href="#DejaVuSans-114"/>
      <use x="116.353516" xlink:href="#DejaVuSans-111"/>
      <use x="177.535156" xlink:href="#DejaVuSans-117"/>
      <use x="240.914062" xlink:href="#DejaVuSans-110"/>
      <use x="304.292969" xlink:href="#DejaVuSans-100"/>
      <use x="367.769531" xlink:href="#DejaVuSans-32"/>
      <use x="399.556641" xlink:href="#DejaVuSans-84"/>
      <use x="445.890625" xlink:href="#DejaVuSans-114"/>
      <use x="487.003906" xlink:href="#DejaVuSans-117"/>
      <use x="550.382812" xlink:href="#DejaVuSans-116"/>
      <use x="589.591797" xlink:href="#DejaVuSans-104"/>
      <use x="652.970703" xlink:href="#DejaVuSans-32"/>
      <use x="684.757812" xlink:href="#DejaVuSans-45"/>
      <use x="720.841797" xlink:href="#DejaVuSans-32"/>
      <use x="752.628906" xlink:href="#DejaVuSans-70"/>
      <use x="801.023438" xlink:href="#DejaVuSans-97"/>
      <use x="862.302734" xlink:href="#DejaVuSans-104"/>
      <use x="925.681641" xlink:href="#DejaVuSans-114"/>
      <use x="966.794922" xlink:href="#DejaVuSans-122"/>
      <use x="1019.285156" xlink:href="#DejaVuSans-101"/>
      <use x="1080.808594" xlink:href="#DejaVuSans-117"/>
      <use x="1144.1875" xlink:href="#DejaVuSans-103"/>
     </g>
    </g>
    <g id="line2d_21">
     <path d="M 401.810938 130.142188 
L 421.810938 130.142188 
" style="fill:none;stroke:#ff0000;stroke-linecap:square;"/>
    </g>
    <g id="line2d_22"/>
    <g id="text_16">
     <!-- Sensordaten - Fahrzeug -->
     <g transform="translate(429.810938 133.642188)scale(0.1 -0.1)">
      <defs>
       <path d="M 53.515625 70.515625 
L 53.515625 60.890625 
Q 47.90625 63.578125 42.921875 64.890625 
Q 37.9375 66.21875 33.296875 66.21875 
Q 25.25 66.21875 20.875 63.09375 
Q 16.5 59.96875 16.5 54.203125 
Q 16.5 49.359375 19.40625 46.890625 
Q 22.3125 44.4375 30.421875 42.921875 
L 36.375 41.703125 
Q 47.40625 39.59375 52.65625 34.296875 
Q 57.90625 29 57.90625 20.125 
Q 57.90625 9.515625 50.796875 4.046875 
Q 43.703125 -1.421875 29.984375 -1.421875 
Q 24.8125 -1.421875 18.96875 -0.25 
Q 13.140625 0.921875 6.890625 3.21875 
L 6.890625 13.375 
Q 12.890625 10.015625 18.65625 8.296875 
Q 24.421875 6.59375 29.984375 6.59375 
Q 38.421875 6.59375 43.015625 9.90625 
Q 47.609375 13.234375 47.609375 19.390625 
Q 47.609375 24.75 44.3125 27.78125 
Q 41.015625 30.8125 33.5 32.328125 
L 27.484375 33.5 
Q 16.453125 35.6875 11.515625 40.375 
Q 6.59375 45.0625 6.59375 53.421875 
Q 6.59375 63.09375 13.40625 68.65625 
Q 20.21875 74.21875 32.171875 74.21875 
Q 37.3125 74.21875 42.625 73.28125 
Q 47.953125 72.359375 53.515625 70.515625 
z
" id="DejaVuSans-83"/>
       <path d="M 44.28125 53.078125 
L 44.28125 44.578125 
Q 40.484375 46.53125 36.375 47.5 
Q 32.28125 48.484375 27.875 48.484375 
Q 21.1875 48.484375 17.84375 46.4375 
Q 14.5 44.390625 14.5 40.28125 
Q 14.5 37.15625 16.890625 35.375 
Q 19.28125 33.59375 26.515625 31.984375 
L 29.59375 31.296875 
Q 39.15625 29.25 43.1875 25.515625 
Q 47.21875 21.78125 47.21875 15.09375 
Q 47.21875 7.46875 41.1875 3.015625 
Q 35.15625 -1.421875 24.609375 -1.421875 
Q 20.21875 -1.421875 15.453125 -0.5625 
Q 10.6875 0.296875 5.421875 2 
L 5.421875 11.28125 
Q 10.40625 8.6875 15.234375 7.390625 
Q 20.0625 6.109375 24.8125 6.109375 
Q 31.15625 6.109375 34.5625 8.28125 
Q 37.984375 10.453125 37.984375 14.40625 
Q 37.984375 18.0625 35.515625 20.015625 
Q 33.0625 21.96875 24.703125 23.78125 
L 21.578125 24.515625 
Q 13.234375 26.265625 9.515625 29.90625 
Q 5.8125 33.546875 5.8125 39.890625 
Q 5.8125 47.609375 11.28125 51.796875 
Q 16.75 56 26.8125 56 
Q 31.78125 56 36.171875 55.265625 
Q 40.578125 54.546875 44.28125 53.078125 
z
" id="DejaVuSans-115"/>
      </defs>
      <use xlink:href="#DejaVuSans-83"/>
      <use x="63.476562" xlink:href="#DejaVuSans-101"/>
      <use x="125" xlink:href="#DejaVuSans-110"/>
      <use x="188.378906" xlink:href="#DejaVuSans-115"/>
      <use x="240.478516" xlink:href="#DejaVuSans-111"/>
      <use x="301.660156" xlink:href="#DejaVuSans-114"/>
      <use x="341.023438" xlink:href="#DejaVuSans-100"/>
      <use x="404.5" xlink:href="#DejaVuSans-97"/>
      <use x="465.779297" xlink:href="#DejaVuSans-116"/>
      <use x="504.988281" xlink:href="#DejaVuSans-101"/>
      <use x="566.511719" xlink:href="#DejaVuSans-110"/>
      <use x="629.890625" xlink:href="#DejaVuSans-32"/>
      <use x="661.677734" xlink:href="#DejaVuSans-45"/>
      <use x="697.761719" xlink:href="#DejaVuSans-32"/>
      <use x="729.548828" xlink:href="#DejaVuSans-70"/>
      <use x="777.943359" xlink:href="#DejaVuSans-97"/>
      <use x="839.222656" xlink:href="#DejaVuSans-104"/>
      <use x="902.601562" xlink:href="#DejaVuSans-114"/>
      <use x="943.714844" xlink:href="#DejaVuSans-122"/>
      <use x="996.205078" xlink:href="#DejaVuSans-101"/>
      <use x="1057.728516" xlink:href="#DejaVuSans-117"/>
      <use x="1121.107422" xlink:href="#DejaVuSans-103"/>
     </g>
    </g>
    <g id="PathCollection_23">
     <g>
      <use style="stroke:#000000;" x="411.810938" xlink:href="#m57d3b77e6f" y="145.695313"/>
     </g>
    </g>
    <g id="text_17">
     <!-- Ground Truth - Ampel -->
     <g transform="translate(429.810938 148.320313)scale(0.1 -0.1)">
      <defs>
       <path d="M 34.1875 63.1875 
L 20.796875 26.90625 
L 47.609375 26.90625 
z
M 28.609375 72.90625 
L 39.796875 72.90625 
L 67.578125 0 
L 57.328125 0 
L 50.6875 18.703125 
L 17.828125 18.703125 
L 11.1875 0 
L 0.78125 0 
z
" id="DejaVuSans-65"/>
       <path d="M 18.109375 8.203125 
L 18.109375 -20.796875 
L 9.078125 -20.796875 
L 9.078125 54.6875 
L 18.109375 54.6875 
L 18.109375 46.390625 
Q 20.953125 51.265625 25.265625 53.625 
Q 29.59375 56 35.59375 56 
Q 45.5625 56 51.78125 48.09375 
Q 58.015625 40.1875 58.015625 27.296875 
Q 58.015625 14.40625 51.78125 6.484375 
Q 45.5625 -1.421875 35.59375 -1.421875 
Q 29.59375 -1.421875 25.265625 0.953125 
Q 20.953125 3.328125 18.109375 8.203125 
z
M 48.6875 27.296875 
Q 48.6875 37.203125 44.609375 42.84375 
Q 40.53125 48.484375 33.40625 48.484375 
Q 26.265625 48.484375 22.1875 42.84375 
Q 18.109375 37.203125 18.109375 27.296875 
Q 18.109375 17.390625 22.1875 11.75 
Q 26.265625 6.109375 33.40625 6.109375 
Q 40.53125 6.109375 44.609375 11.75 
Q 48.6875 17.390625 48.6875 27.296875 
z
" id="DejaVuSans-112"/>
      </defs>
      <use xlink:href="#DejaVuSans-71"/>
      <use x="77.490234" xlink:href="#DejaVuSans-114"/>
      <use x="116.353516" xlink:href="#DejaVuSans-111"/>
      <use x="177.535156" xlink:href="#DejaVuSans-117"/>
      <use x="240.914062" xlink:href="#DejaVuSans-110"/>
      <use x="304.292969" xlink:href="#DejaVuSans-100"/>
      <use x="367.769531" xlink:href="#DejaVuSans-32"/>
      <use x="399.556641" xlink:href="#DejaVuSans-84"/>
      <use x="445.890625" xlink:href="#DejaVuSans-114"/>
      <use x="487.003906" xlink:href="#DejaVuSans-117"/>
      <use x="550.382812" xlink:href="#DejaVuSans-116"/>
      <use x="589.591797" xlink:href="#DejaVuSans-104"/>
      <use x="652.970703" xlink:href="#DejaVuSans-32"/>
      <use x="684.757812" xlink:href="#DejaVuSans-45"/>
      <use x="720.841797" xlink:href="#DejaVuSans-32"/>
      <use x="752.628906" xlink:href="#DejaVuSans-65"/>
      <use x="821.037109" xlink:href="#DejaVuSans-109"/>
      <use x="918.449219" xlink:href="#DejaVuSans-112"/>
      <use x="981.925781" xlink:href="#DejaVuSans-101"/>
      <use x="1043.449219" xlink:href="#DejaVuSans-108"/>
     </g>
    </g>
   </g>
  </g>
  <g id="axes_2">
   <g id="patch_8">
    <path d="M 51.95 347.8 
L 557.26875 347.8 
L 557.26875 214.2 
L 51.95 214.2 
z
" style="fill:none;"/>
   </g>
   <g id="PathCollection_24">
    <g clip-path="url(#p2366c5dcea)">
     <use style="stroke:#000000;" x="220.542747" xlink:href="#m57d3b77e6f" y="593.588218"/>
    </g>
   </g>
   <g id="PathCollection_25">
    <g clip-path="url(#p2366c5dcea)">
     <use style="stroke:#000000;" x="66.60776" xlink:href="#m57d3b77e6f" y="894.743398"/>
    </g>
   </g>
   <g id="PathCollection_26">
    <g clip-path="url(#p2366c5dcea)">
     <use style="stroke:#000000;" x="83.707471" xlink:href="#m57d3b77e6f" y="968.454063"/>
    </g>
   </g>
   <g id="PathCollection_27">
    <g clip-path="url(#p2366c5dcea)"/>
   </g>
   <g id="PathCollection_28">
    <g clip-path="url(#p2366c5dcea)">
     <use style="stroke:#000000;" x="81.044998" xlink:href="#m57d3b77e6f" y="309.39544"/>
    </g>
   </g>
   <g id="PathCollection_29">
    <g clip-path="url(#p2366c5dcea)"/>
   </g>
   <g id="PathCollection_30">
    <g clip-path="url(#p2366c5dcea)">
     <use style="stroke:#000000;" x="65.330488" xlink:href="#m57d3b77e6f" y="548.857676"/>
    </g>
   </g>
   <g id="PathCollection_31">
    <g clip-path="url(#p2366c5dcea)">
     <use style="stroke:#000000;" x="55.668182" xlink:href="#m57d3b77e6f" y="504.991453"/>
    </g>
   </g>
   <g id="PathCollection_32">
    <g clip-path="url(#p2366c5dcea)">
     <use style="stroke:#000000;" x="219.054659" xlink:href="#m57d3b77e6f" y="549.208527"/>
    </g>
   </g>
   <g id="PathCollection_33">
    <g clip-path="url(#p2366c5dcea)">
     <use style="stroke:#000000;" x="834.14242" xlink:href="#m57d3b77e6f" y="551.279967"/>
    </g>
   </g>
   <g id="PathCollection_34">
    <g clip-path="url(#p2366c5dcea)">
     <use style="stroke:#000000;" x="958.754043" xlink:href="#m57d3b77e6f" y="552.19465"/>
    </g>
   </g>
   <g id="PathCollection_35">
    <g clip-path="url(#p2366c5dcea)">
     <use style="stroke:#000000;" x="206.329154" xlink:href="#m57d3b77e6f" y="310.991568"/>
    </g>
   </g>
   <g id="PathCollection_36">
    <g clip-path="url(#p2366c5dcea)">
     <use style="stroke:#000000;" x="147.093549" xlink:href="#m57d3b77e6f" y="235.720897"/>
    </g>
   </g>
   <g id="PathCollection_37">
    <g clip-path="url(#p2366c5dcea)">
     <use style="stroke:#000000;" x="963.796821" xlink:href="#m57d3b77e6f" y="598.450116"/>
    </g>
   </g>
   <g id="PathCollection_38">
    <g clip-path="url(#p2366c5dcea)"/>
   </g>
   <g id="PathCollection_39">
    <g clip-path="url(#p2366c5dcea)">
     <use style="stroke:#000000;" x="238.159913" xlink:href="#m57d3b77e6f" y="701.93933"/>
    </g>
   </g>
   <g id="PathCollection_40">
    <g clip-path="url(#p2366c5dcea)">
     <use style="stroke:#000000;" x="602.980643" xlink:href="#m57d3b77e6f" y="607.64829"/>
    </g>
   </g>
   <g id="PathCollection_41">
    <g clip-path="url(#p2366c5dcea)">
     <use style="stroke:#000000;" x="598.452217" xlink:href="#m57d3b77e6f" y="703.34299"/>
    </g>
   </g>
   <g id="PathCollection_42">
    <g clip-path="url(#p2366c5dcea)">
     <use style="stroke:#000000;" x="631.04528" xlink:href="#m57d3b77e6f" y="609.99"/>
    </g>
   </g>
   <g id="PathCollection_43">
    <g clip-path="url(#p2366c5dcea)">
     <use style="stroke:#000000;" x="559.037358" xlink:href="#m57d3b77e6f" y="660.423995"/>
    </g>
   </g>
   <g id="PathCollection_44">
    <g clip-path="url(#p2366c5dcea)">
     <use style="stroke:#000000;" x="512.295374" xlink:href="#m57d3b77e6f" y="732.401005"/>
    </g>
   </g>
   <g id="PathCollection_45">
    <g clip-path="url(#p2366c5dcea)">
     <use style="stroke:#000000;" x="670.712794" xlink:href="#m57d3b77e6f" y="685.640992"/>
    </g>
   </g>
   <g id="matplotlib.axis_3">
    <g id="xtick_6">
     <g id="line2d_23">
      <g>
       <use style="stroke:#000000;stroke-width:0.8;" x="77.215938" xlink:href="#m25361dc997" y="347.8"/>
      </g>
     </g>
     <g id="text_18">
      <!-- −60 -->
      <g transform="translate(66.663594 362.398438)scale(0.1 -0.1)">
       <use xlink:href="#DejaVuSans-8722"/>
       <use x="83.789062" xlink:href="#DejaVuSans-54"/>
       <use x="147.412109" xlink:href="#DejaVuSans-48"/>
      </g>
     </g>
    </g>
    <g id="xtick_7">
     <g id="line2d_24">
      <g>
       <use style="stroke:#000000;stroke-width:0.8;" x="178.279688" xlink:href="#m25361dc997" y="347.8"/>
      </g>
     </g>
     <g id="text_19">
      <!-- −40 -->
      <g transform="translate(167.727344 362.398438)scale(0.1 -0.1)">
       <use xlink:href="#DejaVuSans-8722"/>
       <use x="83.789062" xlink:href="#DejaVuSans-52"/>
       <use x="147.412109" xlink:href="#DejaVuSans-48"/>
      </g>
     </g>
    </g>
    <g id="xtick_8">
     <g id="line2d_25">
      <g>
       <use style="stroke:#000000;stroke-width:0.8;" x="279.343438" xlink:href="#m25361dc997" y="347.8"/>
      </g>
     </g>
     <g id="text_20">
      <!-- −20 -->
      <g transform="translate(268.791094 362.398438)scale(0.1 -0.1)">
       <use xlink:href="#DejaVuSans-8722"/>
       <use x="83.789062" xlink:href="#DejaVuSans-50"/>
       <use x="147.412109" xlink:href="#DejaVuSans-48"/>
      </g>
     </g>
    </g>
    <g id="xtick_9">
     <g id="line2d_26">
      <g>
       <use style="stroke:#000000;stroke-width:0.8;" x="380.407188" xlink:href="#m25361dc997" y="347.8"/>
      </g>
     </g>
     <g id="text_21">
      <!-- 0 -->
      <g transform="translate(377.225938 362.398438)scale(0.1 -0.1)">
       <use xlink:href="#DejaVuSans-48"/>
      </g>
     </g>
    </g>
    <g id="xtick_10">
     <g id="line2d_27">
      <g>
       <use style="stroke:#000000;stroke-width:0.8;" x="481.470938" xlink:href="#m25361dc997" y="347.8"/>
      </g>
     </g>
     <g id="text_22">
      <!-- 20 -->
      <g transform="translate(475.108438 362.398438)scale(0.1 -0.1)">
       <use xlink:href="#DejaVuSans-50"/>
       <use x="63.623047" xlink:href="#DejaVuSans-48"/>
      </g>
     </g>
    </g>
    <g id="text_23">
     <!-- x -->
     <g transform="translate(301.65 376.076563)scale(0.1 -0.1)">
      <use xlink:href="#DejaVuSans-120"/>
     </g>
    </g>
   </g>
   <g id="matplotlib.axis_4">
    <g id="ytick_6">
     <g id="line2d_28">
      <g>
       <use style="stroke:#000000;stroke-width:0.8;" x="51.95" xlink:href="#maa40b38738" y="214.2"/>
      </g>
     </g>
     <g id="text_24">
      <!-- −80 -->
      <g transform="translate(23.845313 217.999219)scale(0.1 -0.1)">
       <use xlink:href="#DejaVuSans-8722"/>
       <use x="83.789062" xlink:href="#DejaVuSans-56"/>
       <use x="147.412109" xlink:href="#DejaVuSans-48"/>
      </g>
     </g>
    </g>
    <g id="ytick_7">
     <g id="line2d_29">
      <g>
       <use style="stroke:#000000;stroke-width:0.8;" x="51.95" xlink:href="#maa40b38738" y="247.6"/>
      </g>
     </g>
     <g id="text_25">
      <!-- −70 -->
      <g transform="translate(23.845313 251.399219)scale(0.1 -0.1)">
       <use xlink:href="#DejaVuSans-8722"/>
       <use x="83.789062" xlink:href="#DejaVuSans-55"/>
       <use x="147.412109" xlink:href="#DejaVuSans-48"/>
      </g>
     </g>
    </g>
    <g id="ytick_8">
     <g id="line2d_30">
      <g>
       <use style="stroke:#000000;stroke-width:0.8;" x="51.95" xlink:href="#maa40b38738" y="281"/>
      </g>
     </g>
     <g id="text_26">
      <!-- −60 -->
      <g transform="translate(23.845313 284.799219)scale(0.1 -0.1)">
       <use xlink:href="#DejaVuSans-8722"/>
       <use x="83.789062" xlink:href="#DejaVuSans-54"/>
       <use x="147.412109" xlink:href="#DejaVuSans-48"/>
      </g>
     </g>
    </g>
    <g id="ytick_9">
     <g id="line2d_31">
      <g>
       <use style="stroke:#000000;stroke-width:0.8;" x="51.95" xlink:href="#maa40b38738" y="314.4"/>
      </g>
     </g>
     <g id="text_27">
      <!-- −50 -->
      <g transform="translate(23.845313 318.199219)scale(0.1 -0.1)">
       <use xlink:href="#DejaVuSans-8722"/>
       <use x="83.789062" xlink:href="#DejaVuSans-53"/>
       <use x="147.412109" xlink:href="#DejaVuSans-48"/>
      </g>
     </g>
    </g>
    <g id="ytick_10">
     <g id="line2d_32">
      <g>
       <use style="stroke:#000000;stroke-width:0.8;" x="51.95" xlink:href="#maa40b38738" y="347.8"/>
      </g>
     </g>
     <g id="text_28">
      <!-- −40 -->
      <g transform="translate(23.845313 351.599219)scale(0.1 -0.1)">
       <use xlink:href="#DejaVuSans-8722"/>
       <use x="83.789062" xlink:href="#DejaVuSans-52"/>
       <use x="147.412109" xlink:href="#DejaVuSans-48"/>
      </g>
     </g>
    </g>
    <g id="text_29">
     <!-- y -->
     <g transform="translate(17.765625 283.959375)rotate(-90)scale(0.1 -0.1)">
      <use xlink:href="#DejaVuSans-121"/>
     </g>
    </g>
   </g>
   <g id="line2d_33">
    <path clip-path="url(#p2366c5dcea)" d="M 363.083778 269.502492 
L 363.197641 262.27697 
" style="fill:none;stroke:#0000ff;stroke-linecap:square;"/>
   </g>
   <g id="line2d_34">
    <path clip-path="url(#p2366c5dcea)" d="M 363.197641 262.27697 
L 338.985195 262.110266 
" style="fill:none;stroke:#0000ff;stroke-linecap:square;"/>
   </g>
   <g id="line2d_35">
    <path clip-path="url(#p2366c5dcea)" d="M 338.985195 262.110266 
L 338.871329 269.335801 
" style="fill:none;stroke:#0000ff;stroke-linecap:square;"/>
   </g>
   <g id="line2d_36">
    <path clip-path="url(#p2366c5dcea)" d="M 338.871329 269.335801 
L 363.083778 269.502492 
" style="fill:none;stroke:#0000ff;stroke-linecap:square;"/>
   </g>
   <g id="line2d_37">
    <path clip-path="url(#p2366c5dcea)" d="M 169.012837 426.105751 
L 169.012529 426.105541 
L 169.013454 426.005816 
L 170.011643 335.547685 
L 170.347842 329.866077 
L 171.022612 322.07806 
L 171.673903 317.894957 
L 172.473873 314.540126 
L 173.542633 311.224933 
L 175.258693 307.267666 
L 176.963882 304.137282 
L 179.073836 300.982601 
L 180.718882 298.885546 
L 182.571265 296.811436 
L 184.620942 294.763396 
L 186.883469 292.761274 
L 189.356705 290.814537 
L 192.027968 288.925441 
L 194.924013 287.148544 
L 198.000832 285.490227 
L 201.216286 283.949409 
L 204.562242 282.559573 
L 208.027268 281.339155 
L 213.426177 279.788093 
L 217.150817 278.905658 
L 220.959088 278.193316 
L 224.820532 277.642328 
L 228.719383 277.260236 
L 234.628673 276.913296 
L 242.587592 276.725505 
L 254.508173 276.750146 
L 341.915347 277.419436 
L 427.337941 277.941298 
L 506.806771 277.968984 
L 577 277.953201 
L 577 277.953201 
" style="fill:none;stroke:#000000;stroke-linecap:square;stroke-width:0.5;"/>
   </g>
   <g id="line2d_38">
    <path clip-path="url(#p2366c5dcea)" d="M 194.924013 287.148544 
L 196.442317 286.303364 
L 198.000832 285.490227 
L 199.589649 284.700229 
L 201.216286 283.949409 
L 202.872648 283.232239 
L 204.562242 282.559573 
L 206.279594 281.92578 
L 208.027268 281.339155 
L 209.801678 280.792333 
L 211.601359 280.277083 
L 213.426177 279.788093 
L 215.275727 279.326432 
L 217.150817 278.905658 
L 219.046457 278.527324 
L 220.959088 278.193316 
L 222.884104 277.90296 
L 224.820532 277.642328 
L 226.766551 277.429819 
L 228.719383 277.260236 
L 230.680196 277.120619 
L 232.65029 277.004917 
L 234.628673 276.913296 
L 236.613832 276.840748 
L 238.603482 276.787579 
L 240.595358 276.748859 
L 242.587592 276.725505 
L 244.578707 276.711999 
L 246.568029 276.708852 
L 248.555241 276.711413 
L 250.540689 276.720893 
L 252.524749 276.733264 
L 254.508173 276.750146 
L 256.49152 276.767805 
L 258.475416 276.788242 
L 260.460122 276.807991 
L 262.445878 276.82937 
L 264.43254 276.849234 
L 266.420012 276.870014 
L 268.407928 276.888527 
L 270.396093 276.907537 
L 272.384095 276.924508 
L 274.371876 276.942129 
L 276.359174 276.957724 
L 278.346087 276.974096 
L 280.332528 276.988634 
L 282.318708 277.004025 
L 284.304628 277.017671 
L 286.290558 277.032348 
L 288.276469 277.045459 
L 290.262601 277.059704 
L 292.248859 277.072534 
L 294.235405 277.086791 
L 296.222058 277.099609 
L 298.208923 277.113802 
L 300.195797 277.12648 
L 302.182763 277.140546 
L 304.169647 277.1533 
L 306.156521 277.167531 
L 308.143242 277.180464 
L 310.129942 277.194721 
L 312.116489 277.207704 
L 314.103045 277.222178 
L 316.089501 277.235378 
L 318.076009 277.250005 
L 320.062469 277.263293 
L 322.04903 277.277958 
L 324.035552 277.291337 
L 326.022186 277.306027 
L 328.008776 277.319443 
L 329.995462 277.3343 
L 331.982091 277.347805 
L 333.968792 277.362661 
L 335.95542 277.37609 
L 337.942102 277.390946 
L 339.928697 277.404541 
" style="fill:none;stroke:#ff0000;stroke-linecap:square;"/>
   </g>
   <g id="patch_9">
    <path d="M 51.95 347.8 
L 51.95 214.2 
" style="fill:none;stroke:#000000;stroke-linecap:square;stroke-linejoin:miter;stroke-width:0.8;"/>
   </g>
   <g id="patch_10">
    <path d="M 557.26875 347.8 
L 557.26875 214.2 
" style="fill:none;stroke:#000000;stroke-linecap:square;stroke-linejoin:miter;stroke-width:0.8;"/>
   </g>
   <g id="patch_11">
    <path d="M 51.95 347.8 
L 557.26875 347.8 
" style="fill:none;stroke:#000000;stroke-linecap:square;stroke-linejoin:miter;stroke-width:0.8;"/>
   </g>
   <g id="patch_12">
    <path d="M 51.95 214.2 
L 557.26875 214.2 
" style="fill:none;stroke:#000000;stroke-linecap:square;stroke-linejoin:miter;stroke-width:0.8;"/>
   </g>
   <g id="text_30">
    <!-- Abbiegen eng -->
    <g transform="translate(263.014375 208.2)scale(0.12 -0.12)">
     <defs>
      <path d="M 9.421875 54.6875 
L 18.40625 54.6875 
L 18.40625 0 
L 9.421875 0 
z
M 9.421875 75.984375 
L 18.40625 75.984375 
L 18.40625 64.59375 
L 9.421875 64.59375 
z
" id="DejaVuSans-105"/>
     </defs>
     <use xlink:href="#DejaVuSans-65"/>
     <use x="68.408203" xlink:href="#DejaVuSans-98"/>
     <use x="131.884766" xlink:href="#DejaVuSans-98"/>
     <use x="195.361328" xlink:href="#DejaVuSans-105"/>
     <use x="223.144531" xlink:href="#DejaVuSans-101"/>
     <use x="284.667969" xlink:href="#DejaVuSans-103"/>
     <use x="348.144531" xlink:href="#DejaVuSans-101"/>
     <use x="409.667969" xlink:href="#DejaVuSans-110"/>
     <use x="473.046875" xlink:href="#DejaVuSans-32"/>
     <use x="504.833984" xlink:href="#DejaVuSans-101"/>
     <use x="566.357422" xlink:href="#DejaVuSans-110"/>
     <use x="629.736328" xlink:href="#DejaVuSans-103"/>
    </g>
   </g>
   <g id="legend_2">
    <g id="patch_13">
     <path d="M 231.05 342.8 
L 550.26875 342.8 
Q 552.26875 342.8 552.26875 340.8 
L 552.26875 312.44375 
Q 552.26875 310.44375 550.26875 310.44375 
L 231.05 310.44375 
Q 229.05 310.44375 229.05 312.44375 
L 229.05 340.8 
Q 229.05 342.8 231.05 342.8 
z
" style="fill:#ffffff;opacity:0.8;stroke:#cccccc;stroke-linejoin:miter;"/>
    </g>
    <g id="line2d_39">
     <path d="M 233.05 318.542188 
L 253.05 318.542188 
" style="fill:none;stroke:#0000ff;stroke-linecap:square;"/>
    </g>
    <g id="line2d_40"/>
    <g id="text_31">
     <!-- Egofahrzeug -->
     <g transform="translate(261.05 322.042188)scale(0.1 -0.1)">
      <use xlink:href="#DejaVuSans-69"/>
      <use x="63.183594" xlink:href="#DejaVuSans-103"/>
      <use x="126.660156" xlink:href="#DejaVuSans-111"/>
      <use x="187.841797" xlink:href="#DejaVuSans-102"/>
      <use x="223.046875" xlink:href="#DejaVuSans-97"/>
      <use x="284.326172" xlink:href="#DejaVuSans-104"/>
      <use x="347.705078" xlink:href="#DejaVuSans-114"/>
      <use x="388.818359" xlink:href="#DejaVuSans-122"/>
      <use x="441.308594" xlink:href="#DejaVuSans-101"/>
      <use x="502.832031" xlink:href="#DejaVuSans-117"/>
      <use x="566.210938" xlink:href="#DejaVuSans-103"/>
     </g>
    </g>
    <g id="line2d_41">
     <path d="M 233.05 333.220312 
L 253.05 333.220312 
" style="fill:none;stroke:#000000;stroke-linecap:square;stroke-width:0.5;"/>
    </g>
    <g id="line2d_42"/>
    <g id="text_32">
     <!-- Ground Truth - Fahrzeug -->
     <g transform="translate(261.05 336.720312)scale(0.1 -0.1)">
      <use xlink:href="#DejaVuSans-71"/>
      <use x="77.490234" xlink:href="#DejaVuSans-114"/>
      <use x="116.353516" xlink:href="#DejaVuSans-111"/>
      <use x="177.535156" xlink:href="#DejaVuSans-117"/>
      <use x="240.914062" xlink:href="#DejaVuSans-110"/>
      <use x="304.292969" xlink:href="#DejaVuSans-100"/>
      <use x="367.769531" xlink:href="#DejaVuSans-32"/>
      <use x="399.556641" xlink:href="#DejaVuSans-84"/>
      <use x="445.890625" xlink:href="#DejaVuSans-114"/>
      <use x="487.003906" xlink:href="#DejaVuSans-117"/>
      <use x="550.382812" xlink:href="#DejaVuSans-116"/>
      <use x="589.591797" xlink:href="#DejaVuSans-104"/>
      <use x="652.970703" xlink:href="#DejaVuSans-32"/>
      <use x="684.757812" xlink:href="#DejaVuSans-45"/>
      <use x="720.841797" xlink:href="#DejaVuSans-32"/>
      <use x="752.628906" xlink:href="#DejaVuSans-70"/>
      <use x="801.023438" xlink:href="#DejaVuSans-97"/>
      <use x="862.302734" xlink:href="#DejaVuSans-104"/>
      <use x="925.681641" xlink:href="#DejaVuSans-114"/>
      <use x="966.794922" xlink:href="#DejaVuSans-122"/>
      <use x="1019.285156" xlink:href="#DejaVuSans-101"/>
      <use x="1080.808594" xlink:href="#DejaVuSans-117"/>
      <use x="1144.1875" xlink:href="#DejaVuSans-103"/>
     </g>
    </g>
    <g id="line2d_43">
     <path d="M 401.810938 318.542188 
L 421.810938 318.542188 
" style="fill:none;stroke:#ff0000;stroke-linecap:square;"/>
    </g>
    <g id="line2d_44"/>
    <g id="text_33">
     <!-- Sensordaten - Fahrzeug -->
     <g transform="translate(429.810938 322.042188)scale(0.1 -0.1)">
      <use xlink:href="#DejaVuSans-83"/>
      <use x="63.476562" xlink:href="#DejaVuSans-101"/>
      <use x="125" xlink:href="#DejaVuSans-110"/>
      <use x="188.378906" xlink:href="#DejaVuSans-115"/>
      <use x="240.478516" xlink:href="#DejaVuSans-111"/>
      <use x="301.660156" xlink:href="#DejaVuSans-114"/>
      <use x="341.023438" xlink:href="#DejaVuSans-100"/>
      <use x="404.5" xlink:href="#DejaVuSans-97"/>
      <use x="465.779297" xlink:href="#DejaVuSans-116"/>
      <use x="504.988281" xlink:href="#DejaVuSans-101"/>
      <use x="566.511719" xlink:href="#DejaVuSans-110"/>
      <use x="629.890625" xlink:href="#DejaVuSans-32"/>
      <use x="661.677734" xlink:href="#DejaVuSans-45"/>
      <use x="697.761719" xlink:href="#DejaVuSans-32"/>
      <use x="729.548828" xlink:href="#DejaVuSans-70"/>
      <use x="777.943359" xlink:href="#DejaVuSans-97"/>
      <use x="839.222656" xlink:href="#DejaVuSans-104"/>
      <use x="902.601562" xlink:href="#DejaVuSans-114"/>
      <use x="943.714844" xlink:href="#DejaVuSans-122"/>
      <use x="996.205078" xlink:href="#DejaVuSans-101"/>
      <use x="1057.728516" xlink:href="#DejaVuSans-117"/>
      <use x="1121.107422" xlink:href="#DejaVuSans-103"/>
     </g>
    </g>
    <g id="PathCollection_46">
     <g>
      <use style="stroke:#000000;" x="411.810938" xlink:href="#m57d3b77e6f" y="334.095312"/>
     </g>
    </g>
    <g id="text_34">
     <!-- Ground Truth - Ampel -->
     <g transform="translate(429.810938 336.720312)scale(0.1 -0.1)">
      <use xlink:href="#DejaVuSans-71"/>
      <use x="77.490234" xlink:href="#DejaVuSans-114"/>
      <use x="116.353516" xlink:href="#DejaVuSans-111"/>
      <use x="177.535156" xlink:href="#DejaVuSans-117"/>
      <use x="240.914062" xlink:href="#DejaVuSans-110"/>
      <use x="304.292969" xlink:href="#DejaVuSans-100"/>
      <use x="367.769531" xlink:href="#DejaVuSans-32"/>
      <use x="399.556641" xlink:href="#DejaVuSans-84"/>
      <use x="445.890625" xlink:href="#DejaVuSans-114"/>
      <use x="487.003906" xlink:href="#DejaVuSans-117"/>
      <use x="550.382812" xlink:href="#DejaVuSans-116"/>
      <use x="589.591797" xlink:href="#DejaVuSans-104"/>
      <use x="652.970703" xlink:href="#DejaVuSans-32"/>
      <use x="684.757812" xlink:href="#DejaVuSans-45"/>
      <use x="720.841797" xlink:href="#DejaVuSans-32"/>
      <use x="752.628906" xlink:href="#DejaVuSans-65"/>
      <use x="821.037109" xlink:href="#DejaVuSans-109"/>
      <use x="918.449219" xlink:href="#DejaVuSans-112"/>
      <use x="981.925781" xlink:href="#DejaVuSans-101"/>
      <use x="1043.449219" xlink:href="#DejaVuSans-108"/>
     </g>
    </g>
   </g>
  </g>
  <g id="axes_3">
   <g id="patch_14">
    <path d="M 51.95 536.2 
L 557.26875 536.2 
L 557.26875 402.6 
L 51.95 402.6 
z
" style="fill:none;"/>
   </g>
   <g id="PathCollection_47">
    <g clip-path="url(#p9816ae4d1e)">
     <use style="stroke:#000000;" x="220.542747" xlink:href="#m57d3b77e6f" y="781.988218"/>
    </g>
   </g>
   <g id="PathCollection_48">
    <g clip-path="url(#p9816ae4d1e)">
     <use style="stroke:#000000;" x="66.60776" xlink:href="#m57d3b77e6f" y="1083.143398"/>
    </g>
   </g>
   <g id="PathCollection_49">
    <g clip-path="url(#p9816ae4d1e)">
     <use style="stroke:#000000;" x="83.707471" xlink:href="#m57d3b77e6f" y="1156.854063"/>
    </g>
   </g>
   <g id="PathCollection_50">
    <g clip-path="url(#p9816ae4d1e)"/>
   </g>
   <g id="PathCollection_51">
    <g clip-path="url(#p9816ae4d1e)">
     <use style="stroke:#000000;" x="81.044998" xlink:href="#m57d3b77e6f" y="497.79544"/>
    </g>
   </g>
   <g id="PathCollection_52">
    <g clip-path="url(#p9816ae4d1e)"/>
   </g>
   <g id="PathCollection_53">
    <g clip-path="url(#p9816ae4d1e)">
     <use style="stroke:#000000;" x="65.330488" xlink:href="#m57d3b77e6f" y="737.257676"/>
    </g>
   </g>
   <g id="PathCollection_54">
    <g clip-path="url(#p9816ae4d1e)">
     <use style="stroke:#000000;" x="55.668182" xlink:href="#m57d3b77e6f" y="693.391453"/>
    </g>
   </g>
   <g id="PathCollection_55">
    <g clip-path="url(#p9816ae4d1e)">
     <use style="stroke:#000000;" x="219.054659" xlink:href="#m57d3b77e6f" y="737.608527"/>
    </g>
   </g>
   <g id="PathCollection_56">
    <g clip-path="url(#p9816ae4d1e)">
     <use style="stroke:#000000;" x="834.14242" xlink:href="#m57d3b77e6f" y="739.679967"/>
    </g>
   </g>
   <g id="PathCollection_57">
    <g clip-path="url(#p9816ae4d1e)">
     <use style="stroke:#000000;" x="958.754043" xlink:href="#m57d3b77e6f" y="740.59465"/>
    </g>
   </g>
   <g id="PathCollection_58">
    <g clip-path="url(#p9816ae4d1e)">
     <use style="stroke:#000000;" x="206.329154" xlink:href="#m57d3b77e6f" y="499.391568"/>
    </g>
   </g>
   <g id="PathCollection_59">
    <g clip-path="url(#p9816ae4d1e)">
     <use style="stroke:#000000;" x="147.093549" xlink:href="#m57d3b77e6f" y="424.120897"/>
    </g>
   </g>
   <g id="PathCollection_60">
    <g clip-path="url(#p9816ae4d1e)">
     <use style="stroke:#000000;" x="963.796821" xlink:href="#m57d3b77e6f" y="786.850116"/>
    </g>
   </g>
   <g id="PathCollection_61">
    <g clip-path="url(#p9816ae4d1e)"/>
   </g>
   <g id="PathCollection_62">
    <g clip-path="url(#p9816ae4d1e)">
     <use style="stroke:#000000;" x="238.159913" xlink:href="#m57d3b77e6f" y="890.33933"/>
    </g>
   </g>
   <g id="PathCollection_63">
    <g clip-path="url(#p9816ae4d1e)">
     <use style="stroke:#000000;" x="602.980643" xlink:href="#m57d3b77e6f" y="796.04829"/>
    </g>
   </g>
   <g id="PathCollection_64">
    <g clip-path="url(#p9816ae4d1e)">
     <use style="stroke:#000000;" x="598.452217" xlink:href="#m57d3b77e6f" y="891.74299"/>
    </g>
   </g>
   <g id="PathCollection_65">
    <g clip-path="url(#p9816ae4d1e)">
     <use style="stroke:#000000;" x="631.04528" xlink:href="#m57d3b77e6f" y="798.39"/>
    </g>
   </g>
   <g id="PathCollection_66">
    <g clip-path="url(#p9816ae4d1e)">
     <use style="stroke:#000000;" x="559.037358" xlink:href="#m57d3b77e6f" y="848.823995"/>
    </g>
   </g>
   <g id="PathCollection_67">
    <g clip-path="url(#p9816ae4d1e)">
     <use style="stroke:#000000;" x="512.295374" xlink:href="#m57d3b77e6f" y="920.801005"/>
    </g>
   </g>
   <g id="PathCollection_68">
    <g clip-path="url(#p9816ae4d1e)">
     <use style="stroke:#000000;" x="670.712794" xlink:href="#m57d3b77e6f" y="874.040992"/>
    </g>
   </g>
   <g id="matplotlib.axis_5">
    <g id="xtick_11">
     <g id="line2d_45">
      <g>
       <use style="stroke:#000000;stroke-width:0.8;" x="77.215938" xlink:href="#m25361dc997" y="536.2"/>
      </g>
     </g>
     <g id="text_35">
      <!-- −60 -->
      <g transform="translate(66.663594 550.798438)scale(0.1 -0.1)">
       <use xlink:href="#DejaVuSans-8722"/>
       <use x="83.789062" xlink:href="#DejaVuSans-54"/>
       <use x="147.412109" xlink:href="#DejaVuSans-48"/>
      </g>
     </g>
    </g>
    <g id="xtick_12">
     <g id="line2d_46">
      <g>
       <use style="stroke:#000000;stroke-width:0.8;" x="178.279688" xlink:href="#m25361dc997" y="536.2"/>
      </g>
     </g>
     <g id="text_36">
      <!-- −40 -->
      <g transform="translate(167.727344 550.798438)scale(0.1 -0.1)">
       <use xlink:href="#DejaVuSans-8722"/>
       <use x="83.789062" xlink:href="#DejaVuSans-52"/>
       <use x="147.412109" xlink:href="#DejaVuSans-48"/>
      </g>
     </g>
    </g>
    <g id="xtick_13">
     <g id="line2d_47">
      <g>
       <use style="stroke:#000000;stroke-width:0.8;" x="279.343438" xlink:href="#m25361dc997" y="536.2"/>
      </g>
     </g>
     <g id="text_37">
      <!-- −20 -->
      <g transform="translate(268.791094 550.798438)scale(0.1 -0.1)">
       <use xlink:href="#DejaVuSans-8722"/>
       <use x="83.789062" xlink:href="#DejaVuSans-50"/>
       <use x="147.412109" xlink:href="#DejaVuSans-48"/>
      </g>
     </g>
    </g>
    <g id="xtick_14">
     <g id="line2d_48">
      <g>
       <use style="stroke:#000000;stroke-width:0.8;" x="380.407188" xlink:href="#m25361dc997" y="536.2"/>
      </g>
     </g>
     <g id="text_38">
      <!-- 0 -->
      <g transform="translate(377.225938 550.798438)scale(0.1 -0.1)">
       <use xlink:href="#DejaVuSans-48"/>
      </g>
     </g>
    </g>
    <g id="xtick_15">
     <g id="line2d_49">
      <g>
       <use style="stroke:#000000;stroke-width:0.8;" x="481.470938" xlink:href="#m25361dc997" y="536.2"/>
      </g>
     </g>
     <g id="text_39">
      <!-- 20 -->
      <g transform="translate(475.108438 550.798438)scale(0.1 -0.1)">
       <use xlink:href="#DejaVuSans-50"/>
       <use x="63.623047" xlink:href="#DejaVuSans-48"/>
      </g>
     </g>
    </g>
    <g id="text_40">
     <!-- x -->
     <g transform="translate(301.65 564.476562)scale(0.1 -0.1)">
      <use xlink:href="#DejaVuSans-120"/>
     </g>
    </g>
   </g>
   <g id="matplotlib.axis_6">
    <g id="ytick_11">
     <g id="line2d_50">
      <g>
       <use style="stroke:#000000;stroke-width:0.8;" x="51.95" xlink:href="#maa40b38738" y="402.6"/>
      </g>
     </g>
     <g id="text_41">
      <!-- −80 -->
      <g transform="translate(23.845313 406.399219)scale(0.1 -0.1)">
       <use xlink:href="#DejaVuSans-8722"/>
       <use x="83.789062" xlink:href="#DejaVuSans-56"/>
       <use x="147.412109" xlink:href="#DejaVuSans-48"/>
      </g>
     </g>
    </g>
    <g id="ytick_12">
     <g id="line2d_51">
      <g>
       <use style="stroke:#000000;stroke-width:0.8;" x="51.95" xlink:href="#maa40b38738" y="436"/>
      </g>
     </g>
     <g id="text_42">
      <!-- −70 -->
      <g transform="translate(23.845313 439.799219)scale(0.1 -0.1)">
       <use xlink:href="#DejaVuSans-8722"/>
       <use x="83.789062" xlink:href="#DejaVuSans-55"/>
       <use x="147.412109" xlink:href="#DejaVuSans-48"/>
      </g>
     </g>
    </g>
    <g id="ytick_13">
     <g id="line2d_52">
      <g>
       <use style="stroke:#000000;stroke-width:0.8;" x="51.95" xlink:href="#maa40b38738" y="469.4"/>
      </g>
     </g>
     <g id="text_43">
      <!-- −60 -->
      <g transform="translate(23.845313 473.199219)scale(0.1 -0.1)">
       <use xlink:href="#DejaVuSans-8722"/>
       <use x="83.789062" xlink:href="#DejaVuSans-54"/>
       <use x="147.412109" xlink:href="#DejaVuSans-48"/>
      </g>
     </g>
    </g>
    <g id="ytick_14">
     <g id="line2d_53">
      <g>
       <use style="stroke:#000000;stroke-width:0.8;" x="51.95" xlink:href="#maa40b38738" y="502.8"/>
      </g>
     </g>
     <g id="text_44">
      <!-- −50 -->
      <g transform="translate(23.845313 506.599219)scale(0.1 -0.1)">
       <use xlink:href="#DejaVuSans-8722"/>
       <use x="83.789062" xlink:href="#DejaVuSans-53"/>
       <use x="147.412109" xlink:href="#DejaVuSans-48"/>
      </g>
     </g>
    </g>
    <g id="ytick_15">
     <g id="line2d_54">
      <g>
       <use style="stroke:#000000;stroke-width:0.8;" x="51.95" xlink:href="#maa40b38738" y="536.2"/>
      </g>
     </g>
     <g id="text_45">
      <!-- −40 -->
      <g transform="translate(23.845313 539.999219)scale(0.1 -0.1)">
       <use xlink:href="#DejaVuSans-8722"/>
       <use x="83.789062" xlink:href="#DejaVuSans-52"/>
       <use x="147.412109" xlink:href="#DejaVuSans-48"/>
      </g>
     </g>
    </g>
    <g id="text_46">
     <!-- y -->
     <g transform="translate(17.765625 472.359375)rotate(-90)scale(0.1 -0.1)">
      <use xlink:href="#DejaVuSans-121"/>
     </g>
    </g>
   </g>
   <g id="line2d_55">
    <path clip-path="url(#p9816ae4d1e)" d="M 363.083778 457.902492 
L 363.197641 450.67697 
" style="fill:none;stroke:#0000ff;stroke-linecap:square;"/>
   </g>
   <g id="line2d_56">
    <path clip-path="url(#p9816ae4d1e)" d="M 363.197641 450.67697 
L 338.985195 450.510266 
" style="fill:none;stroke:#0000ff;stroke-linecap:square;"/>
   </g>
   <g id="line2d_57">
    <path clip-path="url(#p9816ae4d1e)" d="M 338.985195 450.510266 
L 338.871329 457.735801 
" style="fill:none;stroke:#0000ff;stroke-linecap:square;"/>
   </g>
   <g id="line2d_58">
    <path clip-path="url(#p9816ae4d1e)" d="M 338.871329 457.735801 
L 363.083778 457.902492 
" style="fill:none;stroke:#0000ff;stroke-linecap:square;"/>
   </g>
   <g id="line2d_59">
    <path clip-path="url(#p9816ae4d1e)" d="M 169.382108 577 
L 170.147811 521.239286 
L 170.752743 512.638554 
L 171.135745 508.847723 
L 171.533957 506.172324 
L 172.120556 503.436328 
L 172.893231 500.724387 
L 173.848742 498.098895 
L 174.961336 495.588429 
L 176.243042 493.198545 
L 177.699179 490.908767 
L 179.330597 488.675178 
L 181.163877 486.484947 
L 183.192909 484.351349 
L 185.377887 482.291039 
L 187.706377 480.338569 
L 190.161726 478.500259 
L 192.769319 476.741301 
L 195.641442 475.084156 
L 198.791588 473.489839 
L 202.210601 471.969381 
L 205.819467 470.587559 
L 209.52724 469.393069 
L 215.158237 467.873618 
L 218.96697 467.052442 
L 222.846101 466.412355 
L 226.809402 465.923301 
L 232.883091 465.489059 
L 241.072642 465.215967 
L 245.125443 465.254827 
L 249.028476 465.601435 
L 250.881476 465.91544 
L 252.648002 466.331767 
L 254.32017 466.851438 
L 255.902588 467.470808 
L 257.394975 468.186551 
L 258.80644 468.993534 
L 261.428519 470.860842 
L 269.309368 477.28532 
L 272.189047 479.071659 
L 273.695236 479.81677 
L 275.247611 480.447938 
L 276.847069 480.964768 
L 278.494718 481.372546 
L 281.934212 481.878176 
L 285.587144 482.037224 
L 289.480722 481.930886 
L 297.782895 481.253991 
L 326.048782 478.967182 
L 338.291303 478.472522 
L 348.422104 478.224453 
L 366.757829 478.05492 
L 391.17547 478.036305 
L 482.768469 478.066119 
L 577 478.041592 
L 577 478.041592 
" style="fill:none;stroke:#000000;stroke-linecap:square;stroke-width:0.5;"/>
   </g>
   <g id="line2d_60">
    <path clip-path="url(#p9816ae4d1e)" d="M 194.169497 475.900631 
L 195.641442 475.084156 
L 197.183725 474.283863 
L 198.791588 473.489839 
L 200.472025 472.718213 
L 202.210601 471.969381 
L 203.998581 471.258594 
L 205.819467 470.587559 
L 207.665855 469.966775 
L 209.52724 469.393069 
L 211.397569 468.855573 
L 213.274106 468.349841 
L 215.158237 467.873618 
L 217.054898 467.44093 
L 218.96697 467.052442 
L 220.896517 466.710471 
L 222.846101 466.412355 
L 224.817101 466.143989 
L 226.809402 465.923301 
L 228.81883 465.750098 
L 230.8447 465.607093 
L 232.883091 465.489059 
L 234.929693 465.393972 
L 236.979187 465.318214 
L 239.027909 465.260038 
L 241.072642 465.215967 
L 243.109384 465.204194 
L 245.125443 465.254827 
L 247.104067 465.384289 
L 249.028476 465.601435 
L 250.881476 465.91544 
L 252.648002 466.331767 
L 254.32017 466.851438 
L 255.902588 467.470808 
L 257.394975 468.186551 
L 258.80644 468.993534 
L 260.143796 469.887181 
L 261.428519 470.860842 
L 262.697811 471.902375 
L 263.973618 472.992745 
L 265.266427 474.105233 
L 266.585066 475.206203 
L 267.93024 476.273321 
L 269.309368 477.28532 
L 270.727666 478.223918 
L 272.189047 479.071659 
L 273.695236 479.81677 
L 275.247611 480.447938 
L 276.847069 480.964768 
L 278.494718 481.372546 
L 280.190567 481.675275 
L 281.934212 481.878176 
L 283.731233 481.99463 
L 285.587144 482.037224 
L 287.504421 482.014697 
L 289.480722 481.930886 
L 291.508954 481.790849 
L 293.579478 481.611722 
L 295.678888 481.429168 
L 297.782895 481.253991 
L 299.871785 481.077628 
L 301.938888 480.897622 
L 303.98151 480.716712 
L 306.000219 480.535763 
L 307.998746 480.356903 
L 309.983225 480.179318 
L 311.961247 480.003784 
L 313.940285 479.828632 
L 315.927044 479.654232 
L 317.925576 479.479042 
L 319.939288 479.321257 
L 321.966676 479.191068 
L 324.004353 479.074602 
L 326.048782 478.967182 
L 328.096377 478.868578 
" style="fill:none;stroke:#ff0000;stroke-linecap:square;"/>
   </g>
   <g id="patch_15">
    <path d="M 51.95 536.2 
L 51.95 402.6 
" style="fill:none;stroke:#000000;stroke-linecap:square;stroke-linejoin:miter;stroke-width:0.8;"/>
   </g>
   <g id="patch_16">
    <path d="M 557.26875 536.2 
L 557.26875 402.6 
" style="fill:none;stroke:#000000;stroke-linecap:square;stroke-linejoin:miter;stroke-width:0.8;"/>
   </g>
   <g id="patch_17">
    <path d="M 51.95 536.2 
L 557.26875 536.2 
" style="fill:none;stroke:#000000;stroke-linecap:square;stroke-linejoin:miter;stroke-width:0.8;"/>
   </g>
   <g id="patch_18">
    <path d="M 51.95 402.6 
L 557.26875 402.6 
" style="fill:none;stroke:#000000;stroke-linecap:square;stroke-linejoin:miter;stroke-width:0.8;"/>
   </g>
   <g id="text_47">
    <!-- Abbiegen weit -->
    <g transform="translate(261.7 396.6)scale(0.12 -0.12)">
     <defs>
      <path d="M 4.203125 54.6875 
L 13.1875 54.6875 
L 24.421875 12.015625 
L 35.59375 54.6875 
L 46.1875 54.6875 
L 57.421875 12.015625 
L 68.609375 54.6875 
L 77.59375 54.6875 
L 63.28125 0 
L 52.6875 0 
L 40.921875 44.828125 
L 29.109375 0 
L 18.5 0 
z
" id="DejaVuSans-119"/>
     </defs>
     <use xlink:href="#DejaVuSans-65"/>
     <use x="68.408203" xlink:href="#DejaVuSans-98"/>
     <use x="131.884766" xlink:href="#DejaVuSans-98"/>
     <use x="195.361328" xlink:href="#DejaVuSans-105"/>
     <use x="223.144531" xlink:href="#DejaVuSans-101"/>
     <use x="284.667969" xlink:href="#DejaVuSans-103"/>
     <use x="348.144531" xlink:href="#DejaVuSans-101"/>
     <use x="409.667969" xlink:href="#DejaVuSans-110"/>
     <use x="473.046875" xlink:href="#DejaVuSans-32"/>
     <use x="504.833984" xlink:href="#DejaVuSans-119"/>
     <use x="586.621094" xlink:href="#DejaVuSans-101"/>
     <use x="648.144531" xlink:href="#DejaVuSans-105"/>
     <use x="675.927734" xlink:href="#DejaVuSans-116"/>
    </g>
   </g>
   <g id="legend_3">
    <g id="patch_19">
     <path d="M 231.05 531.2 
L 550.26875 531.2 
Q 552.26875 531.2 552.26875 529.2 
L 552.26875 500.84375 
Q 552.26875 498.84375 550.26875 498.84375 
L 231.05 498.84375 
Q 229.05 498.84375 229.05 500.84375 
L 229.05 529.2 
Q 229.05 531.2 231.05 531.2 
z
" style="fill:#ffffff;opacity:0.8;stroke:#cccccc;stroke-linejoin:miter;"/>
    </g>
    <g id="line2d_61">
     <path d="M 233.05 506.942188 
L 253.05 506.942188 
" style="fill:none;stroke:#0000ff;stroke-linecap:square;"/>
    </g>
    <g id="line2d_62"/>
    <g id="text_48">
     <!-- Egofahrzeug -->
     <g transform="translate(261.05 510.442188)scale(0.1 -0.1)">
      <use xlink:href="#DejaVuSans-69"/>
      <use x="63.183594" xlink:href="#DejaVuSans-103"/>
      <use x="126.660156" xlink:href="#DejaVuSans-111"/>
      <use x="187.841797" xlink:href="#DejaVuSans-102"/>
      <use x="223.046875" xlink:href="#DejaVuSans-97"/>
      <use x="284.326172" xlink:href="#DejaVuSans-104"/>
      <use x="347.705078" xlink:href="#DejaVuSans-114"/>
      <use x="388.818359" xlink:href="#DejaVuSans-122"/>
      <use x="441.308594" xlink:href="#DejaVuSans-101"/>
      <use x="502.832031" xlink:href="#DejaVuSans-117"/>
      <use x="566.210938" xlink:href="#DejaVuSans-103"/>
     </g>
    </g>
    <g id="line2d_63">
     <path d="M 233.05 521.620313 
L 253.05 521.620313 
" style="fill:none;stroke:#000000;stroke-linecap:square;stroke-width:0.5;"/>
    </g>
    <g id="line2d_64"/>
    <g id="text_49">
     <!-- Ground Truth - Fahrzeug -->
     <g transform="translate(261.05 525.120313)scale(0.1 -0.1)">
      <use xlink:href="#DejaVuSans-71"/>
      <use x="77.490234" xlink:href="#DejaVuSans-114"/>
      <use x="116.353516" xlink:href="#DejaVuSans-111"/>
      <use x="177.535156" xlink:href="#DejaVuSans-117"/>
      <use x="240.914062" xlink:href="#DejaVuSans-110"/>
      <use x="304.292969" xlink:href="#DejaVuSans-100"/>
      <use x="367.769531" xlink:href="#DejaVuSans-32"/>
      <use x="399.556641" xlink:href="#DejaVuSans-84"/>
      <use x="445.890625" xlink:href="#DejaVuSans-114"/>
      <use x="487.003906" xlink:href="#DejaVuSans-117"/>
      <use x="550.382812" xlink:href="#DejaVuSans-116"/>
      <use x="589.591797" xlink:href="#DejaVuSans-104"/>
      <use x="652.970703" xlink:href="#DejaVuSans-32"/>
      <use x="684.757812" xlink:href="#DejaVuSans-45"/>
      <use x="720.841797" xlink:href="#DejaVuSans-32"/>
      <use x="752.628906" xlink:href="#DejaVuSans-70"/>
      <use x="801.023438" xlink:href="#DejaVuSans-97"/>
      <use x="862.302734" xlink:href="#DejaVuSans-104"/>
      <use x="925.681641" xlink:href="#DejaVuSans-114"/>
      <use x="966.794922" xlink:href="#DejaVuSans-122"/>
      <use x="1019.285156" xlink:href="#DejaVuSans-101"/>
      <use x="1080.808594" xlink:href="#DejaVuSans-117"/>
      <use x="1144.1875" xlink:href="#DejaVuSans-103"/>
     </g>
    </g>
    <g id="line2d_65">
     <path d="M 401.810938 506.942188 
L 421.810938 506.942188 
" style="fill:none;stroke:#ff0000;stroke-linecap:square;"/>
    </g>
    <g id="line2d_66"/>
    <g id="text_50">
     <!-- Sensordaten - Fahrzeug -->
     <g transform="translate(429.810938 510.442188)scale(0.1 -0.1)">
      <use xlink:href="#DejaVuSans-83"/>
      <use x="63.476562" xlink:href="#DejaVuSans-101"/>
      <use x="125" xlink:href="#DejaVuSans-110"/>
      <use x="188.378906" xlink:href="#DejaVuSans-115"/>
      <use x="240.478516" xlink:href="#DejaVuSans-111"/>
      <use x="301.660156" xlink:href="#DejaVuSans-114"/>
      <use x="341.023438" xlink:href="#DejaVuSans-100"/>
      <use x="404.5" xlink:href="#DejaVuSans-97"/>
      <use x="465.779297" xlink:href="#DejaVuSans-116"/>
      <use x="504.988281" xlink:href="#DejaVuSans-101"/>
      <use x="566.511719" xlink:href="#DejaVuSans-110"/>
      <use x="629.890625" xlink:href="#DejaVuSans-32"/>
      <use x="661.677734" xlink:href="#DejaVuSans-45"/>
      <use x="697.761719" xlink:href="#DejaVuSans-32"/>
      <use x="729.548828" xlink:href="#DejaVuSans-70"/>
      <use x="777.943359" xlink:href="#DejaVuSans-97"/>
      <use x="839.222656" xlink:href="#DejaVuSans-104"/>
      <use x="902.601562" xlink:href="#DejaVuSans-114"/>
      <use x="943.714844" xlink:href="#DejaVuSans-122"/>
      <use x="996.205078" xlink:href="#DejaVuSans-101"/>
      <use x="1057.728516" xlink:href="#DejaVuSans-117"/>
      <use x="1121.107422" xlink:href="#DejaVuSans-103"/>
     </g>
    </g>
    <g id="PathCollection_69">
     <g>
      <use style="stroke:#000000;" x="411.810938" xlink:href="#m57d3b77e6f" y="522.495313"/>
     </g>
    </g>
    <g id="text_51">
     <!-- Ground Truth - Ampel -->
     <g transform="translate(429.810938 525.120313)scale(0.1 -0.1)">
      <use xlink:href="#DejaVuSans-71"/>
      <use x="77.490234" xlink:href="#DejaVuSans-114"/>
      <use x="116.353516" xlink:href="#DejaVuSans-111"/>
      <use x="177.535156" xlink:href="#DejaVuSans-117"/>
      <use x="240.914062" xlink:href="#DejaVuSans-110"/>
      <use x="304.292969" xlink:href="#DejaVuSans-100"/>
      <use x="367.769531" xlink:href="#DejaVuSans-32"/>
      <use x="399.556641" xlink:href="#DejaVuSans-84"/>
      <use x="445.890625" xlink:href="#DejaVuSans-114"/>
      <use x="487.003906" xlink:href="#DejaVuSans-117"/>
      <use x="550.382812" xlink:href="#DejaVuSans-116"/>
      <use x="589.591797" xlink:href="#DejaVuSans-104"/>
      <use x="652.970703" xlink:href="#DejaVuSans-32"/>
      <use x="684.757812" xlink:href="#DejaVuSans-45"/>
      <use x="720.841797" xlink:href="#DejaVuSans-32"/>
      <use x="752.628906" xlink:href="#DejaVuSans-65"/>
      <use x="821.037109" xlink:href="#DejaVuSans-109"/>
      <use x="918.449219" xlink:href="#DejaVuSans-112"/>
      <use x="981.925781" xlink:href="#DejaVuSans-101"/>
      <use x="1043.449219" xlink:href="#DejaVuSans-108"/>
     </g>
    </g>
   </g>
  </g>
 </g>
 <defs>
  <clipPath id="p052e6f1e28">
   <rect height="133.6" width="505.31875" x="51.95" y="25.8"/>
  </clipPath>
  <clipPath id="p2366c5dcea">
   <rect height="133.6" width="505.31875" x="51.95" y="214.2"/>
  </clipPath>
  <clipPath id="p9816ae4d1e">
   <rect height="133.6" width="505.31875" x="51.95" y="402.6"/>
  </clipPath>
 </defs>
</svg>
