<?xml version="1.0" encoding="utf-8" standalone="no"?>
<!DOCTYPE svg PUBLIC "-//W3C//DTD SVG 1.1//EN"
  "http://www.w3.org/Graphics/SVG/1.1/DTD/svg11.dtd">
<!-- Created with matplotlib (https://matplotlib.org/) -->
<svg height="576pt" version="1.1" viewBox="0 0 576 576" width="576pt" xmlns="http://www.w3.org/2000/svg" xmlns:xlink="http://www.w3.org/1999/xlink">
 <metadata>
  <rdf:RDF xmlns:cc="http://creativecommons.org/ns#" xmlns:dc="http://purl.org/dc/elements/1.1/" xmlns:rdf="http://www.w3.org/1999/02/22-rdf-syntax-ns#">
   <cc:Work>
    <dc:type rdf:resource="http://purl.org/dc/dcmitype/StillImage"/>
    <dc:date>2022-07-06T22:01:41.853198</dc:date>
    <dc:format>image/svg+xml</dc:format>
    <dc:creator>
     <cc:Agent>
      <dc:title>Matplotlib v3.3.4, https://matplotlib.org/</dc:title>
     </cc:Agent>
    </dc:creator>
   </cc:Work>
  </rdf:RDF>
 </metadata>
 <defs>
  <style type="text/css">*{stroke-linecap:butt;stroke-linejoin:round;}</style>
 </defs>
 <g id="figure_1">
  <g id="patch_1">
   <path d="M 0 576 
L 576 576 
L 576 0 
L 0 0 
z
" style="fill:none;"/>
  </g>
  <g id="axes_1">
   <g id="patch_2">
    <path d="M 51.95 119.55 
L 557.26875 119.55 
L 557.26875 14.4 
L 51.95 14.4 
z
" style="fill:none;"/>
   </g>
   <g id="PathCollection_1">
    <defs>
     <path d="M 0 3 
C 0.795609 3 1.55874 2.683901 2.12132 2.12132 
C 2.683901 1.55874 3 0.795609 3 0 
C 3 -0.795609 2.683901 -1.55874 2.12132 -2.12132 
C 1.55874 -2.683901 0.795609 -3 0 -3 
C -0.795609 -3 -1.55874 -2.683901 -2.12132 -2.12132 
C -2.683901 -1.55874 -3 -0.795609 -3 0 
C -3 0.795609 -2.683901 1.55874 -2.12132 2.12132 
C -1.55874 2.683901 -0.795609 3 0 3 
z
" id="mff4b235bd8" style="stroke:#000000;"/>
    </defs>
    <g clip-path="url(#pe40bc139f0)">
     <use style="stroke:#000000;" x="220.542747" xlink:href="#mff4b235bd8" y="312.997838"/>
    </g>
   </g>
   <g id="PathCollection_2">
    <g clip-path="url(#pe40bc139f0)">
     <use style="stroke:#000000;" x="66.60776" xlink:href="#mff4b235bd8" y="550.022293"/>
    </g>
   </g>
   <g id="PathCollection_3">
    <g clip-path="url(#pe40bc139f0)">
     <use style="stroke:#000000;" x="83.707471" xlink:href="#mff4b235bd8" y="608.036338"/>
    </g>
   </g>
   <g id="PathCollection_4">
    <g clip-path="url(#pe40bc139f0)"/>
   </g>
   <g id="PathCollection_5">
    <g clip-path="url(#pe40bc139f0)">
     <use style="stroke:#000000;" x="81.044998" xlink:href="#mff4b235bd8" y="89.323657"/>
    </g>
   </g>
   <g id="PathCollection_6">
    <g clip-path="url(#pe40bc139f0)"/>
   </g>
   <g id="PathCollection_7">
    <g clip-path="url(#pe40bc139f0)">
     <use style="stroke:#000000;" x="65.330488" xlink:href="#mff4b235bd8" y="277.792624"/>
    </g>
   </g>
   <g id="PathCollection_8">
    <g clip-path="url(#pe40bc139f0)">
     <use style="stroke:#000000;" x="55.668182" xlink:href="#mff4b235bd8" y="243.267674"/>
    </g>
   </g>
   <g id="PathCollection_9">
    <g clip-path="url(#pe40bc139f0)">
     <use style="stroke:#000000;" x="219.054659" xlink:href="#mff4b235bd8" y="278.068762"/>
    </g>
   </g>
   <g id="PathCollection_10">
    <g clip-path="url(#pe40bc139f0)">
     <use style="stroke:#000000;" x="834.14242" xlink:href="#mff4b235bd8" y="279.699091"/>
    </g>
   </g>
   <g id="PathCollection_11">
    <g clip-path="url(#pe40bc139f0)">
     <use style="stroke:#000000;" x="958.754043" xlink:href="#mff4b235bd8" y="280.418993"/>
    </g>
   </g>
   <g id="PathCollection_12">
    <g clip-path="url(#pe40bc139f0)">
     <use style="stroke:#000000;" x="206.329154" xlink:href="#mff4b235bd8" y="90.57989"/>
    </g>
   </g>
   <g id="PathCollection_13">
    <g clip-path="url(#pe40bc139f0)">
     <use style="stroke:#000000;" x="147.093549" xlink:href="#mff4b235bd8" y="31.338041"/>
    </g>
   </g>
   <g id="PathCollection_14">
    <g clip-path="url(#pe40bc139f0)">
     <use style="stroke:#000000;" x="963.796821" xlink:href="#mff4b235bd8" y="316.824399"/>
    </g>
   </g>
   <g id="PathCollection_15">
    <g clip-path="url(#pe40bc139f0)"/>
   </g>
   <g id="PathCollection_16">
    <g clip-path="url(#pe40bc139f0)">
     <use style="stroke:#000000;" x="238.159913" xlink:href="#mff4b235bd8" y="398.275677"/>
    </g>
   </g>
   <g id="PathCollection_17">
    <g clip-path="url(#pe40bc139f0)">
     <use style="stroke:#000000;" x="602.980643" xlink:href="#mff4b235bd8" y="324.06383"/>
    </g>
   </g>
   <g id="PathCollection_18">
    <g clip-path="url(#pe40bc139f0)">
     <use style="stroke:#000000;" x="598.452217" xlink:href="#mff4b235bd8" y="399.380429"/>
    </g>
   </g>
   <g id="PathCollection_19">
    <g clip-path="url(#pe40bc139f0)">
     <use style="stroke:#000000;" x="631.04528" xlink:href="#mff4b235bd8" y="325.906875"/>
    </g>
   </g>
   <g id="PathCollection_20">
    <g clip-path="url(#pe40bc139f0)">
     <use style="stroke:#000000;" x="559.037358" xlink:href="#mff4b235bd8" y="365.600996"/>
    </g>
   </g>
   <g id="PathCollection_21">
    <g clip-path="url(#pe40bc139f0)">
     <use style="stroke:#000000;" x="512.295374" xlink:href="#mff4b235bd8" y="422.250567"/>
    </g>
   </g>
   <g id="PathCollection_22">
    <g clip-path="url(#pe40bc139f0)">
     <use style="stroke:#000000;" x="670.712794" xlink:href="#mff4b235bd8" y="385.448056"/>
    </g>
   </g>
   <g id="matplotlib.axis_1">
    <g id="xtick_1">
     <g id="line2d_1">
      <defs>
       <path d="M 0 0 
L 0 3.5 
" id="m48ea5ec73b" style="stroke:#000000;stroke-width:0.8;"/>
      </defs>
      <g>
       <use style="stroke:#000000;stroke-width:0.8;" x="77.215938" xlink:href="#m48ea5ec73b" y="119.55"/>
      </g>
     </g>
     <g id="text_1">
      <!-- −60 -->
      <g transform="translate(66.663594 134.148437)scale(0.1 -0.1)">
       <defs>
        <path d="M 10.59375 35.5 
L 73.1875 35.5 
L 73.1875 27.203125 
L 10.59375 27.203125 
z
" id="DejaVuSans-8722"/>
        <path d="M 33.015625 40.375 
Q 26.375 40.375 22.484375 35.828125 
Q 18.609375 31.296875 18.609375 23.390625 
Q 18.609375 15.53125 22.484375 10.953125 
Q 26.375 6.390625 33.015625 6.390625 
Q 39.65625 6.390625 43.53125 10.953125 
Q 47.40625 15.53125 47.40625 23.390625 
Q 47.40625 31.296875 43.53125 35.828125 
Q 39.65625 40.375 33.015625 40.375 
z
M 52.59375 71.296875 
L 52.59375 62.3125 
Q 48.875 64.0625 45.09375 64.984375 
Q 41.3125 65.921875 37.59375 65.921875 
Q 27.828125 65.921875 22.671875 59.328125 
Q 17.53125 52.734375 16.796875 39.40625 
Q 19.671875 43.65625 24.015625 45.921875 
Q 28.375 48.1875 33.59375 48.1875 
Q 44.578125 48.1875 50.953125 41.515625 
Q 57.328125 34.859375 57.328125 23.390625 
Q 57.328125 12.15625 50.6875 5.359375 
Q 44.046875 -1.421875 33.015625 -1.421875 
Q 20.359375 -1.421875 13.671875 8.265625 
Q 6.984375 17.96875 6.984375 36.375 
Q 6.984375 53.65625 15.1875 63.9375 
Q 23.390625 74.21875 37.203125 74.21875 
Q 40.921875 74.21875 44.703125 73.484375 
Q 48.484375 72.75 52.59375 71.296875 
z
" id="DejaVuSans-54"/>
        <path d="M 31.78125 66.40625 
Q 24.171875 66.40625 20.328125 58.90625 
Q 16.5 51.421875 16.5 36.375 
Q 16.5 21.390625 20.328125 13.890625 
Q 24.171875 6.390625 31.78125 6.390625 
Q 39.453125 6.390625 43.28125 13.890625 
Q 47.125 21.390625 47.125 36.375 
Q 47.125 51.421875 43.28125 58.90625 
Q 39.453125 66.40625 31.78125 66.40625 
z
M 31.78125 74.21875 
Q 44.046875 74.21875 50.515625 64.515625 
Q 56.984375 54.828125 56.984375 36.375 
Q 56.984375 17.96875 50.515625 8.265625 
Q 44.046875 -1.421875 31.78125 -1.421875 
Q 19.53125 -1.421875 13.0625 8.265625 
Q 6.59375 17.96875 6.59375 36.375 
Q 6.59375 54.828125 13.0625 64.515625 
Q 19.53125 74.21875 31.78125 74.21875 
z
" id="DejaVuSans-48"/>
       </defs>
       <use xlink:href="#DejaVuSans-8722"/>
       <use x="83.789062" xlink:href="#DejaVuSans-54"/>
       <use x="147.412109" xlink:href="#DejaVuSans-48"/>
      </g>
     </g>
    </g>
    <g id="xtick_2">
     <g id="line2d_2">
      <g>
       <use style="stroke:#000000;stroke-width:0.8;" x="178.279688" xlink:href="#m48ea5ec73b" y="119.55"/>
      </g>
     </g>
     <g id="text_2">
      <!-- −40 -->
      <g transform="translate(167.727344 134.148437)scale(0.1 -0.1)">
       <defs>
        <path d="M 37.796875 64.3125 
L 12.890625 25.390625 
L 37.796875 25.390625 
z
M 35.203125 72.90625 
L 47.609375 72.90625 
L 47.609375 25.390625 
L 58.015625 25.390625 
L 58.015625 17.1875 
L 47.609375 17.1875 
L 47.609375 0 
L 37.796875 0 
L 37.796875 17.1875 
L 4.890625 17.1875 
L 4.890625 26.703125 
z
" id="DejaVuSans-52"/>
       </defs>
       <use xlink:href="#DejaVuSans-8722"/>
       <use x="83.789062" xlink:href="#DejaVuSans-52"/>
       <use x="147.412109" xlink:href="#DejaVuSans-48"/>
      </g>
     </g>
    </g>
    <g id="xtick_3">
     <g id="line2d_3">
      <g>
       <use style="stroke:#000000;stroke-width:0.8;" x="279.343438" xlink:href="#m48ea5ec73b" y="119.55"/>
      </g>
     </g>
     <g id="text_3">
      <!-- −20 -->
      <g transform="translate(268.791094 134.148437)scale(0.1 -0.1)">
       <defs>
        <path d="M 19.1875 8.296875 
L 53.609375 8.296875 
L 53.609375 0 
L 7.328125 0 
L 7.328125 8.296875 
Q 12.9375 14.109375 22.625 23.890625 
Q 32.328125 33.6875 34.8125 36.53125 
Q 39.546875 41.84375 41.421875 45.53125 
Q 43.3125 49.21875 43.3125 52.78125 
Q 43.3125 58.59375 39.234375 62.25 
Q 35.15625 65.921875 28.609375 65.921875 
Q 23.96875 65.921875 18.8125 64.3125 
Q 13.671875 62.703125 7.8125 59.421875 
L 7.8125 69.390625 
Q 13.765625 71.78125 18.9375 73 
Q 24.125 74.21875 28.421875 74.21875 
Q 39.75 74.21875 46.484375 68.546875 
Q 53.21875 62.890625 53.21875 53.421875 
Q 53.21875 48.921875 51.53125 44.890625 
Q 49.859375 40.875 45.40625 35.40625 
Q 44.1875 33.984375 37.640625 27.21875 
Q 31.109375 20.453125 19.1875 8.296875 
z
" id="DejaVuSans-50"/>
       </defs>
       <use xlink:href="#DejaVuSans-8722"/>
       <use x="83.789062" xlink:href="#DejaVuSans-50"/>
       <use x="147.412109" xlink:href="#DejaVuSans-48"/>
      </g>
     </g>
    </g>
    <g id="xtick_4">
     <g id="line2d_4">
      <g>
       <use style="stroke:#000000;stroke-width:0.8;" x="380.407188" xlink:href="#m48ea5ec73b" y="119.55"/>
      </g>
     </g>
     <g id="text_4">
      <!-- 0 -->
      <g transform="translate(377.225938 134.148437)scale(0.1 -0.1)">
       <use xlink:href="#DejaVuSans-48"/>
      </g>
     </g>
    </g>
    <g id="xtick_5">
     <g id="line2d_5">
      <g>
       <use style="stroke:#000000;stroke-width:0.8;" x="481.470938" xlink:href="#m48ea5ec73b" y="119.55"/>
      </g>
     </g>
     <g id="text_5">
      <!-- 20 -->
      <g transform="translate(475.108438 134.148437)scale(0.1 -0.1)">
       <use xlink:href="#DejaVuSans-50"/>
       <use x="63.623047" xlink:href="#DejaVuSans-48"/>
      </g>
     </g>
    </g>
    <g id="text_6">
     <!-- x -->
     <g transform="translate(301.65 147.826562)scale(0.1 -0.1)">
      <defs>
       <path d="M 54.890625 54.6875 
L 35.109375 28.078125 
L 55.90625 0 
L 45.3125 0 
L 29.390625 21.484375 
L 13.484375 0 
L 2.875 0 
L 24.125 28.609375 
L 4.6875 54.6875 
L 15.28125 54.6875 
L 29.78125 35.203125 
L 44.28125 54.6875 
z
" id="DejaVuSans-120"/>
      </defs>
      <use xlink:href="#DejaVuSans-120"/>
     </g>
    </g>
   </g>
   <g id="matplotlib.axis_2">
    <g id="ytick_1">
     <g id="line2d_6">
      <defs>
       <path d="M 0 0 
L -3.5 0 
" id="mf6fd135122" style="stroke:#000000;stroke-width:0.8;"/>
      </defs>
      <g>
       <use style="stroke:#000000;stroke-width:0.8;" x="51.95" xlink:href="#mf6fd135122" y="14.4"/>
      </g>
     </g>
     <g id="text_7">
      <!-- −80 -->
      <g transform="translate(23.845313 18.199219)scale(0.1 -0.1)">
       <defs>
        <path d="M 31.78125 34.625 
Q 24.75 34.625 20.71875 30.859375 
Q 16.703125 27.09375 16.703125 20.515625 
Q 16.703125 13.921875 20.71875 10.15625 
Q 24.75 6.390625 31.78125 6.390625 
Q 38.8125 6.390625 42.859375 10.171875 
Q 46.921875 13.96875 46.921875 20.515625 
Q 46.921875 27.09375 42.890625 30.859375 
Q 38.875 34.625 31.78125 34.625 
z
M 21.921875 38.8125 
Q 15.578125 40.375 12.03125 44.71875 
Q 8.5 49.078125 8.5 55.328125 
Q 8.5 64.0625 14.71875 69.140625 
Q 20.953125 74.21875 31.78125 74.21875 
Q 42.671875 74.21875 48.875 69.140625 
Q 55.078125 64.0625 55.078125 55.328125 
Q 55.078125 49.078125 51.53125 44.71875 
Q 48 40.375 41.703125 38.8125 
Q 48.828125 37.15625 52.796875 32.3125 
Q 56.78125 27.484375 56.78125 20.515625 
Q 56.78125 9.90625 50.3125 4.234375 
Q 43.84375 -1.421875 31.78125 -1.421875 
Q 19.734375 -1.421875 13.25 4.234375 
Q 6.78125 9.90625 6.78125 20.515625 
Q 6.78125 27.484375 10.78125 32.3125 
Q 14.796875 37.15625 21.921875 38.8125 
z
M 18.3125 54.390625 
Q 18.3125 48.734375 21.84375 45.5625 
Q 25.390625 42.390625 31.78125 42.390625 
Q 38.140625 42.390625 41.71875 45.5625 
Q 45.3125 48.734375 45.3125 54.390625 
Q 45.3125 60.0625 41.71875 63.234375 
Q 38.140625 66.40625 31.78125 66.40625 
Q 25.390625 66.40625 21.84375 63.234375 
Q 18.3125 60.0625 18.3125 54.390625 
z
" id="DejaVuSans-56"/>
       </defs>
       <use xlink:href="#DejaVuSans-8722"/>
       <use x="83.789062" xlink:href="#DejaVuSans-56"/>
       <use x="147.412109" xlink:href="#DejaVuSans-48"/>
      </g>
     </g>
    </g>
    <g id="ytick_2">
     <g id="line2d_7">
      <g>
       <use style="stroke:#000000;stroke-width:0.8;" x="51.95" xlink:href="#mf6fd135122" y="40.6875"/>
      </g>
     </g>
     <g id="text_8">
      <!-- −70 -->
      <g transform="translate(23.845313 44.486719)scale(0.1 -0.1)">
       <defs>
        <path d="M 8.203125 72.90625 
L 55.078125 72.90625 
L 55.078125 68.703125 
L 28.609375 0 
L 18.3125 0 
L 43.21875 64.59375 
L 8.203125 64.59375 
z
" id="DejaVuSans-55"/>
       </defs>
       <use xlink:href="#DejaVuSans-8722"/>
       <use x="83.789062" xlink:href="#DejaVuSans-55"/>
       <use x="147.412109" xlink:href="#DejaVuSans-48"/>
      </g>
     </g>
    </g>
    <g id="ytick_3">
     <g id="line2d_8">
      <g>
       <use style="stroke:#000000;stroke-width:0.8;" x="51.95" xlink:href="#mf6fd135122" y="66.975"/>
      </g>
     </g>
     <g id="text_9">
      <!-- −60 -->
      <g transform="translate(23.845313 70.774219)scale(0.1 -0.1)">
       <use xlink:href="#DejaVuSans-8722"/>
       <use x="83.789062" xlink:href="#DejaVuSans-54"/>
       <use x="147.412109" xlink:href="#DejaVuSans-48"/>
      </g>
     </g>
    </g>
    <g id="ytick_4">
     <g id="line2d_9">
      <g>
       <use style="stroke:#000000;stroke-width:0.8;" x="51.95" xlink:href="#mf6fd135122" y="93.2625"/>
      </g>
     </g>
     <g id="text_10">
      <!-- −50 -->
      <g transform="translate(23.845313 97.061719)scale(0.1 -0.1)">
       <defs>
        <path d="M 10.796875 72.90625 
L 49.515625 72.90625 
L 49.515625 64.59375 
L 19.828125 64.59375 
L 19.828125 46.734375 
Q 21.96875 47.46875 24.109375 47.828125 
Q 26.265625 48.1875 28.421875 48.1875 
Q 40.625 48.1875 47.75 41.5 
Q 54.890625 34.8125 54.890625 23.390625 
Q 54.890625 11.625 47.5625 5.09375 
Q 40.234375 -1.421875 26.90625 -1.421875 
Q 22.3125 -1.421875 17.546875 -0.640625 
Q 12.796875 0.140625 7.71875 1.703125 
L 7.71875 11.625 
Q 12.109375 9.234375 16.796875 8.0625 
Q 21.484375 6.890625 26.703125 6.890625 
Q 35.15625 6.890625 40.078125 11.328125 
Q 45.015625 15.765625 45.015625 23.390625 
Q 45.015625 31 40.078125 35.4375 
Q 35.15625 39.890625 26.703125 39.890625 
Q 22.75 39.890625 18.8125 39.015625 
Q 14.890625 38.140625 10.796875 36.28125 
z
" id="DejaVuSans-53"/>
       </defs>
       <use xlink:href="#DejaVuSans-8722"/>
       <use x="83.789062" xlink:href="#DejaVuSans-53"/>
       <use x="147.412109" xlink:href="#DejaVuSans-48"/>
      </g>
     </g>
    </g>
    <g id="ytick_5">
     <g id="line2d_10">
      <g>
       <use style="stroke:#000000;stroke-width:0.8;" x="51.95" xlink:href="#mf6fd135122" y="119.55"/>
      </g>
     </g>
     <g id="text_11">
      <!-- −40 -->
      <g transform="translate(23.845313 123.349219)scale(0.1 -0.1)">
       <use xlink:href="#DejaVuSans-8722"/>
       <use x="83.789062" xlink:href="#DejaVuSans-52"/>
       <use x="147.412109" xlink:href="#DejaVuSans-48"/>
      </g>
     </g>
    </g>
    <g id="text_12">
     <!-- y -->
     <g transform="translate(17.765625 69.934375)rotate(-90)scale(0.1 -0.1)">
      <defs>
       <path d="M 32.171875 -5.078125 
Q 28.375 -14.84375 24.75 -17.8125 
Q 21.140625 -20.796875 15.09375 -20.796875 
L 7.90625 -20.796875 
L 7.90625 -13.28125 
L 13.1875 -13.28125 
Q 16.890625 -13.28125 18.9375 -11.515625 
Q 21 -9.765625 23.484375 -3.21875 
L 25.09375 0.875 
L 2.984375 54.6875 
L 12.5 54.6875 
L 29.59375 11.921875 
L 46.6875 54.6875 
L 56.203125 54.6875 
z
" id="DejaVuSans-121"/>
      </defs>
      <use xlink:href="#DejaVuSans-121"/>
     </g>
    </g>
   </g>
   <g id="line2d_11">
    <path clip-path="url(#pe40bc139f0)" d="M 363.083778 57.925876 
L 363.197641 52.239022 
" style="fill:none;stroke:#0000ff;stroke-linecap:square;"/>
   </g>
   <g id="line2d_12">
    <path clip-path="url(#pe40bc139f0)" d="M 363.197641 52.239022 
L 338.985195 52.107817 
" style="fill:none;stroke:#0000ff;stroke-linecap:square;"/>
   </g>
   <g id="line2d_13">
    <path clip-path="url(#pe40bc139f0)" d="M 338.985195 52.107817 
L 338.871329 57.794681 
" style="fill:none;stroke:#0000ff;stroke-linecap:square;"/>
   </g>
   <g id="line2d_14">
    <path clip-path="url(#pe40bc139f0)" d="M 338.871329 57.794681 
L 363.083778 57.925876 
" style="fill:none;stroke:#0000ff;stroke-linecap:square;"/>
   </g>
   <g id="line2d_15">
    <path clip-path="url(#pe40bc139f0)" d="M 531.467392 55.411745 
L 522.282331 55.408015 
L 391.986891 55.234211 
L 389.486861 55.110407 
L 387.789312 54.868454 
L 386.099492 54.463508 
L 382.388467 53.276427 
L 378.011854 51.637008 
L 374.483619 50.108678 
L 369.251467 47.732812 
L 366.129778 46.608365 
L 362.673655 45.657099 
L 358.95785 44.976727 
L 355.012869 44.542259 
L 350.866481 44.271707 
L 348.763659 44.187874 
L 347.423611 44.313283 
L 347.19401 44.544225 
L 346.287305 44.584597 
L 327.133175 44.570177 
L 312.407808 44.840208 
L 308.668345 45.094214 
L 305.260603 45.577398 
L 302.27422 46.307388 
L 299.620041 47.269303 
L 297.165174 48.449023 
L 294.85038 49.819093 
L 290.376332 52.685985 
L 287.982013 53.940373 
L 285.43248 54.993943 
L 282.712891 55.803194 
L 279.832084 56.33423 
L 276.762658 56.636631 
L 271.839008 56.846264 
L 267.031584 56.849032 
L 251.893322 56.424501 
L 239.078307 55.752713 
L 227.199325 55.294018 
L 209.824501 54.760695 
L 185.042555 54.300294 
L 150.061592 53.955134 
L 71.91767 53.487273 
L 57.563802 53.386814 
L 53.615441 53.077634 
L 49.927406 52.490301 
L 46.587311 51.607727 
L 43.541026 50.444512 
L 40.747416 49.015358 
L 33.521086 44.970049 
L 30.427728 43.576714 
L 27.187947 42.456078 
L 23.800277 41.662652 
L 20.267148 41.200326 
L 16.562189 41.030534 
L 12.708879 41.150648 
L 8.796275 41.574326 
L 4.987263 42.301247 
L 1.350388 43.275416 
L -1 44.027679 
L -1 44.027679 
" style="fill:none;stroke:#000000;stroke-linecap:square;stroke-width:0.5;"/>
   </g>
   <g id="line2d_16">
    <path clip-path="url(#pe40bc139f0)" d="M 338.939125 44.446045 
L 337.699267 44.354587 
L 336.866469 44.510478 
L 335.745161 44.551857 
L 334.362797 44.493068 
L 333.031899 44.496636 
L 331.719596 44.545619 
L 330.517571 44.687838 
L 328.781705 44.588302 
L 327.332353 44.673792 
L 325.130948 44.40405 
L 323.873996 44.661585 
L 321.880347 44.571802 
L 320.244151 44.703782 
L 318.466607 44.797567 
L 316.402587 44.772773 
L 314.532621 44.867372 
L 312.25949 44.76305 
L 310.52399 44.952786 
L 308.549975 45.032636 
L 306.937163 45.31559 
L 305.033645 45.45933 
L 303.820895 45.967837 
L 302.495423 46.422461 
L 301.04561 46.827712 
L 299.719419 47.321001 
L 298.126765 47.704061 
L 297.074817 48.402018 
L 295.660741 48.943935 
L 294.853729 49.820836 
L 293.739505 50.546252 
L 292.743318 51.335425 
L 291.521235 51.998545 
L 290.27058 52.630971 
L 289.577747 53.532713 
L 287.998289 53.948841 
L 287.232261 54.757723 
L 285.414227 54.984448 
L 284.378786 55.579642 
L 282.359303 55.619251 
L 281.298598 56.106309 
L 280.326789 56.591584 
L 277.835251 56.252943 
L 276.8691 56.692004 
L 275.392262 56.86062 
L 273.307621 56.705079 
L 272.166732 57.016752 
L 270.435295 56.985232 
L 268.921341 57.03042 
L 267.925616 57.314122 
L 265.138166 56.640369 
L 263.937546 56.788551 
L 262.180566 56.649371 
L 260.917524 56.755774 
L 258.822356 56.417103 
L 257.289534 56.359998 
L 256.788053 56.829771 
L 254.948551 56.594739 
L 253.548066 56.579809 
L 251.171857 56.049183 
L 251.270425 56.797759 
L 249.063045 56.33838 
L 247.42882 56.168827 
L 246.43083 56.321996 
L 244.918667 56.199893 
L 243.926573 56.340977 
L 241.234764 55.591108 
L 240.143219 55.66765 
L 239.686328 56.069015 
L 236.372906 55.000446 
L 235.490787 55.210027 
L 234.489412 55.367327 
L 235.434841 56.554578 
L 231.903722 55.434963 
L 230.649934 55.524705 
L 228.298242 55.069749 
L 227.119159 55.252314 
L 224.44111 54.683382 
L 223.309914 54.947912 
L 220.919168 54.586235 
L 220.589043 55.325833 
L 216.63876 54.211568 
L 216.397383 55.065915 
L 214.082718 54.877102 
L 211.474908 54.561793 
L 209.974544 54.838749 
L 207.992342 54.868436 
L 204.821058 54.274097 
L 203.004246 54.376375 
L 201.645926 54.709236 
L 199.787024 54.774124 
L 197.040266 54.370698 
L 194.730455 54.190607 
L 191.851384 53.713245 
L 190.993952 54.289037 
L 189.646715 54.617986 
L 186.100278 53.809454 
L 182.783246 53.124965 
L 181.384397 53.442357 
L 180.937125 54.257563 
L 177.783795 53.666568 
L 176.409688 54.001515 
L 173.454265 53.513474 
" style="fill:none;stroke:#ff0000;stroke-linecap:square;"/>
   </g>
   <g id="patch_3">
    <path d="M 51.95 119.55 
L 51.95 14.4 
" style="fill:none;stroke:#000000;stroke-linecap:square;stroke-linejoin:miter;stroke-width:0.8;"/>
   </g>
   <g id="patch_4">
    <path d="M 557.26875 119.55 
L 557.26875 14.4 
" style="fill:none;stroke:#000000;stroke-linecap:square;stroke-linejoin:miter;stroke-width:0.8;"/>
   </g>
   <g id="patch_5">
    <path d="M 51.95 119.55 
L 557.26875 119.55 
" style="fill:none;stroke:#000000;stroke-linecap:square;stroke-linejoin:miter;stroke-width:0.8;"/>
   </g>
   <g id="patch_6">
    <path d="M 51.95 14.4 
L 557.26875 14.4 
" style="fill:none;stroke:#000000;stroke-linecap:square;stroke-linejoin:miter;stroke-width:0.8;"/>
   </g>
   <g id="legend_1">
    <g id="patch_7">
     <path d="M 397.507813 81.1125 
L 550.26875 81.1125 
Q 552.26875 81.1125 552.26875 79.1125 
L 552.26875 21.4 
Q 552.26875 19.4 550.26875 19.4 
L 397.507813 19.4 
Q 395.507813 19.4 395.507813 21.4 
L 395.507813 79.1125 
Q 395.507813 81.1125 397.507813 81.1125 
z
" style="fill:#ffffff;opacity:0.8;stroke:#cccccc;stroke-linejoin:miter;"/>
    </g>
    <g id="line2d_17">
     <path d="M 399.507813 27.498438 
L 419.507813 27.498438 
" style="fill:none;stroke:#0000ff;stroke-linecap:square;"/>
    </g>
    <g id="line2d_18"/>
    <g id="text_13">
     <!-- Egofahrzeug -->
     <g transform="translate(427.507813 30.998438)scale(0.1 -0.1)">
      <defs>
       <path d="M 9.8125 72.90625 
L 55.90625 72.90625 
L 55.90625 64.59375 
L 19.671875 64.59375 
L 19.671875 43.015625 
L 54.390625 43.015625 
L 54.390625 34.71875 
L 19.671875 34.71875 
L 19.671875 8.296875 
L 56.78125 8.296875 
L 56.78125 0 
L 9.8125 0 
z
" id="DejaVuSans-69"/>
       <path d="M 45.40625 27.984375 
Q 45.40625 37.75 41.375 43.109375 
Q 37.359375 48.484375 30.078125 48.484375 
Q 22.859375 48.484375 18.828125 43.109375 
Q 14.796875 37.75 14.796875 27.984375 
Q 14.796875 18.265625 18.828125 12.890625 
Q 22.859375 7.515625 30.078125 7.515625 
Q 37.359375 7.515625 41.375 12.890625 
Q 45.40625 18.265625 45.40625 27.984375 
z
M 54.390625 6.78125 
Q 54.390625 -7.171875 48.1875 -13.984375 
Q 42 -20.796875 29.203125 -20.796875 
Q 24.46875 -20.796875 20.265625 -20.09375 
Q 16.0625 -19.390625 12.109375 -17.921875 
L 12.109375 -9.1875 
Q 16.0625 -11.328125 19.921875 -12.34375 
Q 23.78125 -13.375 27.78125 -13.375 
Q 36.625 -13.375 41.015625 -8.765625 
Q 45.40625 -4.15625 45.40625 5.171875 
L 45.40625 9.625 
Q 42.625 4.78125 38.28125 2.390625 
Q 33.9375 0 27.875 0 
Q 17.828125 0 11.671875 7.65625 
Q 5.515625 15.328125 5.515625 27.984375 
Q 5.515625 40.671875 11.671875 48.328125 
Q 17.828125 56 27.875 56 
Q 33.9375 56 38.28125 53.609375 
Q 42.625 51.21875 45.40625 46.390625 
L 45.40625 54.6875 
L 54.390625 54.6875 
z
" id="DejaVuSans-103"/>
       <path d="M 30.609375 48.390625 
Q 23.390625 48.390625 19.1875 42.75 
Q 14.984375 37.109375 14.984375 27.296875 
Q 14.984375 17.484375 19.15625 11.84375 
Q 23.34375 6.203125 30.609375 6.203125 
Q 37.796875 6.203125 41.984375 11.859375 
Q 46.1875 17.53125 46.1875 27.296875 
Q 46.1875 37.015625 41.984375 42.703125 
Q 37.796875 48.390625 30.609375 48.390625 
z
M 30.609375 56 
Q 42.328125 56 49.015625 48.375 
Q 55.71875 40.765625 55.71875 27.296875 
Q 55.71875 13.875 49.015625 6.21875 
Q 42.328125 -1.421875 30.609375 -1.421875 
Q 18.84375 -1.421875 12.171875 6.21875 
Q 5.515625 13.875 5.515625 27.296875 
Q 5.515625 40.765625 12.171875 48.375 
Q 18.84375 56 30.609375 56 
z
" id="DejaVuSans-111"/>
       <path d="M 37.109375 75.984375 
L 37.109375 68.5 
L 28.515625 68.5 
Q 23.6875 68.5 21.796875 66.546875 
Q 19.921875 64.59375 19.921875 59.515625 
L 19.921875 54.6875 
L 34.71875 54.6875 
L 34.71875 47.703125 
L 19.921875 47.703125 
L 19.921875 0 
L 10.890625 0 
L 10.890625 47.703125 
L 2.296875 47.703125 
L 2.296875 54.6875 
L 10.890625 54.6875 
L 10.890625 58.5 
Q 10.890625 67.625 15.140625 71.796875 
Q 19.390625 75.984375 28.609375 75.984375 
z
" id="DejaVuSans-102"/>
       <path d="M 34.28125 27.484375 
Q 23.390625 27.484375 19.1875 25 
Q 14.984375 22.515625 14.984375 16.5 
Q 14.984375 11.71875 18.140625 8.90625 
Q 21.296875 6.109375 26.703125 6.109375 
Q 34.1875 6.109375 38.703125 11.40625 
Q 43.21875 16.703125 43.21875 25.484375 
L 43.21875 27.484375 
z
M 52.203125 31.203125 
L 52.203125 0 
L 43.21875 0 
L 43.21875 8.296875 
Q 40.140625 3.328125 35.546875 0.953125 
Q 30.953125 -1.421875 24.3125 -1.421875 
Q 15.921875 -1.421875 10.953125 3.296875 
Q 6 8.015625 6 15.921875 
Q 6 25.140625 12.171875 29.828125 
Q 18.359375 34.515625 30.609375 34.515625 
L 43.21875 34.515625 
L 43.21875 35.40625 
Q 43.21875 41.609375 39.140625 45 
Q 35.0625 48.390625 27.6875 48.390625 
Q 23 48.390625 18.546875 47.265625 
Q 14.109375 46.140625 10.015625 43.890625 
L 10.015625 52.203125 
Q 14.9375 54.109375 19.578125 55.046875 
Q 24.21875 56 28.609375 56 
Q 40.484375 56 46.34375 49.84375 
Q 52.203125 43.703125 52.203125 31.203125 
z
" id="DejaVuSans-97"/>
       <path d="M 54.890625 33.015625 
L 54.890625 0 
L 45.90625 0 
L 45.90625 32.71875 
Q 45.90625 40.484375 42.875 44.328125 
Q 39.84375 48.1875 33.796875 48.1875 
Q 26.515625 48.1875 22.3125 43.546875 
Q 18.109375 38.921875 18.109375 30.90625 
L 18.109375 0 
L 9.078125 0 
L 9.078125 75.984375 
L 18.109375 75.984375 
L 18.109375 46.1875 
Q 21.34375 51.125 25.703125 53.5625 
Q 30.078125 56 35.796875 56 
Q 45.21875 56 50.046875 50.171875 
Q 54.890625 44.34375 54.890625 33.015625 
z
" id="DejaVuSans-104"/>
       <path d="M 41.109375 46.296875 
Q 39.59375 47.171875 37.8125 47.578125 
Q 36.03125 48 33.890625 48 
Q 26.265625 48 22.1875 43.046875 
Q 18.109375 38.09375 18.109375 28.8125 
L 18.109375 0 
L 9.078125 0 
L 9.078125 54.6875 
L 18.109375 54.6875 
L 18.109375 46.1875 
Q 20.953125 51.171875 25.484375 53.578125 
Q 30.03125 56 36.53125 56 
Q 37.453125 56 38.578125 55.875 
Q 39.703125 55.765625 41.0625 55.515625 
z
" id="DejaVuSans-114"/>
       <path d="M 5.515625 54.6875 
L 48.1875 54.6875 
L 48.1875 46.484375 
L 14.40625 7.171875 
L 48.1875 7.171875 
L 48.1875 0 
L 4.296875 0 
L 4.296875 8.203125 
L 38.09375 47.515625 
L 5.515625 47.515625 
z
" id="DejaVuSans-122"/>
       <path d="M 56.203125 29.59375 
L 56.203125 25.203125 
L 14.890625 25.203125 
Q 15.484375 15.921875 20.484375 11.0625 
Q 25.484375 6.203125 34.421875 6.203125 
Q 39.59375 6.203125 44.453125 7.46875 
Q 49.3125 8.734375 54.109375 11.28125 
L 54.109375 2.78125 
Q 49.265625 0.734375 44.1875 -0.34375 
Q 39.109375 -1.421875 33.890625 -1.421875 
Q 20.796875 -1.421875 13.15625 6.1875 
Q 5.515625 13.8125 5.515625 26.8125 
Q 5.515625 40.234375 12.765625 48.109375 
Q 20.015625 56 32.328125 56 
Q 43.359375 56 49.78125 48.890625 
Q 56.203125 41.796875 56.203125 29.59375 
z
M 47.21875 32.234375 
Q 47.125 39.59375 43.09375 43.984375 
Q 39.0625 48.390625 32.421875 48.390625 
Q 24.90625 48.390625 20.390625 44.140625 
Q 15.875 39.890625 15.1875 32.171875 
z
" id="DejaVuSans-101"/>
       <path d="M 8.5 21.578125 
L 8.5 54.6875 
L 17.484375 54.6875 
L 17.484375 21.921875 
Q 17.484375 14.15625 20.5 10.265625 
Q 23.53125 6.390625 29.59375 6.390625 
Q 36.859375 6.390625 41.078125 11.03125 
Q 45.3125 15.671875 45.3125 23.6875 
L 45.3125 54.6875 
L 54.296875 54.6875 
L 54.296875 0 
L 45.3125 0 
L 45.3125 8.40625 
Q 42.046875 3.421875 37.71875 1 
Q 33.40625 -1.421875 27.6875 -1.421875 
Q 18.265625 -1.421875 13.375 4.4375 
Q 8.5 10.296875 8.5 21.578125 
z
M 31.109375 56 
z
" id="DejaVuSans-117"/>
      </defs>
      <use xlink:href="#DejaVuSans-69"/>
      <use x="63.183594" xlink:href="#DejaVuSans-103"/>
      <use x="126.660156" xlink:href="#DejaVuSans-111"/>
      <use x="187.841797" xlink:href="#DejaVuSans-102"/>
      <use x="223.046875" xlink:href="#DejaVuSans-97"/>
      <use x="284.326172" xlink:href="#DejaVuSans-104"/>
      <use x="347.705078" xlink:href="#DejaVuSans-114"/>
      <use x="388.818359" xlink:href="#DejaVuSans-122"/>
      <use x="441.308594" xlink:href="#DejaVuSans-101"/>
      <use x="502.832031" xlink:href="#DejaVuSans-117"/>
      <use x="566.210938" xlink:href="#DejaVuSans-103"/>
     </g>
    </g>
    <g id="line2d_19">
     <path d="M 399.507813 42.176563 
L 419.507813 42.176563 
" style="fill:none;stroke:#000000;stroke-linecap:square;stroke-width:0.5;"/>
    </g>
    <g id="line2d_20"/>
    <g id="text_14">
     <!-- Ground Truth - Fahrzeug -->
     <g transform="translate(427.507813 45.676563)scale(0.1 -0.1)">
      <defs>
       <path d="M 59.515625 10.40625 
L 59.515625 29.984375 
L 43.40625 29.984375 
L 43.40625 38.09375 
L 69.28125 38.09375 
L 69.28125 6.78125 
Q 63.578125 2.734375 56.6875 0.65625 
Q 49.8125 -1.421875 42 -1.421875 
Q 24.90625 -1.421875 15.25 8.5625 
Q 5.609375 18.5625 5.609375 36.375 
Q 5.609375 54.25 15.25 64.234375 
Q 24.90625 74.21875 42 74.21875 
Q 49.125 74.21875 55.546875 72.453125 
Q 61.96875 70.703125 67.390625 67.28125 
L 67.390625 56.78125 
Q 61.921875 61.421875 55.765625 63.765625 
Q 49.609375 66.109375 42.828125 66.109375 
Q 29.4375 66.109375 22.71875 58.640625 
Q 16.015625 51.171875 16.015625 36.375 
Q 16.015625 21.625 22.71875 14.15625 
Q 29.4375 6.6875 42.828125 6.6875 
Q 48.046875 6.6875 52.140625 7.59375 
Q 56.25 8.5 59.515625 10.40625 
z
" id="DejaVuSans-71"/>
       <path d="M 54.890625 33.015625 
L 54.890625 0 
L 45.90625 0 
L 45.90625 32.71875 
Q 45.90625 40.484375 42.875 44.328125 
Q 39.84375 48.1875 33.796875 48.1875 
Q 26.515625 48.1875 22.3125 43.546875 
Q 18.109375 38.921875 18.109375 30.90625 
L 18.109375 0 
L 9.078125 0 
L 9.078125 54.6875 
L 18.109375 54.6875 
L 18.109375 46.1875 
Q 21.34375 51.125 25.703125 53.5625 
Q 30.078125 56 35.796875 56 
Q 45.21875 56 50.046875 50.171875 
Q 54.890625 44.34375 54.890625 33.015625 
z
" id="DejaVuSans-110"/>
       <path d="M 45.40625 46.390625 
L 45.40625 75.984375 
L 54.390625 75.984375 
L 54.390625 0 
L 45.40625 0 
L 45.40625 8.203125 
Q 42.578125 3.328125 38.25 0.953125 
Q 33.9375 -1.421875 27.875 -1.421875 
Q 17.96875 -1.421875 11.734375 6.484375 
Q 5.515625 14.40625 5.515625 27.296875 
Q 5.515625 40.1875 11.734375 48.09375 
Q 17.96875 56 27.875 56 
Q 33.9375 56 38.25 53.625 
Q 42.578125 51.265625 45.40625 46.390625 
z
M 14.796875 27.296875 
Q 14.796875 17.390625 18.875 11.75 
Q 22.953125 6.109375 30.078125 6.109375 
Q 37.203125 6.109375 41.296875 11.75 
Q 45.40625 17.390625 45.40625 27.296875 
Q 45.40625 37.203125 41.296875 42.84375 
Q 37.203125 48.484375 30.078125 48.484375 
Q 22.953125 48.484375 18.875 42.84375 
Q 14.796875 37.203125 14.796875 27.296875 
z
" id="DejaVuSans-100"/>
       <path id="DejaVuSans-32"/>
       <path d="M -0.296875 72.90625 
L 61.375 72.90625 
L 61.375 64.59375 
L 35.5 64.59375 
L 35.5 0 
L 25.59375 0 
L 25.59375 64.59375 
L -0.296875 64.59375 
z
" id="DejaVuSans-84"/>
       <path d="M 18.3125 70.21875 
L 18.3125 54.6875 
L 36.8125 54.6875 
L 36.8125 47.703125 
L 18.3125 47.703125 
L 18.3125 18.015625 
Q 18.3125 11.328125 20.140625 9.421875 
Q 21.96875 7.515625 27.59375 7.515625 
L 36.8125 7.515625 
L 36.8125 0 
L 27.59375 0 
Q 17.1875 0 13.234375 3.875 
Q 9.28125 7.765625 9.28125 18.015625 
L 9.28125 47.703125 
L 2.6875 47.703125 
L 2.6875 54.6875 
L 9.28125 54.6875 
L 9.28125 70.21875 
z
" id="DejaVuSans-116"/>
       <path d="M 4.890625 31.390625 
L 31.203125 31.390625 
L 31.203125 23.390625 
L 4.890625 23.390625 
z
" id="DejaVuSans-45"/>
       <path d="M 9.8125 72.90625 
L 51.703125 72.90625 
L 51.703125 64.59375 
L 19.671875 64.59375 
L 19.671875 43.109375 
L 48.578125 43.109375 
L 48.578125 34.8125 
L 19.671875 34.8125 
L 19.671875 0 
L 9.8125 0 
z
" id="DejaVuSans-70"/>
      </defs>
      <use xlink:href="#DejaVuSans-71"/>
      <use x="77.490234" xlink:href="#DejaVuSans-114"/>
      <use x="116.353516" xlink:href="#DejaVuSans-111"/>
      <use x="177.535156" xlink:href="#DejaVuSans-117"/>
      <use x="240.914062" xlink:href="#DejaVuSans-110"/>
      <use x="304.292969" xlink:href="#DejaVuSans-100"/>
      <use x="367.769531" xlink:href="#DejaVuSans-32"/>
      <use x="399.556641" xlink:href="#DejaVuSans-84"/>
      <use x="445.890625" xlink:href="#DejaVuSans-114"/>
      <use x="487.003906" xlink:href="#DejaVuSans-117"/>
      <use x="550.382812" xlink:href="#DejaVuSans-116"/>
      <use x="589.591797" xlink:href="#DejaVuSans-104"/>
      <use x="652.970703" xlink:href="#DejaVuSans-32"/>
      <use x="684.757812" xlink:href="#DejaVuSans-45"/>
      <use x="720.841797" xlink:href="#DejaVuSans-32"/>
      <use x="752.628906" xlink:href="#DejaVuSans-70"/>
      <use x="801.023438" xlink:href="#DejaVuSans-97"/>
      <use x="862.302734" xlink:href="#DejaVuSans-104"/>
      <use x="925.681641" xlink:href="#DejaVuSans-114"/>
      <use x="966.794922" xlink:href="#DejaVuSans-122"/>
      <use x="1019.285156" xlink:href="#DejaVuSans-101"/>
      <use x="1080.808594" xlink:href="#DejaVuSans-117"/>
      <use x="1144.1875" xlink:href="#DejaVuSans-103"/>
     </g>
    </g>
    <g id="line2d_21">
     <path d="M 399.507813 56.854688 
L 419.507813 56.854688 
" style="fill:none;stroke:#ff0000;stroke-linecap:square;"/>
    </g>
    <g id="line2d_22"/>
    <g id="text_15">
     <!-- Sensordaten - Fahrzeug -->
     <g transform="translate(427.507813 60.354688)scale(0.1 -0.1)">
      <defs>
       <path d="M 53.515625 70.515625 
L 53.515625 60.890625 
Q 47.90625 63.578125 42.921875 64.890625 
Q 37.9375 66.21875 33.296875 66.21875 
Q 25.25 66.21875 20.875 63.09375 
Q 16.5 59.96875 16.5 54.203125 
Q 16.5 49.359375 19.40625 46.890625 
Q 22.3125 44.4375 30.421875 42.921875 
L 36.375 41.703125 
Q 47.40625 39.59375 52.65625 34.296875 
Q 57.90625 29 57.90625 20.125 
Q 57.90625 9.515625 50.796875 4.046875 
Q 43.703125 -1.421875 29.984375 -1.421875 
Q 24.8125 -1.421875 18.96875 -0.25 
Q 13.140625 0.921875 6.890625 3.21875 
L 6.890625 13.375 
Q 12.890625 10.015625 18.65625 8.296875 
Q 24.421875 6.59375 29.984375 6.59375 
Q 38.421875 6.59375 43.015625 9.90625 
Q 47.609375 13.234375 47.609375 19.390625 
Q 47.609375 24.75 44.3125 27.78125 
Q 41.015625 30.8125 33.5 32.328125 
L 27.484375 33.5 
Q 16.453125 35.6875 11.515625 40.375 
Q 6.59375 45.0625 6.59375 53.421875 
Q 6.59375 63.09375 13.40625 68.65625 
Q 20.21875 74.21875 32.171875 74.21875 
Q 37.3125 74.21875 42.625 73.28125 
Q 47.953125 72.359375 53.515625 70.515625 
z
" id="DejaVuSans-83"/>
       <path d="M 44.28125 53.078125 
L 44.28125 44.578125 
Q 40.484375 46.53125 36.375 47.5 
Q 32.28125 48.484375 27.875 48.484375 
Q 21.1875 48.484375 17.84375 46.4375 
Q 14.5 44.390625 14.5 40.28125 
Q 14.5 37.15625 16.890625 35.375 
Q 19.28125 33.59375 26.515625 31.984375 
L 29.59375 31.296875 
Q 39.15625 29.25 43.1875 25.515625 
Q 47.21875 21.78125 47.21875 15.09375 
Q 47.21875 7.46875 41.1875 3.015625 
Q 35.15625 -1.421875 24.609375 -1.421875 
Q 20.21875 -1.421875 15.453125 -0.5625 
Q 10.6875 0.296875 5.421875 2 
L 5.421875 11.28125 
Q 10.40625 8.6875 15.234375 7.390625 
Q 20.0625 6.109375 24.8125 6.109375 
Q 31.15625 6.109375 34.5625 8.28125 
Q 37.984375 10.453125 37.984375 14.40625 
Q 37.984375 18.0625 35.515625 20.015625 
Q 33.0625 21.96875 24.703125 23.78125 
L 21.578125 24.515625 
Q 13.234375 26.265625 9.515625 29.90625 
Q 5.8125 33.546875 5.8125 39.890625 
Q 5.8125 47.609375 11.28125 51.796875 
Q 16.75 56 26.8125 56 
Q 31.78125 56 36.171875 55.265625 
Q 40.578125 54.546875 44.28125 53.078125 
z
" id="DejaVuSans-115"/>
      </defs>
      <use xlink:href="#DejaVuSans-83"/>
      <use x="63.476562" xlink:href="#DejaVuSans-101"/>
      <use x="125" xlink:href="#DejaVuSans-110"/>
      <use x="188.378906" xlink:href="#DejaVuSans-115"/>
      <use x="240.478516" xlink:href="#DejaVuSans-111"/>
      <use x="301.660156" xlink:href="#DejaVuSans-114"/>
      <use x="341.023438" xlink:href="#DejaVuSans-100"/>
      <use x="404.5" xlink:href="#DejaVuSans-97"/>
      <use x="465.779297" xlink:href="#DejaVuSans-116"/>
      <use x="504.988281" xlink:href="#DejaVuSans-101"/>
      <use x="566.511719" xlink:href="#DejaVuSans-110"/>
      <use x="629.890625" xlink:href="#DejaVuSans-32"/>
      <use x="661.677734" xlink:href="#DejaVuSans-45"/>
      <use x="697.761719" xlink:href="#DejaVuSans-32"/>
      <use x="729.548828" xlink:href="#DejaVuSans-70"/>
      <use x="777.943359" xlink:href="#DejaVuSans-97"/>
      <use x="839.222656" xlink:href="#DejaVuSans-104"/>
      <use x="902.601562" xlink:href="#DejaVuSans-114"/>
      <use x="943.714844" xlink:href="#DejaVuSans-122"/>
      <use x="996.205078" xlink:href="#DejaVuSans-101"/>
      <use x="1057.728516" xlink:href="#DejaVuSans-117"/>
      <use x="1121.107422" xlink:href="#DejaVuSans-103"/>
     </g>
    </g>
    <g id="PathCollection_23">
     <g>
      <use style="stroke:#000000;" x="409.507813" xlink:href="#mff4b235bd8" y="72.407813"/>
     </g>
    </g>
    <g id="text_16">
     <!-- Ground Truth - Ampel -->
     <g transform="translate(427.507813 75.032813)scale(0.1 -0.1)">
      <defs>
       <path d="M 34.1875 63.1875 
L 20.796875 26.90625 
L 47.609375 26.90625 
z
M 28.609375 72.90625 
L 39.796875 72.90625 
L 67.578125 0 
L 57.328125 0 
L 50.6875 18.703125 
L 17.828125 18.703125 
L 11.1875 0 
L 0.78125 0 
z
" id="DejaVuSans-65"/>
       <path d="M 52 44.1875 
Q 55.375 50.25 60.0625 53.125 
Q 64.75 56 71.09375 56 
Q 79.640625 56 84.28125 50.015625 
Q 88.921875 44.046875 88.921875 33.015625 
L 88.921875 0 
L 79.890625 0 
L 79.890625 32.71875 
Q 79.890625 40.578125 77.09375 44.375 
Q 74.3125 48.1875 68.609375 48.1875 
Q 61.625 48.1875 57.5625 43.546875 
Q 53.515625 38.921875 53.515625 30.90625 
L 53.515625 0 
L 44.484375 0 
L 44.484375 32.71875 
Q 44.484375 40.625 41.703125 44.40625 
Q 38.921875 48.1875 33.109375 48.1875 
Q 26.21875 48.1875 22.15625 43.53125 
Q 18.109375 38.875 18.109375 30.90625 
L 18.109375 0 
L 9.078125 0 
L 9.078125 54.6875 
L 18.109375 54.6875 
L 18.109375 46.1875 
Q 21.1875 51.21875 25.484375 53.609375 
Q 29.78125 56 35.6875 56 
Q 41.65625 56 45.828125 52.96875 
Q 50 49.953125 52 44.1875 
z
" id="DejaVuSans-109"/>
       <path d="M 18.109375 8.203125 
L 18.109375 -20.796875 
L 9.078125 -20.796875 
L 9.078125 54.6875 
L 18.109375 54.6875 
L 18.109375 46.390625 
Q 20.953125 51.265625 25.265625 53.625 
Q 29.59375 56 35.59375 56 
Q 45.5625 56 51.78125 48.09375 
Q 58.015625 40.1875 58.015625 27.296875 
Q 58.015625 14.40625 51.78125 6.484375 
Q 45.5625 -1.421875 35.59375 -1.421875 
Q 29.59375 -1.421875 25.265625 0.953125 
Q 20.953125 3.328125 18.109375 8.203125 
z
M 48.6875 27.296875 
Q 48.6875 37.203125 44.609375 42.84375 
Q 40.53125 48.484375 33.40625 48.484375 
Q 26.265625 48.484375 22.1875 42.84375 
Q 18.109375 37.203125 18.109375 27.296875 
Q 18.109375 17.390625 22.1875 11.75 
Q 26.265625 6.109375 33.40625 6.109375 
Q 40.53125 6.109375 44.609375 11.75 
Q 48.6875 17.390625 48.6875 27.296875 
z
" id="DejaVuSans-112"/>
       <path d="M 9.421875 75.984375 
L 18.40625 75.984375 
L 18.40625 0 
L 9.421875 0 
z
" id="DejaVuSans-108"/>
      </defs>
      <use xlink:href="#DejaVuSans-71"/>
      <use x="77.490234" xlink:href="#DejaVuSans-114"/>
      <use x="116.353516" xlink:href="#DejaVuSans-111"/>
      <use x="177.535156" xlink:href="#DejaVuSans-117"/>
      <use x="240.914062" xlink:href="#DejaVuSans-110"/>
      <use x="304.292969" xlink:href="#DejaVuSans-100"/>
      <use x="367.769531" xlink:href="#DejaVuSans-32"/>
      <use x="399.556641" xlink:href="#DejaVuSans-84"/>
      <use x="445.890625" xlink:href="#DejaVuSans-114"/>
      <use x="487.003906" xlink:href="#DejaVuSans-117"/>
      <use x="550.382812" xlink:href="#DejaVuSans-116"/>
      <use x="589.591797" xlink:href="#DejaVuSans-104"/>
      <use x="652.970703" xlink:href="#DejaVuSans-32"/>
      <use x="684.757812" xlink:href="#DejaVuSans-45"/>
      <use x="720.841797" xlink:href="#DejaVuSans-32"/>
      <use x="752.628906" xlink:href="#DejaVuSans-65"/>
      <use x="821.037109" xlink:href="#DejaVuSans-109"/>
      <use x="918.449219" xlink:href="#DejaVuSans-112"/>
      <use x="981.925781" xlink:href="#DejaVuSans-101"/>
      <use x="1043.449219" xlink:href="#DejaVuSans-108"/>
     </g>
    </g>
   </g>
  </g>
  <g id="axes_2">
   <g id="patch_8">
    <path d="M 51.95 268.1 
L 557.26875 268.1 
L 557.26875 162.95 
L 51.95 162.95 
z
" style="fill:none;"/>
   </g>
   <g id="PathCollection_24">
    <g clip-path="url(#p18541b81a4)">
     <use style="stroke:#000000;" x="220.542747" xlink:href="#mff4b235bd8" y="461.547838"/>
    </g>
   </g>
   <g id="PathCollection_25">
    <g clip-path="url(#p18541b81a4)">
     <use style="stroke:#000000;" x="66.60776" xlink:href="#mff4b235bd8" y="698.572293"/>
    </g>
   </g>
   <g id="PathCollection_26">
    <g clip-path="url(#p18541b81a4)">
     <use style="stroke:#000000;" x="83.707471" xlink:href="#mff4b235bd8" y="756.586338"/>
    </g>
   </g>
   <g id="PathCollection_27">
    <g clip-path="url(#p18541b81a4)"/>
   </g>
   <g id="PathCollection_28">
    <g clip-path="url(#p18541b81a4)">
     <use style="stroke:#000000;" x="81.044998" xlink:href="#mff4b235bd8" y="237.873657"/>
    </g>
   </g>
   <g id="PathCollection_29">
    <g clip-path="url(#p18541b81a4)"/>
   </g>
   <g id="PathCollection_30">
    <g clip-path="url(#p18541b81a4)">
     <use style="stroke:#000000;" x="65.330488" xlink:href="#mff4b235bd8" y="426.342624"/>
    </g>
   </g>
   <g id="PathCollection_31">
    <g clip-path="url(#p18541b81a4)">
     <use style="stroke:#000000;" x="55.668182" xlink:href="#mff4b235bd8" y="391.817674"/>
    </g>
   </g>
   <g id="PathCollection_32">
    <g clip-path="url(#p18541b81a4)">
     <use style="stroke:#000000;" x="219.054659" xlink:href="#mff4b235bd8" y="426.618762"/>
    </g>
   </g>
   <g id="PathCollection_33">
    <g clip-path="url(#p18541b81a4)">
     <use style="stroke:#000000;" x="834.14242" xlink:href="#mff4b235bd8" y="428.249091"/>
    </g>
   </g>
   <g id="PathCollection_34">
    <g clip-path="url(#p18541b81a4)">
     <use style="stroke:#000000;" x="958.754043" xlink:href="#mff4b235bd8" y="428.968993"/>
    </g>
   </g>
   <g id="PathCollection_35">
    <g clip-path="url(#p18541b81a4)">
     <use style="stroke:#000000;" x="206.329154" xlink:href="#mff4b235bd8" y="239.12989"/>
    </g>
   </g>
   <g id="PathCollection_36">
    <g clip-path="url(#p18541b81a4)">
     <use style="stroke:#000000;" x="147.093549" xlink:href="#mff4b235bd8" y="179.888041"/>
    </g>
   </g>
   <g id="PathCollection_37">
    <g clip-path="url(#p18541b81a4)">
     <use style="stroke:#000000;" x="963.796821" xlink:href="#mff4b235bd8" y="465.374399"/>
    </g>
   </g>
   <g id="PathCollection_38">
    <g clip-path="url(#p18541b81a4)"/>
   </g>
   <g id="PathCollection_39">
    <g clip-path="url(#p18541b81a4)">
     <use style="stroke:#000000;" x="238.159913" xlink:href="#mff4b235bd8" y="546.825677"/>
    </g>
   </g>
   <g id="PathCollection_40">
    <g clip-path="url(#p18541b81a4)">
     <use style="stroke:#000000;" x="602.980643" xlink:href="#mff4b235bd8" y="472.61383"/>
    </g>
   </g>
   <g id="PathCollection_41">
    <g clip-path="url(#p18541b81a4)">
     <use style="stroke:#000000;" x="598.452217" xlink:href="#mff4b235bd8" y="547.930429"/>
    </g>
   </g>
   <g id="PathCollection_42">
    <g clip-path="url(#p18541b81a4)">
     <use style="stroke:#000000;" x="631.04528" xlink:href="#mff4b235bd8" y="474.456875"/>
    </g>
   </g>
   <g id="PathCollection_43">
    <g clip-path="url(#p18541b81a4)">
     <use style="stroke:#000000;" x="559.037358" xlink:href="#mff4b235bd8" y="514.150996"/>
    </g>
   </g>
   <g id="PathCollection_44">
    <g clip-path="url(#p18541b81a4)">
     <use style="stroke:#000000;" x="512.295374" xlink:href="#mff4b235bd8" y="570.800567"/>
    </g>
   </g>
   <g id="PathCollection_45">
    <g clip-path="url(#p18541b81a4)">
     <use style="stroke:#000000;" x="670.712794" xlink:href="#mff4b235bd8" y="533.998056"/>
    </g>
   </g>
   <g id="matplotlib.axis_3">
    <g id="xtick_6">
     <g id="line2d_23">
      <g>
       <use style="stroke:#000000;stroke-width:0.8;" x="77.215938" xlink:href="#m48ea5ec73b" y="268.1"/>
      </g>
     </g>
     <g id="text_17">
      <!-- −60 -->
      <g transform="translate(66.663594 282.698438)scale(0.1 -0.1)">
       <use xlink:href="#DejaVuSans-8722"/>
       <use x="83.789062" xlink:href="#DejaVuSans-54"/>
       <use x="147.412109" xlink:href="#DejaVuSans-48"/>
      </g>
     </g>
    </g>
    <g id="xtick_7">
     <g id="line2d_24">
      <g>
       <use style="stroke:#000000;stroke-width:0.8;" x="178.279688" xlink:href="#m48ea5ec73b" y="268.1"/>
      </g>
     </g>
     <g id="text_18">
      <!-- −40 -->
      <g transform="translate(167.727344 282.698438)scale(0.1 -0.1)">
       <use xlink:href="#DejaVuSans-8722"/>
       <use x="83.789062" xlink:href="#DejaVuSans-52"/>
       <use x="147.412109" xlink:href="#DejaVuSans-48"/>
      </g>
     </g>
    </g>
    <g id="xtick_8">
     <g id="line2d_25">
      <g>
       <use style="stroke:#000000;stroke-width:0.8;" x="279.343438" xlink:href="#m48ea5ec73b" y="268.1"/>
      </g>
     </g>
     <g id="text_19">
      <!-- −20 -->
      <g transform="translate(268.791094 282.698438)scale(0.1 -0.1)">
       <use xlink:href="#DejaVuSans-8722"/>
       <use x="83.789062" xlink:href="#DejaVuSans-50"/>
       <use x="147.412109" xlink:href="#DejaVuSans-48"/>
      </g>
     </g>
    </g>
    <g id="xtick_9">
     <g id="line2d_26">
      <g>
       <use style="stroke:#000000;stroke-width:0.8;" x="380.407188" xlink:href="#m48ea5ec73b" y="268.1"/>
      </g>
     </g>
     <g id="text_20">
      <!-- 0 -->
      <g transform="translate(377.225938 282.698438)scale(0.1 -0.1)">
       <use xlink:href="#DejaVuSans-48"/>
      </g>
     </g>
    </g>
    <g id="xtick_10">
     <g id="line2d_27">
      <g>
       <use style="stroke:#000000;stroke-width:0.8;" x="481.470938" xlink:href="#m48ea5ec73b" y="268.1"/>
      </g>
     </g>
     <g id="text_21">
      <!-- 20 -->
      <g transform="translate(475.108438 282.698438)scale(0.1 -0.1)">
       <use xlink:href="#DejaVuSans-50"/>
       <use x="63.623047" xlink:href="#DejaVuSans-48"/>
      </g>
     </g>
    </g>
    <g id="text_22">
     <!-- x -->
     <g transform="translate(301.65 296.376563)scale(0.1 -0.1)">
      <use xlink:href="#DejaVuSans-120"/>
     </g>
    </g>
   </g>
   <g id="matplotlib.axis_4">
    <g id="ytick_6">
     <g id="line2d_28">
      <g>
       <use style="stroke:#000000;stroke-width:0.8;" x="51.95" xlink:href="#mf6fd135122" y="162.95"/>
      </g>
     </g>
     <g id="text_23">
      <!-- −80 -->
      <g transform="translate(23.845313 166.749219)scale(0.1 -0.1)">
       <use xlink:href="#DejaVuSans-8722"/>
       <use x="83.789062" xlink:href="#DejaVuSans-56"/>
       <use x="147.412109" xlink:href="#DejaVuSans-48"/>
      </g>
     </g>
    </g>
    <g id="ytick_7">
     <g id="line2d_29">
      <g>
       <use style="stroke:#000000;stroke-width:0.8;" x="51.95" xlink:href="#mf6fd135122" y="189.2375"/>
      </g>
     </g>
     <g id="text_24">
      <!-- −70 -->
      <g transform="translate(23.845313 193.036719)scale(0.1 -0.1)">
       <use xlink:href="#DejaVuSans-8722"/>
       <use x="83.789062" xlink:href="#DejaVuSans-55"/>
       <use x="147.412109" xlink:href="#DejaVuSans-48"/>
      </g>
     </g>
    </g>
    <g id="ytick_8">
     <g id="line2d_30">
      <g>
       <use style="stroke:#000000;stroke-width:0.8;" x="51.95" xlink:href="#mf6fd135122" y="215.525"/>
      </g>
     </g>
     <g id="text_25">
      <!-- −60 -->
      <g transform="translate(23.845313 219.324219)scale(0.1 -0.1)">
       <use xlink:href="#DejaVuSans-8722"/>
       <use x="83.789062" xlink:href="#DejaVuSans-54"/>
       <use x="147.412109" xlink:href="#DejaVuSans-48"/>
      </g>
     </g>
    </g>
    <g id="ytick_9">
     <g id="line2d_31">
      <g>
       <use style="stroke:#000000;stroke-width:0.8;" x="51.95" xlink:href="#mf6fd135122" y="241.8125"/>
      </g>
     </g>
     <g id="text_26">
      <!-- −50 -->
      <g transform="translate(23.845313 245.611719)scale(0.1 -0.1)">
       <use xlink:href="#DejaVuSans-8722"/>
       <use x="83.789062" xlink:href="#DejaVuSans-53"/>
       <use x="147.412109" xlink:href="#DejaVuSans-48"/>
      </g>
     </g>
    </g>
    <g id="ytick_10">
     <g id="line2d_32">
      <g>
       <use style="stroke:#000000;stroke-width:0.8;" x="51.95" xlink:href="#mf6fd135122" y="268.1"/>
      </g>
     </g>
     <g id="text_27">
      <!-- −40 -->
      <g transform="translate(23.845313 271.899219)scale(0.1 -0.1)">
       <use xlink:href="#DejaVuSans-8722"/>
       <use x="83.789062" xlink:href="#DejaVuSans-52"/>
       <use x="147.412109" xlink:href="#DejaVuSans-48"/>
      </g>
     </g>
    </g>
    <g id="text_28">
     <!-- y -->
     <g transform="translate(17.765625 218.484375)rotate(-90)scale(0.1 -0.1)">
      <use xlink:href="#DejaVuSans-121"/>
     </g>
    </g>
   </g>
   <g id="line2d_33">
    <path clip-path="url(#p18541b81a4)" d="M 363.083778 206.475876 
L 363.197641 200.789022 
" style="fill:none;stroke:#0000ff;stroke-linecap:square;"/>
   </g>
   <g id="line2d_34">
    <path clip-path="url(#p18541b81a4)" d="M 363.197641 200.789022 
L 338.985195 200.657817 
" style="fill:none;stroke:#0000ff;stroke-linecap:square;"/>
   </g>
   <g id="line2d_35">
    <path clip-path="url(#p18541b81a4)" d="M 338.985195 200.657817 
L 338.871329 206.344681 
" style="fill:none;stroke:#0000ff;stroke-linecap:square;"/>
   </g>
   <g id="line2d_36">
    <path clip-path="url(#p18541b81a4)" d="M 338.871329 206.344681 
L 363.083778 206.475876 
" style="fill:none;stroke:#0000ff;stroke-linecap:square;"/>
   </g>
   <g id="line2d_37">
    <path clip-path="url(#p18541b81a4)" d="M 169.012837 329.730612 
L 169.012529 329.730446 
L 169.013454 329.651958 
L 170.011643 258.456804 
L 170.347842 253.985089 
L 171.022612 247.855524 
L 171.673903 244.563209 
L 172.473873 241.922787 
L 173.542633 239.313561 
L 175.258693 236.19899 
L 176.963882 233.735219 
L 179.073836 231.252324 
L 181.617663 228.781965 
L 184.620942 226.357493 
L 188.093563 224.009233 
L 192.027968 221.762726 
L 194.924013 220.364217 
L 199.589649 218.437268 
L 202.872648 217.281886 
L 206.279594 216.253636 
L 211.601359 214.956028 
L 217.150817 213.876646 
L 222.884104 213.087472 
L 226.766551 212.715086 
L 232.65029 212.380666 
L 240.595358 212.179136 
L 252.524749 212.166862 
L 403.495617 213.067466 
L 457.138695 213.138233 
L 577 213.127014 
L 577 213.127014 
" style="fill:none;stroke:#000000;stroke-linecap:square;stroke-width:0.5;"/>
   </g>
   <g id="line2d_38">
    <path clip-path="url(#p18541b81a4)" d="M 194.315362 220.047587 
L 195.988145 219.462749 
L 197.364211 218.727857 
L 198.885335 218.070873 
L 200.586957 217.518948 
L 202.961407 217.328059 
L 205.023389 216.99236 
L 206.076392 216.147927 
L 208.245714 215.905571 
L 210.460303 215.704183 
L 211.149856 214.721149 
L 212.814287 214.252853 
L 214.97901 214.053461 
L 217.377092 213.994358 
L 218.266762 213.173268 
L 221.807699 213.757458 
L 221.971005 212.612462 
L 225.701641 213.340708 
L 226.430875 212.540462 
L 228.38631 212.408345 
L 229.521984 211.869209 
L 232.531893 212.319074 
L 234.161697 212.065627 
L 236.587282 212.237645 
L 237.599804 211.687481 
L 241.064669 212.423279 
L 241.34854 211.51618 
L 244.798423 212.264425 
L 246.870037 212.304758 
L 248.325162 212.029973 
L 249.813592 211.778877 
L 252.288709 212.04407 
L 253.970353 211.900366 
L 256.755127 212.33118 
L 258.017883 211.972116 
L 260.419213 212.204394 
L 262.262688 212.147204 
L 263.790762 211.924272 
L 266.906108 212.527366 
L 268.864857 212.526763 
L 270.531768 212.374603 
L 272.463487 212.358681 
L 274.257363 212.271677 
L 276.420404 212.375376 
L 278.907729 212.648584 
L 280.240979 212.320225 
L 282.137309 212.285598 
L 284.518359 212.50189 
L 286.032995 212.268268 
L 288.494201 212.525843 
L 289.809727 212.188194 
L 292.082641 212.347415 
L 294.530341 212.598536 
L 295.439029 212.047849 
L 298.075271 212.396837 
L 300.652486 212.71392 
L 302.126884 212.458344 
L 304.282394 212.556104 
L 305.820813 212.334011 
L 308.592453 212.752517 
L 310.517648 212.731742 
L 312.157551 212.561631 
L 314.06711 212.532968 
L 316.140239 212.588446 
L 318.015347 212.542006 
L 319.890152 212.49438 
L 321.518467 212.319557 
L 324.209593 212.696632 
L 326.091842 212.653892 
L 328.054243 212.651867 
L 329.784372 212.530095 
L 331.855301 212.584579 
L 334.091276 212.725948 
L 335.922773 212.655815 
L 337.701761 212.559462 
L 339.808599 212.632714 
" style="fill:none;stroke:#ff0000;stroke-linecap:square;"/>
   </g>
   <g id="patch_9">
    <path d="M 51.95 268.1 
L 51.95 162.95 
" style="fill:none;stroke:#000000;stroke-linecap:square;stroke-linejoin:miter;stroke-width:0.8;"/>
   </g>
   <g id="patch_10">
    <path d="M 557.26875 268.1 
L 557.26875 162.95 
" style="fill:none;stroke:#000000;stroke-linecap:square;stroke-linejoin:miter;stroke-width:0.8;"/>
   </g>
   <g id="patch_11">
    <path d="M 51.95 268.1 
L 557.26875 268.1 
" style="fill:none;stroke:#000000;stroke-linecap:square;stroke-linejoin:miter;stroke-width:0.8;"/>
   </g>
   <g id="patch_12">
    <path d="M 51.95 162.95 
L 557.26875 162.95 
" style="fill:none;stroke:#000000;stroke-linecap:square;stroke-linejoin:miter;stroke-width:0.8;"/>
   </g>
   <g id="legend_2">
    <g id="patch_13">
     <path d="M 397.507813 229.6625 
L 550.26875 229.6625 
Q 552.26875 229.6625 552.26875 227.6625 
L 552.26875 169.95 
Q 552.26875 167.95 550.26875 167.95 
L 397.507813 167.95 
Q 395.507813 167.95 395.507813 169.95 
L 395.507813 227.6625 
Q 395.507813 229.6625 397.507813 229.6625 
z
" style="fill:#ffffff;opacity:0.8;stroke:#cccccc;stroke-linejoin:miter;"/>
    </g>
    <g id="line2d_39">
     <path d="M 399.507813 176.048438 
L 419.507813 176.048438 
" style="fill:none;stroke:#0000ff;stroke-linecap:square;"/>
    </g>
    <g id="line2d_40"/>
    <g id="text_29">
     <!-- Egofahrzeug -->
     <g transform="translate(427.507813 179.548438)scale(0.1 -0.1)">
      <use xlink:href="#DejaVuSans-69"/>
      <use x="63.183594" xlink:href="#DejaVuSans-103"/>
      <use x="126.660156" xlink:href="#DejaVuSans-111"/>
      <use x="187.841797" xlink:href="#DejaVuSans-102"/>
      <use x="223.046875" xlink:href="#DejaVuSans-97"/>
      <use x="284.326172" xlink:href="#DejaVuSans-104"/>
      <use x="347.705078" xlink:href="#DejaVuSans-114"/>
      <use x="388.818359" xlink:href="#DejaVuSans-122"/>
      <use x="441.308594" xlink:href="#DejaVuSans-101"/>
      <use x="502.832031" xlink:href="#DejaVuSans-117"/>
      <use x="566.210938" xlink:href="#DejaVuSans-103"/>
     </g>
    </g>
    <g id="line2d_41">
     <path d="M 399.507813 190.726563 
L 419.507813 190.726563 
" style="fill:none;stroke:#000000;stroke-linecap:square;stroke-width:0.5;"/>
    </g>
    <g id="line2d_42"/>
    <g id="text_30">
     <!-- Ground Truth - Fahrzeug -->
     <g transform="translate(427.507813 194.226563)scale(0.1 -0.1)">
      <use xlink:href="#DejaVuSans-71"/>
      <use x="77.490234" xlink:href="#DejaVuSans-114"/>
      <use x="116.353516" xlink:href="#DejaVuSans-111"/>
      <use x="177.535156" xlink:href="#DejaVuSans-117"/>
      <use x="240.914062" xlink:href="#DejaVuSans-110"/>
      <use x="304.292969" xlink:href="#DejaVuSans-100"/>
      <use x="367.769531" xlink:href="#DejaVuSans-32"/>
      <use x="399.556641" xlink:href="#DejaVuSans-84"/>
      <use x="445.890625" xlink:href="#DejaVuSans-114"/>
      <use x="487.003906" xlink:href="#DejaVuSans-117"/>
      <use x="550.382812" xlink:href="#DejaVuSans-116"/>
      <use x="589.591797" xlink:href="#DejaVuSans-104"/>
      <use x="652.970703" xlink:href="#DejaVuSans-32"/>
      <use x="684.757812" xlink:href="#DejaVuSans-45"/>
      <use x="720.841797" xlink:href="#DejaVuSans-32"/>
      <use x="752.628906" xlink:href="#DejaVuSans-70"/>
      <use x="801.023438" xlink:href="#DejaVuSans-97"/>
      <use x="862.302734" xlink:href="#DejaVuSans-104"/>
      <use x="925.681641" xlink:href="#DejaVuSans-114"/>
      <use x="966.794922" xlink:href="#DejaVuSans-122"/>
      <use x="1019.285156" xlink:href="#DejaVuSans-101"/>
      <use x="1080.808594" xlink:href="#DejaVuSans-117"/>
      <use x="1144.1875" xlink:href="#DejaVuSans-103"/>
     </g>
    </g>
    <g id="line2d_43">
     <path d="M 399.507813 205.404688 
L 419.507813 205.404688 
" style="fill:none;stroke:#ff0000;stroke-linecap:square;"/>
    </g>
    <g id="line2d_44"/>
    <g id="text_31">
     <!-- Sensordaten - Fahrzeug -->
     <g transform="translate(427.507813 208.904688)scale(0.1 -0.1)">
      <use xlink:href="#DejaVuSans-83"/>
      <use x="63.476562" xlink:href="#DejaVuSans-101"/>
      <use x="125" xlink:href="#DejaVuSans-110"/>
      <use x="188.378906" xlink:href="#DejaVuSans-115"/>
      <use x="240.478516" xlink:href="#DejaVuSans-111"/>
      <use x="301.660156" xlink:href="#DejaVuSans-114"/>
      <use x="341.023438" xlink:href="#DejaVuSans-100"/>
      <use x="404.5" xlink:href="#DejaVuSans-97"/>
      <use x="465.779297" xlink:href="#DejaVuSans-116"/>
      <use x="504.988281" xlink:href="#DejaVuSans-101"/>
      <use x="566.511719" xlink:href="#DejaVuSans-110"/>
      <use x="629.890625" xlink:href="#DejaVuSans-32"/>
      <use x="661.677734" xlink:href="#DejaVuSans-45"/>
      <use x="697.761719" xlink:href="#DejaVuSans-32"/>
      <use x="729.548828" xlink:href="#DejaVuSans-70"/>
      <use x="777.943359" xlink:href="#DejaVuSans-97"/>
      <use x="839.222656" xlink:href="#DejaVuSans-104"/>
      <use x="902.601562" xlink:href="#DejaVuSans-114"/>
      <use x="943.714844" xlink:href="#DejaVuSans-122"/>
      <use x="996.205078" xlink:href="#DejaVuSans-101"/>
      <use x="1057.728516" xlink:href="#DejaVuSans-117"/>
      <use x="1121.107422" xlink:href="#DejaVuSans-103"/>
     </g>
    </g>
    <g id="PathCollection_46">
     <g>
      <use style="stroke:#000000;" x="409.507813" xlink:href="#mff4b235bd8" y="220.957813"/>
     </g>
    </g>
    <g id="text_32">
     <!-- Ground Truth - Ampel -->
     <g transform="translate(427.507813 223.582813)scale(0.1 -0.1)">
      <use xlink:href="#DejaVuSans-71"/>
      <use x="77.490234" xlink:href="#DejaVuSans-114"/>
      <use x="116.353516" xlink:href="#DejaVuSans-111"/>
      <use x="177.535156" xlink:href="#DejaVuSans-117"/>
      <use x="240.914062" xlink:href="#DejaVuSans-110"/>
      <use x="304.292969" xlink:href="#DejaVuSans-100"/>
      <use x="367.769531" xlink:href="#DejaVuSans-32"/>
      <use x="399.556641" xlink:href="#DejaVuSans-84"/>
      <use x="445.890625" xlink:href="#DejaVuSans-114"/>
      <use x="487.003906" xlink:href="#DejaVuSans-117"/>
      <use x="550.382812" xlink:href="#DejaVuSans-116"/>
      <use x="589.591797" xlink:href="#DejaVuSans-104"/>
      <use x="652.970703" xlink:href="#DejaVuSans-32"/>
      <use x="684.757812" xlink:href="#DejaVuSans-45"/>
      <use x="720.841797" xlink:href="#DejaVuSans-32"/>
      <use x="752.628906" xlink:href="#DejaVuSans-65"/>
      <use x="821.037109" xlink:href="#DejaVuSans-109"/>
      <use x="918.449219" xlink:href="#DejaVuSans-112"/>
      <use x="981.925781" xlink:href="#DejaVuSans-101"/>
      <use x="1043.449219" xlink:href="#DejaVuSans-108"/>
     </g>
    </g>
   </g>
  </g>
  <g id="axes_3">
   <g id="patch_14">
    <path d="M 51.95 416.65 
L 557.26875 416.65 
L 557.26875 311.5 
L 51.95 311.5 
z
" style="fill:none;"/>
   </g>
   <g id="PathCollection_47">
    <g clip-path="url(#p75946720ab)">
     <use style="stroke:#000000;" x="220.542747" xlink:href="#mff4b235bd8" y="610.097838"/>
    </g>
   </g>
   <g id="PathCollection_48">
    <g clip-path="url(#p75946720ab)">
     <use style="stroke:#000000;" x="66.60776" xlink:href="#mff4b235bd8" y="847.122293"/>
    </g>
   </g>
   <g id="PathCollection_49">
    <g clip-path="url(#p75946720ab)">
     <use style="stroke:#000000;" x="83.707471" xlink:href="#mff4b235bd8" y="905.136338"/>
    </g>
   </g>
   <g id="PathCollection_50">
    <g clip-path="url(#p75946720ab)"/>
   </g>
   <g id="PathCollection_51">
    <g clip-path="url(#p75946720ab)">
     <use style="stroke:#000000;" x="81.044998" xlink:href="#mff4b235bd8" y="386.423657"/>
    </g>
   </g>
   <g id="PathCollection_52">
    <g clip-path="url(#p75946720ab)"/>
   </g>
   <g id="PathCollection_53">
    <g clip-path="url(#p75946720ab)">
     <use style="stroke:#000000;" x="65.330488" xlink:href="#mff4b235bd8" y="574.892624"/>
    </g>
   </g>
   <g id="PathCollection_54">
    <g clip-path="url(#p75946720ab)">
     <use style="stroke:#000000;" x="55.668182" xlink:href="#mff4b235bd8" y="540.367674"/>
    </g>
   </g>
   <g id="PathCollection_55">
    <g clip-path="url(#p75946720ab)">
     <use style="stroke:#000000;" x="219.054659" xlink:href="#mff4b235bd8" y="575.168762"/>
    </g>
   </g>
   <g id="PathCollection_56">
    <g clip-path="url(#p75946720ab)">
     <use style="stroke:#000000;" x="834.14242" xlink:href="#mff4b235bd8" y="576.799091"/>
    </g>
   </g>
   <g id="PathCollection_57">
    <g clip-path="url(#p75946720ab)">
     <use style="stroke:#000000;" x="958.754043" xlink:href="#mff4b235bd8" y="577.518993"/>
    </g>
   </g>
   <g id="PathCollection_58">
    <g clip-path="url(#p75946720ab)">
     <use style="stroke:#000000;" x="206.329154" xlink:href="#mff4b235bd8" y="387.67989"/>
    </g>
   </g>
   <g id="PathCollection_59">
    <g clip-path="url(#p75946720ab)">
     <use style="stroke:#000000;" x="147.093549" xlink:href="#mff4b235bd8" y="328.438041"/>
    </g>
   </g>
   <g id="PathCollection_60">
    <g clip-path="url(#p75946720ab)">
     <use style="stroke:#000000;" x="963.796821" xlink:href="#mff4b235bd8" y="613.924399"/>
    </g>
   </g>
   <g id="PathCollection_61">
    <g clip-path="url(#p75946720ab)"/>
   </g>
   <g id="PathCollection_62">
    <g clip-path="url(#p75946720ab)">
     <use style="stroke:#000000;" x="238.159913" xlink:href="#mff4b235bd8" y="695.375677"/>
    </g>
   </g>
   <g id="PathCollection_63">
    <g clip-path="url(#p75946720ab)">
     <use style="stroke:#000000;" x="602.980643" xlink:href="#mff4b235bd8" y="621.16383"/>
    </g>
   </g>
   <g id="PathCollection_64">
    <g clip-path="url(#p75946720ab)">
     <use style="stroke:#000000;" x="598.452217" xlink:href="#mff4b235bd8" y="696.480429"/>
    </g>
   </g>
   <g id="PathCollection_65">
    <g clip-path="url(#p75946720ab)">
     <use style="stroke:#000000;" x="631.04528" xlink:href="#mff4b235bd8" y="623.006875"/>
    </g>
   </g>
   <g id="PathCollection_66">
    <g clip-path="url(#p75946720ab)">
     <use style="stroke:#000000;" x="559.037358" xlink:href="#mff4b235bd8" y="662.700996"/>
    </g>
   </g>
   <g id="PathCollection_67">
    <g clip-path="url(#p75946720ab)">
     <use style="stroke:#000000;" x="512.295374" xlink:href="#mff4b235bd8" y="719.350567"/>
    </g>
   </g>
   <g id="PathCollection_68">
    <g clip-path="url(#p75946720ab)">
     <use style="stroke:#000000;" x="670.712794" xlink:href="#mff4b235bd8" y="682.548056"/>
    </g>
   </g>
   <g id="matplotlib.axis_5">
    <g id="xtick_11">
     <g id="line2d_45">
      <g>
       <use style="stroke:#000000;stroke-width:0.8;" x="77.215938" xlink:href="#m48ea5ec73b" y="416.65"/>
      </g>
     </g>
     <g id="text_33">
      <!-- −60 -->
      <g transform="translate(66.663594 431.248437)scale(0.1 -0.1)">
       <use xlink:href="#DejaVuSans-8722"/>
       <use x="83.789062" xlink:href="#DejaVuSans-54"/>
       <use x="147.412109" xlink:href="#DejaVuSans-48"/>
      </g>
     </g>
    </g>
    <g id="xtick_12">
     <g id="line2d_46">
      <g>
       <use style="stroke:#000000;stroke-width:0.8;" x="178.279688" xlink:href="#m48ea5ec73b" y="416.65"/>
      </g>
     </g>
     <g id="text_34">
      <!-- −40 -->
      <g transform="translate(167.727344 431.248437)scale(0.1 -0.1)">
       <use xlink:href="#DejaVuSans-8722"/>
       <use x="83.789062" xlink:href="#DejaVuSans-52"/>
       <use x="147.412109" xlink:href="#DejaVuSans-48"/>
      </g>
     </g>
    </g>
    <g id="xtick_13">
     <g id="line2d_47">
      <g>
       <use style="stroke:#000000;stroke-width:0.8;" x="279.343438" xlink:href="#m48ea5ec73b" y="416.65"/>
      </g>
     </g>
     <g id="text_35">
      <!-- −20 -->
      <g transform="translate(268.791094 431.248437)scale(0.1 -0.1)">
       <use xlink:href="#DejaVuSans-8722"/>
       <use x="83.789062" xlink:href="#DejaVuSans-50"/>
       <use x="147.412109" xlink:href="#DejaVuSans-48"/>
      </g>
     </g>
    </g>
    <g id="xtick_14">
     <g id="line2d_48">
      <g>
       <use style="stroke:#000000;stroke-width:0.8;" x="380.407188" xlink:href="#m48ea5ec73b" y="416.65"/>
      </g>
     </g>
     <g id="text_36">
      <!-- 0 -->
      <g transform="translate(377.225938 431.248437)scale(0.1 -0.1)">
       <use xlink:href="#DejaVuSans-48"/>
      </g>
     </g>
    </g>
    <g id="xtick_15">
     <g id="line2d_49">
      <g>
       <use style="stroke:#000000;stroke-width:0.8;" x="481.470938" xlink:href="#m48ea5ec73b" y="416.65"/>
      </g>
     </g>
     <g id="text_37">
      <!-- 20 -->
      <g transform="translate(475.108438 431.248437)scale(0.1 -0.1)">
       <use xlink:href="#DejaVuSans-50"/>
       <use x="63.623047" xlink:href="#DejaVuSans-48"/>
      </g>
     </g>
    </g>
    <g id="text_38">
     <!-- x -->
     <g transform="translate(301.65 444.926562)scale(0.1 -0.1)">
      <use xlink:href="#DejaVuSans-120"/>
     </g>
    </g>
   </g>
   <g id="matplotlib.axis_6">
    <g id="ytick_11">
     <g id="line2d_50">
      <g>
       <use style="stroke:#000000;stroke-width:0.8;" x="51.95" xlink:href="#mf6fd135122" y="311.5"/>
      </g>
     </g>
     <g id="text_39">
      <!-- −80 -->
      <g transform="translate(23.845313 315.299219)scale(0.1 -0.1)">
       <use xlink:href="#DejaVuSans-8722"/>
       <use x="83.789062" xlink:href="#DejaVuSans-56"/>
       <use x="147.412109" xlink:href="#DejaVuSans-48"/>
      </g>
     </g>
    </g>
    <g id="ytick_12">
     <g id="line2d_51">
      <g>
       <use style="stroke:#000000;stroke-width:0.8;" x="51.95" xlink:href="#mf6fd135122" y="337.7875"/>
      </g>
     </g>
     <g id="text_40">
      <!-- −70 -->
      <g transform="translate(23.845313 341.586719)scale(0.1 -0.1)">
       <use xlink:href="#DejaVuSans-8722"/>
       <use x="83.789062" xlink:href="#DejaVuSans-55"/>
       <use x="147.412109" xlink:href="#DejaVuSans-48"/>
      </g>
     </g>
    </g>
    <g id="ytick_13">
     <g id="line2d_52">
      <g>
       <use style="stroke:#000000;stroke-width:0.8;" x="51.95" xlink:href="#mf6fd135122" y="364.075"/>
      </g>
     </g>
     <g id="text_41">
      <!-- −60 -->
      <g transform="translate(23.845313 367.874219)scale(0.1 -0.1)">
       <use xlink:href="#DejaVuSans-8722"/>
       <use x="83.789062" xlink:href="#DejaVuSans-54"/>
       <use x="147.412109" xlink:href="#DejaVuSans-48"/>
      </g>
     </g>
    </g>
    <g id="ytick_14">
     <g id="line2d_53">
      <g>
       <use style="stroke:#000000;stroke-width:0.8;" x="51.95" xlink:href="#mf6fd135122" y="390.3625"/>
      </g>
     </g>
     <g id="text_42">
      <!-- −50 -->
      <g transform="translate(23.845313 394.161719)scale(0.1 -0.1)">
       <use xlink:href="#DejaVuSans-8722"/>
       <use x="83.789062" xlink:href="#DejaVuSans-53"/>
       <use x="147.412109" xlink:href="#DejaVuSans-48"/>
      </g>
     </g>
    </g>
    <g id="ytick_15">
     <g id="line2d_54">
      <g>
       <use style="stroke:#000000;stroke-width:0.8;" x="51.95" xlink:href="#mf6fd135122" y="416.65"/>
      </g>
     </g>
     <g id="text_43">
      <!-- −40 -->
      <g transform="translate(23.845313 420.449219)scale(0.1 -0.1)">
       <use xlink:href="#DejaVuSans-8722"/>
       <use x="83.789062" xlink:href="#DejaVuSans-52"/>
       <use x="147.412109" xlink:href="#DejaVuSans-48"/>
      </g>
     </g>
    </g>
    <g id="text_44">
     <!-- y -->
     <g transform="translate(17.765625 367.034375)rotate(-90)scale(0.1 -0.1)">
      <use xlink:href="#DejaVuSans-121"/>
     </g>
    </g>
   </g>
   <g id="line2d_55">
    <path clip-path="url(#p75946720ab)" d="M 363.083778 355.025876 
L 363.197641 349.339022 
" style="fill:none;stroke:#0000ff;stroke-linecap:square;"/>
   </g>
   <g id="line2d_56">
    <path clip-path="url(#p75946720ab)" d="M 363.197641 349.339022 
L 338.985195 349.207817 
" style="fill:none;stroke:#0000ff;stroke-linecap:square;"/>
   </g>
   <g id="line2d_57">
    <path clip-path="url(#p75946720ab)" d="M 338.985195 349.207817 
L 338.871329 354.894681 
" style="fill:none;stroke:#0000ff;stroke-linecap:square;"/>
   </g>
   <g id="line2d_58">
    <path clip-path="url(#p75946720ab)" d="M 338.871329 354.894681 
L 363.083778 355.025876 
" style="fill:none;stroke:#0000ff;stroke-linecap:square;"/>
   </g>
   <g id="line2d_59">
    <path clip-path="url(#p75946720ab)" d="M 169.012837 478.280612 
L 169.040403 474.573889 
L 169.350232 450.941608 
L 170.147811 404.875157 
L 170.752743 398.105943 
L 171.135745 395.122366 
L 171.533957 393.016691 
L 172.120556 390.863323 
L 172.893231 388.728887 
L 173.848742 386.662491 
L 174.961336 384.686627 
L 176.243042 382.805666 
L 177.699179 381.003495 
L 179.330597 379.245546 
L 182.154895 376.674858 
L 185.377887 374.220904 
L 188.917821 371.950139 
L 192.769319 369.852977 
L 195.641442 368.54872 
L 200.472025 366.686602 
L 203.998581 365.537808 
L 207.665855 364.52108 
L 213.274106 363.248472 
L 218.96697 362.227352 
L 224.817101 361.512354 
L 230.8447 361.089789 
L 239.027909 360.816639 
L 245.125443 360.812538 
L 249.028476 361.085336 
L 252.648002 361.660145 
L 255.902588 362.556628 
L 258.80644 363.75509 
L 261.428519 365.224757 
L 269.309368 370.281148 
L 272.189047 371.687088 
L 275.247611 372.77029 
L 278.494718 373.498003 
L 281.934212 373.89596 
L 285.587144 374.021138 
L 289.480722 373.937445 
L 299.871785 373.265888 
L 324.004353 371.689404 
L 336.2615 371.269928 
L 350.453974 370.996989 
L 372.859107 370.869835 
L 440.024691 370.897472 
L 577 370.876373 
L 577 370.876373 
" style="fill:none;stroke:#000000;stroke-linecap:square;stroke-width:0.5;"/>
   </g>
   <g id="line2d_60">
    <path clip-path="url(#p75946720ab)" d="M 193.741987 368.96893 
L 195.615594 368.535274 
L 196.791453 367.714782 
L 198.548262 367.167329 
L 199.765926 366.319278 
L 200.711272 365.317258 
L 204.34482 365.717927 
L 205.660669 364.92706 
L 209.237842 365.338854 
L 209.194878 363.896645 
L 211.391681 363.643445 
L 212.892747 363.050083 
L 215.902168 363.260664 
L 217.284946 362.652787 
L 219.694495 362.605822 
L 220.183866 361.587471 
L 223.56309 362.09656 
L 225.175127 361.698604 
L 226.52369 361.190029 
L 229.432809 361.521744 
L 230.128505 360.717212 
L 233.931931 361.542514 
L 234.308402 360.598847 
L 235.64881 360.170343 
L 239.956021 361.299458 
L 241.112705 360.802794 
L 242.856144 360.640948 
L 244.90339 360.697022 
L 246.650822 360.678646 
L 248.90136 361.019208 
L 250.81228 361.296476 
L 253.127894 361.909792 
L 255.674888 362.773898 
L 255.822132 362.514774 
L 257.987093 363.427984 
L 259.442023 364.085731 
L 259.663908 364.208791 
L 261.747124 365.390501 
L 263.040951 366.223004 
L 263.898899 366.863803 
L 265.321169 367.806736 
L 266.335066 368.514723 
L 268.322524 369.688726 
L 268.870364 370.052771 
L 270.521295 370.912515 
L 271.867421 371.519772 
L 274.297276 372.586719 
L 275.745972 373.029545 
L 276.539661 373.017142 
L 278.6275 373.567079 
L 279.818418 373.542668 
L 281.591923 373.717896 
L 284.056449 374.156797 
L 284.932087 373.680367 
L 287.558136 374.031352 
L 289.121043 373.750334 
L 291.197743 373.665332 
L 293.461381 373.624811 
L 295.97054 373.694289 
L 298.235701 373.640251 
L 299.718649 373.186224 
L 302.399923 373.364052 
L 304.055113 373.020118 
L 306.427808 373.061851 
L 307.496669 372.437452 
L 309.878461 372.504372 
L 311.854478 372.365175 
L 313.756073 372.187034 
L 315.725058 372.040526 
L 318.569046 372.342463 
L 320.37051 372.107863 
L 321.939533 371.766948 
L 324.119718 371.749418 
L 325.987941 371.573209 
L 327.944116 371.448044 
" style="fill:none;stroke:#ff0000;stroke-linecap:square;"/>
   </g>
   <g id="patch_15">
    <path d="M 51.95 416.65 
L 51.95 311.5 
" style="fill:none;stroke:#000000;stroke-linecap:square;stroke-linejoin:miter;stroke-width:0.8;"/>
   </g>
   <g id="patch_16">
    <path d="M 557.26875 416.65 
L 557.26875 311.5 
" style="fill:none;stroke:#000000;stroke-linecap:square;stroke-linejoin:miter;stroke-width:0.8;"/>
   </g>
   <g id="patch_17">
    <path d="M 51.95 416.65 
L 557.26875 416.65 
" style="fill:none;stroke:#000000;stroke-linecap:square;stroke-linejoin:miter;stroke-width:0.8;"/>
   </g>
   <g id="patch_18">
    <path d="M 51.95 311.5 
L 557.26875 311.5 
" style="fill:none;stroke:#000000;stroke-linecap:square;stroke-linejoin:miter;stroke-width:0.8;"/>
   </g>
   <g id="legend_3">
    <g id="patch_19">
     <path d="M 397.507813 378.2125 
L 550.26875 378.2125 
Q 552.26875 378.2125 552.26875 376.2125 
L 552.26875 318.5 
Q 552.26875 316.5 550.26875 316.5 
L 397.507813 316.5 
Q 395.507813 316.5 395.507813 318.5 
L 395.507813 376.2125 
Q 395.507813 378.2125 397.507813 378.2125 
z
" style="fill:#ffffff;opacity:0.8;stroke:#cccccc;stroke-linejoin:miter;"/>
    </g>
    <g id="line2d_61">
     <path d="M 399.507813 324.598437 
L 419.507813 324.598437 
" style="fill:none;stroke:#0000ff;stroke-linecap:square;"/>
    </g>
    <g id="line2d_62"/>
    <g id="text_45">
     <!-- Egofahrzeug -->
     <g transform="translate(427.507813 328.098437)scale(0.1 -0.1)">
      <use xlink:href="#DejaVuSans-69"/>
      <use x="63.183594" xlink:href="#DejaVuSans-103"/>
      <use x="126.660156" xlink:href="#DejaVuSans-111"/>
      <use x="187.841797" xlink:href="#DejaVuSans-102"/>
      <use x="223.046875" xlink:href="#DejaVuSans-97"/>
      <use x="284.326172" xlink:href="#DejaVuSans-104"/>
      <use x="347.705078" xlink:href="#DejaVuSans-114"/>
      <use x="388.818359" xlink:href="#DejaVuSans-122"/>
      <use x="441.308594" xlink:href="#DejaVuSans-101"/>
      <use x="502.832031" xlink:href="#DejaVuSans-117"/>
      <use x="566.210938" xlink:href="#DejaVuSans-103"/>
     </g>
    </g>
    <g id="line2d_63">
     <path d="M 399.507813 339.276562 
L 419.507813 339.276562 
" style="fill:none;stroke:#000000;stroke-linecap:square;stroke-width:0.5;"/>
    </g>
    <g id="line2d_64"/>
    <g id="text_46">
     <!-- Ground Truth - Fahrzeug -->
     <g transform="translate(427.507813 342.776562)scale(0.1 -0.1)">
      <use xlink:href="#DejaVuSans-71"/>
      <use x="77.490234" xlink:href="#DejaVuSans-114"/>
      <use x="116.353516" xlink:href="#DejaVuSans-111"/>
      <use x="177.535156" xlink:href="#DejaVuSans-117"/>
      <use x="240.914062" xlink:href="#DejaVuSans-110"/>
      <use x="304.292969" xlink:href="#DejaVuSans-100"/>
      <use x="367.769531" xlink:href="#DejaVuSans-32"/>
      <use x="399.556641" xlink:href="#DejaVuSans-84"/>
      <use x="445.890625" xlink:href="#DejaVuSans-114"/>
      <use x="487.003906" xlink:href="#DejaVuSans-117"/>
      <use x="550.382812" xlink:href="#DejaVuSans-116"/>
      <use x="589.591797" xlink:href="#DejaVuSans-104"/>
      <use x="652.970703" xlink:href="#DejaVuSans-32"/>
      <use x="684.757812" xlink:href="#DejaVuSans-45"/>
      <use x="720.841797" xlink:href="#DejaVuSans-32"/>
      <use x="752.628906" xlink:href="#DejaVuSans-70"/>
      <use x="801.023438" xlink:href="#DejaVuSans-97"/>
      <use x="862.302734" xlink:href="#DejaVuSans-104"/>
      <use x="925.681641" xlink:href="#DejaVuSans-114"/>
      <use x="966.794922" xlink:href="#DejaVuSans-122"/>
      <use x="1019.285156" xlink:href="#DejaVuSans-101"/>
      <use x="1080.808594" xlink:href="#DejaVuSans-117"/>
      <use x="1144.1875" xlink:href="#DejaVuSans-103"/>
     </g>
    </g>
    <g id="line2d_65">
     <path d="M 399.507813 353.954687 
L 419.507813 353.954687 
" style="fill:none;stroke:#ff0000;stroke-linecap:square;"/>
    </g>
    <g id="line2d_66"/>
    <g id="text_47">
     <!-- Sensordaten - Fahrzeug -->
     <g transform="translate(427.507813 357.454687)scale(0.1 -0.1)">
      <use xlink:href="#DejaVuSans-83"/>
      <use x="63.476562" xlink:href="#DejaVuSans-101"/>
      <use x="125" xlink:href="#DejaVuSans-110"/>
      <use x="188.378906" xlink:href="#DejaVuSans-115"/>
      <use x="240.478516" xlink:href="#DejaVuSans-111"/>
      <use x="301.660156" xlink:href="#DejaVuSans-114"/>
      <use x="341.023438" xlink:href="#DejaVuSans-100"/>
      <use x="404.5" xlink:href="#DejaVuSans-97"/>
      <use x="465.779297" xlink:href="#DejaVuSans-116"/>
      <use x="504.988281" xlink:href="#DejaVuSans-101"/>
      <use x="566.511719" xlink:href="#DejaVuSans-110"/>
      <use x="629.890625" xlink:href="#DejaVuSans-32"/>
      <use x="661.677734" xlink:href="#DejaVuSans-45"/>
      <use x="697.761719" xlink:href="#DejaVuSans-32"/>
      <use x="729.548828" xlink:href="#DejaVuSans-70"/>
      <use x="777.943359" xlink:href="#DejaVuSans-97"/>
      <use x="839.222656" xlink:href="#DejaVuSans-104"/>
      <use x="902.601562" xlink:href="#DejaVuSans-114"/>
      <use x="943.714844" xlink:href="#DejaVuSans-122"/>
      <use x="996.205078" xlink:href="#DejaVuSans-101"/>
      <use x="1057.728516" xlink:href="#DejaVuSans-117"/>
      <use x="1121.107422" xlink:href="#DejaVuSans-103"/>
     </g>
    </g>
    <g id="PathCollection_69">
     <g>
      <use style="stroke:#000000;" x="409.507813" xlink:href="#mff4b235bd8" y="369.507812"/>
     </g>
    </g>
    <g id="text_48">
     <!-- Ground Truth - Ampel -->
     <g transform="translate(427.507813 372.132812)scale(0.1 -0.1)">
      <use xlink:href="#DejaVuSans-71"/>
      <use x="77.490234" xlink:href="#DejaVuSans-114"/>
      <use x="116.353516" xlink:href="#DejaVuSans-111"/>
      <use x="177.535156" xlink:href="#DejaVuSans-117"/>
      <use x="240.914062" xlink:href="#DejaVuSans-110"/>
      <use x="304.292969" xlink:href="#DejaVuSans-100"/>
      <use x="367.769531" xlink:href="#DejaVuSans-32"/>
      <use x="399.556641" xlink:href="#DejaVuSans-84"/>
      <use x="445.890625" xlink:href="#DejaVuSans-114"/>
      <use x="487.003906" xlink:href="#DejaVuSans-117"/>
      <use x="550.382812" xlink:href="#DejaVuSans-116"/>
      <use x="589.591797" xlink:href="#DejaVuSans-104"/>
      <use x="652.970703" xlink:href="#DejaVuSans-32"/>
      <use x="684.757812" xlink:href="#DejaVuSans-45"/>
      <use x="720.841797" xlink:href="#DejaVuSans-32"/>
      <use x="752.628906" xlink:href="#DejaVuSans-65"/>
      <use x="821.037109" xlink:href="#DejaVuSans-109"/>
      <use x="918.449219" xlink:href="#DejaVuSans-112"/>
      <use x="981.925781" xlink:href="#DejaVuSans-101"/>
      <use x="1043.449219" xlink:href="#DejaVuSans-108"/>
     </g>
    </g>
   </g>
  </g>
 </g>
 <defs>
  <clipPath id="pe40bc139f0">
   <rect height="105.15" width="505.31875" x="51.95" y="14.4"/>
  </clipPath>
  <clipPath id="p18541b81a4">
   <rect height="105.15" width="505.31875" x="51.95" y="162.95"/>
  </clipPath>
  <clipPath id="p75946720ab">
   <rect height="105.15" width="505.31875" x="51.95" y="311.5"/>
  </clipPath>
 </defs>
</svg>
