<?xml version="1.0" encoding="utf-8" standalone="no"?>
<!DOCTYPE svg PUBLIC "-//W3C//DTD SVG 1.1//EN"
  "http://www.w3.org/Graphics/SVG/1.1/DTD/svg11.dtd">
<!-- Created with matplotlib (https://matplotlib.org/) -->
<svg height="576pt" version="1.1" viewBox="0 0 576 576" width="576pt" xmlns="http://www.w3.org/2000/svg" xmlns:xlink="http://www.w3.org/1999/xlink">
 <metadata>
  <rdf:RDF xmlns:cc="http://creativecommons.org/ns#" xmlns:dc="http://purl.org/dc/elements/1.1/" xmlns:rdf="http://www.w3.org/1999/02/22-rdf-syntax-ns#">
   <cc:Work>
    <dc:type rdf:resource="http://purl.org/dc/dcmitype/StillImage"/>
    <dc:date>2022-07-07T09:17:31.981539</dc:date>
    <dc:format>image/svg+xml</dc:format>
    <dc:creator>
     <cc:Agent>
      <dc:title>Matplotlib v3.3.4, https://matplotlib.org/</dc:title>
     </cc:Agent>
    </dc:creator>
   </cc:Work>
  </rdf:RDF>
 </metadata>
 <defs>
  <style type="text/css">*{stroke-linecap:butt;stroke-linejoin:round;}</style>
 </defs>
 <g id="figure_1">
  <g id="patch_1">
   <path d="M 0 576 
L 576 576 
L 576 0 
L 0 0 
z
" style="fill:none;"/>
  </g>
  <g id="axes_1">
   <g id="patch_2">
    <path d="M 51.95 119.55 
L 557.26875 119.55 
L 557.26875 14.4 
L 51.95 14.4 
z
" style="fill:none;"/>
   </g>
   <g id="PathCollection_1">
    <defs>
     <path d="M 0 3 
C 0.795609 3 1.55874 2.683901 2.12132 2.12132 
C 2.683901 1.55874 3 0.795609 3 0 
C 3 -0.795609 2.683901 -1.55874 2.12132 -2.12132 
C 1.55874 -2.683901 0.795609 -3 0 -3 
C -0.795609 -3 -1.55874 -2.683901 -2.12132 -2.12132 
C -2.683901 -1.55874 -3 -0.795609 -3 0 
C -3 0.795609 -2.683901 1.55874 -2.12132 2.12132 
C -1.55874 2.683901 -0.795609 3 0 3 
z
" id="m714985d279" style="stroke:#000000;"/>
    </defs>
    <g clip-path="url(#p1032f55ee1)">
     <use style="stroke:#000000;" x="220.542747" xlink:href="#m714985d279" y="312.997838"/>
    </g>
   </g>
   <g id="PathCollection_2">
    <g clip-path="url(#p1032f55ee1)">
     <use style="stroke:#000000;" x="66.60776" xlink:href="#m714985d279" y="550.022293"/>
    </g>
   </g>
   <g id="PathCollection_3">
    <g clip-path="url(#p1032f55ee1)">
     <use style="stroke:#000000;" x="83.707471" xlink:href="#m714985d279" y="608.036338"/>
    </g>
   </g>
   <g id="PathCollection_4">
    <g clip-path="url(#p1032f55ee1)"/>
   </g>
   <g id="PathCollection_5">
    <g clip-path="url(#p1032f55ee1)">
     <use style="stroke:#000000;" x="81.044998" xlink:href="#m714985d279" y="89.323657"/>
    </g>
   </g>
   <g id="PathCollection_6">
    <g clip-path="url(#p1032f55ee1)"/>
   </g>
   <g id="PathCollection_7">
    <g clip-path="url(#p1032f55ee1)">
     <use style="stroke:#000000;" x="65.330488" xlink:href="#m714985d279" y="277.792624"/>
    </g>
   </g>
   <g id="PathCollection_8">
    <g clip-path="url(#p1032f55ee1)">
     <use style="stroke:#000000;" x="55.668182" xlink:href="#m714985d279" y="243.267674"/>
    </g>
   </g>
   <g id="PathCollection_9">
    <g clip-path="url(#p1032f55ee1)">
     <use style="stroke:#000000;" x="219.054659" xlink:href="#m714985d279" y="278.068762"/>
    </g>
   </g>
   <g id="PathCollection_10">
    <g clip-path="url(#p1032f55ee1)">
     <use style="stroke:#000000;" x="834.14242" xlink:href="#m714985d279" y="279.699091"/>
    </g>
   </g>
   <g id="PathCollection_11">
    <g clip-path="url(#p1032f55ee1)">
     <use style="stroke:#000000;" x="958.754043" xlink:href="#m714985d279" y="280.418993"/>
    </g>
   </g>
   <g id="PathCollection_12">
    <g clip-path="url(#p1032f55ee1)">
     <use style="stroke:#000000;" x="206.329154" xlink:href="#m714985d279" y="90.57989"/>
    </g>
   </g>
   <g id="PathCollection_13">
    <g clip-path="url(#p1032f55ee1)">
     <use style="stroke:#000000;" x="147.093549" xlink:href="#m714985d279" y="31.338041"/>
    </g>
   </g>
   <g id="PathCollection_14">
    <g clip-path="url(#p1032f55ee1)">
     <use style="stroke:#000000;" x="963.796821" xlink:href="#m714985d279" y="316.824399"/>
    </g>
   </g>
   <g id="PathCollection_15">
    <g clip-path="url(#p1032f55ee1)"/>
   </g>
   <g id="PathCollection_16">
    <g clip-path="url(#p1032f55ee1)">
     <use style="stroke:#000000;" x="238.159913" xlink:href="#m714985d279" y="398.275677"/>
    </g>
   </g>
   <g id="PathCollection_17">
    <g clip-path="url(#p1032f55ee1)">
     <use style="stroke:#000000;" x="602.980643" xlink:href="#m714985d279" y="324.06383"/>
    </g>
   </g>
   <g id="PathCollection_18">
    <g clip-path="url(#p1032f55ee1)">
     <use style="stroke:#000000;" x="598.452217" xlink:href="#m714985d279" y="399.380429"/>
    </g>
   </g>
   <g id="PathCollection_19">
    <g clip-path="url(#p1032f55ee1)">
     <use style="stroke:#000000;" x="631.04528" xlink:href="#m714985d279" y="325.906875"/>
    </g>
   </g>
   <g id="PathCollection_20">
    <g clip-path="url(#p1032f55ee1)">
     <use style="stroke:#000000;" x="559.037358" xlink:href="#m714985d279" y="365.600996"/>
    </g>
   </g>
   <g id="PathCollection_21">
    <g clip-path="url(#p1032f55ee1)">
     <use style="stroke:#000000;" x="512.295374" xlink:href="#m714985d279" y="422.250567"/>
    </g>
   </g>
   <g id="PathCollection_22">
    <g clip-path="url(#p1032f55ee1)">
     <use style="stroke:#000000;" x="670.712794" xlink:href="#m714985d279" y="385.448056"/>
    </g>
   </g>
   <g id="matplotlib.axis_1">
    <g id="xtick_1">
     <g id="line2d_1">
      <defs>
       <path d="M 0 0 
L 0 3.5 
" id="m8527c41e93" style="stroke:#000000;stroke-width:0.8;"/>
      </defs>
      <g>
       <use style="stroke:#000000;stroke-width:0.8;" x="77.215938" xlink:href="#m8527c41e93" y="119.55"/>
      </g>
     </g>
     <g id="text_1">
      <!-- −60 -->
      <g transform="translate(66.663594 134.148437)scale(0.1 -0.1)">
       <defs>
        <path d="M 10.59375 35.5 
L 73.1875 35.5 
L 73.1875 27.203125 
L 10.59375 27.203125 
z
" id="DejaVuSans-8722"/>
        <path d="M 33.015625 40.375 
Q 26.375 40.375 22.484375 35.828125 
Q 18.609375 31.296875 18.609375 23.390625 
Q 18.609375 15.53125 22.484375 10.953125 
Q 26.375 6.390625 33.015625 6.390625 
Q 39.65625 6.390625 43.53125 10.953125 
Q 47.40625 15.53125 47.40625 23.390625 
Q 47.40625 31.296875 43.53125 35.828125 
Q 39.65625 40.375 33.015625 40.375 
z
M 52.59375 71.296875 
L 52.59375 62.3125 
Q 48.875 64.0625 45.09375 64.984375 
Q 41.3125 65.921875 37.59375 65.921875 
Q 27.828125 65.921875 22.671875 59.328125 
Q 17.53125 52.734375 16.796875 39.40625 
Q 19.671875 43.65625 24.015625 45.921875 
Q 28.375 48.1875 33.59375 48.1875 
Q 44.578125 48.1875 50.953125 41.515625 
Q 57.328125 34.859375 57.328125 23.390625 
Q 57.328125 12.15625 50.6875 5.359375 
Q 44.046875 -1.421875 33.015625 -1.421875 
Q 20.359375 -1.421875 13.671875 8.265625 
Q 6.984375 17.96875 6.984375 36.375 
Q 6.984375 53.65625 15.1875 63.9375 
Q 23.390625 74.21875 37.203125 74.21875 
Q 40.921875 74.21875 44.703125 73.484375 
Q 48.484375 72.75 52.59375 71.296875 
z
" id="DejaVuSans-54"/>
        <path d="M 31.78125 66.40625 
Q 24.171875 66.40625 20.328125 58.90625 
Q 16.5 51.421875 16.5 36.375 
Q 16.5 21.390625 20.328125 13.890625 
Q 24.171875 6.390625 31.78125 6.390625 
Q 39.453125 6.390625 43.28125 13.890625 
Q 47.125 21.390625 47.125 36.375 
Q 47.125 51.421875 43.28125 58.90625 
Q 39.453125 66.40625 31.78125 66.40625 
z
M 31.78125 74.21875 
Q 44.046875 74.21875 50.515625 64.515625 
Q 56.984375 54.828125 56.984375 36.375 
Q 56.984375 17.96875 50.515625 8.265625 
Q 44.046875 -1.421875 31.78125 -1.421875 
Q 19.53125 -1.421875 13.0625 8.265625 
Q 6.59375 17.96875 6.59375 36.375 
Q 6.59375 54.828125 13.0625 64.515625 
Q 19.53125 74.21875 31.78125 74.21875 
z
" id="DejaVuSans-48"/>
       </defs>
       <use xlink:href="#DejaVuSans-8722"/>
       <use x="83.789062" xlink:href="#DejaVuSans-54"/>
       <use x="147.412109" xlink:href="#DejaVuSans-48"/>
      </g>
     </g>
    </g>
    <g id="xtick_2">
     <g id="line2d_2">
      <g>
       <use style="stroke:#000000;stroke-width:0.8;" x="178.279688" xlink:href="#m8527c41e93" y="119.55"/>
      </g>
     </g>
     <g id="text_2">
      <!-- −40 -->
      <g transform="translate(167.727344 134.148437)scale(0.1 -0.1)">
       <defs>
        <path d="M 37.796875 64.3125 
L 12.890625 25.390625 
L 37.796875 25.390625 
z
M 35.203125 72.90625 
L 47.609375 72.90625 
L 47.609375 25.390625 
L 58.015625 25.390625 
L 58.015625 17.1875 
L 47.609375 17.1875 
L 47.609375 0 
L 37.796875 0 
L 37.796875 17.1875 
L 4.890625 17.1875 
L 4.890625 26.703125 
z
" id="DejaVuSans-52"/>
       </defs>
       <use xlink:href="#DejaVuSans-8722"/>
       <use x="83.789062" xlink:href="#DejaVuSans-52"/>
       <use x="147.412109" xlink:href="#DejaVuSans-48"/>
      </g>
     </g>
    </g>
    <g id="xtick_3">
     <g id="line2d_3">
      <g>
       <use style="stroke:#000000;stroke-width:0.8;" x="279.343438" xlink:href="#m8527c41e93" y="119.55"/>
      </g>
     </g>
     <g id="text_3">
      <!-- −20 -->
      <g transform="translate(268.791094 134.148437)scale(0.1 -0.1)">
       <defs>
        <path d="M 19.1875 8.296875 
L 53.609375 8.296875 
L 53.609375 0 
L 7.328125 0 
L 7.328125 8.296875 
Q 12.9375 14.109375 22.625 23.890625 
Q 32.328125 33.6875 34.8125 36.53125 
Q 39.546875 41.84375 41.421875 45.53125 
Q 43.3125 49.21875 43.3125 52.78125 
Q 43.3125 58.59375 39.234375 62.25 
Q 35.15625 65.921875 28.609375 65.921875 
Q 23.96875 65.921875 18.8125 64.3125 
Q 13.671875 62.703125 7.8125 59.421875 
L 7.8125 69.390625 
Q 13.765625 71.78125 18.9375 73 
Q 24.125 74.21875 28.421875 74.21875 
Q 39.75 74.21875 46.484375 68.546875 
Q 53.21875 62.890625 53.21875 53.421875 
Q 53.21875 48.921875 51.53125 44.890625 
Q 49.859375 40.875 45.40625 35.40625 
Q 44.1875 33.984375 37.640625 27.21875 
Q 31.109375 20.453125 19.1875 8.296875 
z
" id="DejaVuSans-50"/>
       </defs>
       <use xlink:href="#DejaVuSans-8722"/>
       <use x="83.789062" xlink:href="#DejaVuSans-50"/>
       <use x="147.412109" xlink:href="#DejaVuSans-48"/>
      </g>
     </g>
    </g>
    <g id="xtick_4">
     <g id="line2d_4">
      <g>
       <use style="stroke:#000000;stroke-width:0.8;" x="380.407188" xlink:href="#m8527c41e93" y="119.55"/>
      </g>
     </g>
     <g id="text_4">
      <!-- 0 -->
      <g transform="translate(377.225938 134.148437)scale(0.1 -0.1)">
       <use xlink:href="#DejaVuSans-48"/>
      </g>
     </g>
    </g>
    <g id="xtick_5">
     <g id="line2d_5">
      <g>
       <use style="stroke:#000000;stroke-width:0.8;" x="481.470938" xlink:href="#m8527c41e93" y="119.55"/>
      </g>
     </g>
     <g id="text_5">
      <!-- 20 -->
      <g transform="translate(475.108438 134.148437)scale(0.1 -0.1)">
       <use xlink:href="#DejaVuSans-50"/>
       <use x="63.623047" xlink:href="#DejaVuSans-48"/>
      </g>
     </g>
    </g>
    <g id="text_6">
     <!-- x -->
     <g transform="translate(301.65 147.826562)scale(0.1 -0.1)">
      <defs>
       <path d="M 54.890625 54.6875 
L 35.109375 28.078125 
L 55.90625 0 
L 45.3125 0 
L 29.390625 21.484375 
L 13.484375 0 
L 2.875 0 
L 24.125 28.609375 
L 4.6875 54.6875 
L 15.28125 54.6875 
L 29.78125 35.203125 
L 44.28125 54.6875 
z
" id="DejaVuSans-120"/>
      </defs>
      <use xlink:href="#DejaVuSans-120"/>
     </g>
    </g>
   </g>
   <g id="matplotlib.axis_2">
    <g id="ytick_1">
     <g id="line2d_6">
      <defs>
       <path d="M 0 0 
L -3.5 0 
" id="mca1b1649f6" style="stroke:#000000;stroke-width:0.8;"/>
      </defs>
      <g>
       <use style="stroke:#000000;stroke-width:0.8;" x="51.95" xlink:href="#mca1b1649f6" y="14.4"/>
      </g>
     </g>
     <g id="text_7">
      <!-- −80 -->
      <g transform="translate(23.845313 18.199219)scale(0.1 -0.1)">
       <defs>
        <path d="M 31.78125 34.625 
Q 24.75 34.625 20.71875 30.859375 
Q 16.703125 27.09375 16.703125 20.515625 
Q 16.703125 13.921875 20.71875 10.15625 
Q 24.75 6.390625 31.78125 6.390625 
Q 38.8125 6.390625 42.859375 10.171875 
Q 46.921875 13.96875 46.921875 20.515625 
Q 46.921875 27.09375 42.890625 30.859375 
Q 38.875 34.625 31.78125 34.625 
z
M 21.921875 38.8125 
Q 15.578125 40.375 12.03125 44.71875 
Q 8.5 49.078125 8.5 55.328125 
Q 8.5 64.0625 14.71875 69.140625 
Q 20.953125 74.21875 31.78125 74.21875 
Q 42.671875 74.21875 48.875 69.140625 
Q 55.078125 64.0625 55.078125 55.328125 
Q 55.078125 49.078125 51.53125 44.71875 
Q 48 40.375 41.703125 38.8125 
Q 48.828125 37.15625 52.796875 32.3125 
Q 56.78125 27.484375 56.78125 20.515625 
Q 56.78125 9.90625 50.3125 4.234375 
Q 43.84375 -1.421875 31.78125 -1.421875 
Q 19.734375 -1.421875 13.25 4.234375 
Q 6.78125 9.90625 6.78125 20.515625 
Q 6.78125 27.484375 10.78125 32.3125 
Q 14.796875 37.15625 21.921875 38.8125 
z
M 18.3125 54.390625 
Q 18.3125 48.734375 21.84375 45.5625 
Q 25.390625 42.390625 31.78125 42.390625 
Q 38.140625 42.390625 41.71875 45.5625 
Q 45.3125 48.734375 45.3125 54.390625 
Q 45.3125 60.0625 41.71875 63.234375 
Q 38.140625 66.40625 31.78125 66.40625 
Q 25.390625 66.40625 21.84375 63.234375 
Q 18.3125 60.0625 18.3125 54.390625 
z
" id="DejaVuSans-56"/>
       </defs>
       <use xlink:href="#DejaVuSans-8722"/>
       <use x="83.789062" xlink:href="#DejaVuSans-56"/>
       <use x="147.412109" xlink:href="#DejaVuSans-48"/>
      </g>
     </g>
    </g>
    <g id="ytick_2">
     <g id="line2d_7">
      <g>
       <use style="stroke:#000000;stroke-width:0.8;" x="51.95" xlink:href="#mca1b1649f6" y="40.6875"/>
      </g>
     </g>
     <g id="text_8">
      <!-- −70 -->
      <g transform="translate(23.845313 44.486719)scale(0.1 -0.1)">
       <defs>
        <path d="M 8.203125 72.90625 
L 55.078125 72.90625 
L 55.078125 68.703125 
L 28.609375 0 
L 18.3125 0 
L 43.21875 64.59375 
L 8.203125 64.59375 
z
" id="DejaVuSans-55"/>
       </defs>
       <use xlink:href="#DejaVuSans-8722"/>
       <use x="83.789062" xlink:href="#DejaVuSans-55"/>
       <use x="147.412109" xlink:href="#DejaVuSans-48"/>
      </g>
     </g>
    </g>
    <g id="ytick_3">
     <g id="line2d_8">
      <g>
       <use style="stroke:#000000;stroke-width:0.8;" x="51.95" xlink:href="#mca1b1649f6" y="66.975"/>
      </g>
     </g>
     <g id="text_9">
      <!-- −60 -->
      <g transform="translate(23.845313 70.774219)scale(0.1 -0.1)">
       <use xlink:href="#DejaVuSans-8722"/>
       <use x="83.789062" xlink:href="#DejaVuSans-54"/>
       <use x="147.412109" xlink:href="#DejaVuSans-48"/>
      </g>
     </g>
    </g>
    <g id="ytick_4">
     <g id="line2d_9">
      <g>
       <use style="stroke:#000000;stroke-width:0.8;" x="51.95" xlink:href="#mca1b1649f6" y="93.2625"/>
      </g>
     </g>
     <g id="text_10">
      <!-- −50 -->
      <g transform="translate(23.845313 97.061719)scale(0.1 -0.1)">
       <defs>
        <path d="M 10.796875 72.90625 
L 49.515625 72.90625 
L 49.515625 64.59375 
L 19.828125 64.59375 
L 19.828125 46.734375 
Q 21.96875 47.46875 24.109375 47.828125 
Q 26.265625 48.1875 28.421875 48.1875 
Q 40.625 48.1875 47.75 41.5 
Q 54.890625 34.8125 54.890625 23.390625 
Q 54.890625 11.625 47.5625 5.09375 
Q 40.234375 -1.421875 26.90625 -1.421875 
Q 22.3125 -1.421875 17.546875 -0.640625 
Q 12.796875 0.140625 7.71875 1.703125 
L 7.71875 11.625 
Q 12.109375 9.234375 16.796875 8.0625 
Q 21.484375 6.890625 26.703125 6.890625 
Q 35.15625 6.890625 40.078125 11.328125 
Q 45.015625 15.765625 45.015625 23.390625 
Q 45.015625 31 40.078125 35.4375 
Q 35.15625 39.890625 26.703125 39.890625 
Q 22.75 39.890625 18.8125 39.015625 
Q 14.890625 38.140625 10.796875 36.28125 
z
" id="DejaVuSans-53"/>
       </defs>
       <use xlink:href="#DejaVuSans-8722"/>
       <use x="83.789062" xlink:href="#DejaVuSans-53"/>
       <use x="147.412109" xlink:href="#DejaVuSans-48"/>
      </g>
     </g>
    </g>
    <g id="ytick_5">
     <g id="line2d_10">
      <g>
       <use style="stroke:#000000;stroke-width:0.8;" x="51.95" xlink:href="#mca1b1649f6" y="119.55"/>
      </g>
     </g>
     <g id="text_11">
      <!-- −40 -->
      <g transform="translate(23.845313 123.349219)scale(0.1 -0.1)">
       <use xlink:href="#DejaVuSans-8722"/>
       <use x="83.789062" xlink:href="#DejaVuSans-52"/>
       <use x="147.412109" xlink:href="#DejaVuSans-48"/>
      </g>
     </g>
    </g>
    <g id="text_12">
     <!-- y -->
     <g transform="translate(17.765625 69.934375)rotate(-90)scale(0.1 -0.1)">
      <defs>
       <path d="M 32.171875 -5.078125 
Q 28.375 -14.84375 24.75 -17.8125 
Q 21.140625 -20.796875 15.09375 -20.796875 
L 7.90625 -20.796875 
L 7.90625 -13.28125 
L 13.1875 -13.28125 
Q 16.890625 -13.28125 18.9375 -11.515625 
Q 21 -9.765625 23.484375 -3.21875 
L 25.09375 0.875 
L 2.984375 54.6875 
L 12.5 54.6875 
L 29.59375 11.921875 
L 46.6875 54.6875 
L 56.203125 54.6875 
z
" id="DejaVuSans-121"/>
      </defs>
      <use xlink:href="#DejaVuSans-121"/>
     </g>
    </g>
   </g>
   <g id="line2d_11">
    <path clip-path="url(#p1032f55ee1)" d="M 363.083778 57.925876 
L 363.197641 52.239022 
" style="fill:none;stroke:#0000ff;stroke-linecap:square;"/>
   </g>
   <g id="line2d_12">
    <path clip-path="url(#p1032f55ee1)" d="M 363.197641 52.239022 
L 338.985195 52.107817 
" style="fill:none;stroke:#0000ff;stroke-linecap:square;"/>
   </g>
   <g id="line2d_13">
    <path clip-path="url(#p1032f55ee1)" d="M 338.985195 52.107817 
L 338.871329 57.794681 
" style="fill:none;stroke:#0000ff;stroke-linecap:square;"/>
   </g>
   <g id="line2d_14">
    <path clip-path="url(#p1032f55ee1)" d="M 338.871329 57.794681 
L 363.083778 57.925876 
" style="fill:none;stroke:#0000ff;stroke-linecap:square;"/>
   </g>
   <g id="line2d_15">
    <path clip-path="url(#p1032f55ee1)" d="M 531.467392 55.411745 
L 522.282331 55.408015 
L 391.986891 55.234211 
L 389.486861 55.110407 
L 387.789312 54.868454 
L 386.099492 54.463508 
L 382.388467 53.276427 
L 378.011854 51.637008 
L 374.483619 50.108678 
L 369.251467 47.732812 
L 366.129778 46.608365 
L 362.673655 45.657099 
L 358.95785 44.976727 
L 355.012869 44.542259 
L 350.866481 44.271707 
L 348.763659 44.187874 
L 347.423611 44.313283 
L 347.19401 44.544225 
L 346.287305 44.584597 
L 327.133175 44.570177 
L 312.407808 44.840208 
L 308.668345 45.094214 
L 305.260603 45.577398 
L 302.27422 46.307388 
L 299.620041 47.269303 
L 297.165174 48.449023 
L 294.85038 49.819093 
L 290.376332 52.685985 
L 287.982013 53.940373 
L 285.43248 54.993943 
L 282.712891 55.803194 
L 279.835506 56.333629 
L 276.894826 56.622101 
L 272.686667 56.797468 
L 267.348902 56.794029 
L 252.436039 56.367322 
L 240.21386 55.750928 
L 233.694742 55.482983 
L 209.262016 54.722829 
L 184.333782 54.283989 
L 147.307671 53.933976 
L 65.049554 53.45023 
L 56.865747 53.419826 
L 52.896509 53.141612 
L 49.171772 52.588454 
L 45.791775 51.739052 
L 42.710137 50.606904 
L 39.876547 49.207252 
L 32.514589 45.228407 
L 29.372077 43.861968 
L 26.09409 42.770252 
L 22.681399 42.007711 
L 19.135779 41.577796 
L 15.428777 41.441737 
L 11.583254 41.596548 
L 7.687614 42.055123 
L 3.897415 42.814074 
L 0.262043 43.810063 
L -1 44.211457 
M -1 298.261489 
L 47.310175 298.379527 
L 63.399341 298.943872 
L 73.055478 299.40016 
L 77.210463 299.745375 
L 81.314115 300.235308 
L 85.26373 300.863274 
L 88.986442 301.66028 
L 92.52948 302.615742 
L 95.880891 303.748081 
L 99.047788 305.052965 
L 102.073775 306.49698 
L 104.798549 308.079797 
L 107.231961 309.772739 
L 109.360478 311.563439 
L 111.178009 313.442996 
L 112.765708 315.398684 
L 114.127006 317.412584 
L 115.183371 319.464691 
L 115.973009 321.545527 
L 116.519051 323.6502 
L 117.051098 326.845094 
L 117.341825 330.056705 
L 117.525124 334.332736 
L 117.543899 340.747454 
L 117.014705 383.540221 
L 117.152762 420.985148 
L 117.5689 518.331447 
L 117.2061 528.40518 
L 116.678505 532.580892 
L 116.219226 534.76661 
L 115.381185 537.194221 
L 114.137743 539.85873 
L 113.026441 541.750751 
L 111.624026 543.711383 
L 109.95554 545.718886 
L 108.020731 547.671275 
L 105.856938 549.508925 
L 103.477943 551.221347 
L 100.879449 552.816282 
L 98.041368 554.300088 
L 93.375462 556.363526 
L 90.041612 557.620662 
L 84.791632 559.287778 
L 79.311916 560.714265 
L 73.631629 561.914803 
L 67.783195 562.896493 
L 61.811199 563.648264 
L 55.751572 564.17196 
L 49.63321 564.47757 
L 43.488093 564.567059 
L 37.34845 564.438381 
L 29.212237 563.92744 
L 23.164697 563.325486 
L 15.216968 562.257837 
L 9.332776 561.30579 
L -0.327698 559.48609 
L -1 559.343907 
M -1 298.156875 
L 56.182785 298.309242 
L 56.182785 298.309242 
" style="fill:none;stroke:#000000;stroke-linecap:square;stroke-width:0.5;"/>
   </g>
   <g id="line2d_16">
    <path clip-path="url(#p1032f55ee1)" d="M 339.06703 44.512583 
L 337.864833 44.440717 
L 336.797816 44.474764 
L 335.682512 44.519266 
L 334.430027 44.528042 
L 332.988786 44.474208 
L 331.646991 44.507849 
L 330.188537 44.51667 
L 328.687935 44.539521 
L 327.312475 44.663452 
L 325.151711 44.414851 
L 324.096015 44.777083 
L 322.233784 44.755665 
L 320.110956 44.634492 
L 317.979116 44.543966 
L 316.575053 44.862492 
L 314.267946 44.729684 
L 312.094306 44.677119 
L 310.685724 45.036922 
L 308.506287 45.009909 
L 307.27069 45.489096 
L 305.131954 45.510472 
L 303.81209 45.963256 
L 302.333467 46.338209 
L 301.046139 46.827987 
L 299.834418 47.380825 
L 297.937042 47.605364 
L 296.54208 48.124879 
L 296.2747 49.263326 
L 294.261769 49.512888 
L 293.811697 50.583808 
L 292.726558 51.326706 
L 291.673116 52.077556 
L 289.997291 52.488802 
L 289.618462 53.553894 
L 288.070337 53.986321 
L 286.212688 54.227325 
L 285.649245 55.106708 
L 284.165221 55.468543 
L 282.24836 55.561537 
L 281.232606 56.071979 
L 279.599488 56.210848 
L 278.15808 56.397935 
L 277.05202 56.703876 
L 275.415605 56.682845 
L 274.341164 56.909447 
L 272.767659 56.839602 
L 272.44505 57.393342 
L 270.385265 57.023043 
L 269.200192 57.090235 
L 266.959741 56.591581 
L 266.490572 56.997935 
L 264.861242 56.784805 
L 263.293678 56.606972 
L 262.057202 56.60485 
L 260.573706 56.463735 
L 259.246009 56.392478 
L 259.070562 56.91007 
L 256.466572 56.154443 
L 255.175137 56.072503 
L 254.767585 56.441834 
L 253.888886 56.557915 
L 252.229356 56.259802 
L 250.974564 56.164379 
L 249.042528 55.708796 
L 248.86771 56.159604 
L 247.503327 55.984091 
L 246.233807 55.850736 
L 245.556375 56.018577 
L 243.908447 55.675112 
L 243.876238 56.166058 
L 242.965116 56.194019 
L 240.712553 55.51876 
L 240.697529 56.002541 
L 238.935983 55.573617 
L 239.058259 56.138586 
L 236.219424 55.173526 
L 236.487696 55.834601 
L 234.750292 55.470099 
L 232.493923 54.858298 
L 232.369861 55.381403 
L 230.4553 55.000297 
L 231.031106 55.943209 
L 229.143458 55.633594 
L 227.069742 55.25664 
L 224.693067 54.751825 
L 223.523447 54.904907 
L 222.606486 55.21943 
L 221.706467 55.5728 
L 219.164922 55.102351 
L 217.723705 55.234348 
L 215.107261 54.794554 
L 213.02531 54.669443 
L 211.067775 54.641085 
L 210.404061 55.316939 
L 207.499012 54.85347 
L 204.759344 54.49263 
L 203.430023 54.868785 
L 200.488945 54.40034 
L 197.159112 53.720914 
L 196.783002 54.56949 
L 193.432089 53.862452 
L 192.126704 54.212581 
L 190.049967 54.161261 
L 189.806928 55.064552 
L 185.953365 54.091344 
L 184.418603 54.328114 
L 182.865507 54.56001 
L 179.814865 54.017361 
L 177.630214 53.928944 
L 176.9943 54.648713 
" style="fill:none;stroke:#ff0000;stroke-linecap:square;"/>
   </g>
   <g id="patch_3">
    <path d="M 51.95 119.55 
L 51.95 14.4 
" style="fill:none;stroke:#000000;stroke-linecap:square;stroke-linejoin:miter;stroke-width:0.8;"/>
   </g>
   <g id="patch_4">
    <path d="M 557.26875 119.55 
L 557.26875 14.4 
" style="fill:none;stroke:#000000;stroke-linecap:square;stroke-linejoin:miter;stroke-width:0.8;"/>
   </g>
   <g id="patch_5">
    <path d="M 51.95 119.55 
L 557.26875 119.55 
" style="fill:none;stroke:#000000;stroke-linecap:square;stroke-linejoin:miter;stroke-width:0.8;"/>
   </g>
   <g id="patch_6">
    <path d="M 51.95 14.4 
L 557.26875 14.4 
" style="fill:none;stroke:#000000;stroke-linecap:square;stroke-linejoin:miter;stroke-width:0.8;"/>
   </g>
   <g id="legend_1">
    <g id="patch_7">
     <path d="M 397.507813 81.1125 
L 550.26875 81.1125 
Q 552.26875 81.1125 552.26875 79.1125 
L 552.26875 21.4 
Q 552.26875 19.4 550.26875 19.4 
L 397.507813 19.4 
Q 395.507813 19.4 395.507813 21.4 
L 395.507813 79.1125 
Q 395.507813 81.1125 397.507813 81.1125 
z
" style="fill:#ffffff;opacity:0.8;stroke:#cccccc;stroke-linejoin:miter;"/>
    </g>
    <g id="line2d_17">
     <path d="M 399.507813 27.498438 
L 419.507813 27.498438 
" style="fill:none;stroke:#0000ff;stroke-linecap:square;"/>
    </g>
    <g id="line2d_18"/>
    <g id="text_13">
     <!-- Egofahrzeug -->
     <g transform="translate(427.507813 30.998438)scale(0.1 -0.1)">
      <defs>
       <path d="M 9.8125 72.90625 
L 55.90625 72.90625 
L 55.90625 64.59375 
L 19.671875 64.59375 
L 19.671875 43.015625 
L 54.390625 43.015625 
L 54.390625 34.71875 
L 19.671875 34.71875 
L 19.671875 8.296875 
L 56.78125 8.296875 
L 56.78125 0 
L 9.8125 0 
z
" id="DejaVuSans-69"/>
       <path d="M 45.40625 27.984375 
Q 45.40625 37.75 41.375 43.109375 
Q 37.359375 48.484375 30.078125 48.484375 
Q 22.859375 48.484375 18.828125 43.109375 
Q 14.796875 37.75 14.796875 27.984375 
Q 14.796875 18.265625 18.828125 12.890625 
Q 22.859375 7.515625 30.078125 7.515625 
Q 37.359375 7.515625 41.375 12.890625 
Q 45.40625 18.265625 45.40625 27.984375 
z
M 54.390625 6.78125 
Q 54.390625 -7.171875 48.1875 -13.984375 
Q 42 -20.796875 29.203125 -20.796875 
Q 24.46875 -20.796875 20.265625 -20.09375 
Q 16.0625 -19.390625 12.109375 -17.921875 
L 12.109375 -9.1875 
Q 16.0625 -11.328125 19.921875 -12.34375 
Q 23.78125 -13.375 27.78125 -13.375 
Q 36.625 -13.375 41.015625 -8.765625 
Q 45.40625 -4.15625 45.40625 5.171875 
L 45.40625 9.625 
Q 42.625 4.78125 38.28125 2.390625 
Q 33.9375 0 27.875 0 
Q 17.828125 0 11.671875 7.65625 
Q 5.515625 15.328125 5.515625 27.984375 
Q 5.515625 40.671875 11.671875 48.328125 
Q 17.828125 56 27.875 56 
Q 33.9375 56 38.28125 53.609375 
Q 42.625 51.21875 45.40625 46.390625 
L 45.40625 54.6875 
L 54.390625 54.6875 
z
" id="DejaVuSans-103"/>
       <path d="M 30.609375 48.390625 
Q 23.390625 48.390625 19.1875 42.75 
Q 14.984375 37.109375 14.984375 27.296875 
Q 14.984375 17.484375 19.15625 11.84375 
Q 23.34375 6.203125 30.609375 6.203125 
Q 37.796875 6.203125 41.984375 11.859375 
Q 46.1875 17.53125 46.1875 27.296875 
Q 46.1875 37.015625 41.984375 42.703125 
Q 37.796875 48.390625 30.609375 48.390625 
z
M 30.609375 56 
Q 42.328125 56 49.015625 48.375 
Q 55.71875 40.765625 55.71875 27.296875 
Q 55.71875 13.875 49.015625 6.21875 
Q 42.328125 -1.421875 30.609375 -1.421875 
Q 18.84375 -1.421875 12.171875 6.21875 
Q 5.515625 13.875 5.515625 27.296875 
Q 5.515625 40.765625 12.171875 48.375 
Q 18.84375 56 30.609375 56 
z
" id="DejaVuSans-111"/>
       <path d="M 37.109375 75.984375 
L 37.109375 68.5 
L 28.515625 68.5 
Q 23.6875 68.5 21.796875 66.546875 
Q 19.921875 64.59375 19.921875 59.515625 
L 19.921875 54.6875 
L 34.71875 54.6875 
L 34.71875 47.703125 
L 19.921875 47.703125 
L 19.921875 0 
L 10.890625 0 
L 10.890625 47.703125 
L 2.296875 47.703125 
L 2.296875 54.6875 
L 10.890625 54.6875 
L 10.890625 58.5 
Q 10.890625 67.625 15.140625 71.796875 
Q 19.390625 75.984375 28.609375 75.984375 
z
" id="DejaVuSans-102"/>
       <path d="M 34.28125 27.484375 
Q 23.390625 27.484375 19.1875 25 
Q 14.984375 22.515625 14.984375 16.5 
Q 14.984375 11.71875 18.140625 8.90625 
Q 21.296875 6.109375 26.703125 6.109375 
Q 34.1875 6.109375 38.703125 11.40625 
Q 43.21875 16.703125 43.21875 25.484375 
L 43.21875 27.484375 
z
M 52.203125 31.203125 
L 52.203125 0 
L 43.21875 0 
L 43.21875 8.296875 
Q 40.140625 3.328125 35.546875 0.953125 
Q 30.953125 -1.421875 24.3125 -1.421875 
Q 15.921875 -1.421875 10.953125 3.296875 
Q 6 8.015625 6 15.921875 
Q 6 25.140625 12.171875 29.828125 
Q 18.359375 34.515625 30.609375 34.515625 
L 43.21875 34.515625 
L 43.21875 35.40625 
Q 43.21875 41.609375 39.140625 45 
Q 35.0625 48.390625 27.6875 48.390625 
Q 23 48.390625 18.546875 47.265625 
Q 14.109375 46.140625 10.015625 43.890625 
L 10.015625 52.203125 
Q 14.9375 54.109375 19.578125 55.046875 
Q 24.21875 56 28.609375 56 
Q 40.484375 56 46.34375 49.84375 
Q 52.203125 43.703125 52.203125 31.203125 
z
" id="DejaVuSans-97"/>
       <path d="M 54.890625 33.015625 
L 54.890625 0 
L 45.90625 0 
L 45.90625 32.71875 
Q 45.90625 40.484375 42.875 44.328125 
Q 39.84375 48.1875 33.796875 48.1875 
Q 26.515625 48.1875 22.3125 43.546875 
Q 18.109375 38.921875 18.109375 30.90625 
L 18.109375 0 
L 9.078125 0 
L 9.078125 75.984375 
L 18.109375 75.984375 
L 18.109375 46.1875 
Q 21.34375 51.125 25.703125 53.5625 
Q 30.078125 56 35.796875 56 
Q 45.21875 56 50.046875 50.171875 
Q 54.890625 44.34375 54.890625 33.015625 
z
" id="DejaVuSans-104"/>
       <path d="M 41.109375 46.296875 
Q 39.59375 47.171875 37.8125 47.578125 
Q 36.03125 48 33.890625 48 
Q 26.265625 48 22.1875 43.046875 
Q 18.109375 38.09375 18.109375 28.8125 
L 18.109375 0 
L 9.078125 0 
L 9.078125 54.6875 
L 18.109375 54.6875 
L 18.109375 46.1875 
Q 20.953125 51.171875 25.484375 53.578125 
Q 30.03125 56 36.53125 56 
Q 37.453125 56 38.578125 55.875 
Q 39.703125 55.765625 41.0625 55.515625 
z
" id="DejaVuSans-114"/>
       <path d="M 5.515625 54.6875 
L 48.1875 54.6875 
L 48.1875 46.484375 
L 14.40625 7.171875 
L 48.1875 7.171875 
L 48.1875 0 
L 4.296875 0 
L 4.296875 8.203125 
L 38.09375 47.515625 
L 5.515625 47.515625 
z
" id="DejaVuSans-122"/>
       <path d="M 56.203125 29.59375 
L 56.203125 25.203125 
L 14.890625 25.203125 
Q 15.484375 15.921875 20.484375 11.0625 
Q 25.484375 6.203125 34.421875 6.203125 
Q 39.59375 6.203125 44.453125 7.46875 
Q 49.3125 8.734375 54.109375 11.28125 
L 54.109375 2.78125 
Q 49.265625 0.734375 44.1875 -0.34375 
Q 39.109375 -1.421875 33.890625 -1.421875 
Q 20.796875 -1.421875 13.15625 6.1875 
Q 5.515625 13.8125 5.515625 26.8125 
Q 5.515625 40.234375 12.765625 48.109375 
Q 20.015625 56 32.328125 56 
Q 43.359375 56 49.78125 48.890625 
Q 56.203125 41.796875 56.203125 29.59375 
z
M 47.21875 32.234375 
Q 47.125 39.59375 43.09375 43.984375 
Q 39.0625 48.390625 32.421875 48.390625 
Q 24.90625 48.390625 20.390625 44.140625 
Q 15.875 39.890625 15.1875 32.171875 
z
" id="DejaVuSans-101"/>
       <path d="M 8.5 21.578125 
L 8.5 54.6875 
L 17.484375 54.6875 
L 17.484375 21.921875 
Q 17.484375 14.15625 20.5 10.265625 
Q 23.53125 6.390625 29.59375 6.390625 
Q 36.859375 6.390625 41.078125 11.03125 
Q 45.3125 15.671875 45.3125 23.6875 
L 45.3125 54.6875 
L 54.296875 54.6875 
L 54.296875 0 
L 45.3125 0 
L 45.3125 8.40625 
Q 42.046875 3.421875 37.71875 1 
Q 33.40625 -1.421875 27.6875 -1.421875 
Q 18.265625 -1.421875 13.375 4.4375 
Q 8.5 10.296875 8.5 21.578125 
z
M 31.109375 56 
z
" id="DejaVuSans-117"/>
      </defs>
      <use xlink:href="#DejaVuSans-69"/>
      <use x="63.183594" xlink:href="#DejaVuSans-103"/>
      <use x="126.660156" xlink:href="#DejaVuSans-111"/>
      <use x="187.841797" xlink:href="#DejaVuSans-102"/>
      <use x="223.046875" xlink:href="#DejaVuSans-97"/>
      <use x="284.326172" xlink:href="#DejaVuSans-104"/>
      <use x="347.705078" xlink:href="#DejaVuSans-114"/>
      <use x="388.818359" xlink:href="#DejaVuSans-122"/>
      <use x="441.308594" xlink:href="#DejaVuSans-101"/>
      <use x="502.832031" xlink:href="#DejaVuSans-117"/>
      <use x="566.210938" xlink:href="#DejaVuSans-103"/>
     </g>
    </g>
    <g id="line2d_19">
     <path d="M 399.507813 42.176563 
L 419.507813 42.176563 
" style="fill:none;stroke:#000000;stroke-linecap:square;stroke-width:0.5;"/>
    </g>
    <g id="line2d_20"/>
    <g id="text_14">
     <!-- Ground Truth - Fahrzeug -->
     <g transform="translate(427.507813 45.676563)scale(0.1 -0.1)">
      <defs>
       <path d="M 59.515625 10.40625 
L 59.515625 29.984375 
L 43.40625 29.984375 
L 43.40625 38.09375 
L 69.28125 38.09375 
L 69.28125 6.78125 
Q 63.578125 2.734375 56.6875 0.65625 
Q 49.8125 -1.421875 42 -1.421875 
Q 24.90625 -1.421875 15.25 8.5625 
Q 5.609375 18.5625 5.609375 36.375 
Q 5.609375 54.25 15.25 64.234375 
Q 24.90625 74.21875 42 74.21875 
Q 49.125 74.21875 55.546875 72.453125 
Q 61.96875 70.703125 67.390625 67.28125 
L 67.390625 56.78125 
Q 61.921875 61.421875 55.765625 63.765625 
Q 49.609375 66.109375 42.828125 66.109375 
Q 29.4375 66.109375 22.71875 58.640625 
Q 16.015625 51.171875 16.015625 36.375 
Q 16.015625 21.625 22.71875 14.15625 
Q 29.4375 6.6875 42.828125 6.6875 
Q 48.046875 6.6875 52.140625 7.59375 
Q 56.25 8.5 59.515625 10.40625 
z
" id="DejaVuSans-71"/>
       <path d="M 54.890625 33.015625 
L 54.890625 0 
L 45.90625 0 
L 45.90625 32.71875 
Q 45.90625 40.484375 42.875 44.328125 
Q 39.84375 48.1875 33.796875 48.1875 
Q 26.515625 48.1875 22.3125 43.546875 
Q 18.109375 38.921875 18.109375 30.90625 
L 18.109375 0 
L 9.078125 0 
L 9.078125 54.6875 
L 18.109375 54.6875 
L 18.109375 46.1875 
Q 21.34375 51.125 25.703125 53.5625 
Q 30.078125 56 35.796875 56 
Q 45.21875 56 50.046875 50.171875 
Q 54.890625 44.34375 54.890625 33.015625 
z
" id="DejaVuSans-110"/>
       <path d="M 45.40625 46.390625 
L 45.40625 75.984375 
L 54.390625 75.984375 
L 54.390625 0 
L 45.40625 0 
L 45.40625 8.203125 
Q 42.578125 3.328125 38.25 0.953125 
Q 33.9375 -1.421875 27.875 -1.421875 
Q 17.96875 -1.421875 11.734375 6.484375 
Q 5.515625 14.40625 5.515625 27.296875 
Q 5.515625 40.1875 11.734375 48.09375 
Q 17.96875 56 27.875 56 
Q 33.9375 56 38.25 53.625 
Q 42.578125 51.265625 45.40625 46.390625 
z
M 14.796875 27.296875 
Q 14.796875 17.390625 18.875 11.75 
Q 22.953125 6.109375 30.078125 6.109375 
Q 37.203125 6.109375 41.296875 11.75 
Q 45.40625 17.390625 45.40625 27.296875 
Q 45.40625 37.203125 41.296875 42.84375 
Q 37.203125 48.484375 30.078125 48.484375 
Q 22.953125 48.484375 18.875 42.84375 
Q 14.796875 37.203125 14.796875 27.296875 
z
" id="DejaVuSans-100"/>
       <path id="DejaVuSans-32"/>
       <path d="M -0.296875 72.90625 
L 61.375 72.90625 
L 61.375 64.59375 
L 35.5 64.59375 
L 35.5 0 
L 25.59375 0 
L 25.59375 64.59375 
L -0.296875 64.59375 
z
" id="DejaVuSans-84"/>
       <path d="M 18.3125 70.21875 
L 18.3125 54.6875 
L 36.8125 54.6875 
L 36.8125 47.703125 
L 18.3125 47.703125 
L 18.3125 18.015625 
Q 18.3125 11.328125 20.140625 9.421875 
Q 21.96875 7.515625 27.59375 7.515625 
L 36.8125 7.515625 
L 36.8125 0 
L 27.59375 0 
Q 17.1875 0 13.234375 3.875 
Q 9.28125 7.765625 9.28125 18.015625 
L 9.28125 47.703125 
L 2.6875 47.703125 
L 2.6875 54.6875 
L 9.28125 54.6875 
L 9.28125 70.21875 
z
" id="DejaVuSans-116"/>
       <path d="M 4.890625 31.390625 
L 31.203125 31.390625 
L 31.203125 23.390625 
L 4.890625 23.390625 
z
" id="DejaVuSans-45"/>
       <path d="M 9.8125 72.90625 
L 51.703125 72.90625 
L 51.703125 64.59375 
L 19.671875 64.59375 
L 19.671875 43.109375 
L 48.578125 43.109375 
L 48.578125 34.8125 
L 19.671875 34.8125 
L 19.671875 0 
L 9.8125 0 
z
" id="DejaVuSans-70"/>
      </defs>
      <use xlink:href="#DejaVuSans-71"/>
      <use x="77.490234" xlink:href="#DejaVuSans-114"/>
      <use x="116.353516" xlink:href="#DejaVuSans-111"/>
      <use x="177.535156" xlink:href="#DejaVuSans-117"/>
      <use x="240.914062" xlink:href="#DejaVuSans-110"/>
      <use x="304.292969" xlink:href="#DejaVuSans-100"/>
      <use x="367.769531" xlink:href="#DejaVuSans-32"/>
      <use x="399.556641" xlink:href="#DejaVuSans-84"/>
      <use x="445.890625" xlink:href="#DejaVuSans-114"/>
      <use x="487.003906" xlink:href="#DejaVuSans-117"/>
      <use x="550.382812" xlink:href="#DejaVuSans-116"/>
      <use x="589.591797" xlink:href="#DejaVuSans-104"/>
      <use x="652.970703" xlink:href="#DejaVuSans-32"/>
      <use x="684.757812" xlink:href="#DejaVuSans-45"/>
      <use x="720.841797" xlink:href="#DejaVuSans-32"/>
      <use x="752.628906" xlink:href="#DejaVuSans-70"/>
      <use x="801.023438" xlink:href="#DejaVuSans-97"/>
      <use x="862.302734" xlink:href="#DejaVuSans-104"/>
      <use x="925.681641" xlink:href="#DejaVuSans-114"/>
      <use x="966.794922" xlink:href="#DejaVuSans-122"/>
      <use x="1019.285156" xlink:href="#DejaVuSans-101"/>
      <use x="1080.808594" xlink:href="#DejaVuSans-117"/>
      <use x="1144.1875" xlink:href="#DejaVuSans-103"/>
     </g>
    </g>
    <g id="line2d_21">
     <path d="M 399.507813 56.854688 
L 419.507813 56.854688 
" style="fill:none;stroke:#ff0000;stroke-linecap:square;"/>
    </g>
    <g id="line2d_22"/>
    <g id="text_15">
     <!-- Sensordaten - Fahrzeug -->
     <g transform="translate(427.507813 60.354688)scale(0.1 -0.1)">
      <defs>
       <path d="M 53.515625 70.515625 
L 53.515625 60.890625 
Q 47.90625 63.578125 42.921875 64.890625 
Q 37.9375 66.21875 33.296875 66.21875 
Q 25.25 66.21875 20.875 63.09375 
Q 16.5 59.96875 16.5 54.203125 
Q 16.5 49.359375 19.40625 46.890625 
Q 22.3125 44.4375 30.421875 42.921875 
L 36.375 41.703125 
Q 47.40625 39.59375 52.65625 34.296875 
Q 57.90625 29 57.90625 20.125 
Q 57.90625 9.515625 50.796875 4.046875 
Q 43.703125 -1.421875 29.984375 -1.421875 
Q 24.8125 -1.421875 18.96875 -0.25 
Q 13.140625 0.921875 6.890625 3.21875 
L 6.890625 13.375 
Q 12.890625 10.015625 18.65625 8.296875 
Q 24.421875 6.59375 29.984375 6.59375 
Q 38.421875 6.59375 43.015625 9.90625 
Q 47.609375 13.234375 47.609375 19.390625 
Q 47.609375 24.75 44.3125 27.78125 
Q 41.015625 30.8125 33.5 32.328125 
L 27.484375 33.5 
Q 16.453125 35.6875 11.515625 40.375 
Q 6.59375 45.0625 6.59375 53.421875 
Q 6.59375 63.09375 13.40625 68.65625 
Q 20.21875 74.21875 32.171875 74.21875 
Q 37.3125 74.21875 42.625 73.28125 
Q 47.953125 72.359375 53.515625 70.515625 
z
" id="DejaVuSans-83"/>
       <path d="M 44.28125 53.078125 
L 44.28125 44.578125 
Q 40.484375 46.53125 36.375 47.5 
Q 32.28125 48.484375 27.875 48.484375 
Q 21.1875 48.484375 17.84375 46.4375 
Q 14.5 44.390625 14.5 40.28125 
Q 14.5 37.15625 16.890625 35.375 
Q 19.28125 33.59375 26.515625 31.984375 
L 29.59375 31.296875 
Q 39.15625 29.25 43.1875 25.515625 
Q 47.21875 21.78125 47.21875 15.09375 
Q 47.21875 7.46875 41.1875 3.015625 
Q 35.15625 -1.421875 24.609375 -1.421875 
Q 20.21875 -1.421875 15.453125 -0.5625 
Q 10.6875 0.296875 5.421875 2 
L 5.421875 11.28125 
Q 10.40625 8.6875 15.234375 7.390625 
Q 20.0625 6.109375 24.8125 6.109375 
Q 31.15625 6.109375 34.5625 8.28125 
Q 37.984375 10.453125 37.984375 14.40625 
Q 37.984375 18.0625 35.515625 20.015625 
Q 33.0625 21.96875 24.703125 23.78125 
L 21.578125 24.515625 
Q 13.234375 26.265625 9.515625 29.90625 
Q 5.8125 33.546875 5.8125 39.890625 
Q 5.8125 47.609375 11.28125 51.796875 
Q 16.75 56 26.8125 56 
Q 31.78125 56 36.171875 55.265625 
Q 40.578125 54.546875 44.28125 53.078125 
z
" id="DejaVuSans-115"/>
      </defs>
      <use xlink:href="#DejaVuSans-83"/>
      <use x="63.476562" xlink:href="#DejaVuSans-101"/>
      <use x="125" xlink:href="#DejaVuSans-110"/>
      <use x="188.378906" xlink:href="#DejaVuSans-115"/>
      <use x="240.478516" xlink:href="#DejaVuSans-111"/>
      <use x="301.660156" xlink:href="#DejaVuSans-114"/>
      <use x="341.023438" xlink:href="#DejaVuSans-100"/>
      <use x="404.5" xlink:href="#DejaVuSans-97"/>
      <use x="465.779297" xlink:href="#DejaVuSans-116"/>
      <use x="504.988281" xlink:href="#DejaVuSans-101"/>
      <use x="566.511719" xlink:href="#DejaVuSans-110"/>
      <use x="629.890625" xlink:href="#DejaVuSans-32"/>
      <use x="661.677734" xlink:href="#DejaVuSans-45"/>
      <use x="697.761719" xlink:href="#DejaVuSans-32"/>
      <use x="729.548828" xlink:href="#DejaVuSans-70"/>
      <use x="777.943359" xlink:href="#DejaVuSans-97"/>
      <use x="839.222656" xlink:href="#DejaVuSans-104"/>
      <use x="902.601562" xlink:href="#DejaVuSans-114"/>
      <use x="943.714844" xlink:href="#DejaVuSans-122"/>
      <use x="996.205078" xlink:href="#DejaVuSans-101"/>
      <use x="1057.728516" xlink:href="#DejaVuSans-117"/>
      <use x="1121.107422" xlink:href="#DejaVuSans-103"/>
     </g>
    </g>
    <g id="PathCollection_23">
     <g>
      <use style="stroke:#000000;" x="409.507813" xlink:href="#m714985d279" y="72.407813"/>
     </g>
    </g>
    <g id="text_16">
     <!-- Ground Truth - Ampel -->
     <g transform="translate(427.507813 75.032813)scale(0.1 -0.1)">
      <defs>
       <path d="M 34.1875 63.1875 
L 20.796875 26.90625 
L 47.609375 26.90625 
z
M 28.609375 72.90625 
L 39.796875 72.90625 
L 67.578125 0 
L 57.328125 0 
L 50.6875 18.703125 
L 17.828125 18.703125 
L 11.1875 0 
L 0.78125 0 
z
" id="DejaVuSans-65"/>
       <path d="M 52 44.1875 
Q 55.375 50.25 60.0625 53.125 
Q 64.75 56 71.09375 56 
Q 79.640625 56 84.28125 50.015625 
Q 88.921875 44.046875 88.921875 33.015625 
L 88.921875 0 
L 79.890625 0 
L 79.890625 32.71875 
Q 79.890625 40.578125 77.09375 44.375 
Q 74.3125 48.1875 68.609375 48.1875 
Q 61.625 48.1875 57.5625 43.546875 
Q 53.515625 38.921875 53.515625 30.90625 
L 53.515625 0 
L 44.484375 0 
L 44.484375 32.71875 
Q 44.484375 40.625 41.703125 44.40625 
Q 38.921875 48.1875 33.109375 48.1875 
Q 26.21875 48.1875 22.15625 43.53125 
Q 18.109375 38.875 18.109375 30.90625 
L 18.109375 0 
L 9.078125 0 
L 9.078125 54.6875 
L 18.109375 54.6875 
L 18.109375 46.1875 
Q 21.1875 51.21875 25.484375 53.609375 
Q 29.78125 56 35.6875 56 
Q 41.65625 56 45.828125 52.96875 
Q 50 49.953125 52 44.1875 
z
" id="DejaVuSans-109"/>
       <path d="M 18.109375 8.203125 
L 18.109375 -20.796875 
L 9.078125 -20.796875 
L 9.078125 54.6875 
L 18.109375 54.6875 
L 18.109375 46.390625 
Q 20.953125 51.265625 25.265625 53.625 
Q 29.59375 56 35.59375 56 
Q 45.5625 56 51.78125 48.09375 
Q 58.015625 40.1875 58.015625 27.296875 
Q 58.015625 14.40625 51.78125 6.484375 
Q 45.5625 -1.421875 35.59375 -1.421875 
Q 29.59375 -1.421875 25.265625 0.953125 
Q 20.953125 3.328125 18.109375 8.203125 
z
M 48.6875 27.296875 
Q 48.6875 37.203125 44.609375 42.84375 
Q 40.53125 48.484375 33.40625 48.484375 
Q 26.265625 48.484375 22.1875 42.84375 
Q 18.109375 37.203125 18.109375 27.296875 
Q 18.109375 17.390625 22.1875 11.75 
Q 26.265625 6.109375 33.40625 6.109375 
Q 40.53125 6.109375 44.609375 11.75 
Q 48.6875 17.390625 48.6875 27.296875 
z
" id="DejaVuSans-112"/>
       <path d="M 9.421875 75.984375 
L 18.40625 75.984375 
L 18.40625 0 
L 9.421875 0 
z
" id="DejaVuSans-108"/>
      </defs>
      <use xlink:href="#DejaVuSans-71"/>
      <use x="77.490234" xlink:href="#DejaVuSans-114"/>
      <use x="116.353516" xlink:href="#DejaVuSans-111"/>
      <use x="177.535156" xlink:href="#DejaVuSans-117"/>
      <use x="240.914062" xlink:href="#DejaVuSans-110"/>
      <use x="304.292969" xlink:href="#DejaVuSans-100"/>
      <use x="367.769531" xlink:href="#DejaVuSans-32"/>
      <use x="399.556641" xlink:href="#DejaVuSans-84"/>
      <use x="445.890625" xlink:href="#DejaVuSans-114"/>
      <use x="487.003906" xlink:href="#DejaVuSans-117"/>
      <use x="550.382812" xlink:href="#DejaVuSans-116"/>
      <use x="589.591797" xlink:href="#DejaVuSans-104"/>
      <use x="652.970703" xlink:href="#DejaVuSans-32"/>
      <use x="684.757812" xlink:href="#DejaVuSans-45"/>
      <use x="720.841797" xlink:href="#DejaVuSans-32"/>
      <use x="752.628906" xlink:href="#DejaVuSans-65"/>
      <use x="821.037109" xlink:href="#DejaVuSans-109"/>
      <use x="918.449219" xlink:href="#DejaVuSans-112"/>
      <use x="981.925781" xlink:href="#DejaVuSans-101"/>
      <use x="1043.449219" xlink:href="#DejaVuSans-108"/>
     </g>
    </g>
   </g>
  </g>
  <g id="axes_2">
   <g id="patch_8">
    <path d="M 51.95 268.1 
L 557.26875 268.1 
L 557.26875 162.95 
L 51.95 162.95 
z
" style="fill:none;"/>
   </g>
   <g id="PathCollection_24">
    <g clip-path="url(#pe8b0fc11a9)">
     <use style="stroke:#000000;" x="220.542747" xlink:href="#m714985d279" y="461.547838"/>
    </g>
   </g>
   <g id="PathCollection_25">
    <g clip-path="url(#pe8b0fc11a9)">
     <use style="stroke:#000000;" x="66.60776" xlink:href="#m714985d279" y="698.572293"/>
    </g>
   </g>
   <g id="PathCollection_26">
    <g clip-path="url(#pe8b0fc11a9)">
     <use style="stroke:#000000;" x="83.707471" xlink:href="#m714985d279" y="756.586338"/>
    </g>
   </g>
   <g id="PathCollection_27">
    <g clip-path="url(#pe8b0fc11a9)"/>
   </g>
   <g id="PathCollection_28">
    <g clip-path="url(#pe8b0fc11a9)">
     <use style="stroke:#000000;" x="81.044998" xlink:href="#m714985d279" y="237.873657"/>
    </g>
   </g>
   <g id="PathCollection_29">
    <g clip-path="url(#pe8b0fc11a9)"/>
   </g>
   <g id="PathCollection_30">
    <g clip-path="url(#pe8b0fc11a9)">
     <use style="stroke:#000000;" x="65.330488" xlink:href="#m714985d279" y="426.342624"/>
    </g>
   </g>
   <g id="PathCollection_31">
    <g clip-path="url(#pe8b0fc11a9)">
     <use style="stroke:#000000;" x="55.668182" xlink:href="#m714985d279" y="391.817674"/>
    </g>
   </g>
   <g id="PathCollection_32">
    <g clip-path="url(#pe8b0fc11a9)">
     <use style="stroke:#000000;" x="219.054659" xlink:href="#m714985d279" y="426.618762"/>
    </g>
   </g>
   <g id="PathCollection_33">
    <g clip-path="url(#pe8b0fc11a9)">
     <use style="stroke:#000000;" x="834.14242" xlink:href="#m714985d279" y="428.249091"/>
    </g>
   </g>
   <g id="PathCollection_34">
    <g clip-path="url(#pe8b0fc11a9)">
     <use style="stroke:#000000;" x="958.754043" xlink:href="#m714985d279" y="428.968993"/>
    </g>
   </g>
   <g id="PathCollection_35">
    <g clip-path="url(#pe8b0fc11a9)">
     <use style="stroke:#000000;" x="206.329154" xlink:href="#m714985d279" y="239.12989"/>
    </g>
   </g>
   <g id="PathCollection_36">
    <g clip-path="url(#pe8b0fc11a9)">
     <use style="stroke:#000000;" x="147.093549" xlink:href="#m714985d279" y="179.888041"/>
    </g>
   </g>
   <g id="PathCollection_37">
    <g clip-path="url(#pe8b0fc11a9)">
     <use style="stroke:#000000;" x="963.796821" xlink:href="#m714985d279" y="465.374399"/>
    </g>
   </g>
   <g id="PathCollection_38">
    <g clip-path="url(#pe8b0fc11a9)"/>
   </g>
   <g id="PathCollection_39">
    <g clip-path="url(#pe8b0fc11a9)">
     <use style="stroke:#000000;" x="238.159913" xlink:href="#m714985d279" y="546.825677"/>
    </g>
   </g>
   <g id="PathCollection_40">
    <g clip-path="url(#pe8b0fc11a9)">
     <use style="stroke:#000000;" x="602.980643" xlink:href="#m714985d279" y="472.61383"/>
    </g>
   </g>
   <g id="PathCollection_41">
    <g clip-path="url(#pe8b0fc11a9)">
     <use style="stroke:#000000;" x="598.452217" xlink:href="#m714985d279" y="547.930429"/>
    </g>
   </g>
   <g id="PathCollection_42">
    <g clip-path="url(#pe8b0fc11a9)">
     <use style="stroke:#000000;" x="631.04528" xlink:href="#m714985d279" y="474.456875"/>
    </g>
   </g>
   <g id="PathCollection_43">
    <g clip-path="url(#pe8b0fc11a9)">
     <use style="stroke:#000000;" x="559.037358" xlink:href="#m714985d279" y="514.150996"/>
    </g>
   </g>
   <g id="PathCollection_44">
    <g clip-path="url(#pe8b0fc11a9)">
     <use style="stroke:#000000;" x="512.295374" xlink:href="#m714985d279" y="570.800567"/>
    </g>
   </g>
   <g id="PathCollection_45">
    <g clip-path="url(#pe8b0fc11a9)">
     <use style="stroke:#000000;" x="670.712794" xlink:href="#m714985d279" y="533.998056"/>
    </g>
   </g>
   <g id="matplotlib.axis_3">
    <g id="xtick_6">
     <g id="line2d_23">
      <g>
       <use style="stroke:#000000;stroke-width:0.8;" x="77.215938" xlink:href="#m8527c41e93" y="268.1"/>
      </g>
     </g>
     <g id="text_17">
      <!-- −60 -->
      <g transform="translate(66.663594 282.698438)scale(0.1 -0.1)">
       <use xlink:href="#DejaVuSans-8722"/>
       <use x="83.789062" xlink:href="#DejaVuSans-54"/>
       <use x="147.412109" xlink:href="#DejaVuSans-48"/>
      </g>
     </g>
    </g>
    <g id="xtick_7">
     <g id="line2d_24">
      <g>
       <use style="stroke:#000000;stroke-width:0.8;" x="178.279688" xlink:href="#m8527c41e93" y="268.1"/>
      </g>
     </g>
     <g id="text_18">
      <!-- −40 -->
      <g transform="translate(167.727344 282.698438)scale(0.1 -0.1)">
       <use xlink:href="#DejaVuSans-8722"/>
       <use x="83.789062" xlink:href="#DejaVuSans-52"/>
       <use x="147.412109" xlink:href="#DejaVuSans-48"/>
      </g>
     </g>
    </g>
    <g id="xtick_8">
     <g id="line2d_25">
      <g>
       <use style="stroke:#000000;stroke-width:0.8;" x="279.343438" xlink:href="#m8527c41e93" y="268.1"/>
      </g>
     </g>
     <g id="text_19">
      <!-- −20 -->
      <g transform="translate(268.791094 282.698438)scale(0.1 -0.1)">
       <use xlink:href="#DejaVuSans-8722"/>
       <use x="83.789062" xlink:href="#DejaVuSans-50"/>
       <use x="147.412109" xlink:href="#DejaVuSans-48"/>
      </g>
     </g>
    </g>
    <g id="xtick_9">
     <g id="line2d_26">
      <g>
       <use style="stroke:#000000;stroke-width:0.8;" x="380.407188" xlink:href="#m8527c41e93" y="268.1"/>
      </g>
     </g>
     <g id="text_20">
      <!-- 0 -->
      <g transform="translate(377.225938 282.698438)scale(0.1 -0.1)">
       <use xlink:href="#DejaVuSans-48"/>
      </g>
     </g>
    </g>
    <g id="xtick_10">
     <g id="line2d_27">
      <g>
       <use style="stroke:#000000;stroke-width:0.8;" x="481.470938" xlink:href="#m8527c41e93" y="268.1"/>
      </g>
     </g>
     <g id="text_21">
      <!-- 20 -->
      <g transform="translate(475.108438 282.698438)scale(0.1 -0.1)">
       <use xlink:href="#DejaVuSans-50"/>
       <use x="63.623047" xlink:href="#DejaVuSans-48"/>
      </g>
     </g>
    </g>
    <g id="text_22">
     <!-- x -->
     <g transform="translate(301.65 296.376563)scale(0.1 -0.1)">
      <use xlink:href="#DejaVuSans-120"/>
     </g>
    </g>
   </g>
   <g id="matplotlib.axis_4">
    <g id="ytick_6">
     <g id="line2d_28">
      <g>
       <use style="stroke:#000000;stroke-width:0.8;" x="51.95" xlink:href="#mca1b1649f6" y="162.95"/>
      </g>
     </g>
     <g id="text_23">
      <!-- −80 -->
      <g transform="translate(23.845313 166.749219)scale(0.1 -0.1)">
       <use xlink:href="#DejaVuSans-8722"/>
       <use x="83.789062" xlink:href="#DejaVuSans-56"/>
       <use x="147.412109" xlink:href="#DejaVuSans-48"/>
      </g>
     </g>
    </g>
    <g id="ytick_7">
     <g id="line2d_29">
      <g>
       <use style="stroke:#000000;stroke-width:0.8;" x="51.95" xlink:href="#mca1b1649f6" y="189.2375"/>
      </g>
     </g>
     <g id="text_24">
      <!-- −70 -->
      <g transform="translate(23.845313 193.036719)scale(0.1 -0.1)">
       <use xlink:href="#DejaVuSans-8722"/>
       <use x="83.789062" xlink:href="#DejaVuSans-55"/>
       <use x="147.412109" xlink:href="#DejaVuSans-48"/>
      </g>
     </g>
    </g>
    <g id="ytick_8">
     <g id="line2d_30">
      <g>
       <use style="stroke:#000000;stroke-width:0.8;" x="51.95" xlink:href="#mca1b1649f6" y="215.525"/>
      </g>
     </g>
     <g id="text_25">
      <!-- −60 -->
      <g transform="translate(23.845313 219.324219)scale(0.1 -0.1)">
       <use xlink:href="#DejaVuSans-8722"/>
       <use x="83.789062" xlink:href="#DejaVuSans-54"/>
       <use x="147.412109" xlink:href="#DejaVuSans-48"/>
      </g>
     </g>
    </g>
    <g id="ytick_9">
     <g id="line2d_31">
      <g>
       <use style="stroke:#000000;stroke-width:0.8;" x="51.95" xlink:href="#mca1b1649f6" y="241.8125"/>
      </g>
     </g>
     <g id="text_26">
      <!-- −50 -->
      <g transform="translate(23.845313 245.611719)scale(0.1 -0.1)">
       <use xlink:href="#DejaVuSans-8722"/>
       <use x="83.789062" xlink:href="#DejaVuSans-53"/>
       <use x="147.412109" xlink:href="#DejaVuSans-48"/>
      </g>
     </g>
    </g>
    <g id="ytick_10">
     <g id="line2d_32">
      <g>
       <use style="stroke:#000000;stroke-width:0.8;" x="51.95" xlink:href="#mca1b1649f6" y="268.1"/>
      </g>
     </g>
     <g id="text_27">
      <!-- −40 -->
      <g transform="translate(23.845313 271.899219)scale(0.1 -0.1)">
       <use xlink:href="#DejaVuSans-8722"/>
       <use x="83.789062" xlink:href="#DejaVuSans-52"/>
       <use x="147.412109" xlink:href="#DejaVuSans-48"/>
      </g>
     </g>
    </g>
    <g id="text_28">
     <!-- y -->
     <g transform="translate(17.765625 218.484375)rotate(-90)scale(0.1 -0.1)">
      <use xlink:href="#DejaVuSans-121"/>
     </g>
    </g>
   </g>
   <g id="line2d_33">
    <path clip-path="url(#pe8b0fc11a9)" d="M 363.083778 206.475876 
L 363.197641 200.789022 
" style="fill:none;stroke:#0000ff;stroke-linecap:square;"/>
   </g>
   <g id="line2d_34">
    <path clip-path="url(#pe8b0fc11a9)" d="M 363.197641 200.789022 
L 338.985195 200.657817 
" style="fill:none;stroke:#0000ff;stroke-linecap:square;"/>
   </g>
   <g id="line2d_35">
    <path clip-path="url(#pe8b0fc11a9)" d="M 338.985195 200.657817 
L 338.871329 206.344681 
" style="fill:none;stroke:#0000ff;stroke-linecap:square;"/>
   </g>
   <g id="line2d_36">
    <path clip-path="url(#pe8b0fc11a9)" d="M 338.871329 206.344681 
L 363.083778 206.475876 
" style="fill:none;stroke:#0000ff;stroke-linecap:square;"/>
   </g>
   <g id="line2d_37">
    <path clip-path="url(#pe8b0fc11a9)" d="M 169.012837 329.730612 
L 169.012529 329.730446 
L 169.013454 329.651958 
L 170.00507 258.61698 
L 170.420726 252.995217 
L 171.011104 247.610523 
L 171.651234 244.317476 
L 172.375062 241.759463 
L 173.405867 239.148131 
L 174.809496 236.500438 
L 176.630053 233.842206 
L 178.093478 232.073598 
L 179.774031 230.320634 
L 181.657199 228.583663 
L 183.75896 226.876276 
L 186.082901 225.21278 
L 188.593881 223.600777 
L 192.669775 221.330263 
L 195.598224 219.967293 
L 200.266481 218.124619 
L 203.57907 217.029223 
L 208.824443 215.595757 
L 214.317286 214.408585 
L 219.982961 213.48972 
L 225.755938 212.858936 
L 231.623466 212.500489 
L 239.572737 212.267943 
L 249.521527 212.216209 
L 293.19584 212.452155 
L 456.048134 213.136328 
L 577 213.124862 
L 577 213.124862 
" style="fill:none;stroke:#000000;stroke-linecap:square;stroke-width:0.5;"/>
   </g>
   <g id="line2d_38">
    <path clip-path="url(#pe8b0fc11a9)" d="M 193.438642 220.282223 
L 195.452055 219.891254 
L 197.490159 219.52439 
L 197.751815 218.234141 
L 200.553486 218.273924 
L 200.942158 217.061152 
L 202.596233 216.517936 
L 206.011393 216.898144 
L 206.079299 215.543916 
L 209.80133 216.103949 
L 211.598886 215.68061 
L 213.345584 215.239818 
L 214.100446 214.295782 
L 216.610742 214.286511 
L 217.565556 213.493916 
L 219.778282 213.383243 
L 222.744697 213.693467 
L 223.112273 212.668077 
L 225.601978 212.778844 
L 227.521053 212.623489 
L 229.55297 212.545685 
L 231.387598 212.377787 
L 232.883701 212.047767 
L 237.459075 213.329677 
L 237.787797 212.41537 
L 239.375118 212.165138 
L 241.30554 212.105758 
L 242.805897 211.832121 
L 245.880492 212.38856 
L 246.491431 211.669151 
L 248.80169 211.841738 
L 251.374484 212.153923 
L 253.39101 212.181888 
L 256.032173 212.535166 
L 257.968439 212.524412 
L 259.461425 212.281487 
L 261.200819 212.167916 
L 262.936634 212.049996 
L 266.048086 212.648397 
L 266.582962 211.90417 
L 269.038557 212.160164 
L 271.600236 212.46932 
L 273.328069 212.34612 
L 274.819702 212.098375 
L 277.534407 212.488526 
L 279.298854 212.382834 
L 281.64331 212.580601 
L 283.67708 212.615135 
L 285.054749 212.309909 
L 287.390219 212.501117 
L 289.077007 212.356253 
L 291.189967 212.431246 
L 292.858056 212.276434 
L 294.862123 212.294689 
L 297.324891 212.553087 
L 299.031003 212.416165 
L 300.888016 212.359437 
L 303.164977 212.519568 
L 305.244815 212.578922 
L 307.364065 212.657237 
L 309.321964 212.653498 
L 310.909819 212.455726 
L 313.407189 212.732844 
L 315.134766 212.608004 
L 317.027159 212.570583 
L 319.198318 212.676587 
L 321.2848 212.740317 
L 322.909144 212.562094 
L 325.031024 212.64433 
L 327.021654 212.656535 
L 329.007848 212.668112 
L 331.029217 212.696319 
L 333.006928 212.703451 
L 334.969312 212.701019 
L 336.95756 212.713709 
L 338.95669 212.730654 
" style="fill:none;stroke:#ff0000;stroke-linecap:square;"/>
   </g>
   <g id="patch_9">
    <path d="M 51.95 268.1 
L 51.95 162.95 
" style="fill:none;stroke:#000000;stroke-linecap:square;stroke-linejoin:miter;stroke-width:0.8;"/>
   </g>
   <g id="patch_10">
    <path d="M 557.26875 268.1 
L 557.26875 162.95 
" style="fill:none;stroke:#000000;stroke-linecap:square;stroke-linejoin:miter;stroke-width:0.8;"/>
   </g>
   <g id="patch_11">
    <path d="M 51.95 268.1 
L 557.26875 268.1 
" style="fill:none;stroke:#000000;stroke-linecap:square;stroke-linejoin:miter;stroke-width:0.8;"/>
   </g>
   <g id="patch_12">
    <path d="M 51.95 162.95 
L 557.26875 162.95 
" style="fill:none;stroke:#000000;stroke-linecap:square;stroke-linejoin:miter;stroke-width:0.8;"/>
   </g>
   <g id="legend_2">
    <g id="patch_13">
     <path d="M 397.507813 229.6625 
L 550.26875 229.6625 
Q 552.26875 229.6625 552.26875 227.6625 
L 552.26875 169.95 
Q 552.26875 167.95 550.26875 167.95 
L 397.507813 167.95 
Q 395.507813 167.95 395.507813 169.95 
L 395.507813 227.6625 
Q 395.507813 229.6625 397.507813 229.6625 
z
" style="fill:#ffffff;opacity:0.8;stroke:#cccccc;stroke-linejoin:miter;"/>
    </g>
    <g id="line2d_39">
     <path d="M 399.507813 176.048438 
L 419.507813 176.048438 
" style="fill:none;stroke:#0000ff;stroke-linecap:square;"/>
    </g>
    <g id="line2d_40"/>
    <g id="text_29">
     <!-- Egofahrzeug -->
     <g transform="translate(427.507813 179.548438)scale(0.1 -0.1)">
      <use xlink:href="#DejaVuSans-69"/>
      <use x="63.183594" xlink:href="#DejaVuSans-103"/>
      <use x="126.660156" xlink:href="#DejaVuSans-111"/>
      <use x="187.841797" xlink:href="#DejaVuSans-102"/>
      <use x="223.046875" xlink:href="#DejaVuSans-97"/>
      <use x="284.326172" xlink:href="#DejaVuSans-104"/>
      <use x="347.705078" xlink:href="#DejaVuSans-114"/>
      <use x="388.818359" xlink:href="#DejaVuSans-122"/>
      <use x="441.308594" xlink:href="#DejaVuSans-101"/>
      <use x="502.832031" xlink:href="#DejaVuSans-117"/>
      <use x="566.210938" xlink:href="#DejaVuSans-103"/>
     </g>
    </g>
    <g id="line2d_41">
     <path d="M 399.507813 190.726563 
L 419.507813 190.726563 
" style="fill:none;stroke:#000000;stroke-linecap:square;stroke-width:0.5;"/>
    </g>
    <g id="line2d_42"/>
    <g id="text_30">
     <!-- Ground Truth - Fahrzeug -->
     <g transform="translate(427.507813 194.226563)scale(0.1 -0.1)">
      <use xlink:href="#DejaVuSans-71"/>
      <use x="77.490234" xlink:href="#DejaVuSans-114"/>
      <use x="116.353516" xlink:href="#DejaVuSans-111"/>
      <use x="177.535156" xlink:href="#DejaVuSans-117"/>
      <use x="240.914062" xlink:href="#DejaVuSans-110"/>
      <use x="304.292969" xlink:href="#DejaVuSans-100"/>
      <use x="367.769531" xlink:href="#DejaVuSans-32"/>
      <use x="399.556641" xlink:href="#DejaVuSans-84"/>
      <use x="445.890625" xlink:href="#DejaVuSans-114"/>
      <use x="487.003906" xlink:href="#DejaVuSans-117"/>
      <use x="550.382812" xlink:href="#DejaVuSans-116"/>
      <use x="589.591797" xlink:href="#DejaVuSans-104"/>
      <use x="652.970703" xlink:href="#DejaVuSans-32"/>
      <use x="684.757812" xlink:href="#DejaVuSans-45"/>
      <use x="720.841797" xlink:href="#DejaVuSans-32"/>
      <use x="752.628906" xlink:href="#DejaVuSans-70"/>
      <use x="801.023438" xlink:href="#DejaVuSans-97"/>
      <use x="862.302734" xlink:href="#DejaVuSans-104"/>
      <use x="925.681641" xlink:href="#DejaVuSans-114"/>
      <use x="966.794922" xlink:href="#DejaVuSans-122"/>
      <use x="1019.285156" xlink:href="#DejaVuSans-101"/>
      <use x="1080.808594" xlink:href="#DejaVuSans-117"/>
      <use x="1144.1875" xlink:href="#DejaVuSans-103"/>
     </g>
    </g>
    <g id="line2d_43">
     <path d="M 399.507813 205.404688 
L 419.507813 205.404688 
" style="fill:none;stroke:#ff0000;stroke-linecap:square;"/>
    </g>
    <g id="line2d_44"/>
    <g id="text_31">
     <!-- Sensordaten - Fahrzeug -->
     <g transform="translate(427.507813 208.904688)scale(0.1 -0.1)">
      <use xlink:href="#DejaVuSans-83"/>
      <use x="63.476562" xlink:href="#DejaVuSans-101"/>
      <use x="125" xlink:href="#DejaVuSans-110"/>
      <use x="188.378906" xlink:href="#DejaVuSans-115"/>
      <use x="240.478516" xlink:href="#DejaVuSans-111"/>
      <use x="301.660156" xlink:href="#DejaVuSans-114"/>
      <use x="341.023438" xlink:href="#DejaVuSans-100"/>
      <use x="404.5" xlink:href="#DejaVuSans-97"/>
      <use x="465.779297" xlink:href="#DejaVuSans-116"/>
      <use x="504.988281" xlink:href="#DejaVuSans-101"/>
      <use x="566.511719" xlink:href="#DejaVuSans-110"/>
      <use x="629.890625" xlink:href="#DejaVuSans-32"/>
      <use x="661.677734" xlink:href="#DejaVuSans-45"/>
      <use x="697.761719" xlink:href="#DejaVuSans-32"/>
      <use x="729.548828" xlink:href="#DejaVuSans-70"/>
      <use x="777.943359" xlink:href="#DejaVuSans-97"/>
      <use x="839.222656" xlink:href="#DejaVuSans-104"/>
      <use x="902.601562" xlink:href="#DejaVuSans-114"/>
      <use x="943.714844" xlink:href="#DejaVuSans-122"/>
      <use x="996.205078" xlink:href="#DejaVuSans-101"/>
      <use x="1057.728516" xlink:href="#DejaVuSans-117"/>
      <use x="1121.107422" xlink:href="#DejaVuSans-103"/>
     </g>
    </g>
    <g id="PathCollection_46">
     <g>
      <use style="stroke:#000000;" x="409.507813" xlink:href="#m714985d279" y="220.957813"/>
     </g>
    </g>
    <g id="text_32">
     <!-- Ground Truth - Ampel -->
     <g transform="translate(427.507813 223.582813)scale(0.1 -0.1)">
      <use xlink:href="#DejaVuSans-71"/>
      <use x="77.490234" xlink:href="#DejaVuSans-114"/>
      <use x="116.353516" xlink:href="#DejaVuSans-111"/>
      <use x="177.535156" xlink:href="#DejaVuSans-117"/>
      <use x="240.914062" xlink:href="#DejaVuSans-110"/>
      <use x="304.292969" xlink:href="#DejaVuSans-100"/>
      <use x="367.769531" xlink:href="#DejaVuSans-32"/>
      <use x="399.556641" xlink:href="#DejaVuSans-84"/>
      <use x="445.890625" xlink:href="#DejaVuSans-114"/>
      <use x="487.003906" xlink:href="#DejaVuSans-117"/>
      <use x="550.382812" xlink:href="#DejaVuSans-116"/>
      <use x="589.591797" xlink:href="#DejaVuSans-104"/>
      <use x="652.970703" xlink:href="#DejaVuSans-32"/>
      <use x="684.757812" xlink:href="#DejaVuSans-45"/>
      <use x="720.841797" xlink:href="#DejaVuSans-32"/>
      <use x="752.628906" xlink:href="#DejaVuSans-65"/>
      <use x="821.037109" xlink:href="#DejaVuSans-109"/>
      <use x="918.449219" xlink:href="#DejaVuSans-112"/>
      <use x="981.925781" xlink:href="#DejaVuSans-101"/>
      <use x="1043.449219" xlink:href="#DejaVuSans-108"/>
     </g>
    </g>
   </g>
  </g>
  <g id="axes_3">
   <g id="patch_14">
    <path d="M 51.95 416.65 
L 557.26875 416.65 
L 557.26875 311.5 
L 51.95 311.5 
z
" style="fill:none;"/>
   </g>
   <g id="PathCollection_47">
    <g clip-path="url(#p9bcde377da)">
     <use style="stroke:#000000;" x="220.542747" xlink:href="#m714985d279" y="610.097838"/>
    </g>
   </g>
   <g id="PathCollection_48">
    <g clip-path="url(#p9bcde377da)">
     <use style="stroke:#000000;" x="66.60776" xlink:href="#m714985d279" y="847.122293"/>
    </g>
   </g>
   <g id="PathCollection_49">
    <g clip-path="url(#p9bcde377da)">
     <use style="stroke:#000000;" x="83.707471" xlink:href="#m714985d279" y="905.136338"/>
    </g>
   </g>
   <g id="PathCollection_50">
    <g clip-path="url(#p9bcde377da)"/>
   </g>
   <g id="PathCollection_51">
    <g clip-path="url(#p9bcde377da)">
     <use style="stroke:#000000;" x="81.044998" xlink:href="#m714985d279" y="386.423657"/>
    </g>
   </g>
   <g id="PathCollection_52">
    <g clip-path="url(#p9bcde377da)"/>
   </g>
   <g id="PathCollection_53">
    <g clip-path="url(#p9bcde377da)">
     <use style="stroke:#000000;" x="65.330488" xlink:href="#m714985d279" y="574.892624"/>
    </g>
   </g>
   <g id="PathCollection_54">
    <g clip-path="url(#p9bcde377da)">
     <use style="stroke:#000000;" x="55.668182" xlink:href="#m714985d279" y="540.367674"/>
    </g>
   </g>
   <g id="PathCollection_55">
    <g clip-path="url(#p9bcde377da)">
     <use style="stroke:#000000;" x="219.054659" xlink:href="#m714985d279" y="575.168762"/>
    </g>
   </g>
   <g id="PathCollection_56">
    <g clip-path="url(#p9bcde377da)">
     <use style="stroke:#000000;" x="834.14242" xlink:href="#m714985d279" y="576.799091"/>
    </g>
   </g>
   <g id="PathCollection_57">
    <g clip-path="url(#p9bcde377da)">
     <use style="stroke:#000000;" x="958.754043" xlink:href="#m714985d279" y="577.518993"/>
    </g>
   </g>
   <g id="PathCollection_58">
    <g clip-path="url(#p9bcde377da)">
     <use style="stroke:#000000;" x="206.329154" xlink:href="#m714985d279" y="387.67989"/>
    </g>
   </g>
   <g id="PathCollection_59">
    <g clip-path="url(#p9bcde377da)">
     <use style="stroke:#000000;" x="147.093549" xlink:href="#m714985d279" y="328.438041"/>
    </g>
   </g>
   <g id="PathCollection_60">
    <g clip-path="url(#p9bcde377da)">
     <use style="stroke:#000000;" x="963.796821" xlink:href="#m714985d279" y="613.924399"/>
    </g>
   </g>
   <g id="PathCollection_61">
    <g clip-path="url(#p9bcde377da)"/>
   </g>
   <g id="PathCollection_62">
    <g clip-path="url(#p9bcde377da)">
     <use style="stroke:#000000;" x="238.159913" xlink:href="#m714985d279" y="695.375677"/>
    </g>
   </g>
   <g id="PathCollection_63">
    <g clip-path="url(#p9bcde377da)">
     <use style="stroke:#000000;" x="602.980643" xlink:href="#m714985d279" y="621.16383"/>
    </g>
   </g>
   <g id="PathCollection_64">
    <g clip-path="url(#p9bcde377da)">
     <use style="stroke:#000000;" x="598.452217" xlink:href="#m714985d279" y="696.480429"/>
    </g>
   </g>
   <g id="PathCollection_65">
    <g clip-path="url(#p9bcde377da)">
     <use style="stroke:#000000;" x="631.04528" xlink:href="#m714985d279" y="623.006875"/>
    </g>
   </g>
   <g id="PathCollection_66">
    <g clip-path="url(#p9bcde377da)">
     <use style="stroke:#000000;" x="559.037358" xlink:href="#m714985d279" y="662.700996"/>
    </g>
   </g>
   <g id="PathCollection_67">
    <g clip-path="url(#p9bcde377da)">
     <use style="stroke:#000000;" x="512.295374" xlink:href="#m714985d279" y="719.350567"/>
    </g>
   </g>
   <g id="PathCollection_68">
    <g clip-path="url(#p9bcde377da)">
     <use style="stroke:#000000;" x="670.712794" xlink:href="#m714985d279" y="682.548056"/>
    </g>
   </g>
   <g id="matplotlib.axis_5">
    <g id="xtick_11">
     <g id="line2d_45">
      <g>
       <use style="stroke:#000000;stroke-width:0.8;" x="77.215938" xlink:href="#m8527c41e93" y="416.65"/>
      </g>
     </g>
     <g id="text_33">
      <!-- −60 -->
      <g transform="translate(66.663594 431.248437)scale(0.1 -0.1)">
       <use xlink:href="#DejaVuSans-8722"/>
       <use x="83.789062" xlink:href="#DejaVuSans-54"/>
       <use x="147.412109" xlink:href="#DejaVuSans-48"/>
      </g>
     </g>
    </g>
    <g id="xtick_12">
     <g id="line2d_46">
      <g>
       <use style="stroke:#000000;stroke-width:0.8;" x="178.279688" xlink:href="#m8527c41e93" y="416.65"/>
      </g>
     </g>
     <g id="text_34">
      <!-- −40 -->
      <g transform="translate(167.727344 431.248437)scale(0.1 -0.1)">
       <use xlink:href="#DejaVuSans-8722"/>
       <use x="83.789062" xlink:href="#DejaVuSans-52"/>
       <use x="147.412109" xlink:href="#DejaVuSans-48"/>
      </g>
     </g>
    </g>
    <g id="xtick_13">
     <g id="line2d_47">
      <g>
       <use style="stroke:#000000;stroke-width:0.8;" x="279.343438" xlink:href="#m8527c41e93" y="416.65"/>
      </g>
     </g>
     <g id="text_35">
      <!-- −20 -->
      <g transform="translate(268.791094 431.248437)scale(0.1 -0.1)">
       <use xlink:href="#DejaVuSans-8722"/>
       <use x="83.789062" xlink:href="#DejaVuSans-50"/>
       <use x="147.412109" xlink:href="#DejaVuSans-48"/>
      </g>
     </g>
    </g>
    <g id="xtick_14">
     <g id="line2d_48">
      <g>
       <use style="stroke:#000000;stroke-width:0.8;" x="380.407188" xlink:href="#m8527c41e93" y="416.65"/>
      </g>
     </g>
     <g id="text_36">
      <!-- 0 -->
      <g transform="translate(377.225938 431.248437)scale(0.1 -0.1)">
       <use xlink:href="#DejaVuSans-48"/>
      </g>
     </g>
    </g>
    <g id="xtick_15">
     <g id="line2d_49">
      <g>
       <use style="stroke:#000000;stroke-width:0.8;" x="481.470938" xlink:href="#m8527c41e93" y="416.65"/>
      </g>
     </g>
     <g id="text_37">
      <!-- 20 -->
      <g transform="translate(475.108438 431.248437)scale(0.1 -0.1)">
       <use xlink:href="#DejaVuSans-50"/>
       <use x="63.623047" xlink:href="#DejaVuSans-48"/>
      </g>
     </g>
    </g>
    <g id="text_38">
     <!-- x -->
     <g transform="translate(301.65 444.926562)scale(0.1 -0.1)">
      <use xlink:href="#DejaVuSans-120"/>
     </g>
    </g>
   </g>
   <g id="matplotlib.axis_6">
    <g id="ytick_11">
     <g id="line2d_50">
      <g>
       <use style="stroke:#000000;stroke-width:0.8;" x="51.95" xlink:href="#mca1b1649f6" y="311.5"/>
      </g>
     </g>
     <g id="text_39">
      <!-- −80 -->
      <g transform="translate(23.845313 315.299219)scale(0.1 -0.1)">
       <use xlink:href="#DejaVuSans-8722"/>
       <use x="83.789062" xlink:href="#DejaVuSans-56"/>
       <use x="147.412109" xlink:href="#DejaVuSans-48"/>
      </g>
     </g>
    </g>
    <g id="ytick_12">
     <g id="line2d_51">
      <g>
       <use style="stroke:#000000;stroke-width:0.8;" x="51.95" xlink:href="#mca1b1649f6" y="337.7875"/>
      </g>
     </g>
     <g id="text_40">
      <!-- −70 -->
      <g transform="translate(23.845313 341.586719)scale(0.1 -0.1)">
       <use xlink:href="#DejaVuSans-8722"/>
       <use x="83.789062" xlink:href="#DejaVuSans-55"/>
       <use x="147.412109" xlink:href="#DejaVuSans-48"/>
      </g>
     </g>
    </g>
    <g id="ytick_13">
     <g id="line2d_52">
      <g>
       <use style="stroke:#000000;stroke-width:0.8;" x="51.95" xlink:href="#mca1b1649f6" y="364.075"/>
      </g>
     </g>
     <g id="text_41">
      <!-- −60 -->
      <g transform="translate(23.845313 367.874219)scale(0.1 -0.1)">
       <use xlink:href="#DejaVuSans-8722"/>
       <use x="83.789062" xlink:href="#DejaVuSans-54"/>
       <use x="147.412109" xlink:href="#DejaVuSans-48"/>
      </g>
     </g>
    </g>
    <g id="ytick_14">
     <g id="line2d_53">
      <g>
       <use style="stroke:#000000;stroke-width:0.8;" x="51.95" xlink:href="#mca1b1649f6" y="390.3625"/>
      </g>
     </g>
     <g id="text_42">
      <!-- −50 -->
      <g transform="translate(23.845313 394.161719)scale(0.1 -0.1)">
       <use xlink:href="#DejaVuSans-8722"/>
       <use x="83.789062" xlink:href="#DejaVuSans-53"/>
       <use x="147.412109" xlink:href="#DejaVuSans-48"/>
      </g>
     </g>
    </g>
    <g id="ytick_15">
     <g id="line2d_54">
      <g>
       <use style="stroke:#000000;stroke-width:0.8;" x="51.95" xlink:href="#mca1b1649f6" y="416.65"/>
      </g>
     </g>
     <g id="text_43">
      <!-- −40 -->
      <g transform="translate(23.845313 420.449219)scale(0.1 -0.1)">
       <use xlink:href="#DejaVuSans-8722"/>
       <use x="83.789062" xlink:href="#DejaVuSans-52"/>
       <use x="147.412109" xlink:href="#DejaVuSans-48"/>
      </g>
     </g>
    </g>
    <g id="text_44">
     <!-- y -->
     <g transform="translate(17.765625 367.034375)rotate(-90)scale(0.1 -0.1)">
      <use xlink:href="#DejaVuSans-121"/>
     </g>
    </g>
   </g>
   <g id="line2d_55">
    <path clip-path="url(#p9bcde377da)" d="M 363.083778 355.025876 
L 363.197641 349.339022 
" style="fill:none;stroke:#0000ff;stroke-linecap:square;"/>
   </g>
   <g id="line2d_56">
    <path clip-path="url(#p9bcde377da)" d="M 363.197641 349.339022 
L 338.985195 349.207817 
" style="fill:none;stroke:#0000ff;stroke-linecap:square;"/>
   </g>
   <g id="line2d_57">
    <path clip-path="url(#p9bcde377da)" d="M 338.985195 349.207817 
L 338.871329 354.894681 
" style="fill:none;stroke:#0000ff;stroke-linecap:square;"/>
   </g>
   <g id="line2d_58">
    <path clip-path="url(#p9bcde377da)" d="M 338.871329 354.894681 
L 363.083778 355.025876 
" style="fill:none;stroke:#0000ff;stroke-linecap:square;"/>
   </g>
   <g id="line2d_59">
    <path clip-path="url(#p9bcde377da)" d="M 169.012837 478.280612 
L 169.040403 474.573889 
L 169.350232 450.941608 
L 170.147811 404.875157 
L 170.752743 398.105943 
L 171.135745 395.122366 
L 171.533957 393.016691 
L 172.120556 390.863323 
L 172.893231 388.728887 
L 173.848742 386.662491 
L 174.961336 384.686627 
L 176.243042 382.805666 
L 177.699179 381.003495 
L 179.330597 379.245546 
L 182.154895 376.674858 
L 185.377887 374.220904 
L 188.917821 371.950139 
L 192.769319 369.852977 
L 195.641442 368.54872 
L 200.472025 366.686602 
L 203.998581 365.537808 
L 207.665855 364.52108 
L 213.274106 363.248472 
L 218.96697 362.227352 
L 224.817101 361.512354 
L 230.8447 361.089789 
L 239.027909 360.816639 
L 245.125443 360.812538 
L 249.028476 361.085336 
L 252.648002 361.660145 
L 255.902588 362.556628 
L 258.80644 363.75509 
L 261.428519 365.224757 
L 269.309368 370.281148 
L 272.189047 371.687088 
L 275.247611 372.77029 
L 278.494718 373.498003 
L 281.934212 373.89596 
L 285.587144 374.021138 
L 289.480722 373.937445 
L 299.871785 373.265888 
L 324.004353 371.689404 
L 336.2615 371.269928 
L 350.453974 370.996989 
L 372.859107 370.869835 
L 440.024691 370.897472 
L 577 370.876373 
L 577 370.876373 
" style="fill:none;stroke:#000000;stroke-linecap:square;stroke-width:0.5;"/>
   </g>
   <g id="line2d_60">
    <path clip-path="url(#p9bcde377da)" d="M 194.44876 369.336605 
L 195.481938 368.465744 
L 196.439679 367.531784 
L 198.76283 367.278951 
L 200.235668 366.563645 
L 201.652118 365.806702 
L 204.129262 365.60579 
L 205.779454 364.988854 
L 208.255518 364.827833 
L 208.971211 363.78029 
L 209.724854 362.776335 
L 213.30847 363.266349 
L 214.776215 362.674925 
L 217.898561 362.971999 
L 219.3099 362.40575 
L 220.661895 361.83615 
L 221.933179 361.248654 
L 225.050538 361.633792 
L 226.117119 360.978524 
L 230.092822 361.865093 
L 231.377587 361.367005 
L 232.528845 360.812606 
L 234.078208 360.479096 
L 237.180581 360.967195 
L 238.887345 360.743515 
L 240.655885 360.565149 
L 242.83826 360.631644 
L 245.706769 361.114953 
L 247.661215 361.204269 
L 248.780509 360.95634 
L 250.851048 361.316644 
L 253.175126 361.934363 
L 253.918826 361.860366 
L 255.461766 362.327305 
L 257.140194 362.987413 
L 259.351635 364.03871 
L 260.623318 364.707891 
L 261.34068 365.179062 
L 262.650503 366.019887 
L 263.940914 366.88566 
L 265.135465 367.710129 
L 266.659945 368.683731 
L 268.314589 369.684598 
L 268.930645 370.08413 
L 270.749363 371.031159 
L 272.479983 371.838437 
L 273.710725 372.281586 
L 275.431499 372.865951 
L 276.801022 373.153106 
L 278.93773 373.728466 
L 280.046357 373.661245 
L 281.749327 373.79978 
L 283.486504 373.860303 
L 285.747936 374.104785 
L 287.546425 374.02526 
L 289.641471 374.02107 
L 291.048416 373.587649 
L 293.469127 373.628841 
L 295.271551 373.330664 
L 297.8106 373.419106 
L 300.373924 373.527109 
L 301.751334 373.026646 
L 303.50775 372.735371 
L 306.640416 373.172453 
L 307.879764 372.636744 
L 309.588773 372.353672 
L 311.975601 372.428185 
L 314.321035 372.480936 
L 315.998884 372.182975 
L 318.031797 372.062977 
L 320.514534 372.182786 
L 321.643068 371.612723 
L 324.210288 371.796535 
L 326.364078 371.768881 
L 328.001002 371.477637 
" style="fill:none;stroke:#ff0000;stroke-linecap:square;"/>
   </g>
   <g id="patch_15">
    <path d="M 51.95 416.65 
L 51.95 311.5 
" style="fill:none;stroke:#000000;stroke-linecap:square;stroke-linejoin:miter;stroke-width:0.8;"/>
   </g>
   <g id="patch_16">
    <path d="M 557.26875 416.65 
L 557.26875 311.5 
" style="fill:none;stroke:#000000;stroke-linecap:square;stroke-linejoin:miter;stroke-width:0.8;"/>
   </g>
   <g id="patch_17">
    <path d="M 51.95 416.65 
L 557.26875 416.65 
" style="fill:none;stroke:#000000;stroke-linecap:square;stroke-linejoin:miter;stroke-width:0.8;"/>
   </g>
   <g id="patch_18">
    <path d="M 51.95 311.5 
L 557.26875 311.5 
" style="fill:none;stroke:#000000;stroke-linecap:square;stroke-linejoin:miter;stroke-width:0.8;"/>
   </g>
   <g id="legend_3">
    <g id="patch_19">
     <path d="M 397.507813 378.2125 
L 550.26875 378.2125 
Q 552.26875 378.2125 552.26875 376.2125 
L 552.26875 318.5 
Q 552.26875 316.5 550.26875 316.5 
L 397.507813 316.5 
Q 395.507813 316.5 395.507813 318.5 
L 395.507813 376.2125 
Q 395.507813 378.2125 397.507813 378.2125 
z
" style="fill:#ffffff;opacity:0.8;stroke:#cccccc;stroke-linejoin:miter;"/>
    </g>
    <g id="line2d_61">
     <path d="M 399.507813 324.598437 
L 419.507813 324.598437 
" style="fill:none;stroke:#0000ff;stroke-linecap:square;"/>
    </g>
    <g id="line2d_62"/>
    <g id="text_45">
     <!-- Egofahrzeug -->
     <g transform="translate(427.507813 328.098437)scale(0.1 -0.1)">
      <use xlink:href="#DejaVuSans-69"/>
      <use x="63.183594" xlink:href="#DejaVuSans-103"/>
      <use x="126.660156" xlink:href="#DejaVuSans-111"/>
      <use x="187.841797" xlink:href="#DejaVuSans-102"/>
      <use x="223.046875" xlink:href="#DejaVuSans-97"/>
      <use x="284.326172" xlink:href="#DejaVuSans-104"/>
      <use x="347.705078" xlink:href="#DejaVuSans-114"/>
      <use x="388.818359" xlink:href="#DejaVuSans-122"/>
      <use x="441.308594" xlink:href="#DejaVuSans-101"/>
      <use x="502.832031" xlink:href="#DejaVuSans-117"/>
      <use x="566.210938" xlink:href="#DejaVuSans-103"/>
     </g>
    </g>
    <g id="line2d_63">
     <path d="M 399.507813 339.276562 
L 419.507813 339.276562 
" style="fill:none;stroke:#000000;stroke-linecap:square;stroke-width:0.5;"/>
    </g>
    <g id="line2d_64"/>
    <g id="text_46">
     <!-- Ground Truth - Fahrzeug -->
     <g transform="translate(427.507813 342.776562)scale(0.1 -0.1)">
      <use xlink:href="#DejaVuSans-71"/>
      <use x="77.490234" xlink:href="#DejaVuSans-114"/>
      <use x="116.353516" xlink:href="#DejaVuSans-111"/>
      <use x="177.535156" xlink:href="#DejaVuSans-117"/>
      <use x="240.914062" xlink:href="#DejaVuSans-110"/>
      <use x="304.292969" xlink:href="#DejaVuSans-100"/>
      <use x="367.769531" xlink:href="#DejaVuSans-32"/>
      <use x="399.556641" xlink:href="#DejaVuSans-84"/>
      <use x="445.890625" xlink:href="#DejaVuSans-114"/>
      <use x="487.003906" xlink:href="#DejaVuSans-117"/>
      <use x="550.382812" xlink:href="#DejaVuSans-116"/>
      <use x="589.591797" xlink:href="#DejaVuSans-104"/>
      <use x="652.970703" xlink:href="#DejaVuSans-32"/>
      <use x="684.757812" xlink:href="#DejaVuSans-45"/>
      <use x="720.841797" xlink:href="#DejaVuSans-32"/>
      <use x="752.628906" xlink:href="#DejaVuSans-70"/>
      <use x="801.023438" xlink:href="#DejaVuSans-97"/>
      <use x="862.302734" xlink:href="#DejaVuSans-104"/>
      <use x="925.681641" xlink:href="#DejaVuSans-114"/>
      <use x="966.794922" xlink:href="#DejaVuSans-122"/>
      <use x="1019.285156" xlink:href="#DejaVuSans-101"/>
      <use x="1080.808594" xlink:href="#DejaVuSans-117"/>
      <use x="1144.1875" xlink:href="#DejaVuSans-103"/>
     </g>
    </g>
    <g id="line2d_65">
     <path d="M 399.507813 353.954687 
L 419.507813 353.954687 
" style="fill:none;stroke:#ff0000;stroke-linecap:square;"/>
    </g>
    <g id="line2d_66"/>
    <g id="text_47">
     <!-- Sensordaten - Fahrzeug -->
     <g transform="translate(427.507813 357.454687)scale(0.1 -0.1)">
      <use xlink:href="#DejaVuSans-83"/>
      <use x="63.476562" xlink:href="#DejaVuSans-101"/>
      <use x="125" xlink:href="#DejaVuSans-110"/>
      <use x="188.378906" xlink:href="#DejaVuSans-115"/>
      <use x="240.478516" xlink:href="#DejaVuSans-111"/>
      <use x="301.660156" xlink:href="#DejaVuSans-114"/>
      <use x="341.023438" xlink:href="#DejaVuSans-100"/>
      <use x="404.5" xlink:href="#DejaVuSans-97"/>
      <use x="465.779297" xlink:href="#DejaVuSans-116"/>
      <use x="504.988281" xlink:href="#DejaVuSans-101"/>
      <use x="566.511719" xlink:href="#DejaVuSans-110"/>
      <use x="629.890625" xlink:href="#DejaVuSans-32"/>
      <use x="661.677734" xlink:href="#DejaVuSans-45"/>
      <use x="697.761719" xlink:href="#DejaVuSans-32"/>
      <use x="729.548828" xlink:href="#DejaVuSans-70"/>
      <use x="777.943359" xlink:href="#DejaVuSans-97"/>
      <use x="839.222656" xlink:href="#DejaVuSans-104"/>
      <use x="902.601562" xlink:href="#DejaVuSans-114"/>
      <use x="943.714844" xlink:href="#DejaVuSans-122"/>
      <use x="996.205078" xlink:href="#DejaVuSans-101"/>
      <use x="1057.728516" xlink:href="#DejaVuSans-117"/>
      <use x="1121.107422" xlink:href="#DejaVuSans-103"/>
     </g>
    </g>
    <g id="PathCollection_69">
     <g>
      <use style="stroke:#000000;" x="409.507813" xlink:href="#m714985d279" y="369.507812"/>
     </g>
    </g>
    <g id="text_48">
     <!-- Ground Truth - Ampel -->
     <g transform="translate(427.507813 372.132812)scale(0.1 -0.1)">
      <use xlink:href="#DejaVuSans-71"/>
      <use x="77.490234" xlink:href="#DejaVuSans-114"/>
      <use x="116.353516" xlink:href="#DejaVuSans-111"/>
      <use x="177.535156" xlink:href="#DejaVuSans-117"/>
      <use x="240.914062" xlink:href="#DejaVuSans-110"/>
      <use x="304.292969" xlink:href="#DejaVuSans-100"/>
      <use x="367.769531" xlink:href="#DejaVuSans-32"/>
      <use x="399.556641" xlink:href="#DejaVuSans-84"/>
      <use x="445.890625" xlink:href="#DejaVuSans-114"/>
      <use x="487.003906" xlink:href="#DejaVuSans-117"/>
      <use x="550.382812" xlink:href="#DejaVuSans-116"/>
      <use x="589.591797" xlink:href="#DejaVuSans-104"/>
      <use x="652.970703" xlink:href="#DejaVuSans-32"/>
      <use x="684.757812" xlink:href="#DejaVuSans-45"/>
      <use x="720.841797" xlink:href="#DejaVuSans-32"/>
      <use x="752.628906" xlink:href="#DejaVuSans-65"/>
      <use x="821.037109" xlink:href="#DejaVuSans-109"/>
      <use x="918.449219" xlink:href="#DejaVuSans-112"/>
      <use x="981.925781" xlink:href="#DejaVuSans-101"/>
      <use x="1043.449219" xlink:href="#DejaVuSans-108"/>
     </g>
    </g>
   </g>
  </g>
 </g>
 <defs>
  <clipPath id="p1032f55ee1">
   <rect height="105.15" width="505.31875" x="51.95" y="14.4"/>
  </clipPath>
  <clipPath id="pe8b0fc11a9">
   <rect height="105.15" width="505.31875" x="51.95" y="162.95"/>
  </clipPath>
  <clipPath id="p9bcde377da">
   <rect height="105.15" width="505.31875" x="51.95" y="311.5"/>
  </clipPath>
 </defs>
</svg>
